<svg width="65" height="64" viewBox="0 0 65 64" fill="none" xmlns="http://www.w3.org/2000/svg">
<g filter="url(#filter0_d)">
<path d="M36.4625 3.88348C37.7642 3.88571 39.0118 4.40437 39.9314 5.32557C40.851 6.24678 41.3675 7.49526 41.3675 8.79692V19.0797C41.3686 19.7253 41.2423 20.3647 40.9958 20.9613C40.7492 21.5579 40.3873 22.1 39.9309 22.5565C39.4744 23.013 38.9323 23.3749 38.3357 23.6214C37.739 23.8679 37.0996 23.9943 36.4541 23.9931H26.1713C24.8682 23.9931 23.6184 23.4755 22.697 22.554C21.7755 21.6326 21.2578 20.3828 21.2578 19.0797V8.79692C21.2601 7.49448 21.7785 6.24602 22.6994 5.32506C23.6204 4.40409 24.8688 3.88571 26.1713 3.88348H36.4625ZM36.4625 0H26.1713C23.841 0.0066919 21.6083 0.935925 19.9613 2.58446C18.3144 4.233 17.3873 6.46666 17.3828 8.79692V19.0797C17.3895 21.4077 18.3178 23.6383 19.9648 25.2837C21.6118 26.9291 23.8433 27.8553 26.1713 27.8597H36.4625C38.792 27.8575 41.0257 26.9323 42.6744 25.2867C44.3232 23.6411 45.2527 21.4092 45.2594 19.0797V8.79692C45.2572 6.46452 44.3297 4.22829 42.6804 2.57903C41.0311 0.929769 38.7949 0.00223517 36.4625 0V0Z" fill="#42210B"/>
<path d="M52.0643 12.8999H10.5871C6.111 12.8999 2.48242 16.5285 2.48242 21.0046V49.5397C2.48242 54.0157 6.111 57.6443 10.5871 57.6443H52.0643C56.5404 57.6443 60.1689 54.0157 60.1689 49.5397V21.0046C60.1689 16.5285 56.5404 12.8999 52.0643 12.8999Z" fill="#F8A861"/>
<path d="M32.3681 12.8999H9.65817C7.86693 12.8999 6.14906 13.6115 4.88246 14.8781C3.61586 16.1447 2.9043 17.8625 2.9043 19.6538V50.8567C2.9043 51.7436 3.07899 52.6219 3.4184 53.4413C3.75782 54.2607 4.25531 55.0052 4.88246 55.6324C5.50962 56.2595 6.25416 56.757 7.07358 57.0964C7.89299 57.4359 8.77124 57.6105 9.65817 57.6105H32.3681V12.8999Z" fill="#F8C199"/>
<path d="M52.4523 14.4198C54.1271 14.4198 55.7333 15.0851 56.9176 16.2694C58.1018 17.4536 58.7671 19.0599 58.7671 20.7347V49.8101C58.7671 51.4849 58.1018 53.0911 56.9176 54.2754C55.7333 55.4597 54.1271 56.125 52.4523 56.125H10.1983C8.52354 56.125 6.91733 55.4597 5.73306 54.2754C4.54879 53.0911 3.88348 51.4849 3.88348 49.8101V20.7347C3.88348 19.0599 4.54879 17.4536 5.73306 16.2694C6.91733 15.0851 8.52354 14.4198 10.1983 14.4198H52.4523ZM52.4523 10.5363H10.1983C7.49427 10.5386 4.90157 11.6137 2.9895 13.5258C1.07742 15.4379 0.00223571 18.0306 0 20.7347L0 49.8101C0.00446992 52.5127 1.08064 55.1032 2.99248 57.0135C4.90431 58.9237 7.49573 59.9978 10.1983 60H52.4523C55.1549 59.9978 57.7463 58.9237 59.6581 57.0135C61.57 55.1032 62.6462 52.5127 62.6506 49.8101V20.7347C62.6484 18.0306 61.5732 15.4379 59.6611 13.5258C57.749 11.6137 55.1564 10.5386 52.4523 10.5363Z" fill="#42210B"/>
<path d="M42.1277 45.2595H21.1062C19.2443 45.2172 17.4268 44.6824 15.8386 43.7096C14.2504 42.7368 12.9482 41.3608 12.0645 39.7214C12.0052 39.607 11.9544 39.4885 11.9125 39.3668L3.90918 14.5041L7.59848 13.3137L15.5343 37.9907C16.0929 38.9863 16.8996 39.8205 17.876 40.4122C18.8523 41.004 19.9651 41.3331 21.1062 41.3676H42.1277C43.2636 41.3298 44.3704 40.999 45.3407 40.4073C46.3111 39.8156 47.112 38.9832 47.6658 37.9907L54.5379 13.854L58.2525 14.9178L51.3383 39.2993C51.2967 39.4467 51.2372 39.5885 51.161 39.7214C50.2793 41.3607 48.9787 42.7369 47.3919 43.7098C45.805 44.6827 43.9886 45.2174 42.1277 45.2595Z" fill="#42210B"/>
<path d="M34.4618 36.1081H27.7079C27.4427 36.1256 27.1767 36.0885 26.9265 35.999C26.6762 35.9096 26.4469 35.7697 26.2529 35.5881C26.0589 35.4065 25.9042 35.1869 25.7985 34.9431C25.6927 34.6993 25.6382 34.4363 25.6382 34.1706C25.6382 33.9048 25.6927 33.6418 25.7985 33.398C25.9042 33.1542 26.0589 32.9347 26.2529 32.753C26.4469 32.5714 26.6762 32.4315 26.9265 32.3421C27.1767 32.2526 27.4427 32.2155 27.7079 32.233H34.4618C34.7269 32.2155 34.9929 32.2526 35.2432 32.3421C35.4935 32.4315 35.7227 32.5714 35.9167 32.753C36.1107 32.9347 36.2654 33.1542 36.3712 33.398C36.4769 33.6418 36.5315 33.9048 36.5315 34.1706C36.5315 34.4363 36.4769 34.6993 36.3712 34.9431C36.2654 35.1869 36.1107 35.4065 35.9167 35.5881C35.7227 35.7697 35.4935 35.9096 35.2432 35.999C34.9929 36.0885 34.7269 36.1256 34.4618 36.1081Z" fill="#42210B"/>
<path d="M43.8493 22.8366H36.0233C35.5083 22.8366 35.0144 22.632 34.6503 22.2679C34.2861 21.9037 34.0815 21.4098 34.0815 20.8949C34.0815 20.3799 34.2861 19.886 34.6503 19.5218C35.0144 19.1577 35.5083 18.9531 36.0233 18.9531H43.8493C44.3643 18.9531 44.8582 19.1577 45.2224 19.5218C45.5865 19.886 45.7911 20.3799 45.7911 20.8949C45.7911 21.4098 45.5865 21.9037 45.2224 22.2679C44.8582 22.632 44.3643 22.8366 43.8493 22.8366Z" fill="white"/>
</g>
<defs>
<filter id="filter0_d" x="0" y="0" width="64.6506" height="64" filterUnits="userSpaceOnUse" color-interpolation-filters="sRGB">
<feFlood flood-opacity="0" result="BackgroundImageFix"/>
<feColorMatrix in="SourceAlpha" type="matrix" values="0 0 0 0 0 0 0 0 0 0 0 0 0 0 0 0 0 0 127 0"/>
<feOffset dx="2" dy="4"/>
<feColorMatrix type="matrix" values="0 0 0 0 0 0 0 0 0 0 0 0 0 0 0 0 0 0 0.1 0"/>
<feBlend mode="normal" in2="BackgroundImageFix" result="effect1_dropShadow"/>
<feBlend mode="normal" in="SourceGraphic" in2="effect1_dropShadow" result="shape"/>
</filter>
</defs>
</svg>
