<svg width="70" height="70" viewBox="0 0 70 70" fill="none" xmlns="http://www.w3.org/2000/svg">
<path d="M70 0H0V70H70V0Z" fill="#CD382D"/>
<path d="M43.337 25.0355L8.09546 46.424L43.337 33.7855L61.3235 42.5355L43.337 25.0355Z" fill="#FDFDFD"/>
<path d="M8.93902 54.8589H6.54502L6.21252 55.9999H4.05652L6.62552 49.1714H8.92502L11.4905 55.9999H9.28202L8.93902 54.8589ZM8.50152 53.3819L7.74902 50.9319L7.00352 53.3819H8.50152Z" fill="white"/>
<path d="M11.683 49.1575H18.095V50.8445H15.946V56H13.846V50.8445H11.683V49.1575Z" fill="white"/>
<path d="M23.2504 54.8589H20.8529L20.5204 55.9999H18.3679L20.9334 49.1714H23.2364L25.8019 55.9999H23.5899L23.2504 54.8589ZM22.8129 53.3819L22.0569 50.9319L21.3114 53.3819H22.8129Z" fill="white"/>
<path d="M29.631 49.1575H32.403L33.474 53.312L34.524 49.1575H37.296V56H35.567V50.778L34.251 56H32.6865L31.3565 50.792V56H29.631V49.1575Z" fill="white"/>
<path d="M38.6505 49.1575H44.3065V50.617H40.768V51.702H44.051V53.102H40.768V54.446H44.408V56H38.6505V49.1575Z" fill="white"/>
<path d="M51.7545 56H49.378L48.5555 54.25C48.4421 53.9693 48.2889 53.7065 48.1005 53.4695C48.0398 53.4151 47.9691 53.3732 47.8922 53.3461C47.8153 53.3191 47.7339 53.3075 47.6525 53.312V56H45.5525V49.1575H47.6525V51.8C47.7334 51.7989 47.8132 51.7809 47.8867 51.7471C47.9602 51.7133 48.0259 51.6646 48.0795 51.604C48.281 51.2746 48.442 50.922 48.559 50.554C48.6655 50.2233 48.8276 49.9132 49.0385 49.637C49.2518 49.4236 49.5277 49.2838 49.826 49.238C50.39 49.1424 50.9621 49.1026 51.534 49.119V50.561H51.429C51.1464 50.5401 50.8648 50.6126 50.6275 50.7675C50.4257 50.9434 50.2777 51.1727 50.2005 51.429C50.1259 51.6811 50.0075 51.9181 49.8505 52.129C49.7053 52.2868 49.5239 52.4069 49.322 52.479C49.627 52.5808 49.9014 52.7577 50.12 52.9935C50.4118 53.3388 50.6544 53.7227 50.841 54.1345L51.7545 56Z" fill="white"/>
<path d="M52.5 49.1575H58.156V50.617H54.6175V51.702H57.904V53.102H54.6175V54.446H58.261V56H52.5V49.1575Z" fill="white"/>
<path d="M59.4089 49.1575H61.5089V51.548H63.8154V49.1575H65.9364V56H63.8154V53.2385H61.5089V56H59.4089V49.1575Z" fill="white"/>
</svg>
