<svg width="70" height="70" viewBox="0 0 70 70" fill="none" xmlns="http://www.w3.org/2000/svg">
<path d="M70 0H0V70H70V0Z" fill="#5D99F5"/>
<path d="M58.5026 41.0761L50.8516 36.2321C51.1246 37.9821 51.4781 39.5676 51.7931 41.2371C51.519 41.016 51.2998 40.7345 51.1526 40.4146C50.0711 38.7381 49.0036 37.0546 47.9326 35.3676C47.891 35.2755 47.8171 35.2018 47.7249 35.1605C47.6326 35.1192 47.5285 35.1132 47.4321 35.1436C46.0671 35.4516 44.6986 35.7316 43.3301 36.0291L38.1501 37.1596C37.1001 37.3976 36.0186 37.6426 34.9511 37.8596C33.6806 38.1361 32.4136 38.4021 31.1466 38.6786C29.6031 39.0286 28.0631 39.3541 26.5231 39.6901L22.6451 40.5231C21.5951 40.7541 20.5451 40.9991 19.4951 41.2231C18.4451 41.4471 17.4266 41.6641 16.3941 41.8846L14.1996 42.3676C14.1051 42.3186 13.9091 42.4551 13.9231 42.2136C14.6511 41.9931 15.3826 41.7796 16.1071 41.5451C17.9446 40.9571 19.7821 40.3586 21.6161 39.7671C22.7431 39.4171 23.8666 39.0391 24.9936 38.6856C25.1896 38.6261 25.2806 38.5316 25.2106 38.3356C25.0206 37.7022 24.7795 37.0854 24.4896 36.4911C24.3216 36.1866 24.1676 36.1761 23.8946 36.3651C22.9825 37.0396 21.8855 37.4183 20.7516 37.4501C18.5816 37.4746 16.9541 36.4596 15.7396 34.7271C14.642 33.1468 14.2119 31.1975 14.5426 29.3021C14.6795 28.3173 15.1128 27.3976 15.7848 26.6649C16.4568 25.9323 17.3358 25.4214 18.3051 25.2001C18.8888 25.0643 19.4945 25.0523 20.0831 25.1651C21.2101 25.3926 21.6651 26.2151 21.9661 27.1986C22.0839 27.5096 22.1327 27.8425 22.1091 28.1743C22.0855 28.5061 21.9901 28.8288 21.8296 29.1201C21.7328 29.3365 21.5554 29.5066 21.3351 29.5942C21.1148 29.6817 20.869 29.6799 20.6501 29.5891C19.6001 29.2076 19.1101 29.5716 18.9211 30.8176C18.7881 31.6821 19.2711 32.3821 20.1286 32.7216C21.1086 33.1206 22.3056 32.5326 22.7466 31.4476C22.9153 30.9276 23.0222 30.3895 23.0651 29.8446C23.2652 28.2025 23.7384 26.6055 24.4651 25.1196C25.4066 23.3451 26.9151 22.2321 28.7701 21.5671C30.2156 21.0491 31.7311 20.8671 33.2396 20.6256C34.4016 20.4506 35.5986 20.3911 36.6906 19.8766C37.2663 19.6141 37.8101 19.2865 38.3111 18.9001C39.0916 18.349 40 18.0069 40.9501 17.9061C41.6688 17.7446 42.3582 17.473 42.9941 17.1011C43.1131 17.0416 43.1376 16.9366 43.1691 16.8211C43.4001 15.9356 44.0896 15.5821 44.9856 15.8726C45.6856 16.1001 46.4031 15.9041 47.1066 15.8376C47.4454 15.7819 47.7919 15.7941 48.1259 15.8734C48.46 15.9527 48.7749 16.0976 49.0526 16.2996C49.4183 16.5764 49.8139 16.8112 50.2321 16.9996C51.1316 17.4161 51.3486 17.9026 51.0651 18.8406C50.9356 19.2641 50.7851 19.6841 50.6206 20.0971C50.5949 20.2166 50.5451 20.3297 50.4743 20.4294C50.4034 20.5291 50.313 20.6133 50.2085 20.6769C50.104 20.7404 49.9876 20.782 49.8665 20.7991C49.7454 20.8161 49.6221 20.8083 49.5041 20.7761C48.9926 20.6709 48.4651 20.6709 47.9536 20.7761C47.7049 20.833 47.4713 20.9429 47.2689 21.0983C47.0666 21.2536 46.9001 21.4508 46.7808 21.6764C46.6615 21.902 46.5923 22.1506 46.5779 22.4053C46.5634 22.6601 46.6041 22.915 46.6971 23.1526C46.9491 23.8841 47.3306 24.5526 47.5616 25.3051C47.6784 25.7093 47.7076 26.1339 47.6473 26.5503C47.5869 26.9668 47.4384 27.3656 47.2116 27.7201C47.0401 28.0316 46.8266 28.3221 46.6551 28.6301C46.4836 28.9381 46.3051 29.1586 45.9061 29.0816C45.7416 29.0501 45.6996 29.1796 45.6471 29.2986C45.4907 29.6897 45.3734 30.0953 45.2971 30.5096C45.1695 30.9892 45.0817 31.4785 45.0346 31.9726C45.0031 32.5466 45.0941 32.6306 45.6751 32.6306C46.22 32.5783 46.7548 32.4499 47.2641 32.2491C47.8871 32.0741 48.5101 31.8991 49.1296 31.7066C49.2159 31.6817 49.3077 31.6839 49.3927 31.7126C49.4778 31.7414 49.5521 31.7955 49.6056 31.8676L54.8066 37.2331C55.9126 38.3776 57.0081 39.5291 58.1106 40.6771C58.2401 40.8136 58.3626 40.9606 58.4886 41.1041L58.5026 41.0761ZM48.1986 17.1081C48.0026 17.1851 47.8486 17.2481 47.6736 17.3181C47.6036 17.3496 47.5266 17.4021 47.5371 17.4861C47.5476 17.5701 47.6456 17.5701 47.7191 17.5771C48.1356 17.6086 48.5451 17.7311 48.9686 17.7346C49.23 17.7438 49.479 17.8484 49.6686 18.0286C49.7824 18.1133 49.8678 18.2306 49.9135 18.365C49.9591 18.4994 49.9628 18.6445 49.9241 18.7811C49.8821 18.9156 49.8006 19.0344 49.69 19.1218C49.5795 19.2092 49.4452 19.2612 49.3046 19.2711C48.9388 19.3282 48.5685 19.3504 48.1986 19.3376C48.1099 19.3262 48.0198 19.3407 47.9392 19.3791C47.8585 19.4176 47.7906 19.4785 47.7436 19.5546C47.6174 19.7552 47.4507 19.9273 47.2543 20.0599C47.0578 20.1924 46.8358 20.2826 46.6026 20.3246C46.2908 20.3682 46.0045 20.5208 45.7944 20.7552C45.5843 20.9897 45.4639 21.2909 45.4546 21.6056C45.4371 21.7351 45.4336 21.8611 45.4266 21.9871C45.4072 22.6634 45.4459 23.3403 45.5421 24.0101C45.5736 24.2831 45.5141 24.4476 45.1921 24.3391C45.1457 24.318 45.0939 24.3118 45.0438 24.3212C44.9937 24.3306 44.9477 24.3552 44.9121 24.3916C44.7788 24.5219 44.6072 24.6059 44.4225 24.6311C44.2378 24.6563 44.0499 24.6214 43.8866 24.5316C43.7431 24.4791 43.5646 24.3881 43.4771 24.5316C43.3896 24.6751 43.5996 24.7206 43.6871 24.8046C43.7535 24.8616 43.8166 24.9224 43.8761 24.9866C44.2751 25.4486 44.4011 26.1276 43.7571 26.4846C43.7029 26.5055 43.6569 26.5434 43.626 26.5926C43.5951 26.6418 43.5809 26.6996 43.5856 26.7576C43.7186 27.6046 43.2356 28.2451 42.8646 28.9171C42.2192 30.0059 41.8582 31.2396 41.8146 32.5046C41.7901 33.2991 42.0806 33.6036 42.8646 33.6316C43.2584 33.6555 43.6489 33.7188 44.0301 33.8206C44.5271 33.9361 44.6391 34.1391 44.5236 34.6361C44.4886 34.7901 44.5236 34.8706 44.6846 34.8111C45.3216 34.5801 45.9866 34.4611 46.6341 34.2826C47.0296 34.1741 47.0926 33.9851 46.8826 33.6351C46.7554 33.4275 46.5725 33.2597 46.3547 33.1508C46.1369 33.0419 45.893 32.9963 45.6506 33.0191C44.7721 33.0191 44.5306 32.7566 44.6006 31.8851C44.7162 30.8862 44.9439 29.9035 45.2796 28.9556C45.3391 28.7666 45.4371 28.5426 45.7031 28.6056C46.0531 28.6861 46.2386 28.4796 46.4031 28.2101C46.5046 28.0351 46.6166 27.8601 46.7286 27.6956C47.0513 27.2482 47.2376 26.717 47.2649 26.1661C47.2922 25.6152 47.1594 25.0681 46.8826 24.5911C46.6222 24.116 46.4089 23.6166 46.2456 23.1001C46.0871 22.5841 46.1279 22.0275 46.3599 21.5402C46.5919 21.0529 46.9982 20.6703 47.4986 20.4681C48.0773 20.2247 48.7184 20.1719 49.3291 20.3176C49.9136 20.4506 50.1341 20.3176 50.2846 19.8486C50.4106 19.4636 50.5261 19.0716 50.6521 18.6866C50.8586 18.0566 50.7431 17.7486 50.1446 17.4476C49.7358 17.2736 49.3511 17.0478 49.0001 16.7756C48.4086 16.2541 47.7261 16.2051 46.9946 16.2856C46.2631 16.3661 45.4406 16.5096 44.6496 16.2296C44.5269 16.1903 44.3966 16.181 44.2696 16.2026C44.1427 16.2241 44.0227 16.2758 43.9198 16.3533C43.817 16.4308 43.7342 16.5318 43.6785 16.6479C43.6227 16.764 43.5957 16.8918 43.5996 17.0206C43.6044 17.097 43.5863 17.1731 43.5477 17.2392C43.509 17.3052 43.4515 17.3583 43.3826 17.3916C42.6028 17.8495 41.7524 18.1747 40.8661 18.3541C40.037 18.4441 39.2469 18.7533 38.5771 19.2501C38.1921 19.5441 37.7651 19.7751 37.3556 20.0341C36.1586 20.7831 34.7726 20.8531 33.4391 21.0841C32.0391 21.3291 30.6391 21.4516 29.2776 21.8716C27.2441 22.4981 25.6551 23.6776 24.7276 25.6376C24.0243 27.2229 23.5777 28.9099 23.4046 30.6356C23.3583 31.0891 23.213 31.527 22.9789 31.9183C22.7449 32.3096 22.4278 32.6447 22.0501 32.9001C21.8558 33.0583 21.6319 33.1763 21.3916 33.2472C21.1512 33.3181 20.8992 33.3405 20.6501 33.3131C19.1066 33.0366 17.9516 31.5981 18.7286 29.9426C19.1521 29.0466 19.6666 28.8191 20.6151 29.1096C20.6618 29.129 20.7097 29.1454 20.7586 29.1586C20.8395 29.1892 20.9261 29.2018 21.0123 29.1956C21.0986 29.1893 21.1825 29.1644 21.2581 29.1224C21.3338 29.0804 21.3993 29.0224 21.4503 28.9525C21.5012 28.8826 21.5363 28.8024 21.5531 28.7176C21.7095 28.2146 21.6997 27.6745 21.5251 27.1776C21.4372 26.7447 21.2113 26.3521 20.8812 26.0586C20.5511 25.7651 20.1347 25.5867 19.6946 25.5501C18.7421 25.4887 17.7951 25.7344 16.9925 26.2509C16.19 26.7675 15.5742 27.5277 15.2356 28.4201C14.3011 30.9121 15.3091 34.3491 17.3706 35.8751C18.6551 36.8306 20.0621 37.2751 21.6721 36.9041C22.5383 36.6869 23.3515 36.2963 24.0626 35.7561C24.3216 35.5671 24.4721 35.5986 24.6226 35.8961C25.0179 36.5785 25.3238 37.309 25.5326 38.0696C25.5551 38.2585 25.6366 38.4356 25.7653 38.5756C25.8941 38.7157 26.0637 38.8117 26.2501 38.8501C26.6926 38.9366 27.1513 38.8673 27.5486 38.6541C27.7166 38.5701 27.8706 38.4371 27.7866 38.2341C27.732 38.084 27.6426 37.949 27.5258 37.8401C27.409 37.7312 27.2681 37.6515 27.1146 37.6076C27.0306 37.5866 26.9151 37.5656 26.8906 37.6811C26.8661 37.7966 26.9816 37.7791 27.0481 37.8036C27.0794 37.8107 27.1089 37.8243 27.1347 37.8436C27.1605 37.8628 27.182 37.8872 27.1978 37.9152C27.2136 37.9432 27.2234 37.9742 27.2266 38.0062C27.2297 38.0382 27.2261 38.0705 27.2161 38.1011C27.1846 38.2761 27.0446 38.2586 26.9151 38.2586C26.7888 38.2535 26.6669 38.2109 26.5651 38.1361C26.3159 37.9604 26.1217 37.7177 26.0051 37.4361C25.5921 36.4946 25.2281 35.5286 24.4966 34.7656C24.4589 34.7132 24.4272 34.6569 24.4021 34.5976C24.3352 34.4998 24.2909 34.3884 24.2725 34.2714C24.254 34.1544 24.2618 34.0348 24.2953 33.9212C24.3288 33.8076 24.3872 33.7029 24.4662 33.6146C24.5452 33.5264 24.6429 33.4569 24.7521 33.4111C24.8781 33.3481 25.0111 33.3026 25.1406 33.2501C25.3454 33.2101 25.5264 33.0912 25.6443 32.919C25.7622 32.7467 25.8075 32.535 25.7706 32.3296C25.7405 31.9105 25.6879 31.4934 25.6131 31.0801C25.4206 29.9251 25.1721 28.7736 25.2386 27.5801C25.3471 25.6341 26.1381 24.1256 27.9546 23.2191C29.3553 22.5472 30.8613 22.1222 32.4066 21.9626L35.0981 21.6301C34.8566 21.7971 34.6347 21.9909 34.4366 22.2076C34.2861 22.4456 34.3701 22.5996 34.6466 22.6101C35.2871 22.6276 35.6196 22.1691 35.3466 21.5601C36.4686 21.437 37.5232 20.963 38.3601 20.2056C39.1222 19.5345 40.0928 19.1475 41.1076 19.1101C41.2313 19.1029 41.3515 19.0656 41.4576 19.0016C42.0053 18.7324 42.5728 18.5054 43.1551 18.3226C43.7186 18.0986 44.4256 18.0811 44.6671 17.3216C44.7371 17.1081 44.9786 17.1571 45.1186 17.3566C45.2424 17.4685 45.4022 17.5324 45.569 17.5369C45.7359 17.5414 45.8989 17.4861 46.0286 17.3811C46.2813 17.0588 46.6511 16.8493 47.0574 16.7982C47.4638 16.7471 47.8739 16.8584 48.1986 17.1081ZM34.3211 27.2091C33.3751 27.1817 32.4361 27.3784 31.5806 27.7831C28.8506 29.0151 27.3806 31.2271 26.8311 34.0831C26.6391 35.001 26.7407 35.9561 27.1216 36.8131C27.1612 36.9257 27.2377 37.0216 27.3388 37.0851C27.4398 37.1487 27.5594 37.1761 27.6781 37.1631C28.0114 37.1609 28.3403 37.239 28.6371 37.3906C28.7746 37.4208 28.8947 37.5037 28.9719 37.6214C29.0491 37.7392 29.0771 37.8824 29.0501 38.0206C29.0501 38.0906 29.0081 38.1851 29.0956 38.2236C29.1831 38.2621 29.2636 38.1956 29.3266 38.1326C29.6381 37.8351 29.5331 37.3486 29.0921 37.0266C28.771 36.8146 28.4158 36.6595 28.0421 36.5681C27.8496 36.5226 27.6771 36.4157 27.5508 36.2635C27.4245 36.1113 27.3512 35.9221 27.3421 35.7246C27.231 34.3184 27.5548 32.9121 28.2696 31.6961C28.3431 31.5631 28.4236 31.2901 28.5601 31.3461C28.7561 31.4476 28.6686 31.6961 28.5951 31.8991C28.5445 32.0012 28.4809 32.0965 28.4061 32.1826C28.3 32.3082 28.2018 32.4403 28.1121 32.5781C28.0412 32.6701 27.9952 32.7788 27.9783 32.8937C27.9615 33.0086 27.9744 33.1259 28.0158 33.2344C28.0573 33.3429 28.1259 33.439 28.215 33.5134C28.3042 33.5878 28.4109 33.6382 28.5251 33.6596C28.6673 33.7133 28.8136 33.7554 28.9626 33.7856C29.5023 33.898 30.0103 34.1287 30.4501 34.4611C31.0801 34.9231 31.4721 35.5881 31.9201 36.2111C31.9957 36.3275 32.0995 36.4229 32.2219 36.4884C32.3443 36.5538 32.4813 36.5873 32.6201 36.5856C32.9635 36.5845 33.3048 36.5302 33.6316 36.4246C34.0971 36.2951 34.5766 36.2216 35.0316 36.0991C35.4866 35.9766 35.5216 35.8401 35.3186 35.4446C35.2045 35.2088 35.0339 35.005 34.822 34.8511C34.6101 34.6972 34.3635 34.5981 34.1041 34.5626C33.8117 34.5349 33.5286 34.4451 33.2739 34.299C33.0191 34.1529 32.7986 33.9539 32.6271 33.7156C32.4241 33.433 32.1581 33.2017 31.8501 33.0401C31.7012 32.964 31.5788 32.8448 31.4989 32.6981C31.4189 32.5513 31.3852 32.3838 31.4021 32.2176C31.4023 31.7946 31.512 31.3788 31.7205 31.0108C31.9291 30.6428 32.2293 30.3351 32.5921 30.1176C33.4531 29.5961 34.3946 29.5611 35.3606 29.6171C36.7221 29.6906 38.0871 29.8446 39.4206 29.3931C39.6656 29.3091 39.7391 29.4176 39.7496 29.6486C39.8259 30.9329 39.7849 32.2216 39.6271 33.4986C39.578 33.7482 39.5892 34.006 39.6597 34.2505C39.7302 34.495 39.8581 34.7192 40.0327 34.9043C40.2072 35.0895 40.4234 35.2303 40.6633 35.3152C40.9032 35.4 41.1599 35.4263 41.4121 35.3921C41.6781 35.3676 41.9476 35.3501 42.2101 35.3116C42.7046 35.2567 43.1931 35.1571 43.6696 35.0141C44.0196 34.8986 44.1036 34.6116 43.8376 34.3491C43.6143 34.1311 43.3165 34.006 43.0046 33.9991C42.8716 33.9991 42.6756 33.9781 42.6546 34.1461C42.6336 34.3141 42.8331 34.2336 42.9346 34.2651C43.0886 34.3176 43.2846 34.3386 43.2846 34.5416C43.2846 34.7446 43.1061 34.8251 42.9346 34.8671C42.2569 35.0209 41.5476 34.9483 40.9151 34.6606C40.7237 34.5874 40.5566 34.4621 40.4328 34.2987C40.3091 34.1354 40.2337 33.9406 40.2151 33.7366C40.1654 33.2785 40.1772 32.8159 40.2501 32.3611C40.408 31.4435 40.4772 30.5129 40.4566 29.5821C40.4012 28.7037 40.4175 27.8223 40.5056 26.9466C40.5255 26.8658 40.516 26.7806 40.4788 26.7062C40.4416 26.6318 40.3791 26.5731 40.3026 26.5406C40.1057 26.4756 39.9382 26.3429 39.8301 26.1661C39.6551 25.7601 39.4486 25.8161 39.1931 26.0751C39.1278 26.1367 39.0576 26.1929 38.9831 26.2431C37.9863 27.0114 36.7367 27.3762 35.4831 27.2651C35.0841 27.2371 34.7026 27.2196 34.3211 27.2091ZM35.0491 30.0266C34.5803 30.017 34.1116 30.051 33.6491 30.1281C33.1605 30.1986 32.7124 30.4389 32.3834 30.807C32.0544 31.175 31.8656 31.6472 31.8501 32.1406C31.8331 32.2596 31.8528 32.381 31.9066 32.4885C31.9604 32.5961 32.0457 32.6847 32.1511 32.7426C32.4687 32.9313 32.7468 33.1797 32.9701 33.4741C33.0982 33.6563 33.2631 33.8097 33.4543 33.9243C33.6454 34.0388 33.8584 34.112 34.0796 34.1391C34.4254 34.1615 34.7583 34.2794 35.0413 34.4796C35.3242 34.6798 35.5462 34.9544 35.6826 35.2731C35.6979 35.3212 35.7236 35.3654 35.7576 35.4027C35.7917 35.44 35.8335 35.4695 35.8801 35.4891C35.9266 35.5087 35.9769 35.518 36.0274 35.5164C36.0779 35.5147 36.1274 35.5022 36.1726 35.4796C37.0966 35.2066 38.0276 34.9441 38.9726 34.6781C39.1896 34.6151 39.3051 34.5066 39.2176 34.2616C39.1808 34.0991 39.1808 33.9305 39.2176 33.7681C39.3678 32.6077 39.4345 31.438 39.4171 30.2681C39.4171 30.0091 39.3331 29.9181 39.0461 29.9601C38.4349 30.0942 37.8095 30.1518 37.1841 30.1316C36.4491 30.1001 35.7491 30.0581 35.0491 30.0266ZM31.8501 36.7256C31.5403 36.3573 31.2516 35.9716 30.9856 35.5706C30.5484 34.9377 29.9031 34.4782 29.1621 34.2721C28.7984 34.212 28.445 34.1013 28.1121 33.9431C27.9161 33.8276 27.8391 33.9221 27.8076 34.1181C27.7254 34.5681 27.6972 35.0263 27.7236 35.4831C27.7193 35.6661 27.7798 35.8448 27.8944 35.9876C28.009 36.1304 28.1704 36.2281 28.3501 36.2636C28.631 36.304 28.9005 36.4024 29.1415 36.5524C29.3825 36.7024 29.5897 36.9008 29.7501 37.1351C29.7703 37.183 29.8077 37.2218 29.8549 37.2438C29.9021 37.2658 29.9558 37.2694 30.0056 37.2541L31.8501 36.7256ZM31.6331 25.9001C31.9104 25.8874 32.1823 25.8189 32.4325 25.6986C32.6827 25.5783 32.906 25.4088 33.0891 25.2001C33.4041 24.8256 33.2676 24.4021 32.8126 24.3391C32.518 24.2884 32.2157 24.3083 31.9304 24.3971C31.645 24.4859 31.3848 24.6412 31.1711 24.8501C31.0676 24.9303 30.9922 25.0413 30.9557 25.167C30.9193 25.2928 30.9236 25.4269 30.9681 25.5501C31.0871 25.8511 31.3636 25.9001 31.6331 25.9001ZM25.9561 26.9501C25.9398 27.0427 25.9474 27.1379 25.9782 27.2268C26.0089 27.3156 26.0618 27.3952 26.1319 27.4579C26.202 27.5206 26.2869 27.5644 26.3786 27.5852C26.4703 27.6059 26.5658 27.603 26.6561 27.5766C26.9897 27.5203 27.291 27.3434 27.5027 27.0795C27.7144 26.8155 27.8217 26.4829 27.8041 26.1451C27.7776 26.0024 27.7057 25.8721 27.5991 25.7737C27.4925 25.6753 27.3569 25.614 27.2126 25.5991C26.8824 25.66 26.5811 25.8269 26.3544 26.0745C26.1276 26.3221 25.9878 26.6368 25.9561 26.9711V26.9501ZM28.2556 25.6516C28.2467 25.7854 28.2747 25.919 28.3364 26.0381C28.3981 26.1572 28.4912 26.2571 28.6056 26.3271C28.7193 26.3994 28.8521 26.436 28.9868 26.4323C29.1215 26.4285 29.252 26.3846 29.3616 26.3061C29.5545 26.1711 29.7067 25.9859 29.8017 25.7706C29.8967 25.5552 29.9309 25.318 29.9006 25.0846C29.8411 24.8606 29.7466 24.6436 29.4701 24.6051C29.1748 24.613 28.8916 24.7241 28.6697 24.9191C28.4478 25.1141 28.3013 25.3807 28.2556 25.6726V25.6516ZM39.9001 21.8016C39.9001 21.4306 39.6236 21.1541 39.3471 21.2486C39.0914 21.3755 38.8707 21.5631 38.7042 21.7949C38.5376 22.0267 38.4303 22.2958 38.3916 22.5786C38.3916 22.9286 38.5736 23.0931 38.8816 23.0371C39.1521 22.9621 39.3939 22.8076 39.5756 22.5935C39.7572 22.3795 39.8702 22.1157 39.9001 21.8366V21.8016ZM32.6516 23.8421C33.1171 23.7336 33.5966 23.6636 33.9501 23.2821C34.0322 23.2137 34.0873 23.1182 34.1052 23.0128C34.1231 22.9074 34.1028 22.7991 34.0478 22.7074C33.9929 22.6158 33.907 22.5467 33.8056 22.5128C33.7043 22.4789 33.5941 22.4824 33.4951 22.5226C33.1174 22.6258 32.7505 22.7653 32.3996 22.9391C32.1861 23.0581 32.0041 23.2016 32.0776 23.4746C32.1511 23.7476 32.4101 23.8001 32.6516 23.8421ZM36.9916 23.7476C36.9916 24.0171 37.0546 24.2411 37.3066 24.3321C37.4199 24.3771 37.5447 24.3852 37.6629 24.355C37.7811 24.3248 37.8867 24.258 37.9646 24.1641C38.0927 24.032 38.1856 23.8698 38.2345 23.6924C38.2834 23.515 38.2869 23.3281 38.2446 23.1491C38.2456 23.0698 38.2244 22.9917 38.1836 22.9238C38.1427 22.8558 38.0837 22.8005 38.0133 22.7642C37.9428 22.7279 37.8635 22.7119 37.7845 22.718C37.7054 22.7242 37.6296 22.7522 37.5656 22.7991C37.3909 22.8879 37.2446 23.0238 37.1432 23.1914C37.0418 23.359 36.9892 23.5516 36.9916 23.7476ZM34.4576 25.5676C34.4865 25.7411 34.5334 25.9112 34.5976 26.0751C34.6241 26.1513 34.6717 26.2184 34.7349 26.2687C34.798 26.3189 34.8741 26.3503 34.9543 26.3591C35.0345 26.3679 35.1156 26.3537 35.1881 26.3183C35.2606 26.2829 35.3217 26.2277 35.3641 26.1591C35.4928 25.9854 35.5623 25.775 35.5623 25.5588C35.5623 25.3426 35.4928 25.1322 35.3641 24.9586C35.3153 24.8947 35.2502 24.8451 35.1756 24.8151C35.101 24.785 35.0198 24.7756 34.9403 24.7878C34.8608 24.7999 34.7861 24.8333 34.724 24.8842C34.6618 24.9352 34.6145 25.002 34.5871 25.0776C34.5279 25.2362 34.4845 25.4004 34.4576 25.5676ZM40.9711 23.4501C40.9682 23.6032 41.0038 23.7547 41.0748 23.8904C41.1457 24.0262 41.2497 24.142 41.3771 24.2271C41.4385 24.2836 41.5162 24.3193 41.5991 24.3294C41.6819 24.3394 41.7659 24.3232 41.8391 24.2831C41.9065 24.244 41.959 24.1835 41.9881 24.1112C42.0173 24.0389 42.0215 23.959 42.0001 23.8841C41.9721 23.6566 41.9301 23.4291 41.9021 23.1841C41.8741 22.9391 41.8391 22.7081 41.6011 22.6731C41.3631 22.6381 41.1881 22.8166 41.0656 23.0231C40.9919 23.1527 40.959 23.3015 40.9711 23.4501ZM35.3501 24.0696C35.7526 24.0696 36.0711 23.8596 36.0746 23.5936C36.0781 23.3276 35.6826 22.9916 35.3011 23.0021C35.1408 22.9906 34.9822 23.0402 34.8569 23.1408C34.7316 23.2414 34.649 23.3856 34.6256 23.5446C34.6151 23.8456 34.9266 24.0731 35.3501 24.0696ZM42.4586 28.8681C42.4586 28.5181 42.2381 28.2171 41.9546 28.2171C41.7931 28.244 41.6457 28.3253 41.5369 28.4476C41.428 28.5698 41.3642 28.7256 41.3561 28.8891C41.362 29.0488 41.4273 29.2005 41.5394 29.3145C41.6514 29.4285 41.802 29.4964 41.9616 29.5051C42.2451 29.5121 42.4411 29.2601 42.4411 28.8681H42.4586ZM41.1846 25.5851C41.2126 25.0391 40.9116 24.7066 40.7051 24.3356C40.6631 24.2586 40.6491 24.1571 40.5231 24.1816C40.4791 24.1896 40.4386 24.2111 40.4073 24.2431C40.376 24.275 40.3553 24.3159 40.3481 24.3601C40.2332 24.8367 40.3099 25.3393 40.5616 25.7601C40.6071 25.8312 40.6768 25.8835 40.7578 25.9073C40.8389 25.9311 40.9258 25.9248 41.0026 25.8896C41.1706 25.8231 41.1566 25.6516 41.1671 25.5851H41.1846ZM29.0816 27.1111C29.0466 26.8906 29.0186 26.6491 28.7316 26.6316C28.5353 26.6506 28.3524 26.7395 28.2162 26.8822C28.08 27.0248 27.9996 27.2116 27.9896 27.4086C27.9896 27.6991 28.1191 27.9021 28.4341 27.9126C28.6209 27.8804 28.7897 27.7813 28.9089 27.6338C29.028 27.4863 29.0894 27.3005 29.0816 27.1111ZM42.9591 26.7296C42.9665 26.3837 42.8413 26.048 42.6091 25.7916C42.5792 25.7499 42.5377 25.718 42.4897 25.6999C42.4418 25.6818 42.3895 25.6784 42.3396 25.6901C42.2521 25.7111 42.1996 25.7741 42.2206 25.8546C42.2468 26.0806 42.1989 26.3091 42.0841 26.5056C42.0469 26.6144 42.0462 26.7325 42.0822 26.8418C42.1183 26.9511 42.1889 27.0456 42.2836 27.1111C42.3413 27.1792 42.4187 27.2279 42.5051 27.2504C42.5916 27.273 42.6829 27.2683 42.7666 27.2371C42.9661 27.1426 42.9556 26.9221 42.9591 26.7296ZM27.0831 28.4411C27.0888 28.3644 27.0743 28.2875 27.0412 28.2182C27.008 28.1488 26.9573 28.0893 26.8941 28.0456C26.7436 27.9581 26.6281 28.0456 26.5056 28.1156C26.3512 28.2143 26.2273 28.354 26.1476 28.5189C26.0679 28.6839 26.0355 28.8678 26.0541 29.0501C26.0541 29.2636 26.1871 29.3721 26.4041 29.3056C26.5944 29.2522 26.7627 29.1396 26.8848 28.9842C27.0069 28.8288 27.0763 28.6386 27.0831 28.4411ZM28.9101 23.7511C28.9101 23.5796 28.8296 23.4011 28.5811 23.4221C28.3893 23.4373 28.2085 23.5178 28.0689 23.6504C27.9294 23.7829 27.8396 23.9593 27.8146 24.1501C27.8089 24.1974 27.8141 24.2454 27.8297 24.2904C27.8453 24.3354 27.8709 24.3763 27.9046 24.41C27.9383 24.4437 27.9792 24.4693 28.0243 24.4849C28.0693 24.5005 28.1173 24.5057 28.1646 24.5001C28.3612 24.4947 28.5483 24.414 28.687 24.2746C28.8258 24.1351 28.9057 23.9477 28.9101 23.7511ZM27.7936 29.4911C27.7936 29.1691 27.6151 28.8506 27.3911 28.8296C27.1671 28.8086 26.9151 29.2041 26.9151 29.6031C26.9151 29.8516 26.9431 30.1071 27.2651 30.1281C27.5871 30.1491 27.7726 29.8761 27.7936 29.4911ZM41.8776 21.5951C41.8776 22.0466 42.1331 22.4386 42.4201 22.4281C42.7071 22.4176 42.7701 22.2391 42.7701 22.0116C42.7701 21.6616 42.4201 21.1646 42.1716 21.1821C41.9231 21.1996 41.8636 21.3991 41.8776 21.5951ZM26.9256 31.5001C26.9165 31.381 26.893 31.2635 26.8556 31.1501C26.8356 31.094 26.8016 31.044 26.7569 31.0047C26.7122 30.9654 26.6582 30.9382 26.6001 30.9256C26.5419 30.913 26.4815 30.9154 26.4246 30.9326C26.3676 30.9499 26.316 30.9813 26.2746 31.0241C26.0681 31.2481 26.2746 31.9516 26.5686 32.0356C26.6981 32.0741 26.7611 31.9971 26.8241 31.9201C26.8925 31.7907 26.9274 31.6463 26.9256 31.5001ZM41.3001 21.6161C41.3074 21.5016 41.2893 21.387 41.2469 21.2805C41.2045 21.1739 41.139 21.0782 41.0551 21.0001C40.9676 20.9301 40.8626 21.0001 40.7821 21.0701C40.6955 21.1546 40.6357 21.2627 40.6102 21.3809C40.5847 21.4992 40.5945 21.6224 40.6386 21.7351C40.6562 21.8467 40.7007 21.9523 40.7681 22.0431C40.9536 22.2356 41.1181 22.1936 41.2231 21.9871C41.2658 21.8676 41.2917 21.7427 41.3001 21.6161ZM30.4501 26.3096C30.2716 26.3516 30.0266 26.4041 30.0301 26.6946C30.0304 26.7558 30.0433 26.8164 30.068 26.8725C30.0926 26.9286 30.1286 26.979 30.1735 27.0207C30.2184 27.0624 30.2715 27.0944 30.3293 27.1147C30.3871 27.1351 30.4484 27.1434 30.5096 27.1391C30.7511 27.1391 30.9751 27.0726 31.0101 26.7891C31.0451 26.5651 30.7756 26.3236 30.4501 26.3096ZM31.1501 22.8411C31.143 22.7726 31.1093 22.7097 31.0563 22.6658C31.0033 22.622 30.9351 22.6007 30.8666 22.6066C30.7063 22.6469 30.5624 22.7359 30.4547 22.8612C30.3469 22.9865 30.2805 23.142 30.2646 23.3066C30.2646 23.4816 30.3731 23.5446 30.5376 23.5411C30.6244 23.5371 30.7095 23.5157 30.7878 23.478C30.8661 23.4403 30.936 23.3872 30.9932 23.3218C31.0505 23.2564 31.0939 23.1801 31.1208 23.0975C31.1478 23.0148 31.1577 22.9276 31.1501 22.8411ZM26.3306 34.5941C26.3306 34.2441 26.0506 33.8941 25.7916 33.9256C25.5326 33.9571 25.5011 34.0866 25.5046 34.2756C25.5111 34.4198 25.5655 34.5577 25.6594 34.6674C25.7533 34.7771 25.8811 34.8523 26.0226 34.8811C26.0621 34.8845 26.1019 34.8796 26.1394 34.8667C26.177 34.8537 26.2113 34.8331 26.2404 34.806C26.2694 34.779 26.2924 34.7461 26.308 34.7096C26.3235 34.6731 26.3312 34.6337 26.3306 34.5941ZM43.9741 21.5426C44.0353 21.5512 44.0977 21.5402 44.1524 21.5113C44.207 21.4824 44.2512 21.437 44.2786 21.3816C44.3556 21.2276 44.2121 21.1541 44.1176 21.0841C43.9461 20.9581 43.7676 20.8461 43.5891 20.7341C43.4981 20.6711 43.4036 20.6291 43.3091 20.6921C43.2146 20.7551 43.2216 20.8601 43.2461 20.9686C43.2925 21.1281 43.3877 21.2692 43.5182 21.3721C43.6487 21.475 43.8081 21.5346 43.9741 21.5426ZM41.4086 27.7796C41.4125 27.6481 41.368 27.5198 41.2834 27.4192C41.1988 27.3185 41.0802 27.2524 40.9501 27.2336C40.7226 27.2336 40.6421 27.3771 40.6351 27.5836C40.6351 27.8531 40.8626 28.1996 41.0621 28.1856C41.3211 28.1681 41.3631 27.9511 41.4086 27.7796ZM38.6961 25.0846C38.6961 25.2596 38.7276 25.4346 38.8746 25.4626C39.0216 25.4906 39.1511 25.3401 39.2246 25.2141C39.3366 24.9971 39.5256 24.7766 39.3541 24.5141C39.3409 24.4918 39.3233 24.4725 39.3023 24.4573C39.2813 24.4421 39.2575 24.4314 39.2322 24.4259C39.207 24.4203 39.1808 24.4199 39.1554 24.4249C39.13 24.4298 39.1059 24.4399 39.0846 24.4546C38.9736 24.5202 38.8802 24.6118 38.8125 24.7216C38.7448 24.8313 38.7048 24.9559 38.6961 25.0846ZM41.4961 30.8806C41.5107 30.7436 41.473 30.6062 41.3906 30.4958C41.3081 30.3855 41.1871 30.3104 41.0516 30.2856C40.8311 30.2856 40.7751 30.4326 40.7646 30.6111C40.7646 30.9296 40.9361 31.2026 41.1741 31.2026C41.4121 31.2026 41.4751 31.0591 41.4926 30.8806H41.4961ZM40.8941 31.6506C40.6701 31.6506 40.6561 31.8081 40.6631 32.0006C40.6591 32.0643 40.6686 32.1281 40.6907 32.188C40.7129 32.2479 40.7473 32.3024 40.7918 32.3482C40.8363 32.394 40.8898 32.43 40.949 32.4539C41.0082 32.4778 41.0718 32.4891 41.1356 32.4871C41.3281 32.4871 41.4436 32.3891 41.4366 32.1791C41.4208 32.0414 41.3578 31.9134 41.2582 31.817C41.1586 31.7207 41.0287 31.6618 40.8906 31.6506H40.8941ZM28.0001 38.6016C28.13 38.6431 28.2702 38.6391 28.3975 38.5901C28.5248 38.5411 28.6316 38.45 28.7001 38.3321C28.773 38.2596 28.8168 38.163 28.8232 38.0605C28.8297 37.9579 28.7983 37.8565 28.7351 37.7756C28.6661 37.6698 28.5664 37.5877 28.4495 37.5401C28.3325 37.4926 28.2038 37.4819 28.0806 37.5096C28.5531 38.0101 28.5531 38.0101 28.0001 38.6016ZM38.0766 25.9001C38.0766 25.7461 38.0591 25.5256 37.8281 25.5326C37.5131 25.5326 37.4781 25.8161 37.4781 26.0541C37.4781 26.2011 37.4536 26.4041 37.6566 26.4041C37.7182 26.4012 37.7786 26.3856 37.8339 26.3581C37.8892 26.3307 37.9381 26.292 37.9776 26.2446C38.0171 26.1972 38.0463 26.1421 38.0634 26.0827C38.0804 26.0234 38.0849 25.9612 38.0766 25.9001ZM45.6436 18.7531C45.6121 18.6306 45.5421 18.5886 45.4406 18.6166C45.3729 18.6368 45.3111 18.6732 45.2605 18.7226C45.2099 18.7719 45.172 18.8328 45.1501 18.9001C45.0871 19.0926 45.1501 19.3201 44.9996 19.4986C44.9611 19.5406 45.0311 19.6421 45.0976 19.6841C45.1249 19.7011 45.1564 19.7102 45.1886 19.7102C45.2208 19.7102 45.2523 19.7011 45.2796 19.6841C45.3531 19.6421 45.4091 19.5511 45.3636 19.4951C45.1431 19.2221 45.4546 19.1101 45.5211 18.9246C45.5538 18.8663 45.5951 18.8132 45.6436 18.7671V18.7531ZM41.1881 33.0226C40.9641 33.0226 40.7506 33.1031 40.7261 33.3271C40.7016 33.5511 40.9431 33.5406 41.0971 33.5511C41.2511 33.5616 41.5101 33.5266 41.5276 33.2851C41.5451 33.0436 41.3736 33.0191 41.1881 33.0226ZM39.4066 20.3736C39.4066 20.2056 39.3156 20.1216 39.1931 20.1496C39.0737 20.1712 38.9632 20.2271 38.875 20.3103C38.7868 20.3936 38.7246 20.5007 38.6961 20.6186C38.6576 20.7761 38.8256 20.7831 38.9376 20.7691C39.0486 20.7645 39.1549 20.7232 39.2398 20.6516C39.3247 20.58 39.3834 20.4822 39.4066 20.3736ZM41.1041 19.9151C41.1041 19.7856 41.1496 19.6246 40.9851 19.6351C40.8206 19.6456 40.6736 19.8241 40.6351 20.0271C40.5966 20.2301 40.6666 20.3771 40.8591 20.3491C41.1321 20.3246 41.0551 20.0656 41.1041 19.9151ZM46.6761 17.9621C46.6516 17.8291 46.5886 17.6996 46.4906 17.7486C46.2841 17.8501 46.2176 18.0986 46.0986 18.2771C46.0601 18.3331 46.1686 18.4626 46.2561 18.4311C46.4836 18.3506 46.5501 18.1231 46.6761 17.9621ZM45.5631 20.1706C45.5631 20.0481 45.5281 19.9361 45.3916 19.9151C45.2551 19.8941 45.2061 19.9886 45.2096 20.1006C45.2131 20.2126 45.2411 20.3351 45.3846 20.3526C45.5281 20.3701 45.5666 20.3001 45.5631 20.1706ZM46.8651 17.4021C46.913 17.392 46.9563 17.3662 46.988 17.3288C47.0197 17.2914 47.038 17.2445 47.0401 17.1956C47.0401 17.1256 46.9701 17.0976 46.9036 17.1011C46.8819 17.0996 46.8601 17.1026 46.8396 17.1099C46.819 17.1171 46.8002 17.1284 46.7841 17.1431C46.7681 17.1578 46.7552 17.1757 46.7463 17.1955C46.7373 17.2153 46.7325 17.2368 46.7321 17.2586C46.7287 17.2772 46.7298 17.2964 46.7351 17.3146C46.7404 17.3328 46.7499 17.3495 46.7628 17.3635C46.7757 17.3774 46.7917 17.3881 46.8094 17.3948C46.8271 17.4015 46.8462 17.404 46.8651 17.4021Z" fill="#F8FDFD"/>
<path d="M20.8495 49.2905C20.1495 50.3125 19.4775 51.31 18.802 52.3075C18.452 52.815 18.102 53.3155 17.7765 53.823C17.7358 53.9021 17.6733 53.9679 17.5964 54.0125C17.5194 54.0572 17.4313 54.0789 17.3425 54.075C16.6425 54.075 15.967 54.075 15.2775 54.075C15.0325 54.075 14.9485 53.991 14.9485 53.725C14.9485 50.925 14.9485 48.1332 14.9485 45.3495C14.9485 45.094 15.057 44.9995 15.2985 44.9995C15.96 44.9995 16.625 44.9995 17.2865 44.9995C17.591 44.9995 17.6085 45.1745 17.6085 45.395C17.6085 46.4905 17.6085 47.5895 17.6085 48.685V49.7875C17.85 49.77 17.892 49.5985 17.9585 49.483C18.9035 48.097 19.8368 46.7075 20.7585 45.3145C20.8181 45.2105 20.906 45.1254 21.0118 45.0691C21.1177 45.0127 21.2374 44.9874 21.357 44.996C21.9555 44.996 22.554 44.996 23.1525 44.996C23.443 44.996 23.583 45.0835 23.5795 45.4195C23.5655 48.1589 23.5655 50.9005 23.5795 53.6445C23.5795 53.9595 23.478 54.0715 23.163 54.061C22.5505 54.04 21.938 54.0435 21.3255 54.061C21.028 54.061 20.923 53.97 20.923 53.6655C20.923 52.3145 20.923 50.9635 20.923 49.609C20.9326 49.5537 20.9311 49.4971 20.9185 49.4423C20.9059 49.3876 20.8824 49.336 20.8495 49.2905Z" fill="#F8FDFD"/>
<path d="M64.8516 49.5915C64.8516 50.9565 64.8516 52.318 64.8516 53.683C64.8516 53.9805 64.7746 54.089 64.4666 54.0785C63.8051 54.0785 63.1401 54.0575 62.4786 54.0785C62.1286 54.0785 62.0411 53.9805 62.0446 53.6445C62.0446 51.681 62.0446 49.7175 62.0446 47.754C62.0446 47.3655 61.9361 47.2325 61.5476 47.264C61.1399 47.2955 60.7303 47.2955 60.3226 47.264C59.9376 47.236 59.8431 47.404 59.8536 47.754C59.8746 48.377 59.8536 49.0035 59.8536 49.6265C59.8536 50.4432 59.8244 51.2599 59.7661 52.0765C59.7665 52.5796 59.5721 53.0632 59.2236 53.426C58.8752 53.7888 58.3997 54.0026 57.8971 54.0225C57.244 54.1391 56.5764 54.1509 55.9196 54.0575C55.6991 54.012 55.6221 53.928 55.6291 53.7075C55.6291 53.3015 55.6291 52.892 55.6291 52.4825C55.6291 52.248 55.7131 52.1535 55.9441 52.1815C56.007 52.1868 56.0702 52.1868 56.1331 52.1815C56.7316 52.1535 57.0291 51.8735 57.0361 51.275C57.0361 49.4795 57.0361 47.6805 57.0361 45.8815C57.0361 45.0485 57.0361 45.045 57.8761 45.045L64.2251 45.0275C64.8166 45.0275 64.8166 45.0275 64.8166 45.619L64.8516 49.5915Z" fill="#F8FDFD"/>
<path d="M36.246 49.56C36.246 48.209 36.246 46.858 36.246 45.507C36.246 45.157 36.344 45.01 36.7185 45.01C38.9631 45.024 41.2066 45.024 43.449 45.01C43.7745 45.01 43.9145 45.1115 43.8865 45.4545C43.8611 45.804 43.8611 46.155 43.8865 46.5045C43.9075 46.809 43.792 46.9 43.4945 46.8965C42.2065 46.8965 40.9185 46.8965 39.6445 46.8965C39.074 46.8965 39.074 46.8965 39.0705 47.4635C39.0705 47.719 39.0705 47.9745 39.0705 48.23C39.0705 48.4855 39.1615 48.5415 39.389 48.538C39.949 48.538 40.5125 48.5205 41.0725 48.538C41.8249 48.5431 42.567 48.714 43.246 49.0385C44.254 49.56 44.7335 50.6415 44.5585 51.891C44.503 52.3681 44.2997 52.8159 43.9772 53.1717C43.6546 53.5275 43.2288 53.7736 42.7595 53.8755C42.1787 54.0237 41.5808 54.0943 40.9815 54.0855C39.5535 54.0855 38.1255 54.0855 36.6975 54.0855C36.372 54.0855 36.2495 54.005 36.2565 53.6585C36.2565 52.29 36.246 50.925 36.246 49.56ZM40.047 50.3405C39.8055 50.3405 39.564 50.3405 39.3225 50.3405C39.151 50.3405 39.053 50.3895 39.053 50.575C39.053 51.0195 39.053 51.4675 39.053 51.912C39.053 52.0415 39.1125 52.1465 39.2525 52.1465C39.9245 52.1465 40.607 52.2515 41.2615 52.003C41.4242 51.9421 41.5622 51.8291 41.6539 51.6816C41.7457 51.5341 41.7862 51.3604 41.769 51.1875C41.7754 51.0268 41.728 50.8685 41.6341 50.7378C41.5402 50.6072 41.4054 50.5117 41.251 50.4665C40.8603 50.3535 40.4526 50.3109 40.047 50.3405Z" fill="#F8FDFD"/>
<path d="M5.15198 49.553C5.15198 48.188 5.15198 46.823 5.15198 45.458C5.15198 45.136 5.25348 45.0415 5.56848 45.045C7.82598 45.045 10.0835 45.045 12.341 45.045C12.691 45.045 12.817 45.1675 12.7925 45.5175C12.7662 45.8355 12.7662 46.1551 12.7925 46.473C12.817 46.802 12.677 46.886 12.3725 46.8825C11.0705 46.8825 9.76848 46.8825 8.46648 46.8825C7.96248 46.8825 7.94848 46.8825 7.94848 47.39C7.94848 48.517 7.94848 48.5205 9.05798 48.5205C9.87286 48.4948 10.6872 48.5856 11.4765 48.79C12.992 49.2205 13.538 50.3055 13.461 51.73C13.384 53.1545 12.299 53.858 11.011 53.998C9.15598 54.201 7.28698 54.0505 5.42848 54.0855C5.15548 54.0855 5.15898 53.9245 5.15898 53.7355C5.15664 52.3355 5.15431 50.9413 5.15198 49.553ZM8.97398 50.3405C8.70098 50.3405 8.45598 50.3405 8.21448 50.3405C7.97298 50.3405 7.91348 50.4105 7.91698 50.6275C7.91698 51.0335 7.91698 51.443 7.91698 51.849C7.91698 51.9785 7.91698 52.1395 8.09198 52.1395C8.79198 52.1395 9.51998 52.269 10.192 51.975C10.3594 51.9058 10.4977 51.7809 10.5838 51.6215C10.6699 51.4621 10.6984 51.278 10.6645 51.1C10.6556 50.9469 10.5966 50.801 10.4967 50.6846C10.3968 50.5683 10.2615 50.488 10.1115 50.456C9.741 50.3565 9.35689 50.3175 8.97398 50.3405Z" fill="#F8FDFD"/>
<path d="M55.0551 49.3955C55.1119 50.3552 54.9101 51.3125 54.4706 52.1675C54.164 52.7285 53.7225 53.2043 53.186 53.552C52.6495 53.8997 52.0349 54.1083 51.3976 54.159C50.3593 54.3234 49.2967 54.2345 48.3001 53.9C47.6834 53.6806 47.1338 53.3056 46.7045 52.8113C46.2753 52.3171 45.981 51.7204 45.8501 51.079C45.5714 50.0112 45.5932 48.8872 45.9131 47.831C46.0916 47.142 46.4625 46.5181 46.9825 46.0322C47.5025 45.5463 48.1501 45.2184 48.8496 45.087C50.5016 44.737 52.1221 44.786 53.5396 45.8885C54.2584 46.4705 54.741 47.294 54.8976 48.2055C54.9948 48.595 55.0476 48.9942 55.0551 49.3955ZM48.4891 49.567C48.4642 49.9838 48.5116 50.4018 48.6291 50.8025C48.7151 51.1784 48.9245 51.5147 49.2239 51.7577C49.5233 52.0006 49.8955 52.1363 50.2811 52.143C50.6548 52.1831 51.031 52.0956 51.3487 51.8948C51.6664 51.694 51.9069 51.3917 52.0311 51.037C52.3379 50.1318 52.3574 49.1538 52.0871 48.237C51.9728 47.867 51.7391 47.5453 51.4224 47.3223C51.1057 47.0994 50.724 46.9878 50.3371 47.005C49.9657 46.9907 49.5998 47.0987 49.2957 47.3124C48.9915 47.5261 48.766 47.8337 48.6536 48.188C48.4999 48.6304 48.4437 49.1009 48.4891 49.567Z" fill="#F8FDFD"/>
<path d="M25.4311 49.5705C25.4311 48.1915 25.4311 46.816 25.4311 45.437C25.4311 45.1395 25.5326 45.017 25.8231 45.0205C27.3526 45.0205 28.8786 45.0205 30.4081 45.0625C31.3076 45.0835 32.1126 45.3495 32.6586 46.137C32.9389 46.5449 33.1103 47.0178 33.1565 47.5106C33.2028 48.0034 33.1223 48.4999 32.9228 48.9529C32.7233 49.4059 32.4114 49.8004 32.0166 50.099C31.6218 50.3976 31.1573 50.5903 30.6671 50.659C30.0345 50.7383 29.397 50.7722 28.7596 50.7605C28.2486 50.7605 28.2486 50.7605 28.2521 51.2925C28.2521 52.0835 28.2521 52.8745 28.2521 53.6655C28.2521 53.9945 28.1366 54.0855 27.8286 54.0785C27.1531 54.0785 26.4741 54.0785 25.7986 54.0785C25.5151 54.0785 25.4241 53.9875 25.4241 53.704C25.4381 52.325 25.4346 50.9495 25.4311 49.5705ZM28.2311 47.8765C28.2311 48.132 28.2311 48.3875 28.2311 48.643C28.2311 48.8145 28.2976 48.916 28.4761 48.909C28.8966 48.9255 29.3176 48.8891 29.7291 48.8005C29.9139 48.7437 30.077 48.6319 30.1965 48.4799C30.3159 48.3278 30.3861 48.143 30.3976 47.95C30.4221 47.327 30.0231 46.9595 29.2566 46.9C28.2486 46.8195 28.2486 46.8195 28.2451 47.8065L28.2311 47.8765Z" fill="#F8FDFD"/>
<path d="M13.9056 42.2345C13.9056 42.476 14.0876 42.3395 14.1821 42.3885C14.1611 42.42 14.1436 42.4795 14.1226 42.4795C13.6606 42.4795 13.2336 42.7525 12.6736 42.6545C13.0553 42.4408 13.4728 42.2985 13.9056 42.2345Z" fill="#4EDCF8"/>
<path d="M58.5024 41.076L58.5129 41.0865L58.5024 41.076Z" fill="#F8FDFD"/>
<path d="M24.5001 28.7455C24.6821 29.3151 24.8075 29.9013 24.8746 30.4955C24.9833 30.9548 25.0466 31.4238 25.0636 31.8955C25.0779 32.0493 25.0382 32.2033 24.9513 32.331C24.8645 32.4587 24.7358 32.5522 24.5876 32.5955C24.3547 32.6806 24.1458 32.8204 23.9783 33.0031C23.8108 33.1858 23.6896 33.4062 23.6251 33.6455C23.5742 33.7962 23.5562 33.956 23.5726 34.1143C23.5889 34.2725 23.639 34.4253 23.7196 34.5625C23.7667 34.643 23.7821 34.7383 23.7626 34.8296C23.7432 34.9209 23.6904 35.0016 23.6146 35.056C22.8866 35.8295 21.9451 36.106 20.9371 36.1725C19.7587 36.2593 18.5859 35.942 17.6121 35.273C17.1151 34.9475 17.1361 34.6045 17.6541 34.3385C17.8536 34.237 18.1196 34.202 18.0811 33.887C18.0838 33.771 18.052 33.6568 17.9897 33.5589C17.9274 33.4611 17.8373 33.384 17.7311 33.3375C17.6065 33.2718 17.4655 33.2434 17.3252 33.2558C17.1849 33.2682 17.0512 33.3209 16.9401 33.4075C16.7931 33.5195 16.7161 33.8065 16.5236 33.74C16.3311 33.6735 16.2471 33.39 16.1736 33.1835C15.9622 32.6648 15.8118 32.1234 15.7256 31.57C15.7107 31.5248 15.7061 31.477 15.7119 31.4298C15.7178 31.3826 15.734 31.3374 15.7594 31.2972C15.7849 31.2571 15.8189 31.223 15.859 31.1976C15.8991 31.1721 15.9444 31.1559 15.9916 31.15C16.489 31.052 16.9934 30.9935 17.5001 30.975C17.6996 30.9505 17.7941 31.108 17.8151 31.2865C17.8361 31.465 17.6926 31.472 17.5666 31.507C17.0241 31.6505 16.7896 31.9445 16.8876 32.34C16.918 32.447 16.9695 32.5468 17.0392 32.6335C17.1088 32.7202 17.1951 32.7921 17.293 32.845C17.3908 32.8978 17.4983 32.9305 17.609 32.9412C17.7197 32.9518 17.8314 32.9402 17.9376 32.907C18.6376 32.7635 18.7636 32.8755 18.7496 33.607C18.7321 34.405 19.0786 34.8145 19.8241 34.8775C20.3106 34.9195 20.4961 34.7865 20.5906 34.3C20.6291 34.118 20.6571 34.0235 20.8426 34.1985C21.0281 34.3735 21.1121 34.3735 21.1646 34.09C21.2171 33.8065 21.4411 33.8765 21.5951 34.0025C21.7986 34.178 22.0471 34.2932 22.3126 34.335C22.431 34.3599 22.5539 34.3536 22.6693 34.3168C22.7846 34.28 22.8884 34.2139 22.9706 34.125C23.0523 34.0324 23.1003 33.9149 23.1066 33.7916C23.113 33.6683 23.0774 33.5464 23.0056 33.446C22.973 33.405 22.9494 33.3576 22.9365 33.3069C22.9235 33.2562 22.9214 33.2034 22.9304 33.1518C22.9393 33.1002 22.959 33.0511 22.9883 33.0077C23.0175 32.9643 23.0556 32.9276 23.1001 32.9C23.224 32.7901 23.325 32.6569 23.3976 32.508C23.4587 32.3552 23.5617 32.2229 23.6949 32.1263C23.8281 32.0296 23.9859 31.9727 24.1501 31.962C24.2695 31.9537 24.3819 31.9023 24.4663 31.8173C24.5506 31.7323 24.6012 31.6195 24.6086 31.5C24.6203 31.4433 24.619 31.3846 24.6047 31.3285C24.5904 31.2724 24.5635 31.2203 24.526 31.1761C24.4886 31.1319 24.4416 31.0968 24.3886 31.0735C24.3356 31.0502 24.2779 31.0392 24.2201 31.0415C24.0626 31.0415 24.0556 30.9015 24.0696 30.7825C24.0853 30.6173 24.1134 30.4535 24.1536 30.2925C24.2901 29.8095 24.2901 29.302 24.5001 28.7455ZM22.3721 35C22.5175 34.9891 22.6593 34.9488 22.7886 34.8814C22.918 34.814 23.0323 34.721 23.1246 34.608C23.1701 34.545 23.2261 34.4715 23.1806 34.4015C23.1351 34.3315 23.0126 34.377 22.9496 34.4015C22.7732 34.5192 22.5635 34.577 22.3517 34.5663C22.1399 34.5556 21.9372 34.4769 21.7736 34.342C21.7036 34.2965 21.6371 34.1915 21.5496 34.2895C21.5223 34.3258 21.5076 34.37 21.5076 34.4155C21.5076 34.4609 21.5223 34.5051 21.5496 34.5415C21.6415 34.6767 21.7637 34.7885 21.9065 34.8681C22.0493 34.9477 22.2087 34.9929 22.3721 35ZM21.2591 34.8005C21.2591 34.6815 21.2591 34.5555 21.1226 34.51C21.1045 34.503 21.0851 34.5 21.0657 34.5013C21.0463 34.5026 21.0275 34.5081 21.0105 34.5174C20.9935 34.5267 20.9787 34.5397 20.9672 34.5553C20.9558 34.571 20.9478 34.589 20.9441 34.608C20.8817 34.8539 20.7357 35.0705 20.5311 35.2205C20.5102 35.2351 20.4925 35.2538 20.479 35.2754C20.4655 35.297 20.4565 35.3211 20.4526 35.3463C20.4487 35.3715 20.4499 35.3972 20.4561 35.4219C20.4624 35.4466 20.4736 35.4697 20.4891 35.49C20.5661 35.5845 20.6746 35.5565 20.7691 35.511C20.9012 35.4408 21.0146 35.34 21.0999 35.217C21.1851 35.094 21.2397 34.9524 21.2591 34.804V34.8005ZM19.7331 35.784H19.8101C19.9361 35.784 20.0376 35.7385 20.0586 35.6055C20.0796 35.4725 20.0201 35.3325 19.8661 35.343C19.6526 35.3605 19.4636 35.049 19.2466 35.287C19.2222 35.3105 19.2035 35.3392 19.1918 35.371C19.1801 35.4028 19.1758 35.4368 19.1792 35.4705C19.1826 35.5042 19.1935 35.5366 19.2113 35.5655C19.229 35.5943 19.253 35.6188 19.2816 35.637C19.4064 35.7446 19.5686 35.7987 19.7331 35.7875V35.784ZM19.0681 35.084C18.8738 34.7862 18.7007 34.4751 18.5501 34.153C18.4976 34.062 18.3471 34.153 18.3716 34.286C18.418 34.6106 18.5537 34.9159 18.7636 35.168C18.7755 35.1832 18.7903 35.1958 18.8072 35.2053C18.824 35.2147 18.8425 35.2207 18.8617 35.223C18.8809 35.2253 18.9003 35.2238 18.9189 35.2185C18.9375 35.2133 18.9549 35.2044 18.9701 35.1925C19.0065 35.1549 19.0393 35.1138 19.0681 35.07V35.084ZM18.4556 33.817C18.4556 33.6035 18.4766 33.425 18.4801 33.2465C18.4801 33.2465 18.3961 33.2255 18.3891 33.2465C18.3354 33.3221 18.3032 33.4108 18.2958 33.5032C18.2884 33.5956 18.3061 33.6883 18.3471 33.7715C18.3471 33.7715 18.3681 33.761 18.4556 33.803V33.817Z" fill="#F8FDFD"/>
<path d="M15.6589 29.89C15.8969 28.231 17.4089 26.4915 18.7739 26.257C19.1454 26.1875 19.5287 26.2224 19.8815 26.3577C20.2343 26.493 20.5427 26.7235 20.7724 27.0235C20.9166 27.1876 21.0081 27.3912 21.0349 27.608C21.062 27.7008 21.0597 27.7997 21.0284 27.8912C20.9971 27.9827 20.9382 28.0622 20.8599 28.119C20.6814 28.2205 20.5519 28.056 20.4329 27.9475C20.1684 27.6557 19.8574 27.4097 19.5124 27.2195C18.6794 26.8695 17.6364 27.1845 16.9119 27.9965C16.5149 28.491 16.1634 29.0205 15.8619 29.5785C15.8164 29.6555 15.7499 29.7255 15.6589 29.89Z" fill="#F8FDFD"/>
<path d="M45.5 25.004C45.7625 24.976 45.85 25.172 45.9375 25.354C45.976 25.431 45.9865 25.585 46.13 25.543C46.2735 25.501 46.249 25.3785 46.2455 25.2805C46.241 25.1789 46.2209 25.0786 46.186 24.983C46.1615 24.8955 46.046 24.7835 46.186 24.7275C46.326 24.6715 46.3435 24.829 46.396 24.913C46.9315 25.7565 46.333 27.384 45.381 27.6675C45.262 27.7025 45.066 27.8215 45.1185 27.503C45.1535 27.3035 44.982 27.3665 44.8875 27.412C44.716 27.496 44.5375 27.5975 44.387 27.6885C44.31 27.734 44.219 27.79 44.163 27.6885C44.107 27.587 44.212 27.5695 44.2715 27.5205C44.5915 27.2447 44.8208 26.8787 44.9295 26.4705C45.0625 26.0295 44.8595 25.655 44.702 25.27C44.7903 25.2259 44.891 25.213 44.9875 25.2334C45.0841 25.2537 45.171 25.3061 45.234 25.382C45.332 25.4695 45.4195 25.648 45.584 25.5255C45.7485 25.403 45.626 25.27 45.584 25.137C45.584 25.0915 45.5455 25.046 45.528 24.997L45.5 25.004Z" fill="#F8FDFD"/>
<path d="M42.448 32.816C42.217 32.228 42.4095 31.6855 42.5635 31.136C42.5635 31.0905 42.6125 31.038 42.672 31.0485C42.7315 31.059 42.763 31.1325 42.7665 31.1955C42.786 31.7529 42.6771 32.3074 42.448 32.816Z" fill="#F8FDFD"/>
<path d="M45.5001 24.997H45.4756L45.4931 25.018L45.5001 24.997Z" fill="#F8FDFD"/>
<path d="M38.9236 26.845C39.0321 26.9955 38.8361 27.0585 38.8711 27.195C39.1861 27.237 39.1546 26.845 39.3821 26.7715C39.5746 26.9675 39.2736 27.1215 39.3436 27.3315C39.5746 27.286 39.5536 27.0655 39.6341 26.9185C40.0296 27.3735 39.7671 28.3185 39.1861 28.567C39.1161 28.4025 39.3471 28.3045 39.2666 28.1155C39.0741 28.1155 38.9621 28.294 38.8221 28.399C38.5823 28.589 38.3142 28.7402 38.0276 28.847C37.9471 28.875 37.8421 28.9065 37.7931 28.805C37.7441 28.7035 37.8281 28.6685 37.8806 28.616C37.9275 28.5732 37.972 28.5276 38.0136 28.4795C38.0491 28.4416 38.0716 28.3934 38.0779 28.3418C38.0842 28.2902 38.0739 28.2379 38.0486 28.1925C37.9646 28.0665 37.8701 28.1925 37.7861 28.2205C37.0864 28.5683 36.302 28.7091 35.5251 28.6265C34.965 28.5997 34.4066 28.5448 33.8521 28.462C33.0393 28.3474 32.2107 28.4689 31.4651 28.812C31.3496 28.861 31.2446 28.945 31.0906 28.854C31.3566 28.385 31.8291 28.259 32.2911 28.154C33.1956 27.9845 34.1202 27.9491 35.0351 28.049C36.1656 28.1085 37.2821 28.098 38.2516 27.3735C38.4492 27.1662 38.6755 26.9882 38.9236 26.845Z" fill="#F8FDFD"/>
</svg>
