<svg width="70" height="70" viewBox="0 0 70 70" fill="none" xmlns="http://www.w3.org/2000/svg">
<path d="M70 0H0V70H70V0Z" fill="#002BDC"/>
<path d="M57.645 24.15L52.6715 36.715C52.6715 36.715 46.9 30.45 31.465 30.45C36.1795 18.41 36.4385 17.885 36.4385 17.885C36.4385 17.885 49.266 17.346 57.645 24.15Z" fill="#E71D26"/>
<path d="M54.7645 32.788C47.3725 26.3515 32.9 26.25 32.774 26.25L33.572 22.3265C34.1285 22.2915 47.299 21.5775 55.923 29.0885L54.7645 32.788Z" fill="#0D1C76"/>
<path d="M55.3385 31.745C47.481 24.9025 33.0645 24.7975 32.9385 24.8045L32.8755 23.7545C33.4075 23.723 47.5755 23.2995 55.762 30.429L55.3385 31.745Z" fill="white"/>
<path d="M12.355 33.313L17.3285 20.748C17.3285 20.748 30.681 11.3225 37.4885 16.548C34.083 26.25 32.774 29.1235 32.774 29.1235C32.774 29.1235 26.229 25.2 12.355 33.313Z" fill="#E71D26"/>
<path d="M13.9265 28.9065L14.4865 24.8675C16.0825 23.9085 30.275 15.68 37.1665 21.3675L34.6675 24.395C30.6355 21.07 17.3565 26.852 13.9265 28.9065Z" fill="#0D1C76"/>
<path d="M13.9335 27.7865L13.3945 26.887C13.9965 26.537 30.016 17.332 36.2495 22.484L35.5845 23.289C29.9145 18.606 14.0735 27.7025 13.9335 27.7865Z" fill="white"/>
<path d="M17.6855 64.6065H19.292V66.8185H19.0015V64.8445H17.976V66.8185H17.6855V64.6065Z" fill="white"/>
<path d="M20.65 66.85C20.5146 66.8549 20.3797 66.8298 20.2551 66.7766C20.1304 66.7234 20.0191 66.6433 19.929 66.542C19.7391 66.3151 19.6405 66.0256 19.6525 65.73C19.6389 65.4228 19.7414 65.1217 19.9395 64.8865C20.0316 64.7824 20.1455 64.6998 20.2732 64.6448C20.4008 64.5897 20.5391 64.5635 20.678 64.568C20.8144 64.5623 20.9503 64.5873 21.0758 64.6412C21.2012 64.6951 21.3128 64.7766 21.4025 64.8795C21.5907 65.1044 21.6881 65.3915 21.6755 65.6845C21.6939 65.9972 21.5897 66.3049 21.385 66.542C21.2913 66.6425 21.1773 66.7219 21.0506 66.775C20.9239 66.8281 20.7873 66.8537 20.65 66.85ZM20.65 66.619C20.7515 66.6225 20.8522 66.6002 20.9428 66.5543C21.0333 66.5085 21.1108 66.4404 21.168 66.3565C21.2916 66.1645 21.3573 65.9409 21.3573 65.7125C21.3573 65.4841 21.2916 65.2606 21.168 65.0685C21.1085 64.9847 21.0298 64.9164 20.9384 64.8692C20.8471 64.8221 20.7458 64.7975 20.643 64.7975C20.5402 64.7975 20.4389 64.8221 20.3476 64.8692C20.2563 64.9164 20.1775 64.9847 20.118 65.0685C19.9892 65.2619 19.9243 65.4908 19.9325 65.723C19.9264 65.9478 19.9927 66.1687 20.1215 66.353C20.1791 66.4395 20.2579 66.5097 20.3505 66.5569C20.443 66.6041 20.5462 66.6267 20.65 66.6225V66.619Z" fill="white"/>
<path d="M22.1585 64.6065H23.45V66.8185H23.17V64.8445H22.4385V65.5165C22.4385 65.6635 22.4385 65.786 22.4385 65.8875C22.4306 66.0048 22.4166 66.1217 22.3965 66.2375C22.3819 66.3462 22.3487 66.4515 22.2985 66.549C22.2542 66.6307 22.192 66.7013 22.1165 66.7555C22.0127 66.8241 21.891 66.8606 21.7665 66.8605L21.7315 66.6295C21.8196 66.6167 21.9009 66.5748 21.9625 66.5105C22.092 66.388 22.1585 66.066 22.1585 65.5515V64.6065Z" fill="white"/>
<path d="M23.9365 64.6065H24.206V65.5375C24.206 65.8875 24.206 66.213 24.1815 66.4755C24.3049 66.2234 24.4416 65.9781 24.591 65.7405L25.291 64.603H25.578V66.815H25.3085V65.8735C25.3085 65.485 25.3085 65.1735 25.333 64.974C25.2101 65.2304 25.0722 65.4794 24.92 65.7195L24.22 66.8185H23.9155L23.9365 64.6065Z" fill="white"/>
<path d="M26.502 66.8185V64.848H25.8265V64.6065H27.4645V64.848H26.789V66.8185H26.502Z" fill="white"/>
<path d="M27.6955 64.6065H27.965V65.5375C27.965 65.8875 27.965 66.213 27.937 66.4755C28.0603 66.2234 28.197 65.9781 28.3465 65.7405L29.0465 64.603H29.3335V66.815H29.064V65.8735C29.064 65.485 29.064 65.1735 29.0885 64.974C28.9739 65.23 28.8442 65.479 28.7 65.7195L28 66.8185H27.6955V64.6065Z" fill="white"/>
<path d="M29.799 64.6065H30.1V65.3065C30.0957 65.3698 30.104 65.4334 30.1244 65.4935C30.1449 65.5535 30.177 65.609 30.219 65.6565C30.2651 65.7009 30.3202 65.7349 30.3806 65.756C30.441 65.7772 30.5053 65.785 30.569 65.779C30.7252 65.7815 30.8787 65.7377 31.01 65.653V64.603H31.297V66.85H31.01V65.905C30.8479 65.9969 30.6643 66.044 30.478 66.0415C30.4013 66.0415 30.3249 66.0321 30.2505 66.0135C30.1759 65.9918 30.1051 65.9587 30.0405 65.9155C29.969 65.8627 29.9133 65.7913 29.8795 65.709C29.8377 65.6045 29.8175 65.4926 29.82 65.38L29.799 64.6065Z" fill="white"/>
<path d="M32.9 65.5445V65.8H32.0495V66.598H33.0085V66.836H31.759V64.624H32.9595V64.862H32.0495V65.562L32.9 65.5445Z" fill="white"/>
<path d="M34.8495 66.5174L34.9055 66.7449C34.7213 66.8241 34.5213 66.8601 34.321 66.8499C34.1732 66.859 34.0251 66.8361 33.8868 66.7829C33.7486 66.7296 33.6234 66.6472 33.5198 66.5413C33.4162 66.4354 33.3366 66.3084 33.2865 66.169C33.2363 66.0296 33.2167 65.8811 33.229 65.7334C33.2204 65.5791 33.2445 65.4246 33.2997 65.2801C33.3548 65.1357 33.4399 65.0045 33.5492 64.8951C33.6586 64.7858 33.7898 64.7008 33.9342 64.6456C34.0787 64.5904 34.2331 64.5663 34.3875 64.5749C34.5673 64.5682 34.7464 64.6004 34.9125 64.6694L34.839 64.9039C34.6998 64.8401 34.5477 64.809 34.3945 64.8129C34.2791 64.8073 34.1637 64.8259 34.0558 64.8675C33.9479 64.9091 33.8499 64.9727 33.768 65.0544C33.6866 65.1448 33.6239 65.2504 33.5836 65.3651C33.5434 65.4799 33.5263 65.6015 33.5335 65.7229C33.5199 65.9599 33.6004 66.1926 33.7575 66.3704C33.8389 66.4516 33.9364 66.5147 34.0437 66.5557C34.1511 66.5967 34.2658 66.6147 34.3805 66.6084C34.5417 66.6129 34.7018 66.5818 34.8495 66.5174Z" fill="white"/>
<path d="M35.2485 64.6065H35.5355V65.5865H35.623L36.3825 64.6065H36.7325L35.896 65.6215C36.0423 65.6326 36.1805 65.6931 36.288 65.793C36.3891 65.9105 36.4674 66.0458 36.519 66.192C36.519 66.234 36.5575 66.304 36.5925 66.3985C36.6275 66.493 36.6555 66.57 36.68 66.633C36.7045 66.696 36.7325 66.759 36.7605 66.8185H36.456C36.377 66.6493 36.3092 66.4751 36.253 66.297C36.2087 66.1581 36.1333 66.0312 36.0325 65.926C35.9205 65.8374 35.7795 65.7937 35.637 65.8035H35.546V66.8185H35.259L35.2485 64.6065Z" fill="white"/>
<path d="M38.171 66.122H37.387L37.156 66.822H36.862L37.6145 64.61H37.9645L38.7205 66.822H38.416L38.171 66.122ZM37.4465 65.898H38.1115L37.891 65.261C37.863 65.1735 37.828 65.0405 37.779 64.8585C37.744 65.002 37.709 65.1385 37.6705 65.261L37.4465 65.898Z" fill="white"/>
<path d="M39.1265 66.8185H38.8185C38.8541 66.7545 38.8845 66.6878 38.9095 66.619C38.9095 66.5735 38.948 66.5105 38.9725 66.4265C38.997 66.3425 39.025 66.269 39.046 66.2165C39.0681 66.155 39.095 66.0953 39.1265 66.038C39.1566 65.9788 39.1956 65.9245 39.242 65.877C39.2943 65.8249 39.3577 65.7854 39.4275 65.7615C39.2946 65.7413 39.1718 65.6787 39.0775 65.583C38.9846 65.4834 38.9344 65.3516 38.9375 65.2155C38.934 65.1303 38.951 65.0455 38.9869 64.9682C39.0228 64.8909 39.0767 64.8233 39.144 64.771C39.3286 64.6412 39.5524 64.5794 39.7775 64.596C39.9546 64.5966 40.1314 64.6118 40.306 64.6415V66.8255H40.019V65.8665H39.8055C39.6903 65.8601 39.5773 65.899 39.4905 65.975C39.4402 66.0293 39.3999 66.0921 39.3715 66.1605C39.3305 66.2523 39.2966 66.347 39.27 66.444C39.235 66.5595 39.2105 66.633 39.2 66.6645L39.1265 66.8185ZM40.019 65.6355V64.8375C39.9293 64.8183 39.8376 64.8101 39.746 64.813C39.6141 64.8067 39.4834 64.8409 39.3715 64.911C39.3228 64.9462 39.2841 64.9934 39.259 65.0479C39.2338 65.1025 39.2232 65.1626 39.228 65.2225C39.2249 65.2827 39.2375 65.3428 39.2645 65.3967C39.2915 65.4507 39.3319 65.4968 39.382 65.5305C39.4984 65.6093 39.637 65.6486 39.7775 65.6425C39.858 65.6452 39.9387 65.6429 40.019 65.6355Z" fill="white"/>
<path d="M41.4645 64.6065H43.0675V66.8185H42.7805V64.8445H41.7515V66.8185H41.4645V64.6065Z" fill="white"/>
<path d="M44.6915 66.122H43.9075L43.6765 66.822H43.4L44.149 64.61H44.499L45.255 66.822H44.947L44.6915 66.122ZM43.9635 65.898H44.632L44.4115 65.261C44.3835 65.1735 44.345 65.0405 44.2995 64.8585C44.2709 64.9946 44.2347 65.129 44.191 65.261L43.9635 65.898Z" fill="white"/>
<path d="M45.542 66.8185V64.6345C45.7223 64.6037 45.905 64.5885 46.088 64.589C46.3114 64.5717 46.5334 64.6378 46.711 64.7745C46.7758 64.8314 46.8271 64.9022 46.861 64.9815C46.8949 65.0609 46.9107 65.1468 46.907 65.233C46.9113 65.3195 46.898 65.406 46.8679 65.4872C46.8378 65.5684 46.7916 65.6427 46.732 65.7055C46.6429 65.7915 46.5367 65.8577 46.4203 65.8999C46.3039 65.9421 46.18 65.9594 46.0565 65.9505C45.9789 65.9529 45.9014 65.9459 45.8255 65.9295V66.8185H45.542ZM45.8255 64.8375V65.695C45.9034 65.7139 45.9834 65.7222 46.0635 65.7195C46.209 65.7274 46.3527 65.6841 46.4695 65.597C46.5191 65.5538 46.5582 65.4998 46.5837 65.4391C46.6091 65.3784 46.6204 65.3127 46.6165 65.247C46.6209 65.1855 46.6105 65.1238 46.5862 65.0672C46.5618 65.0106 46.5242 64.9606 46.4765 64.9215C46.3657 64.8423 46.2309 64.8039 46.095 64.813C46.0045 64.8115 45.9142 64.8197 45.8255 64.8375Z" fill="white"/>
<path d="M47.691 66.8185V64.848H47.019V64.6065H48.65V64.848H47.9745V66.8185H47.691Z" fill="white"/>
<path d="M48.888 64.6065H49.154V65.5375C49.154 65.8875 49.154 66.213 49.1295 66.4755C49.217 66.2865 49.3535 66.045 49.5355 65.7405L50.253 64.603H50.5365V66.815H50.267V65.8735C50.267 65.485 50.267 65.1735 50.295 64.974C50.1722 65.2298 50.0355 65.4787 49.8855 65.7195L49.1855 66.8185H48.881L48.888 64.6065Z" fill="white"/>
<path d="M51.135 66.8185H50.827C50.8626 66.7545 50.8931 66.6878 50.918 66.619C50.918 66.5735 50.9565 66.5105 50.981 66.4265C51.0055 66.3425 51.0335 66.269 51.0545 66.2165C51.0766 66.155 51.1036 66.0953 51.135 66.038C51.1652 65.9788 51.2041 65.9245 51.2505 65.877C51.3028 65.8249 51.3662 65.7854 51.436 65.7615C51.3032 65.7413 51.1804 65.6787 51.086 65.583C50.9941 65.4831 50.9451 65.3511 50.9495 65.2155C50.9457 65.1306 50.9621 65.046 50.9974 64.9687C51.0327 64.8914 51.0858 64.8236 51.1525 64.771C51.3371 64.6412 51.561 64.5794 51.786 64.596C51.9631 64.5966 52.1399 64.6118 52.3145 64.6415V66.8255H52.0275V65.8665H51.8C51.6849 65.8601 51.5718 65.899 51.485 65.975C51.4347 66.0293 51.3944 66.0921 51.366 66.1605C51.3251 66.2523 51.2912 66.347 51.2645 66.444C51.2295 66.5595 51.205 66.633 51.1945 66.6645L51.135 66.8185ZM52.0275 65.6355V64.8375C51.9378 64.8183 51.8462 64.8101 51.7545 64.813C51.6227 64.8071 51.4921 64.8413 51.38 64.911C51.3314 64.9462 51.2926 64.9934 51.2675 65.0479C51.2424 65.1025 51.2317 65.1626 51.2365 65.2225C51.2335 65.2827 51.246 65.3428 51.273 65.3967C51.3 65.4507 51.3405 65.4968 51.3905 65.5305C51.5069 65.6093 51.6456 65.6486 51.786 65.6425C51.8666 65.6452 51.9472 65.6429 52.0275 65.6355Z" fill="white"/>
<path d="M22.7185 5.52302L22.7745 5.75052C22.5903 5.83008 22.3903 5.86601 22.19 5.85552C22.0463 5.86168 21.9028 5.83882 21.7681 5.78831C21.6334 5.7378 21.5102 5.66066 21.406 5.56152C21.3009 5.45238 21.2195 5.32262 21.1671 5.18045C21.1147 5.03827 21.0923 4.88677 21.1015 4.73552C21.0929 4.58143 21.1169 4.42727 21.1719 4.28307C21.2268 4.13886 21.3115 4.00785 21.4205 3.89857C21.5295 3.78928 21.6602 3.70416 21.8042 3.64876C21.9483 3.59336 22.1024 3.56891 22.2565 3.57702C22.4367 3.56911 22.6163 3.60264 22.7815 3.67502L22.708 3.90952C22.5698 3.84608 22.419 3.81496 22.267 3.81852C22.151 3.81303 22.0351 3.83167 21.9267 3.87323C21.8182 3.9148 21.7196 3.9784 21.637 4.06002C21.5552 4.15011 21.4923 4.25569 21.452 4.37051C21.4117 4.48533 21.3949 4.60707 21.4025 4.72852C21.3888 4.96545 21.4693 5.19818 21.6265 5.37602C21.7078 5.45717 21.8053 5.5203 21.9127 5.5613C22.02 5.6023 22.1347 5.62027 22.2495 5.61402C22.4106 5.61844 22.5707 5.58737 22.7185 5.52302Z" fill="white"/>
<path d="M24.276 5.12748H23.492L23.261 5.82748H22.9635L23.716 3.61548H24.066L24.822 5.82748H24.5L24.276 5.12748ZM23.548 4.89998H24.2165L23.996 4.26298C23.968 4.17548 23.9295 4.04248 23.884 3.86048C23.8554 3.99543 23.8192 4.12864 23.7755 4.25948L23.548 4.89998Z" fill="white"/>
<path d="M25.2315 5.82403H24.9235C24.9577 5.75935 24.9881 5.69273 25.0145 5.62453L25.0775 5.42853L25.1475 5.22203C25.1718 5.16083 25.1998 5.10122 25.2315 5.04353C25.2617 4.98434 25.3006 4.93006 25.347 4.88253C25.3987 4.82975 25.4623 4.79014 25.5325 4.76703C25.3986 4.74793 25.2751 4.68373 25.1825 4.58503C25.0914 4.49148 25.041 4.36562 25.0425 4.23503C25.039 4.15018 25.0555 4.0657 25.0908 3.98845C25.126 3.91121 25.1791 3.84339 25.2455 3.79053C25.4304 3.66128 25.654 3.59949 25.879 3.61553C26.0562 3.61427 26.2331 3.6295 26.4075 3.66103V5.84503H26.124V4.86503H25.9C25.8429 4.86046 25.7854 4.86774 25.7312 4.88641C25.677 4.90508 25.6272 4.93474 25.585 4.97353C25.5336 5.02698 25.4932 5.09001 25.466 5.15903C25.4247 5.25108 25.3897 5.34579 25.361 5.44253C25.3422 5.51739 25.3188 5.59103 25.291 5.66303C25.277 5.72603 25.2525 5.77853 25.2315 5.82403ZM26.124 4.64103V3.85003C26.0343 3.83085 25.9427 3.82263 25.851 3.82553C25.7191 3.81924 25.5884 3.85344 25.4765 3.92353C25.4279 3.95877 25.3891 4.00594 25.364 4.0605C25.3389 4.11505 25.3282 4.17516 25.333 4.23503C25.3296 4.29496 25.3416 4.35477 25.368 4.40871C25.3943 4.46265 25.4341 4.50891 25.4835 4.54303C25.6001 4.62141 25.7386 4.66064 25.879 4.65503C25.9609 4.65548 26.0427 4.65081 26.124 4.64103Z" fill="white"/>
<path d="M28.378 5.52302L28.434 5.75052C28.2499 5.83008 28.0498 5.86601 27.8495 5.85552C27.7053 5.86136 27.5614 5.83836 27.4261 5.78788C27.2909 5.73739 27.1671 5.66044 27.062 5.56152C26.9582 5.45161 26.878 5.32164 26.8262 5.1796C26.7745 5.03756 26.7523 4.88644 26.761 4.73552C26.7524 4.58143 26.7764 4.42727 26.8314 4.28307C26.8864 4.13886 26.9711 4.00785 27.08 3.89857C27.189 3.78928 27.3197 3.70416 27.4638 3.64876C27.6078 3.59336 27.7619 3.56891 27.916 3.57702C28.0962 3.56911 28.2758 3.60264 28.441 3.67502L28.3675 3.90952C28.2293 3.84608 28.0785 3.81496 27.9265 3.81852C27.8105 3.81303 27.6946 3.83167 27.5862 3.87323C27.4778 3.9148 27.3791 3.9784 27.2965 4.06002C27.2147 4.15011 27.1518 4.25569 27.1115 4.37051C27.0713 4.48533 27.0544 4.60707 27.062 4.72852C27.0571 4.8468 27.0756 4.96488 27.1165 5.07599C27.1573 5.1871 27.2197 5.28906 27.3 5.37602C27.3814 5.45717 27.4789 5.5203 27.5862 5.5613C27.6935 5.6023 27.8083 5.62027 27.923 5.61402C28.0794 5.61641 28.2346 5.58539 28.378 5.52302Z" fill="white"/>
<path d="M28.7805 3.612H29.05V4.55C29.05 4.9 29.05 5.222 29.022 5.4845C29.1095 5.299 29.246 5.0575 29.428 4.753L30.128 3.6155H30.45V5.8275H30.17V4.9C30.17 4.5115 30.17 4.2 30.198 4.0005C30.0752 4.25629 29.9385 4.50516 29.7885 4.746L29.0885 5.845H28.784L28.7805 3.612Z" fill="white"/>
<path d="M30.9225 3.61202H31.192V4.55002C31.192 4.90002 31.192 5.22202 31.164 5.48452C31.2515 5.29902 31.388 5.05752 31.5735 4.75302L32.2735 3.61552H32.5605V5.82752H32.291V4.90002C32.291 4.51152 32.291 4.20002 32.3155 4.00052C32.198 4.24954 32.0659 4.49145 31.92 4.72502L31.22 5.82402H30.9155L30.9225 3.61202ZM31.332 3.15002H31.5525C31.5585 3.20297 31.5777 3.25355 31.6085 3.29702C31.6256 3.31786 31.6478 3.33396 31.673 3.34376C31.6981 3.35357 31.7253 3.35676 31.752 3.35302C31.7792 3.3564 31.8069 3.35305 31.8325 3.34329C31.8581 3.33353 31.881 3.31765 31.899 3.29702C31.9298 3.25355 31.9491 3.20297 31.955 3.15002H32.172C32.172 3.38452 32.0145 3.50002 31.745 3.50002C31.6941 3.50935 31.6417 3.50726 31.5917 3.4939C31.5416 3.48054 31.4952 3.45624 31.4557 3.42276C31.4162 3.38928 31.3846 3.34745 31.3632 3.30029C31.3418 3.25312 31.3312 3.2018 31.332 3.15002Z" fill="white"/>
<path d="M33.7435 3.612H35.35V5.824H35.063V3.85H34.0305V5.824H33.7435V3.612Z" fill="white"/>
<path d="M36.9705 5.1275H36.1865L35.9555 5.8275H35.6615L36.4 3.612H36.75L37.506 5.824H37.198L36.9705 5.1275ZM36.2425 4.9H36.911L36.6905 4.263C36.6625 4.1755 36.624 4.0425 36.5785 3.8605C36.5499 3.99545 36.5137 4.12866 36.47 4.2595L36.2425 4.9Z" fill="white"/>
<path d="M37.821 5.82401V3.64001C38.0011 3.60744 38.184 3.5922 38.367 3.59451C38.5904 3.5772 38.8124 3.64328 38.99 3.78001C39.0548 3.83693 39.1061 3.90767 39.14 3.98701C39.1739 4.06636 39.1896 4.15229 39.186 4.23851C39.1903 4.325 39.177 4.41147 39.1469 4.49269C39.1168 4.5739 39.0706 4.64817 39.011 4.71101C38.9217 4.79652 38.8154 4.86223 38.699 4.90385C38.5826 4.94546 38.4587 4.96204 38.3355 4.95251C38.2581 4.95573 38.1805 4.94985 38.1045 4.93501V5.82401H37.821ZM38.1045 3.84301V4.70051C38.1823 4.7194 38.2624 4.72764 38.3425 4.72501C38.488 4.73291 38.6316 4.68956 38.7485 4.60251C38.7981 4.55928 38.8372 4.50526 38.8626 4.44458C38.8881 4.38391 38.8994 4.3182 38.8955 4.25251C38.8999 4.191 38.8895 4.12934 38.8652 4.07269C38.8408 4.01605 38.8032 3.96609 38.7555 3.92701C38.6447 3.84775 38.5099 3.8094 38.374 3.81851C38.2833 3.81925 38.1929 3.82981 38.1045 3.85001V3.84301Z" fill="white"/>
<path d="M39.97 5.82402V3.85002H39.298V3.60852H40.95V3.85002H40.25V5.82052L39.97 5.82402Z" fill="white"/>
<path d="M41.1635 3.612H41.433V4.55C41.433 4.9 41.433 5.222 41.4085 5.4845C41.5313 5.23392 41.6668 4.98977 41.8145 4.753L42.5145 3.6155H42.798V5.8275H42.5285V4.9C42.5285 4.5115 42.5285 4.2 42.5565 4.0005C42.4337 4.25629 42.297 4.50516 42.147 4.746L41.447 5.845H41.139L41.1635 3.612Z" fill="white"/>
<path d="M43.4 5.82401H43.092C43.1276 5.76004 43.1581 5.69333 43.183 5.62451C43.183 5.57901 43.2215 5.51601 43.246 5.42851C43.2705 5.34101 43.2985 5.27451 43.3195 5.22201C43.341 5.16022 43.3679 5.10048 43.4 5.04351C43.4302 4.98432 43.4691 4.93003 43.5155 4.88251C43.5678 4.83044 43.6312 4.79094 43.701 4.76701C43.5673 4.74711 43.4441 4.68304 43.351 4.58501C43.2621 4.49029 43.2132 4.3649 43.2145 4.23501C43.2101 4.15005 43.2262 4.06527 43.2616 3.98788C43.2969 3.9105 43.3504 3.84279 43.4175 3.79051C43.6021 3.66073 43.826 3.59889 44.051 3.61551C44.2282 3.6144 44.4051 3.62964 44.5795 3.66101V5.84501H44.2925V4.86501H44.1C44.0429 4.86106 43.9856 4.86863 43.9315 4.88727C43.8774 4.90591 43.8276 4.93523 43.785 4.97351C43.7347 5.02782 43.6944 5.09063 43.666 5.15901C43.6246 5.25059 43.5906 5.3454 43.5645 5.44251C43.5295 5.55801 43.505 5.63151 43.4945 5.66301L43.4 5.82401ZM44.2925 4.64101V3.85001C44.2029 3.83083 44.1112 3.8226 44.0195 3.82551C43.8877 3.81966 43.7571 3.85383 43.645 3.92351C43.5964 3.95875 43.5577 4.00592 43.5325 4.06047C43.5074 4.11503 43.4967 4.17513 43.5015 4.23501C43.4985 4.29526 43.5111 4.35529 43.538 4.40926C43.565 4.46322 43.6055 4.5093 43.6555 4.54301C43.7719 4.62184 43.9106 4.66111 44.051 4.65501C44.1364 4.65601 44.2218 4.65133 44.3065 4.64101H44.2925Z" fill="white"/>
<path d="M46.55 5.52294L46.606 5.75044C46.422 5.83037 46.2219 5.86632 46.0215 5.85544C45.8779 5.86081 45.7346 5.83758 45.6 5.78711C45.4654 5.73664 45.3422 5.65993 45.2375 5.56144C45.1324 5.4523 45.0511 5.32255 44.9986 5.18037C44.9462 5.0382 44.9239 4.88669 44.933 4.73544C44.9272 4.58176 44.9524 4.42848 45.0071 4.28476C45.0618 4.14104 45.145 4.00982 45.2515 3.89894C45.3618 3.79124 45.4928 3.70715 45.6366 3.65178C45.7804 3.59642 45.934 3.57095 46.088 3.57694C46.2682 3.56904 46.4478 3.60256 46.613 3.67494L46.543 3.90944C46.4036 3.84595 46.2517 3.81484 46.0985 3.81844C45.9825 3.81296 45.8666 3.83159 45.7582 3.87316C45.6498 3.91472 45.5511 3.97832 45.4685 4.05994C45.3874 4.15046 45.3249 4.25611 45.2847 4.37082C45.2444 4.48554 45.2272 4.60706 45.234 4.72844C45.2217 4.9658 45.3034 5.19846 45.4615 5.37594C45.5422 5.457 45.6391 5.5201 45.7458 5.56112C45.8526 5.60213 45.9668 5.62013 46.081 5.61394C46.2421 5.61836 46.4023 5.5873 46.55 5.52294Z" fill="white"/>
<path d="M46.963 3.612H47.25V4.4415C47.3378 4.42581 47.4269 4.41877 47.516 4.4205C47.7325 4.4121 47.946 4.47345 48.125 4.5955C48.2055 4.65463 48.2698 4.73308 48.312 4.8236C48.3542 4.91413 48.373 5.01383 48.3665 5.1135C48.3716 5.20191 48.359 5.29044 48.3296 5.37396C48.3001 5.45747 48.2544 5.53431 48.195 5.6C48.0885 5.69498 47.9637 5.76724 47.8283 5.81237C47.6929 5.85751 47.5497 5.87456 47.4075 5.8625C47.2589 5.86338 47.1104 5.85403 46.963 5.8345V3.612ZM47.2465 4.662V5.6C47.3233 5.60721 47.4007 5.60721 47.4775 5.6C47.6282 5.60596 47.7764 5.56027 47.8975 5.4705C47.951 5.42939 47.994 5.37631 48.0232 5.31551C48.0524 5.25472 48.0669 5.18792 48.0655 5.1205C48.0686 5.05246 48.0545 4.98474 48.0245 4.92357C47.9945 4.86241 47.9497 4.80977 47.894 4.7705C47.7692 4.68983 47.6225 4.64951 47.474 4.655C47.3992 4.65469 47.3245 4.6582 47.25 4.6655L47.2465 4.662ZM48.6115 3.612H48.8985V5.824H48.6115V3.612Z" fill="white"/>
<path d="M18.746 45.7485C18.569 45.6256 18.369 45.5399 18.158 45.4965C17.9347 45.4496 17.7071 45.4262 17.479 45.4265H16.653V45.038H18.9175V43.8025H15.2845V48.545H17.479C17.7074 48.5459 17.9351 48.5213 18.158 48.4715C18.3693 48.4308 18.5696 48.3462 18.746 48.223C18.9187 48.0961 19.0581 47.9291 19.152 47.7365C19.2537 47.4986 19.3061 47.2427 19.3061 46.984C19.3061 46.7253 19.2537 46.4693 19.152 46.2315C19.0579 46.0399 18.9186 45.8741 18.746 45.7485ZM17.9025 46.984C17.9047 47.0462 17.894 47.1082 17.871 47.166C17.8505 47.2074 17.8205 47.2433 17.7835 47.271C17.7436 47.2982 17.6982 47.3162 17.6505 47.3235C17.5888 47.3288 17.5267 47.3288 17.465 47.3235H16.653V46.6235H17.465C17.5268 46.6196 17.5887 46.6196 17.6505 46.6235C17.6978 46.6324 17.7429 46.6502 17.7835 46.676C17.819 46.7052 17.8486 46.7408 17.871 46.781C17.8967 46.8454 17.9075 46.9148 17.9025 46.984Z" fill="white"/>
<path d="M22.631 46.116C22.631 46.144 22.631 46.172 22.631 46.2C22.631 46.333 22.631 46.4625 22.631 46.592V48.545H23.9995V43.8025H22.7255L21.0665 46.235C21.0648 46.2058 21.0648 46.1766 21.0665 46.1475C21.0665 46.011 21.0665 45.8815 21.0665 45.752V43.8025H19.705V48.545H20.972L22.631 46.116Z" fill="white"/>
<path d="M26.033 47.103H26.558C26.8295 47.1041 27.1005 47.0772 27.3665 47.0225C27.6002 46.9729 27.8231 46.8817 28.0245 46.753C28.2142 46.6228 28.3682 46.4471 28.4725 46.242C28.5787 45.9924 28.6334 45.724 28.6334 45.4528C28.6334 45.1815 28.5787 44.9131 28.4725 44.6635C28.3692 44.4568 28.2151 44.2797 28.0245 44.149C27.8239 44.0157 27.5992 43.9229 27.363 43.876C27.0977 43.8255 26.8281 43.8009 26.558 43.8025H24.6645V48.545H26.033V47.103ZM27.062 45.8045C27.0022 45.8412 26.9355 45.8651 26.866 45.8745C26.784 45.8899 26.7009 45.8981 26.6175 45.899H26.033V45.0065H26.6175C26.7008 45.0062 26.7839 45.0133 26.866 45.0275C26.9353 45.0397 27.0017 45.0646 27.062 45.101C27.1146 45.1324 27.158 45.1771 27.188 45.2305C27.218 45.3001 27.2335 45.3752 27.2335 45.451C27.2335 45.5268 27.218 45.6019 27.188 45.6715C27.1585 45.7262 27.1151 45.7721 27.062 45.8045Z" fill="white"/>
<path d="M31.9445 46.2C31.9445 46.333 31.9445 46.4625 31.9445 46.592V48.545H33.313V43.8025H32.039L30.38 46.235C30.3818 46.2059 30.3818 46.1766 30.38 46.1475C30.38 46.011 30.38 45.8815 30.38 45.752V43.8025H29.022V48.545H30.289L31.948 46.116C31.9451 46.1439 31.9439 46.1719 31.9445 46.2Z" fill="white"/>
<path d="M36.9914 47.614L37.8524 46.291V48.545H39.2209V43.799H37.9539L36.6029 45.885L35.2729 43.8375L35.2484 43.799H33.9814V48.545H35.3499V46.2875L36.2109 47.614H36.9914Z" fill="white"/>
<path d="M44.282 43.8025H40.8485V43.8795C40.8485 44.1735 40.8485 44.478 40.8205 44.7895C40.7925 45.101 40.761 45.3985 40.712 45.6925C40.6603 45.9889 40.5878 46.2813 40.495 46.5675C40.403 46.8347 40.2858 47.0925 40.145 47.3375H39.5885V49.4935H40.796V48.545H43.652V49.4935H44.856V47.3375H44.268L44.282 43.8025ZM42.91 45.038V47.3375H41.6115C41.683 47.198 41.7427 47.0529 41.79 46.9035C41.8564 46.7029 41.9101 46.4983 41.951 46.291C41.9895 46.0845 42.0245 45.864 42.0525 45.6365C42.0805 45.409 42.0945 45.2445 42.112 45.038H42.91Z" fill="white"/>
<path d="M48.223 46.116C48.2212 46.144 48.2212 46.172 48.223 46.2C48.223 46.333 48.223 46.4625 48.223 46.592V48.545H49.5915V43.8025H48.3L46.641 46.235C46.6428 46.2059 46.6428 46.1766 46.641 46.1475C46.641 46.011 46.641 45.8815 46.641 45.752V43.8025H45.2725V48.545H46.55L48.223 46.116Z" fill="white"/>
<path d="M51.625 46.774H52.073L53.186 48.545H54.7155L53.158 46.1125L54.6525 43.799H53.1195L52.0765 45.5385H51.625V43.799H50.2565V48.545H51.625V46.774Z" fill="white"/>
<path d="M16.6705 53.5395H18.5605V52.3425H16.6705V51.7965H18.76V50.5925H15.2985V55.335H18.7985V54.131H16.6705V53.5395Z" fill="white"/>
<path d="M24.052 50.5925H20.6185V50.6695C20.6185 50.9635 20.6185 51.2715 20.5905 51.5795C20.5707 51.8834 20.5345 52.186 20.482 52.486C20.4307 52.7813 20.3582 53.0726 20.265 53.3575C20.1793 53.6254 20.068 53.8845 19.9325 54.131H19.376V56.287H20.58V55.335H23.45V56.287H24.6575V54.131H24.052V50.5925ZM22.6835 51.8315V54.131H21.385C21.4532 53.9905 21.5117 53.8455 21.56 53.697C21.6275 53.4967 21.6813 53.2921 21.721 53.0845C21.763 52.878 21.798 52.6575 21.826 52.43C21.854 52.2025 21.868 52.0345 21.8855 51.8315H22.6835Z" fill="white"/>
<path d="M26.789 53.025V52.941C26.789 52.8045 26.789 52.6715 26.789 52.5455V50.5925H25.4275V55.335H26.6945L28.35 52.9095V52.99C28.35 53.1265 28.35 53.256 28.35 53.382V55.335H29.715V50.5925H28.448L26.789 53.025Z" fill="white"/>
<path d="M33.663 52.3495H32.1195V50.5925H30.7475V55.335H32.1195V53.585H33.663V55.335H35.0315V50.5925H33.663V52.3495Z" fill="white"/>
<path d="M39.2385 54.11C38.8693 54.231 38.4728 54.2419 38.0975 54.1415C37.9414 54.0981 37.7944 54.0269 37.6635 53.9315C37.5395 53.8374 37.4369 53.7181 37.3625 53.5815C37.2815 53.4136 37.2419 53.2288 37.247 53.0425C37.2416 52.8347 37.281 52.6282 37.3625 52.437C37.4343 52.2818 37.5395 52.1444 37.6705 52.0345C37.7973 51.9279 37.9452 51.8491 38.1045 51.8035C38.4606 51.6894 38.8432 51.6882 39.2 51.8C39.3754 51.8562 39.5391 51.944 39.683 52.059L39.8125 52.1675V50.806L39.767 50.785C39.5584 50.6849 39.3387 50.6097 39.1125 50.561C38.5671 50.4442 38.001 50.4683 37.4675 50.631C37.1658 50.7263 36.8861 50.881 36.645 51.086C36.3951 51.3041 36.1956 51.574 36.0605 51.877C35.9075 52.2388 35.8324 52.6287 35.84 53.0215C35.8309 53.3981 35.9087 53.7718 36.0675 54.1135C36.204 54.4036 36.4052 54.6586 36.6555 54.859C36.9007 55.0561 37.1827 55.2024 37.485 55.2895C37.7917 55.3805 38.1101 55.4265 38.43 55.426C38.9024 55.4311 39.3699 55.3307 39.7985 55.132L39.844 55.111V53.711L39.711 53.837C39.5756 53.9618 39.4143 54.055 39.2385 54.11Z" fill="white"/>
<path d="M40.341 51.8315H41.636V55.335H43.008V51.8315H44.296V50.5925H40.341V51.8315Z" fill="white"/>
<path d="M48.734 53.158C48.6503 53.0586 48.551 52.9735 48.44 52.906L48.2685 52.8185C48.4081 52.7423 48.528 52.6344 48.6185 52.5035C48.7499 52.3047 48.816 52.0697 48.8075 51.8315C48.8204 51.6473 48.7845 51.4629 48.7033 51.297C48.6222 51.1311 48.4988 50.9895 48.3455 50.8865C47.9756 50.6718 47.5511 50.5696 47.124 50.5925H44.975V55.335H47.0435C47.2687 55.3354 47.4935 55.3166 47.7155 55.279C47.935 55.2441 48.1468 55.1719 48.342 55.0655C48.5281 54.9642 48.6876 54.8203 48.8075 54.6455C48.9393 54.4367 49.0029 54.1921 48.9895 53.9455C48.9927 53.7932 48.969 53.6416 48.9195 53.4975C48.8778 53.3744 48.815 53.2596 48.734 53.158ZM46.354 52.388V51.688H47.0225C47.1377 51.68 47.2519 51.7135 47.3445 51.7825C47.3794 51.8143 47.4069 51.8533 47.425 51.8968C47.4431 51.9404 47.4515 51.9874 47.4495 52.0345C47.4523 52.0817 47.4442 52.129 47.4261 52.1726C47.4079 52.2163 47.38 52.2552 47.3445 52.2865C47.2531 52.3582 47.1383 52.3932 47.0225 52.3845L46.354 52.388ZM47.6245 53.83C47.6324 53.8882 47.6245 53.9475 47.6017 54.0017C47.579 54.0558 47.5421 54.1029 47.495 54.138C47.3716 54.2044 47.2324 54.2359 47.0925 54.229H46.347V53.4275H47.0925C47.2324 53.4207 47.3716 53.4521 47.495 53.5185C47.5427 53.5539 47.5799 53.6016 47.6027 53.6564C47.6255 53.7113 47.633 53.7712 47.6245 53.83Z" fill="white"/>
<path d="M53.998 51.2365C53.775 51.001 53.504 50.816 53.2035 50.694C52.4915 50.4274 51.7071 50.4274 50.995 50.694C50.6949 50.8169 50.4242 51.0017 50.2005 51.2365C49.9895 51.4649 49.8276 51.7341 49.7245 52.0275C49.5096 52.6331 49.5096 53.2943 49.7245 53.9C49.8276 54.1934 49.9895 54.4625 50.2005 54.691C50.4242 54.9257 50.6949 55.1106 50.995 55.2335C51.7071 55.5 52.4915 55.5 53.2035 55.2335C53.4987 55.115 53.7651 54.9346 53.9849 54.7046C54.2046 54.4746 54.3726 54.2003 54.4775 53.9C54.6874 53.2935 54.6874 52.634 54.4775 52.0275C54.3746 51.7332 54.2113 51.4638 53.998 51.2365ZM53.235 52.9655C53.2365 53.1282 53.2117 53.2901 53.1615 53.445C53.1148 53.5851 53.0411 53.7147 52.9445 53.8265C52.8484 53.935 52.7286 54.02 52.5945 54.075C52.2744 54.1904 51.9241 54.1904 51.604 54.075C51.4699 54.02 51.3502 53.935 51.254 53.8265C51.1598 53.7136 51.0874 53.5843 51.0405 53.445C50.9426 53.1316 50.9426 52.7958 51.0405 52.4825C51.0874 52.3432 51.1598 52.2138 51.254 52.101C51.3502 51.9925 51.4699 51.9075 51.604 51.8525C51.7628 51.7927 51.9314 51.7631 52.101 51.765C52.2695 51.763 52.4369 51.7927 52.5945 51.8525C52.7286 51.9075 52.8484 51.9925 52.9445 52.101C53.0412 52.2121 53.1139 52.3419 53.158 52.4825C53.2113 52.6378 53.2373 52.8012 53.235 52.9655Z" fill="white"/>
</svg>
