<svg width="70" height="70" viewBox="0 0 70 70" fill="none" xmlns="http://www.w3.org/2000/svg">
<path d="M70 0H0V70H70V0Z" fill="#0001F7"/>
<path d="M61.8311 32.8335C60.6516 33.047 59.5106 33.4985 58.3311 33.6875C56.5811 33.9675 54.9886 33.4985 53.8406 32.053C53.4521 31.5665 53.2386 30.94 53.6341 30.303C54.0296 29.666 54.5161 30.1875 54.9711 30.2505C55.0656 29.2775 54.5966 28.742 53.8721 28.343C53.2106 27.993 52.4266 28.42 51.8981 28.1925C51.3696 27.965 51.5656 26.901 50.9391 26.467C50.8796 26.425 50.8271 26.3725 50.7641 26.334C50.4386 26.131 50.2321 26.04 50.1061 26.586C49.9861 27.1523 49.7344 27.6824 49.3715 28.1335C49.0087 28.5845 48.5447 28.9438 48.0172 29.1824C47.4898 29.4209 46.9135 29.5319 46.3352 29.5065C45.7568 29.4811 45.1926 29.3199 44.6881 29.036C43.0361 28.182 42.5881 25.578 43.8796 24.3355C44.5551 23.688 45.7696 23.5865 46.3891 24.129C47.0086 24.6715 47.0611 25.9035 46.5186 26.537C46.2806 26.8205 46.0146 27.0795 45.5841 26.887C45.4278 26.8336 45.293 26.7311 45.1997 26.5949C45.1063 26.4587 45.0595 26.296 45.0661 26.131C45.0613 26.0404 45.0751 25.9499 45.1066 25.8649C45.1381 25.7799 45.1866 25.7022 45.2492 25.6367C45.3119 25.5711 45.3872 25.5191 45.4707 25.4837C45.5541 25.4483 45.6439 25.4304 45.7346 25.431C45.8641 25.431 46.0251 25.5395 46.1161 25.3505C45.4756 24.4825 44.6356 24.556 44.1526 25.515C43.9505 25.9871 43.9061 26.5118 44.0259 27.0111C44.1457 27.5105 44.4233 27.9579 44.8176 28.287C45.2204 28.5731 45.7049 28.7213 46.1989 28.7093C46.6928 28.6973 47.1697 28.5258 47.5581 28.2205C48.9966 27.027 49.1611 25.466 48.8601 23.751C48.7561 23.0218 48.4527 22.3355 47.9833 21.7679C47.5139 21.2003 46.8968 20.7735 46.2001 20.5345C44.2786 19.7785 42.7281 20.6955 41.2231 21.7175C40.5231 22.1865 39.9141 22.7675 39.1231 23.1175C38.6592 23.3452 38.1286 23.3973 37.6293 23.2642C37.13 23.131 36.6959 22.8215 36.4071 22.393C35.7071 21.378 35.7491 19.901 36.5051 19.152C36.6697 18.9789 36.8772 18.8525 37.1065 18.7855C37.3358 18.7185 37.5787 18.7133 37.8106 18.7705C38.5736 18.942 38.7346 19.523 38.6296 20.202C38.5596 20.6745 38.3391 21.112 37.7721 20.902C37.0441 20.6465 37.2331 20.076 37.4221 19.5405C37.4221 19.5405 37.3696 19.4985 37.2961 19.4355C36.5961 19.6665 36.6171 20.2475 36.6486 20.8355C36.662 21.1664 36.7722 21.4861 36.9658 21.755C37.1593 22.0238 37.4275 22.2298 37.7371 22.3475C38.3916 22.6485 38.9516 22.3475 39.4346 21.9345C40.4356 21.0455 40.6141 19.3165 39.8651 18.004C39.55 17.397 39.0206 16.9287 38.3796 16.69C37.7387 16.4514 37.032 16.4594 36.3966 16.7125C35.7701 16.9645 35.5111 16.947 35.3466 16.268C35.2521 15.918 34.8776 15.4735 34.6711 16.135C34.4051 16.982 34.0761 16.9015 33.3691 16.6565C31.8816 16.1455 30.3416 17.0415 29.8271 18.5745C29.2881 20.174 29.8656 21.819 31.1396 22.3195C31.3233 22.4028 31.5223 22.447 31.7239 22.4494C31.9256 22.4518 32.1256 22.4122 32.3112 22.3333C32.4968 22.2543 32.6639 22.1376 32.8021 21.9906C32.9402 21.8437 33.0463 21.6696 33.1136 21.4795C33.3936 20.748 33.5686 19.9395 32.6341 19.4285C32.3681 19.7155 32.6831 19.859 32.6901 20.055C32.7076 20.517 32.5466 20.8705 32.0706 20.937C31.5946 21.0035 31.3706 20.6185 31.3146 20.195C31.2271 19.614 31.3146 19.068 31.9411 18.83C32.2478 18.6986 32.5919 18.6841 32.9086 18.7893C33.2252 18.8944 33.4924 19.1118 33.6596 19.4005C34.2791 20.265 34.1671 21.6405 33.4111 22.5505C32.7111 23.373 31.7206 23.562 30.6496 22.995C30.0447 22.6598 29.4667 22.2783 28.9206 21.854C28.2259 21.3207 27.4587 20.8894 26.6421 20.573C25.7216 20.2108 24.7006 20.1965 23.7703 20.5328C22.8401 20.8691 22.0642 21.5329 21.5881 22.4C20.4751 24.4055 20.8881 27.0655 22.5086 28.28C22.9268 28.5733 23.4303 28.7201 23.9405 28.6973C24.4508 28.6745 24.9393 28.4835 25.3296 28.154C25.6935 27.7956 25.9307 27.3284 26.0053 26.8232C26.0798 26.3179 25.9876 25.8021 25.7426 25.354C25.2421 24.5455 24.5036 24.5455 23.8596 25.424C24.3881 25.473 24.9446 25.4975 24.9096 26.208C24.9159 26.3907 24.8525 26.569 24.7323 26.7067C24.612 26.8445 24.444 26.9314 24.2621 26.95C23.5621 27.0235 23.3206 26.495 23.1806 25.942C22.9671 25.088 23.1071 24.332 24.0101 23.947C24.4877 23.7484 25.0246 23.7475 25.503 23.9443C25.9813 24.1412 26.3621 24.5197 26.5616 24.997C27.0306 26.1975 26.9746 27.398 26.1136 28.4025C25.1196 29.5505 23.7651 29.645 22.4001 29.3265C21.1401 29.05 20.2056 28.35 19.9116 26.9955C19.8556 26.7295 20.0376 26.313 19.6876 26.2255C19.3376 26.138 19.0226 26.4705 18.8056 26.7575C18.6172 26.9798 18.4872 27.2457 18.4276 27.531C18.3576 28.182 18.1441 28.3115 17.4581 28.189C16.0301 27.9265 15.0956 28.7735 15.0361 30.268C15.4946 30.1805 16.0231 29.757 16.3766 30.366C16.7301 30.975 16.5131 31.5035 16.2016 32.018C15.8963 32.4767 15.4748 32.8463 14.9801 33.089C14.3435 33.4497 13.6386 33.6735 12.9105 33.7458C12.1824 33.8181 11.4472 33.7375 10.7521 33.509C9.60409 33.159 8.46659 32.7285 7.25209 32.7705C5.50209 32.83 4.23509 34.44 4.70059 35.966C4.74174 36.1841 4.85097 36.3836 5.01258 36.5358C5.17419 36.688 5.37988 36.785 5.60009 36.813C5.7636 36.8435 5.93265 36.8149 6.07695 36.7322C6.22125 36.6494 6.33138 36.518 6.38759 36.3615C6.45759 36.1795 6.56609 35.854 6.21259 35.938C5.97809 35.9975 5.79259 36.288 5.65609 35.875C5.58732 35.7045 5.57056 35.5174 5.60793 35.3374C5.6453 35.1574 5.73513 34.9925 5.86609 34.8635C6.35259 34.3735 6.9161 34.447 7.50059 34.636C8.35023 34.9657 9.16028 35.3895 9.91559 35.8995C12.0156 37.163 15.2076 37.0475 17.1466 35.574C17.5561 35.2625 17.7346 35.35 18.0146 35.644C18.3441 36.0146 18.761 36.297 19.2273 36.4657C19.6936 36.6344 20.1947 36.684 20.6851 36.61C21.2976 36.519 21.8681 36.365 21.1191 35.56C20.2721 34.636 20.6186 33.593 21.1541 32.6165C21.3605 32.183 21.7044 31.8299 22.1323 31.6121C22.5603 31.3943 23.0482 31.3242 23.5201 31.4125C24.4616 31.542 24.7661 32.221 24.7836 33.054C24.7836 33.607 24.5561 34.104 23.9436 34.1565C23.1666 34.209 23.0231 33.607 22.9601 32.9875C22.9601 32.956 22.8586 32.935 22.8026 32.907C21.9591 33.929 21.8401 34.979 22.4701 35.8785C23.0511 36.7115 24.2551 37.191 25.0671 36.6415C25.8791 36.092 26.5371 35.9205 27.3806 36.5435C27.7586 36.8235 28.2171 36.5155 28.5951 36.2845C28.8786 36.106 28.8926 35.9345 28.6301 35.6965C27.1776 34.2965 27.2721 32.515 27.6816 30.7965C27.8086 30.142 28.1335 29.5423 28.6123 29.0785C29.0912 28.6147 29.7009 28.309 30.3591 28.203C31.5631 28 32.7216 28.203 33.4671 29.33C33.8559 29.8664 34.0808 30.504 34.1143 31.1657C34.1479 31.8273 33.9887 32.4845 33.6561 33.0575C33.0821 34.132 31.7836 34.398 30.9856 33.6385C30.7875 33.4463 30.6529 33.1981 30.5997 32.9273C30.5465 32.6564 30.5774 32.3758 30.6881 32.123C30.7203 31.9398 30.8164 31.7739 30.9593 31.6547C31.1021 31.5355 31.2826 31.4708 31.4686 31.472C32.0881 31.493 32.3471 31.899 32.4311 32.466C32.4311 32.5815 32.5466 32.6305 32.6691 32.5815C33.1416 31.4405 32.9351 30.562 32.0601 30.009C31.3286 29.54 30.1421 29.7675 29.4736 30.5025C28.2066 31.9025 28.3816 34.2195 29.8691 35.7525C31.2376 37.1525 32.5921 37.1525 34.2581 35.7105C34.9826 37.009 34.9826 37.009 35.8366 35.7105C36.3861 36.33 37.0231 36.8095 37.8841 36.8305C39.1966 36.8655 40.6421 35.672 41.2406 34.076C41.6921 32.8685 41.2406 31.01 40.2816 30.2575C39.9279 29.9662 39.4875 29.8006 39.0295 29.7866C38.5715 29.7727 38.1218 29.9112 37.7511 30.1805C37.0511 30.779 36.9286 31.6575 37.4816 32.6305C37.7511 32.0285 37.9331 31.255 38.8011 31.542C39.4171 31.7485 39.5011 32.354 39.4241 32.9175C39.3156 33.6945 38.7486 33.999 38.0241 34.062C37.7497 34.0836 37.4744 34.0356 37.2235 33.9224C36.9726 33.8092 36.7544 33.6345 36.5891 33.4145C35.6546 32.319 35.7456 30.17 36.7711 29.057C37.7091 28.0385 39.6201 27.86 40.8031 28.6755C42.7596 30.023 43.2286 33.824 41.5661 35.5145C40.9921 36.0955 41.2511 36.2565 41.7516 36.4875C41.9797 36.6113 42.2409 36.6603 42.4984 36.6276C42.7559 36.595 42.9966 36.4823 43.1866 36.3055C43.6171 35.9065 43.8866 35.931 44.3381 36.3055C44.5594 36.4975 44.8173 36.6427 45.0963 36.7323C45.3752 36.8219 45.6694 36.8541 45.9611 36.827C46.2529 36.7998 46.5361 36.7139 46.7937 36.5743C47.0513 36.4348 47.278 36.2445 47.4601 36.015C48.2021 35.0875 48.0656 33.81 47.1101 32.8825C46.9666 33.404 46.9806 34.027 46.2946 34.1705C46.1135 34.202 45.9272 34.1727 45.7645 34.0872C45.6018 34.0018 45.4719 33.8649 45.3951 33.698C44.9856 33.0785 45.2131 32.501 45.5736 31.969C46.0741 31.2305 47.3831 31.1815 48.2161 31.8465C49.5356 32.8965 49.6406 34.566 48.4786 36.1935C48.9721 36.6765 49.5706 36.694 50.2076 36.631C51.1841 36.5365 51.9121 35.2555 52.5491 35.469C53.4136 35.7595 54.1976 36.47 55.1881 36.6415C55.4756 36.6864 55.7654 36.7156 56.0561 36.729C57.7394 36.9051 59.4297 36.4677 60.8161 35.497C61.5299 34.9139 62.412 34.5753 63.3326 34.531C63.4704 34.5174 63.6096 34.5326 63.7412 34.5757C63.8728 34.6188 63.994 34.6889 64.097 34.7814C64.2001 34.8739 64.2827 34.9869 64.3397 35.1131C64.3967 35.2393 64.4268 35.376 64.4281 35.5145C64.4491 35.889 64.4281 36.435 63.7631 35.952C63.6021 35.84 63.5566 36.1655 63.6161 36.337C63.6619 36.4669 63.7414 36.5823 63.8466 36.6714C63.9517 36.7605 64.0786 36.82 64.2143 36.8439C64.35 36.8678 64.4896 36.8551 64.6188 36.8072C64.748 36.7594 64.8622 36.678 64.9496 36.5715C65.157 36.3629 65.305 36.1027 65.3782 35.8179C65.4514 35.533 65.4472 35.2337 65.3661 34.951C65.0196 33.355 63.6616 32.5045 61.8311 32.8335Z" fill="white"/>
<path d="M4.65503 41.58H7.48303L8.57153 45.808L9.65303 41.58H12.4775V48.531H10.7275V43.2285L9.37303 48.531H7.77003L6.41553 43.2285V48.531H4.66553L4.65503 41.58Z" fill="white"/>
<path d="M13.8425 41.58H19.6V43.05H15.995V44.156H19.3375V45.556H15.995V46.9245H19.705V48.4995H13.8425V41.58Z" fill="white"/>
<path d="M27.181 48.531H24.7625L23.926 46.7355C23.8062 46.4492 23.6459 46.1817 23.45 45.941C23.3879 45.8853 23.3155 45.8424 23.2368 45.8148C23.1581 45.7872 23.0747 45.7753 22.9915 45.78V48.531H20.86V41.58H23.0055V44.2505C23.0878 44.2499 23.1691 44.2318 23.2439 44.1974C23.3188 44.163 23.3854 44.1131 23.4395 44.051C23.6445 43.722 23.809 43.3694 23.9295 43.001C24.0376 42.6653 24.2021 42.3504 24.416 42.07C24.6323 41.8492 24.9128 41.7022 25.2175 41.65C25.7954 41.5523 26.3816 41.5113 26.9675 41.5275V42.9975H26.859C26.5719 42.9758 26.2856 43.0483 26.0435 43.204C25.8374 43.3853 25.6859 43.6204 25.606 43.883C25.5287 44.134 25.4104 44.3705 25.256 44.583C25.1067 44.7409 24.9219 44.8609 24.717 44.933C25.0276 45.0349 25.3071 45.2144 25.529 45.4545C25.8262 45.8062 26.0736 46.1972 26.264 46.6165L27.181 48.531Z" fill="white"/>
<path d="M27.9475 41.58H33.7015V43.05H30.1V44.156H33.4425V45.556H30.1V46.9245H33.8065V48.4995H27.9475V41.58Z" fill="white"/>
<path d="M34.9756 41.58H37.1211V44.03H39.4696V41.58H41.6291V48.531H39.4696V45.731H37.1211V48.531H34.9756V41.58Z" fill="white"/>
<path d="M49.441 48.531H47.2955V45.948C46.7265 46.2856 46.0808 46.4724 45.4195 46.4905C44.7771 46.5156 44.15 46.291 43.6695 45.864C43.435 45.6441 43.2509 45.376 43.1301 45.0781C43.0092 44.7802 42.9544 44.4596 42.9695 44.1385V41.58H45.15V43.7115C45.1312 43.9937 45.2172 44.2728 45.3915 44.4955C45.4805 44.5904 45.5895 44.6644 45.7105 44.7122C45.8315 44.76 45.9616 44.7804 46.0915 44.772C46.3211 44.7923 46.5523 44.7571 46.7654 44.6694C46.9786 44.5817 47.1676 44.444 47.3165 44.268V41.58H49.462L49.441 48.531Z" fill="white"/>
<path d="M57.519 41.58V48.531H55.4995V44.7125L52.899 48.531H50.869V41.58H52.8955V45.43L55.51 41.58H57.519Z" fill="white"/>
<path d="M65.345 48.531H63.196V43.281H61.516V45.4195C61.5353 46.0678 61.4884 46.7163 61.376 47.355C61.3393 47.545 61.2618 47.7248 61.1487 47.8819C61.0357 48.039 60.89 48.1697 60.7215 48.265C60.1983 48.4921 59.6282 48.5905 59.059 48.552C58.7892 48.5488 58.52 48.5242 58.254 48.4785V47.0785H58.576C58.6864 47.0902 58.798 47.0792 58.904 47.0461C59.0099 47.013 59.108 46.9585 59.192 46.886C59.3337 46.6816 59.3982 46.4335 59.374 46.186V41.58H65.345V48.531Z" fill="white"/>
<path d="M12.8975 52.927L13.713 53.172C13.6699 53.3801 13.5815 53.576 13.454 53.746C13.3414 53.899 13.1905 54.0197 13.0165 54.096C12.8051 54.1798 12.5788 54.2191 12.3515 54.2115C12.0775 54.2222 11.8043 54.1745 11.55 54.0715C11.322 53.9559 11.1341 53.7741 11.011 53.55C10.8506 53.2719 10.7729 52.9538 10.787 52.633C10.7777 52.4261 10.8095 52.2194 10.8803 52.0248C10.9512 51.8302 11.0599 51.6515 11.2 51.499C11.3492 51.3621 11.5241 51.2563 11.7146 51.1878C11.9051 51.1192 12.1074 51.0894 12.3095 51.1C12.6238 51.0827 12.9356 51.1634 13.202 51.331C13.4344 51.5061 13.6038 51.7517 13.685 52.031L12.8625 52.213C12.8443 52.1422 12.8147 52.0749 12.775 52.0135C12.7257 51.9434 12.6595 51.8868 12.5825 51.849C12.4571 51.7871 12.3134 51.7729 12.1782 51.8089C12.043 51.845 11.9255 51.9289 11.8475 52.045C11.7472 52.2252 11.7022 52.4309 11.718 52.6365C11.6916 52.8804 11.7457 53.1263 11.872 53.3365C11.924 53.3984 11.9896 53.4474 12.0637 53.4796C12.1378 53.5118 12.2184 53.5263 12.299 53.522C12.373 53.5274 12.4473 53.5168 12.5167 53.4908C12.5862 53.4648 12.6493 53.4241 12.7015 53.3715C12.8067 53.2443 12.8746 53.0905 12.8975 52.927Z" fill="white"/>
<path d="M16.016 53.662H14.966L14.819 54.159H13.8635L14.994 51.149H16.009L17.1395 54.159H16.1665L16.016 53.662ZM15.8235 53.011L15.4735 51.9295L15.1445 53.011H15.8235Z" fill="white"/>
<path d="M19.1625 54.159V52.9375H19.0785C18.9973 52.9372 18.918 52.9616 18.851 53.0075C18.7797 53.0722 18.7226 53.1508 18.683 53.2385L18.2 54.159H17.15L17.6015 53.2875C17.637 53.2196 17.6805 53.1561 17.731 53.0985C17.773 53.0399 17.8224 52.987 17.878 52.941C17.9539 52.8944 18.0349 52.8568 18.1195 52.829C18.0055 52.8066 17.8957 52.7664 17.794 52.71C17.6723 52.6391 17.571 52.5378 17.5 52.416C17.4273 52.2845 17.391 52.1358 17.395 51.9855C17.3894 51.8116 17.4383 51.6402 17.535 51.4955C17.619 51.369 17.7418 51.2732 17.885 51.2225C18.1008 51.166 18.3236 51.1413 18.5465 51.149H20.097V54.159H19.1625ZM19.1625 51.758H18.753C18.631 51.7436 18.5077 51.7707 18.403 51.835C18.371 51.8625 18.3459 51.8971 18.3295 51.9359C18.3131 51.9748 18.3059 52.0169 18.3085 52.059C18.3085 52.1223 18.3294 52.1839 18.368 52.234C18.4059 52.2819 18.459 52.3152 18.5185 52.3285C18.5999 52.3494 18.6831 52.3623 18.767 52.367H19.159L19.1625 51.758Z" fill="white"/>
<path d="M22.7151 52.927L23.5306 53.172C23.4875 53.3801 23.399 53.5761 23.2716 53.746C23.1589 53.899 23.008 54.0197 22.8341 54.096C22.6227 54.1798 22.3963 54.2191 22.1691 54.2115C21.895 54.2222 21.6218 54.1745 21.3676 54.0715C21.1395 53.9559 20.9517 53.7741 20.8286 53.55C20.6682 53.2719 20.5904 52.9538 20.6046 52.633C20.5811 52.2176 20.7233 51.8098 21.0001 51.499C21.2809 51.2717 21.6235 51.1339 21.9835 51.1033C22.3435 51.0727 22.7044 51.1508 23.0196 51.3275C23.2519 51.5026 23.4213 51.7482 23.5026 52.0275L22.6801 52.2095C22.6618 52.1388 22.6323 52.0714 22.5926 52.01C22.5432 51.9399 22.477 51.8833 22.4001 51.8455C22.2746 51.7836 22.1309 51.7694 21.9957 51.8054C21.8605 51.8415 21.743 51.9254 21.6651 52.0415C21.5647 52.2217 21.5197 52.4274 21.5356 52.633C21.5091 52.8769 21.5632 53.1228 21.6896 53.333C21.7965 53.445 21.9426 53.5112 22.0973 53.5177C22.2519 53.5243 22.4031 53.4706 22.5191 53.368C22.6237 53.2418 22.6915 53.0892 22.7151 52.927Z" fill="white"/>
<path d="M26.8625 51.149V54.159H25.9875V52.5L24.85 54.159H23.9855V51.149H24.85V52.815L25.984 51.149H26.8625Z" fill="white"/>
<path d="M30.3625 51.149V54.159H29.491V52.5L28.35 54.159H27.4855V51.149H28.35V52.815L29.4805 51.149H30.3625ZM29.6835 50.4C29.6586 50.5671 29.5694 50.7178 29.435 50.82C29.2926 50.9259 29.1189 50.9814 28.9415 50.9775C28.7644 50.9824 28.5912 50.9254 28.4515 50.8165C28.3845 50.7671 28.328 50.7048 28.2853 50.6333C28.2426 50.5618 28.2146 50.4825 28.203 50.4H28.553C28.5742 50.4808 28.6237 50.5513 28.6923 50.5987C28.761 50.6462 28.8444 50.6676 28.9275 50.659C29.0127 50.6677 29.0982 50.6467 29.1697 50.5995C29.2411 50.5523 29.2941 50.4818 29.3195 50.4H29.6835Z" fill="white"/>
<path d="M35.2696 54.159H34.3421V51.8875H33.3201V54.159H32.3926V51.149H35.2696V54.159Z" fill="white"/>
<path d="M37.7405 53.662H36.6905L36.5435 54.159H35.595L36.7255 51.149H37.7405L38.871 54.159H37.898L37.7405 53.662ZM37.548 53.011L37.198 51.9295L36.869 53.011H37.548Z" fill="white"/>
<path d="M39.1545 51.149H40.7015C40.9754 51.1275 41.2468 51.2142 41.4575 51.3905C41.5449 51.4803 41.6125 51.5874 41.6559 51.705C41.6993 51.8226 41.7176 51.9479 41.7095 52.073C41.7158 52.2023 41.6948 52.3315 41.6477 52.4521C41.6007 52.5727 41.5287 52.6821 41.4365 52.773C41.1997 52.963 40.8993 53.0557 40.5965 53.032H40.089V54.1485H39.1545V51.149ZM40.089 52.4335H40.3165C40.4496 52.4461 40.5831 52.4128 40.6945 52.339C40.7294 52.31 40.7572 52.2736 40.776 52.2324C40.7948 52.1912 40.804 52.1463 40.803 52.101C40.8036 52.0113 40.7698 51.9249 40.7085 51.8595C40.6089 51.7828 40.4835 51.7477 40.3585 51.7615H40.0925L40.089 52.4335Z" fill="white"/>
<path d="M42 51.149H44.8V51.891H43.8515V54.159H42.9205V51.891H42V51.149Z" fill="white"/>
<path d="M48.111 51.149V54.159H47.25V52.5L46.123 54.152H45.248V51.142H46.123V52.808L47.257 51.142L48.111 51.149Z" fill="white"/>
<path d="M50.4595 54.159V52.9375H50.3755C50.2943 52.9371 50.2149 52.9615 50.148 53.0075C50.0767 53.0721 50.0195 53.1507 49.98 53.2385L49.483 54.159H48.433L48.8845 53.2875C48.9199 53.2195 48.9634 53.1561 49.014 53.0985C49.057 53.0407 49.1063 52.9878 49.161 52.9409C49.2368 52.8943 49.3179 52.8567 49.4025 52.829C49.2884 52.8065 49.1786 52.7663 49.077 52.71C48.9504 52.6375 48.8462 52.5315 48.7758 52.4037C48.7054 52.2759 48.6716 52.1312 48.678 51.9855C48.6723 51.8115 48.7213 51.6402 48.818 51.4955C48.9064 51.3658 49.0358 51.2697 49.1855 51.2225C49.4 51.1656 49.6217 51.1409 49.8435 51.149H51.394V54.159H50.4595ZM50.4595 51.758H50.05C49.928 51.7446 49.8051 51.7716 49.7 51.835C49.6686 51.8628 49.6441 51.8975 49.6283 51.9363C49.6126 51.9752 49.6059 52.0171 49.609 52.059C49.6077 52.1219 49.6274 52.1835 49.665 52.234C49.7028 52.2818 49.756 52.3151 49.8155 52.3284C49.8969 52.3493 49.9801 52.3622 50.064 52.3669H50.456L50.4595 51.758Z" fill="white"/>
<path d="M54.0155 52.927L54.8275 53.172C54.7844 53.38 54.696 53.576 54.5685 53.746C54.4558 53.8989 54.305 54.0196 54.131 54.096C53.9196 54.1797 53.6932 54.219 53.466 54.2115C53.1919 54.2221 52.9187 54.1744 52.6645 54.0715C52.44 53.9603 52.2536 53.7848 52.129 53.5675C51.9674 53.2897 51.8884 52.9716 51.9015 52.6505C51.8877 52.4421 51.9159 52.2332 51.9844 52.0359C52.0529 51.8387 52.1604 51.6573 52.3005 51.5025C52.5806 51.275 52.9226 51.137 53.2821 51.1065C53.6416 51.0759 54.002 51.1541 54.3165 51.331C54.5488 51.506 54.7183 51.7516 54.7995 52.031L53.9805 52.213C53.9598 52.1425 53.9291 52.0753 53.8895 52.0135C53.8401 51.9434 53.7739 51.8868 53.697 51.849C53.5715 51.7871 53.4279 51.7728 53.2927 51.8089C53.1575 51.8449 53.04 51.9288 52.962 52.045C52.8617 52.2251 52.8166 52.4309 52.8325 52.6365C52.806 52.8804 52.8601 53.1262 52.9865 53.3365C53.0384 53.3984 53.104 53.4473 53.1781 53.4795C53.2522 53.5117 53.3328 53.5262 53.4135 53.522C53.4875 53.5276 53.5618 53.5171 53.6313 53.4911C53.7008 53.4651 53.7639 53.4243 53.816 53.3715C53.9209 53.2437 53.9898 53.0903 54.0155 52.927Z" fill="white"/>
<path d="M56.2135 52.3075H56.7C57.0541 52.2816 57.4074 52.366 57.7115 52.549C57.8278 52.6354 57.9208 52.7495 57.9819 52.8809C58.043 53.0123 58.0704 53.1568 58.0615 53.3015C58.068 53.4246 58.0435 53.5475 57.9904 53.6587C57.9372 53.77 57.857 53.8662 57.7571 53.9385C57.4982 54.1016 57.1944 54.1787 56.889 54.159H55.3V51.149H56.2275L56.2135 52.3075ZM56.2135 53.5115H56.7C56.9905 53.5115 57.1375 53.4065 57.1375 53.1965C57.1375 52.9865 56.9905 52.92 56.7 52.92H56.224L56.2135 53.5115ZM58.2821 51.149H59.213V54.159H58.2821V51.149Z" fill="white"/>
</svg>
