<svg width="70" height="70" viewBox="0 0 70 70" fill="none" xmlns="http://www.w3.org/2000/svg">
<path d="M70 0H0V70H70V0Z" fill="white"/>
<path d="M14.917 32.277L14.952 32.3085V32.277H14.917Z" fill="#FED001"/>
<path d="M14.8821 32.277H14.9171L14.8996 32.2595L14.8821 32.277Z" fill="#FED001"/>
<path d="M18.403 28.756V35.6405L14.959 32.3015V38.08L11.9735 35.1855L11.9455 35.21V40.1625L9.43602 37.7125V41.727L7.39552 39.746L7.35352 39.788V42.3885C9.18397 43.5705 11.3867 44.0343 13.5383 43.6908C15.69 43.3473 17.6388 42.2207 19.0102 40.5276C20.3817 38.8344 21.079 36.6942 20.9682 34.5181C20.8574 32.342 19.9463 30.2836 18.41 28.7385L18.403 28.756Z" fill="#FED001"/>
<path d="M18.403 28.756C16.8599 27.2134 14.8004 26.2967 12.6214 26.1827C10.4425 26.0686 8.29852 26.7653 6.60282 28.1384C4.90713 29.5115 3.77982 31.4637 3.43825 33.6187C3.09667 35.7737 3.56503 37.9789 4.75301 39.809H7.35001L7.39201 39.767L5.29201 37.73H9.42201L6.83551 35.217H11.9385L11.9665 35.1925L8.96001 32.277H14.8785H14.8995L11.2945 28.777H18.396L18.403 28.756Z" fill="#03D998"/>
<path d="M66.6015 37.1735C66.1115 37.1735 65.6215 37.1735 65.135 37.1735C64.9495 37.1735 64.855 37.1315 64.855 36.925C64.8492 36.7271 64.8328 36.5296 64.806 36.3335C64.806 36.169 64.848 35.9835 64.5505 35.9835C64.309 35.9835 64.176 36.036 64.2005 36.302C64.2005 36.4035 64.176 36.5085 64.1725 36.6135C64.141 37.275 64.1725 37.149 63.6125 37.1595C63.322 37.1595 63.028 37.1385 62.741 37.1595C62.454 37.1805 62.391 37.0755 62.4225 36.8095C62.6162 35.3698 62.8087 33.9126 63 32.438C63.063 31.962 63.1365 31.4895 63.1855 31.017C63.2065 30.828 63.266 30.758 63.4655 30.7615C64.106 30.7615 64.7465 30.7615 65.387 30.7615C65.604 30.7615 65.6705 30.8385 65.6985 31.0275C65.9762 32.9268 66.2574 34.8273 66.542 36.729C66.542 36.8095 66.542 36.8935 66.6085 36.9565L66.6015 37.1735ZM64.5295 32.7005H64.442C64.3685 33.362 64.2985 34.02 64.2215 34.678C64.197 34.8845 64.3055 34.9125 64.47 34.902C64.6345 34.8915 64.743 34.9335 64.722 34.72C64.6567 34.0433 64.5925 33.3701 64.5295 32.7005Z" fill="#04D998"/>
<path d="M35.5775 33.95C35.5775 32.9805 35.5775 32.011 35.5775 31.045C35.5775 30.8315 35.6265 30.7615 35.847 30.765C36.9553 30.765 38.0648 30.765 39.1755 30.765C39.375 30.765 39.431 30.821 39.431 31.0205C39.431 32.9898 39.431 34.9627 39.431 36.939C39.431 37.142 39.3575 37.1945 39.1685 37.191C38.794 37.191 38.4195 37.191 38.0485 37.191C37.7965 37.191 37.737 37.121 37.737 36.8795C37.737 35.371 37.737 33.866 37.737 32.361C37.737 32.088 37.6285 32.0495 37.408 32.074C37.1875 32.0985 37.2575 32.277 37.254 32.3995C37.254 33.8555 37.254 35.315 37.254 36.7745C37.254 37.1245 37.1665 37.226 36.8305 37.1945C36.5042 37.1718 36.1767 37.1718 35.8505 37.1945C35.6195 37.1945 35.553 37.1245 35.553 36.8935C35.5845 35.9065 35.5775 34.9265 35.5775 33.95Z" fill="#03D998"/>
<path d="M60.8544 33.9675C61.7854 34.195 61.8765 34.825 61.8345 35.5425C61.7686 36.0296 61.8092 36.5252 61.9534 36.995C62.0129 37.142 61.9709 37.184 61.8274 37.184H60.6375C60.5673 37.1852 60.4988 37.1632 60.4425 37.1214C60.3862 37.0796 60.3452 37.0204 60.326 36.953C60.2494 36.7692 60.2136 36.571 60.221 36.372V35.1085C60.2301 35.0155 60.2188 34.9216 60.188 34.8334C60.1572 34.7451 60.1075 34.6646 60.0425 34.5975C59.9725 34.538 59.8884 34.468 59.7939 34.496C59.6994 34.524 59.7205 34.6535 59.7205 34.734C59.7205 35.434 59.7205 36.1585 59.7205 36.869C59.7205 37.1105 59.6539 37.219 59.4054 37.1875C59.0309 37.1875 58.6565 37.1875 58.2855 37.1875C58.0965 37.1875 58.0125 37.142 58.0125 36.9355C58.0125 34.951 58.0125 32.9665 58.0125 30.9855C58.0125 30.8175 58.072 30.7615 58.2365 30.7685C58.646 30.7685 59.0555 30.7685 59.4615 30.7685C59.668 30.7685 59.7204 30.835 59.7169 31.031C59.7169 31.731 59.7169 32.431 59.7169 33.131C59.7169 33.2325 59.6435 33.397 59.801 33.4285C59.9585 33.46 60.0775 33.3235 60.13 33.1765C60.1587 33.0765 60.1717 32.9726 60.1685 32.8685C60.193 32.368 60.1965 31.864 60.2385 31.367C60.2805 30.87 60.3855 30.772 60.8825 30.772H61.8975C61.9261 30.776 61.9543 30.7831 61.9814 30.793C61.8144 31.3267 61.7631 31.8899 61.831 32.445C61.8587 32.7235 61.8349 33.0046 61.761 33.2745C61.635 33.6525 61.3269 33.831 60.8544 33.9675Z" fill="#04D998"/>
<path d="M54.95 33.369C55.1985 32.599 55.4575 31.8325 55.692 31.0555C55.762 30.8245 55.8635 30.7405 56.105 30.7615C56.3845 30.7842 56.6654 30.7842 56.945 30.7615C57.1725 30.7615 57.2145 30.8315 57.211 31.038C57.211 32.9863 57.211 34.9346 57.211 36.883C57.211 37.142 57.127 37.2085 56.889 37.1875C56.539 37.1525 56.0665 37.3345 55.839 37.107C55.6115 36.8795 55.79 36.442 55.783 36.092C55.783 35.581 55.783 35.07 55.727 34.545C55.608 34.9265 55.4925 35.308 55.377 35.6895C55.2615 36.071 55.125 36.5155 55.027 36.932C55.0235 36.9729 55.0113 37.0126 54.9911 37.0484C54.971 37.0842 54.9434 37.1153 54.9102 37.1395C54.877 37.1637 54.839 37.1805 54.7988 37.1888C54.7586 37.1971 54.717 37.1966 54.677 37.1875C54.3515 37.1875 54.0225 37.1875 53.697 37.1875C53.5325 37.1875 53.4695 37.135 53.4695 36.967C53.4695 34.972 53.4695 32.977 53.4695 30.982C53.4695 30.8105 53.5325 30.7615 53.6935 30.7685C53.9875 30.7685 54.278 30.7685 54.5685 30.7685C54.859 30.7685 54.8905 30.8245 54.8835 31.0765C54.866 31.7275 54.8835 32.382 54.8835 33.0365V33.3655L54.95 33.369Z" fill="#03D998"/>
<path d="M32.6235 33.9885C32.6235 34.5135 32.6235 35.0385 32.6235 35.5635C32.6165 35.68 32.6165 35.7969 32.6235 35.9135C32.6445 36.0745 32.7145 36.2145 32.9035 36.2075C33.0925 36.2005 33.159 36.0675 33.166 35.896C33.166 35.546 33.194 35.2205 33.187 34.8845C33.187 34.6745 33.2395 34.594 33.46 34.601C33.859 34.601 34.2545 34.601 34.65 34.601C34.7935 34.601 34.867 34.6395 34.86 34.797C34.86 35.147 34.86 35.497 34.8215 35.847C34.6955 36.7815 33.8835 37.3765 32.851 37.3135C32.6415 37.3055 32.4331 37.2797 32.228 37.2365C31.8924 37.1977 31.5821 37.0389 31.3544 36.7893C31.1267 36.5397 30.9969 36.2162 30.989 35.8785C30.8794 34.647 30.8677 33.4088 30.954 32.1755C30.9995 31.2865 31.619 30.744 32.571 30.6425C32.9226 30.603 33.2784 30.6279 33.621 30.716C33.9671 30.7817 34.2795 30.9657 34.5049 31.2364C34.7303 31.5071 34.8546 31.8477 34.8565 32.2C34.8845 32.585 34.8565 32.97 34.8845 33.355C34.8845 33.5475 34.818 33.5895 34.6395 33.586C34.244 33.586 33.845 33.586 33.4495 33.586C33.2675 33.586 33.208 33.53 33.208 33.348C33.208 32.928 33.208 32.508 33.208 32.088C33.208 31.913 33.173 31.738 32.9455 31.738C32.718 31.738 32.6795 31.8885 32.655 32.06C32.6516 32.0949 32.6516 32.13 32.655 32.165V33.985L32.6235 33.9885Z" fill="#03D998"/>
<path d="M23.5025 33.9885C23.5025 33.019 23.5025 32.0495 23.5025 31.0835C23.5025 30.8105 23.583 30.7335 23.8525 30.7615C24.598 30.8035 25.347 30.695 26.089 30.835C26.3461 30.8564 26.5864 30.9717 26.7639 31.1589C26.9414 31.3461 27.0438 31.5921 27.0515 31.85C27.1215 32.4652 27.1215 33.0863 27.0515 33.7015C27.0327 33.9112 26.9431 34.1083 26.7974 34.2603C26.6518 34.4123 26.4587 34.5102 26.25 34.538C26.0001 34.6031 25.7411 34.6268 25.4835 34.608C25.228 34.58 25.172 34.6885 25.179 34.923C25.179 35.5775 25.179 36.232 25.179 36.883C25.179 37.107 25.1265 37.2015 24.8885 37.1875C24.5388 37.1683 24.1883 37.1683 23.8385 37.1875C23.5795 37.1875 23.4885 37.128 23.4885 36.8585C23.513 35.903 23.5025 34.9475 23.5025 33.9885ZM25.6865 32.7005C25.7006 32.5035 25.6864 32.3055 25.6445 32.1125C25.6233 32.0391 25.5761 31.9758 25.5117 31.9346C25.4473 31.8934 25.3701 31.877 25.2945 31.8885C25.102 31.8885 25.179 32.0635 25.1755 32.1615C25.1755 32.5115 25.1755 32.8615 25.1755 33.2115C25.1755 33.313 25.116 33.4705 25.298 33.488C25.3703 33.5049 25.4463 33.4941 25.511 33.4579C25.5758 33.4216 25.6246 33.3624 25.648 33.292C25.6944 33.0985 25.7074 32.8984 25.6865 32.7005Z" fill="#04D998"/>
<path d="M27.517 33.9675C27.517 33.012 27.517 32.053 27.517 31.0975C27.517 30.8525 27.5555 30.7475 27.8355 30.7475C28.5565 30.7685 29.281 30.765 30.0055 30.7475C30.24 30.7475 30.3555 30.7895 30.3205 31.0485C30.3012 31.3036 30.3012 31.5599 30.3205 31.815C30.3205 31.997 30.2715 32.081 30.0825 32.0565H30.0475C29.155 32.0845 29.162 32.0845 29.204 32.991C29.204 33.1695 29.2635 33.2325 29.4455 33.236C29.701 33.236 30.0335 33.1205 30.1875 33.285C30.3415 33.4495 30.2085 33.796 30.2505 34.0585C30.31 34.4295 30.149 34.4995 29.813 34.4855C29.2075 34.4575 29.2075 34.4855 29.2075 35.0875C29.2075 35.8645 29.2075 35.8855 29.9845 35.8575C30.3555 35.8575 30.45 35.952 30.436 36.3125C30.4115 37.17 30.436 37.17 29.5785 37.17C28.9835 37.17 28.385 37.17 27.7935 37.17C27.573 37.17 27.5135 37.1 27.517 36.89C27.524 35.9275 27.517 34.9475 27.517 33.9675Z" fill="#04D998"/>
<path d="M52.5876 33.9885C52.5876 34.944 52.5876 35.903 52.5876 36.8585C52.5876 37.1245 52.5071 37.2085 52.2376 37.1875C51.8876 37.1712 51.5376 37.1712 51.1876 37.1875C50.9391 37.1875 50.8726 37.114 50.8761 36.8725C50.8761 35.378 50.8761 33.887 50.8761 32.3925C50.8761 32.2735 50.9566 32.095 50.7256 32.0705C50.4946 32.046 50.4071 32.088 50.4106 32.347C50.4106 33.3725 50.4106 34.398 50.4106 35.4235C50.4269 35.7268 50.4082 36.031 50.3546 36.33C50.3365 36.5428 50.2403 36.7413 50.0846 36.8873C49.9288 37.0334 49.7245 37.1166 49.5111 37.121C49.1611 37.163 48.7901 37.1595 48.4296 37.184C48.2511 37.184 48.1706 37.1315 48.1811 36.946C48.1933 36.7596 48.1933 36.5725 48.1811 36.386C48.1811 36.1725 48.2021 36.036 48.4646 36.015C48.7271 35.994 48.7166 35.7245 48.7166 35.518C48.7166 34.0725 48.7166 32.627 48.7166 31.1815C48.7166 30.8525 48.7761 30.7475 49.1261 30.758C50.1761 30.7825 51.2051 30.7755 52.2411 30.758C52.4966 30.758 52.5911 30.8105 52.5911 31.08C52.5771 32.053 52.5876 33.019 52.5876 33.9885Z" fill="#03D998"/>
<path d="M44.1174 33.95C44.1174 32.9805 44.1174 32.0145 44.1174 31.045C44.1174 30.821 44.1699 30.7475 44.4044 30.751C45.3144 30.751 46.2244 30.751 47.1379 30.751C47.3479 30.751 47.4109 30.807 47.4144 31.024C47.4144 31.878 47.4319 31.878 46.5674 31.878C45.7869 31.878 45.7974 31.878 45.8009 32.669C45.8009 32.8825 45.8569 32.9595 46.0739 32.942C46.4123 32.9233 46.7516 32.9433 47.0854 33.0015C47.3162 33.0132 47.5346 33.1097 47.6987 33.2725C47.8627 33.4352 47.9609 33.6528 47.9744 33.8835C48.0654 34.6836 48.0654 35.4914 47.9744 36.2915C47.9637 36.5123 47.8689 36.7205 47.7094 36.8734C47.5499 37.0264 47.3379 37.1125 47.1169 37.114C46.1859 37.212 45.2514 37.163 44.3169 37.1735C44.0824 37.1735 44.1279 37.023 44.1279 36.89L44.1174 33.95ZM45.8009 34.9685C45.8009 35.2345 45.8009 35.504 45.8009 35.77C45.8009 35.8645 45.7204 36.029 45.9269 36.0255C46.0809 36.0255 46.2559 36.0255 46.2769 35.8155C46.3364 35.2723 46.3364 34.7242 46.2769 34.181C46.2559 33.9885 46.0739 33.9815 45.9269 33.978C45.7204 33.978 45.8079 34.1425 45.8044 34.2335C45.7904 34.489 45.8009 34.734 45.8009 34.979V34.9685Z" fill="#03D998"/>
<path d="M41.825 34.16C41.9869 33.1763 42.0758 32.1819 42.091 31.185C42.091 30.8735 42.175 30.716 42.5285 30.758C42.8198 30.7791 43.1122 30.7791 43.4035 30.758C43.5575 30.758 43.596 30.8 43.575 30.961C43.3825 32.662 43.26 34.3735 42.9905 36.0675C42.8715 36.8235 42.567 37.086 41.804 37.1385C41.398 37.163 40.9885 37.156 40.5825 37.1805C40.348 37.1805 40.2605 37.107 40.2885 36.8795C40.299 36.7748 40.299 36.6693 40.2885 36.5645C40.2885 36.386 40.348 36.3055 40.5265 36.3125C40.8415 36.3125 40.8765 36.169 40.8345 35.8925C40.5335 34.279 40.2535 32.6585 39.949 31.045C39.9 30.793 39.949 30.744 40.1905 30.7545C40.4936 30.7703 40.7974 30.7703 41.1005 30.7545C41.2965 30.7545 41.3805 30.7895 41.4085 31.01C41.5345 32.067 41.685 33.1135 41.825 34.16Z" fill="#04D998"/>
<path d="M23.646 39.305C23.5603 39.2599 23.4891 39.1918 23.4402 39.1082C23.3913 39.0247 23.3668 38.9292 23.3695 38.8325C23.3692 38.7339 23.3958 38.6371 23.4465 38.5525C23.4949 38.4707 23.5652 38.404 23.6495 38.36C23.7372 38.3115 23.8363 38.2874 23.9365 38.29C24.0181 38.2885 24.0991 38.304 24.1745 38.3355C24.2439 38.3647 24.3061 38.4089 24.3565 38.465L24.227 38.584C24.1926 38.5437 24.1495 38.5118 24.101 38.4906C24.0525 38.4693 23.9999 38.4594 23.947 38.4615C23.8788 38.4595 23.8113 38.4752 23.751 38.507C23.6953 38.5384 23.6493 38.5843 23.618 38.64C23.5858 38.699 23.5689 38.7652 23.5689 38.8325C23.5689 38.8997 23.5858 38.9659 23.618 39.025C23.6498 39.0793 23.6958 39.1241 23.751 39.1545C23.8109 39.1875 23.8785 39.2044 23.947 39.2035C24.0001 39.2051 24.053 39.1947 24.1015 39.1728C24.15 39.151 24.1929 39.1184 24.227 39.0775L24.3565 39.2C24.3061 39.256 24.2439 39.3003 24.1745 39.3295C24.099 39.3606 24.0181 39.3761 23.9365 39.375C23.8353 39.3758 23.7356 39.3518 23.646 39.305Z" fill="#FED51A"/>
<path d="M25.291 39.116H24.7625L24.6575 39.361H24.4545L24.9305 38.311H25.123L25.6025 39.361H25.396L25.291 39.116ZM25.2245 38.962L25.025 38.5L24.829 38.962H25.2245Z" fill="#FED51A"/>
<path d="M26.6 38.304V39.354H26.4075V39.06H26.124L25.928 39.354H25.7215L25.949 39.0285C25.8796 39.0044 25.8196 38.9591 25.7775 38.899C25.7369 38.8353 25.7162 38.761 25.718 38.6855C25.7157 38.6116 25.7351 38.5385 25.774 38.4755C25.811 38.4169 25.8646 38.3706 25.928 38.3425C26.0017 38.31 26.0819 38.2945 26.1625 38.297L26.6 38.304ZM25.9805 38.5245C25.9589 38.5459 25.9421 38.5716 25.9312 38.6C25.9203 38.6283 25.9156 38.6587 25.9175 38.689C25.9157 38.7188 25.9204 38.7486 25.9313 38.7764C25.9422 38.8042 25.9589 38.8293 25.9805 38.85C26.0307 38.8906 26.0945 38.9106 26.159 38.906H26.4075V38.4685H26.166C26.0972 38.4641 26.0291 38.4839 25.9735 38.5245H25.9805Z" fill="#FED51A"/>
<path d="M27.1635 39.305C27.0792 39.261 27.0089 39.1943 26.9605 39.1125C26.9223 39.0503 26.8971 38.981 26.8866 38.9087C26.8762 38.8365 26.8806 38.7629 26.8996 38.6924C26.9186 38.622 26.9518 38.5561 26.9972 38.4989C27.0426 38.4418 27.0992 38.3945 27.1635 38.36C27.2442 38.3186 27.3328 38.295 27.4233 38.2907C27.5139 38.2865 27.6043 38.3018 27.6885 38.3355C27.759 38.3629 27.8215 38.4074 27.8705 38.465L27.7445 38.584C27.7085 38.5448 27.6647 38.5136 27.6158 38.4925C27.567 38.4714 27.5142 38.4608 27.461 38.4615C27.394 38.46 27.3277 38.4756 27.2685 38.507C27.2116 38.5378 27.1643 38.5839 27.132 38.64C27.1021 38.6998 27.0866 38.7657 27.0866 38.8325C27.0866 38.8993 27.1021 38.9652 27.132 39.025C27.1648 39.0798 27.212 39.1246 27.2685 39.1545C27.3274 39.1871 27.3937 39.204 27.461 39.2035C27.5146 39.2042 27.5676 39.1933 27.6166 39.1715C27.6655 39.1498 27.7091 39.1177 27.7445 39.0775L27.8705 39.2C27.8215 39.2576 27.759 39.3021 27.6885 39.3295C27.6133 39.3613 27.5322 39.3768 27.4505 39.375C27.3505 39.3759 27.2519 39.3518 27.1635 39.305Z" fill="#FED51A"/>
<path d="M28.1295 38.304H28.322V39.053L28.8925 38.304H29.0745V39.354H28.882V38.605L28.3115 39.354H28.1295V38.304Z" fill="#FED51A"/>
<path d="M29.4456 38.304H29.6381V39.053L30.2086 38.304H30.3906V39.354H30.1981V38.605L29.6276 39.354H29.4456V38.304ZM29.7116 38.178C29.6881 38.1577 29.6696 38.1324 29.6575 38.1039C29.6453 38.0753 29.6399 38.0444 29.6416 38.0135H29.7781C29.7776 38.0297 29.7805 38.0458 29.7865 38.0609C29.7925 38.0759 29.8016 38.0896 29.8131 38.101C29.8424 38.1222 29.8785 38.1322 29.9146 38.129C29.9507 38.1325 29.9868 38.1225 30.0161 38.101C30.0294 38.0909 30.04 38.0776 30.0467 38.0623C30.0534 38.0469 30.0561 38.0301 30.0546 38.0135H30.1911C30.1925 38.0444 30.1869 38.0752 30.1748 38.1037C30.1627 38.1322 30.1443 38.1576 30.1211 38.178C30.0598 38.2178 29.9875 38.2373 29.9146 38.234C29.8426 38.2383 29.7711 38.2186 29.7116 38.178Z" fill="#FED51A"/>
<path d="M32.2 38.304V39.354H32.004V38.4615H31.4475V39.354H31.255V38.304H32.2Z" fill="#FED51A"/>
<path d="M33.25 39.116H32.732L32.6305 39.361H32.4275L32.9035 38.311H33.096L33.572 39.361H33.3655L33.25 39.116ZM33.187 38.962L32.998 38.5L32.7985 38.962H33.187Z" fill="#FED51A"/>
<path d="M34.4821 38.3495C34.5462 38.3761 34.6011 38.4212 34.6396 38.479C34.6757 38.5391 34.694 38.6083 34.6921 38.6785C34.6935 38.7497 34.6753 38.8199 34.6396 38.8815C34.6011 38.9393 34.5462 38.9844 34.4821 39.011C34.4065 39.0419 34.3256 39.0573 34.2441 39.0565H34.0061V39.361H33.8101V38.311H34.2441C34.3253 38.3063 34.4065 38.3194 34.4821 38.3495ZM34.4296 38.85C34.4522 38.8308 34.4701 38.8066 34.4816 38.7792C34.4932 38.7518 34.4981 38.7221 34.4961 38.6925C34.4981 38.6634 34.4932 38.6342 34.4816 38.6074C34.47 38.5806 34.4522 38.5569 34.4296 38.5385C34.3724 38.4984 34.3033 38.4786 34.2336 38.4825H34.0061V38.9025H34.2336C34.3029 38.9074 34.3719 38.8889 34.4296 38.85Z" fill="#FED51A"/>
<path d="M35.7 38.4685H35.35V39.361H35.1575V38.4685H34.8075V38.304H35.7V38.4685Z" fill="#FED51A"/>
<path d="M35.938 38.304H36.1305V39.053L36.6975 38.304H36.8795V39.354H36.687V38.605L36.12 39.354H35.938V38.304Z" fill="#FED51A"/>
<path d="M38.0589 38.304V39.354H37.8664V39.06H37.5829L37.3869 39.354H37.1804L37.4079 39.0285C37.3386 39.0044 37.2786 38.9591 37.2364 38.899C37.1959 38.8353 37.1752 38.761 37.1769 38.6855C37.1746 38.6115 37.1941 38.5385 37.2329 38.4755C37.27 38.4169 37.3236 38.3706 37.3869 38.3425C37.4596 38.3104 37.5385 38.2949 37.6179 38.297L38.0589 38.304ZM37.4394 38.5245C37.4178 38.5459 37.401 38.5716 37.3902 38.6C37.3793 38.6283 37.3746 38.6587 37.3764 38.689C37.3747 38.7188 37.3794 38.7486 37.3903 38.7764C37.4012 38.8042 37.4179 38.8293 37.4394 38.85C37.464 38.8707 37.4924 38.8864 37.523 38.896C37.5537 38.9056 37.586 38.909 37.6179 38.906H37.8664V38.4685H37.6249C37.562 38.4675 37.5006 38.4872 37.4499 38.5245H37.4394Z" fill="#FED51A"/>
<path d="M38.6295 39.305C38.5452 39.261 38.4749 39.1943 38.4265 39.1125C38.3783 39.027 38.353 38.9306 38.353 38.8325C38.353 38.7344 38.3783 38.638 38.4265 38.5525C38.4749 38.4707 38.5452 38.404 38.6295 38.36C38.7101 38.3186 38.7987 38.295 38.8893 38.2907C38.9799 38.2865 39.0703 38.3018 39.1545 38.3355C39.225 38.3629 39.2875 38.4074 39.3365 38.465L39.2105 38.584C39.1501 38.5215 39.0711 38.4802 38.9853 38.4663C38.8995 38.4524 38.8115 38.4667 38.7345 38.507C38.6775 38.5378 38.6303 38.5839 38.598 38.64C38.5658 38.6991 38.5489 38.7652 38.5489 38.8325C38.5489 38.8997 38.5658 38.9659 38.598 39.025C38.6297 39.0807 38.6772 39.1257 38.7345 39.1545C38.7932 39.1874 38.8596 39.2043 38.927 39.2035C38.9805 39.2042 39.0336 39.1933 39.0825 39.1715C39.1315 39.1498 39.1751 39.1177 39.2105 39.0775L39.3365 39.2C39.2875 39.2576 39.225 39.3021 39.1545 39.3295C39.0792 39.361 38.9981 39.3765 38.9165 39.375C38.8165 39.3759 38.7178 39.3518 38.6295 39.305Z" fill="#FED51A"/>
<path d="M40.3725 38.7485C40.4084 38.7795 40.4366 38.8183 40.4548 38.8621C40.473 38.9058 40.4808 38.9532 40.4775 39.0005C40.4805 39.0505 40.472 39.1005 40.4526 39.1466C40.4331 39.1927 40.4033 39.2338 40.3655 39.2665C40.2747 39.3339 40.1633 39.3673 40.0505 39.361H39.5955V38.311H39.788V38.661H40.082C40.1863 38.6533 40.2898 38.6845 40.3725 38.7485ZM40.2185 39.158C40.2394 39.1385 40.2556 39.1145 40.2659 39.0879C40.2762 39.0612 40.2803 39.0325 40.278 39.004C40.278 38.8745 40.201 38.8115 40.04 38.8115H39.788V39.2H40.04C40.1025 39.207 40.1656 39.1922 40.2185 39.158ZM40.628 38.304H40.8205V39.354H40.628V38.304Z" fill="#FED51A"/>
<path d="M45.8675 38.304V39.354H45.675V38.4615H45.1255V39.354H44.933V38.304H45.8675Z" fill="#FED51A"/>
<path d="M46.4379 39.305C46.3527 39.2606 46.2822 39.1926 46.2349 39.109C46.1855 39.0253 46.16 38.9297 46.1614 38.8325C46.1605 38.7343 46.1858 38.6376 46.2349 38.5525C46.2834 38.4707 46.3537 38.404 46.4379 38.36C46.5285 38.3139 46.6286 38.2899 46.7302 38.2899C46.8318 38.2899 46.9319 38.3139 47.0224 38.36C47.1081 38.4057 47.1797 38.4737 47.2296 38.557C47.2796 38.6402 47.3059 38.7354 47.3059 38.8325C47.3059 38.9295 47.2796 39.0248 47.2296 39.108C47.1797 39.1912 47.1081 39.2593 47.0224 39.305C46.9319 39.3511 46.8318 39.3751 46.7302 39.3751C46.6286 39.3751 46.5285 39.3511 46.4379 39.305ZM46.9209 39.1545C46.9766 39.1231 47.0226 39.0771 47.0539 39.0215C47.0853 38.9635 47.101 38.8984 47.0994 38.8325C47.1007 38.7655 47.085 38.6993 47.0539 38.64C47.0218 38.585 46.976 38.5392 46.9209 38.507C46.8617 38.4756 46.7954 38.4599 46.7284 38.4615C46.6625 38.4599 46.5974 38.4756 46.5394 38.507C46.4838 38.5384 46.4378 38.5843 46.4064 38.64C46.3743 38.6991 46.3574 38.7652 46.3574 38.8325C46.3571 38.8987 46.374 38.9638 46.4064 39.0215C46.4367 39.0779 46.483 39.1242 46.5394 39.1545C46.5971 39.1869 46.6622 39.2038 46.7284 39.2035C46.7957 39.204 46.862 39.1871 46.9209 39.1545Z" fill="#FED51A"/>
<path d="M48.4645 38.304V39.354H48.272V38.4615H47.8555V38.7275C47.8512 38.8448 47.8395 38.9617 47.8205 39.0775C47.8063 39.1541 47.7739 39.2261 47.726 39.2875C47.7037 39.3112 47.6765 39.3298 47.6463 39.3418C47.616 39.3539 47.5835 39.3593 47.551 39.3575C47.5162 39.3614 47.4809 39.3614 47.446 39.3575V39.186H47.488C47.551 39.186 47.593 39.1475 47.621 39.0775C47.6527 38.9636 47.668 38.8458 47.6665 38.7275L47.684 38.29L48.4645 38.304Z" fill="#FED51A"/>
<path d="M48.839 38.304H49.0315V39.053L49.5985 38.304H49.7805V39.354H49.588V38.605L49.021 39.354H48.839V38.304Z" fill="#FED51A"/>
<path d="M50.918 38.4685H50.568V39.361H50.3755V38.4685H50.0255V38.304H50.918V38.4685Z" fill="#FED51A"/>
<path d="M51.1631 38.304H51.3591V39.053L51.9261 38.304H52.1081V39.354H51.9156V38.605L51.3486 39.354H51.1631V38.304Z" fill="#FED51A"/>
<path d="M53.2735 38.304V39.354H53.0775V38.955C52.9874 38.9914 52.8912 39.0104 52.794 39.011C52.6815 39.0187 52.5703 38.9837 52.4825 38.913C52.4448 38.8773 52.4155 38.8337 52.3967 38.7852C52.3779 38.7368 52.3702 38.6848 52.374 38.633V38.283H52.5665V38.598C52.565 38.6297 52.5702 38.6613 52.5816 38.6908C52.5931 38.7203 52.6106 38.7471 52.633 38.7695C52.6852 38.8118 52.7514 38.833 52.8185 38.829C52.9078 38.8283 52.9959 38.8092 53.0775 38.773V38.283L53.2735 38.304Z" fill="#FED51A"/>
<path d="M54.4355 39.2V39.3645H53.6445V38.3145H54.4145V38.479H53.8405V38.752H54.3515V38.9165H53.8405V39.2H54.4355Z" fill="#FED51A"/>
<path d="M54.922 39.305C54.8385 39.2599 54.7684 39.1935 54.719 39.1125C54.6722 39.0266 54.6481 38.9303 54.649 38.8325C54.6475 38.7342 54.6729 38.6374 54.7225 38.5525C54.7709 38.4707 54.8412 38.404 54.9255 38.36C55.0132 38.3115 55.1123 38.2874 55.2125 38.29C55.2941 38.2882 55.3753 38.3037 55.4505 38.3355C55.5204 38.3638 55.5828 38.4082 55.6325 38.465L55.503 38.584C55.4686 38.5437 55.4256 38.5118 55.3771 38.4906C55.3286 38.4693 55.2759 38.4594 55.223 38.4615C55.1549 38.46 55.0875 38.4756 55.027 38.507C54.9714 38.5384 54.9254 38.5843 54.894 38.64C54.8618 38.699 54.845 38.7652 54.845 38.8325C54.845 38.8997 54.8618 38.9659 54.894 39.025C54.9259 39.0793 54.9718 39.1241 55.027 39.1545C55.0871 39.1871 55.1546 39.2039 55.223 39.2035C55.2762 39.2051 55.329 39.1947 55.3775 39.1728C55.4261 39.151 55.469 39.1184 55.503 39.0775L55.6325 39.2C55.5828 39.2568 55.5204 39.3011 55.4505 39.3295C55.3752 39.361 55.2941 39.3765 55.2125 39.375C55.1114 39.3758 55.0116 39.3518 54.922 39.305Z" fill="#FED51A"/>
<path d="M56.2799 38.9165H56.0839V39.361H55.8879V38.311H56.0839V38.752H56.2834L56.5879 38.311H56.7944L56.4444 38.822L56.8189 39.368H56.5984L56.2799 38.9165Z" fill="#FED51A"/>
<path d="M57.7009 39.116H57.1724L57.0709 39.361H56.8679L57.3439 38.311H57.5364L58.0124 39.361H57.8059L57.7009 39.116ZM57.6379 38.962L57.4384 38.5L57.2389 38.962H57.6379Z" fill="#FED51A"/>
<path d="M59.0031 38.304V39.354H58.8001V39.06H58.5166L58.3206 39.354H58.1141L58.3416 39.0285C58.2735 39.0038 58.2148 38.9585 58.1736 38.899C58.1299 38.8366 58.1078 38.7617 58.1106 38.6855C58.11 38.6118 58.1293 38.5392 58.1666 38.4755C58.2036 38.4169 58.2572 38.3706 58.3206 38.3425C58.3944 38.31 58.4745 38.2945 58.5551 38.297L59.0031 38.304ZM58.3871 38.5245C58.3458 38.5686 58.3227 38.6268 58.3227 38.6873C58.3227 38.7477 58.3458 38.8059 58.3871 38.85C58.4374 38.8906 58.5011 38.9106 58.5656 38.906H58.8001V38.4685H58.5621C58.4992 38.4675 58.4377 38.4872 58.3871 38.5245Z" fill="#FED51A"/>
<path d="M60.8055 38.304V39.354H60.6095V38.4615H60.0635V39.354H59.871V38.304H60.8055Z" fill="#FED51A"/>
<path d="M61.8765 39.116H61.348L61.2465 39.361H61.0435L61.5195 38.311H61.712L62.188 39.361H61.9815L61.8765 39.116ZM61.8135 38.962L61.6 38.5L61.4005 38.962H61.8135Z" fill="#FED51A"/>
<path d="M63.098 38.3495C63.1622 38.3761 63.217 38.4212 63.2555 38.479C63.2917 38.5391 63.3099 38.6083 63.308 38.6785C63.3095 38.7497 63.2913 38.8199 63.2555 38.8815C63.217 38.9393 63.1622 38.9844 63.098 39.011C63.0225 39.0419 62.9416 39.0573 62.86 39.0565H62.622V39.361H62.426V38.311H62.86C62.9412 38.3063 63.0225 38.3194 63.098 38.3495ZM63.0455 38.836C63.0682 38.8168 63.086 38.7926 63.0976 38.7652C63.1092 38.7378 63.1141 38.7081 63.112 38.6785C63.1141 38.6494 63.1092 38.6202 63.0976 38.5934C63.086 38.5666 63.0682 38.5429 63.0455 38.5245C62.9883 38.4844 62.9193 38.4647 62.8495 38.4685H62.622V38.8885H62.8495C62.9173 38.8975 62.9862 38.884 63.0455 38.85V38.836Z" fill="#FED51A"/>
<path d="M64.3056 38.4685H63.9556V39.361H63.7631V38.4685H63.4131V38.304H64.3056V38.4685Z" fill="#FED51A"/>
<path d="M64.554 38.304H64.75V39.053L65.317 38.304H65.499V39.354H65.3065V38.605L64.75 39.361H64.568L64.554 38.304Z" fill="#FED51A"/>
<path d="M66.6751 38.304V39.354H66.5001V39.06H66.2166L66.0206 39.354H65.8001L66.0276 39.0285C65.9582 39.0043 65.8982 38.959 65.8561 38.899C65.8155 38.8353 65.7948 38.7609 65.7966 38.6855C65.7943 38.6115 65.8137 38.5385 65.8526 38.4755C65.8895 38.4181 65.9416 38.3721 66.0031 38.3425C66.077 38.3103 66.157 38.2947 66.2376 38.297L66.6751 38.304ZM66.0556 38.5245C66.034 38.5458 66.0172 38.5715 66.0063 38.5999C65.9954 38.6283 65.9908 38.6586 65.9926 38.689C65.9908 38.7188 65.9955 38.7486 66.0064 38.7764C66.0173 38.8042 66.0341 38.8293 66.0556 38.85C66.0801 38.8707 66.1085 38.8863 66.1392 38.8959C66.1698 38.9056 66.2021 38.909 66.2341 38.906H66.5001V38.4685H66.2586C66.1862 38.4607 66.1137 38.4807 66.0556 38.5245Z" fill="#FED51A"/>
<path d="M42.8226 39.151C42.9965 39.151 43.1376 39.01 43.1376 38.836C43.1376 38.662 42.9965 38.521 42.8226 38.521C42.6486 38.521 42.5076 38.662 42.5076 38.836C42.5076 39.01 42.6486 39.151 42.8226 39.151Z" fill="#FED51A"/>
</svg>
