<svg width="183" height="80" fill="none" xmlns="http://www.w3.org/2000/svg"><path d="M16.067 62a8.002 8.002 0 012.485-3.138 2.32 2.32 0 01.625-.428l.323-3.502a21.43 21.43 0 0113.455-35.79l3.966-5.472c-.086-.378-.182-.72-.278-1.04a14.961 14.961 0 00-1.527-3.19c-.078-.124-.155-.288-.233-.41a6.51 6.51 0 01.05-4.255 5.854 5.854 0 00-1.873 4.72c.032.504.148 1 .342 1.467a8.63 8.63 0 01.456 3.985 1.92 1.92 0 01-.347 1.186 14.266 14.266 0 00-1.149-3.397 14.171 14.171 0 00-2.006-2.873 4.816 4.816 0 01-.296-.41 6.383 6.383 0 01-.607-4.167 5.81 5.81 0 00-1.158 4.974 5.6 5.6 0 00.57 1.418 8.494 8.494 0 011.053 3.87c.077.408.026.828-.146 1.205a12.94 12.94 0 00-1.696-3.16 12.419 12.419 0 00-2.412-2.54 2.123 2.123 0 01-.36-.369 6.428 6.428 0 01-1.258-4.021 5.762 5.762 0 00-.31 5.065c.193.467.45.906.761 1.304a8.075 8.075 0 011.664 3.625c.143.406.153.846.028 1.258a12.585 12.585 0 00-2.139-2.877 13.315 13.315 0 00-2.817-2.147 3.46 3.46 0 01-.388-.301 6.206 6.206 0 01-1.874-3.775 5.877 5.877 0 00.456 5.042c.267.438.594.835.971 1.181a8.59 8.59 0 012.207 3.356c.197.369.273.79.219 1.204a12.434 12.434 0 00-2.576-2.494 13.863 13.863 0 00-3.078-1.664 1.792 1.792 0 01-.456-.229 6.511 6.511 0 01-2.448-3.437 5.876 5.876 0 001.263 4.915c.35.37.741.697 1.167.975a8.663 8.663 0 012.713 2.982c.222.341.363.728.415 1.13a14.045 14.045 0 00-2.94-2.037 15.37 15.37 0 00-3.338-1.176 2.342 2.342 0 01-.456-.133 6.58 6.58 0 01-2.982-3.032 5.855 5.855 0 002.006 4.655c.39.325.822.593 1.286.798a8.248 8.248 0 013.137 2.49c.284.305.483.679.579 1.085a13.68 13.68 0 00-3.192-1.555 14.873 14.873 0 00-3.465-.638 2.475 2.475 0 01-.506-.096 6.337 6.337 0 01-3.37-2.503 5.927 5.927 0 002.672 4.281c.437.266.91.465 1.405.593a8.208 8.208 0 013.501 2.006c.335.243.59.582.73.971a12.972 12.972 0 00-3.433-1.049 13.648 13.648 0 00-3.488-.068 2.579 2.579 0 01-.497 0 6.342 6.342 0 01-3.766-1.974 5.964 5.964 0 003.337 3.834c.478.181.978.3 1.486.351a8.399 8.399 0 013.757 1.414c.375.202.69.5.912.862a12.72 12.72 0 00-3.556-.497 12.823 12.823 0 00-3.483.456 2.91 2.91 0 01-.493.068 6.302 6.302 0 01-3.98-1.368 5.753 5.753 0 003.894 3.26 5.68 5.68 0 001.5.123 8.238 8.238 0 013.889.789c.404.131.758.383 1.016.72a14.629 14.629 0 00-3.579.032 14.276 14.276 0 00-3.342 1.017c-.157.07-.32.127-.487.169a6.539 6.539 0 01-4.168-.72 5.776 5.776 0 004.34 2.598c.51.041 1.023 0 1.52-.123a8.298 8.298 0 014.03.196 2.2 2.2 0 011.098.515 14.17 14.17 0 00-3.533.657c-1.122.38-2.193.894-3.192 1.532a2.098 2.098 0 01-.456.196 6.383 6.383 0 01-4.217 0 5.972 5.972 0 004.719 1.869 5.695 5.695 0 001.468-.342 8.156 8.156 0 013.98-.456c.419.008.828.126 1.186.342a15.605 15.605 0 00-3.397 1.18 14.135 14.135 0 00-2.868 2.007c-.13.1-.266.188-.41.264a6.21 6.21 0 01-4.167.643 5.822 5.822 0 004.928 1.122 7.316 7.316 0 001.427-.606 7.97 7.97 0 013.867-1.086 2.36 2.36 0 011.208.178 12.945 12.945 0 00-3.16 1.664A13.283 13.283 0 006.26 49.69l-.374.328a6.205 6.205 0 01-4.035 1.268 5.926 5.926 0 005.07.356c.462-.21.902-.465 1.313-.762a8.083 8.083 0 013.648-1.696c.4-.113.822-.123 1.226-.027a15.394 15.394 0 00-2.854 2.17 14.083 14.083 0 00-2.116 2.781 1.944 1.944 0 01-.305.388 6.384 6.384 0 01-3.77 1.905 5.873 5.873 0 005.037-.456 6.264 6.264 0 001.159-.948 8.577 8.577 0 013.35-2.243 2.64 2.64 0 011.209-.224 12.766 12.766 0 00-4.154 5.686 2.744 2.744 0 01-.232.415 6.305 6.305 0 01-3.456 2.457 5.882 5.882 0 004.906-1.258c.38-.329.71-.711.98-1.135a8.576 8.576 0 012.95-2.709 2.53 2.53 0 011.162-.419 14.161 14.161 0 00-2.038 2.94 14.825 14.825 0 00-1.18 3.306 1.37 1.37 0 01-.165.456 6.124 6.124 0 01-2.995 2.946 5.85 5.85 0 004.664-1.975c.316-.39.587-.815.807-1.267V62zM50.773.744l-4.03 43.382a.762.762 0 01-.129.337L21.023 79.721a.689.689 0 01-1.24-.456l4.03-43.39a.653.653 0 01.128-.338L49.532.28a.688.688 0 011.24.465zm-7.505 42.593l-3.42-2.485a5.003 5.003 0 000-.739 4.56 4.56 0 00-8.206-2.389l-4.359-.4a.137.137 0 00-.147.179.14.14 0 00.056.071l3.556 2.58a4.559 4.559 0 008.207 3.041l4.222.393a.14.14 0 00.138-.18.142.142 0 00-.047-.071zm19.678-7.203l3.087 6.328h-4.697l-1.97-4.45H58.21l-.388 4.45h-4.149l1.076-12.31h4.15l-.402 4.592h1.258l3.023-4.592H67.1l-4.154 5.982zm6.574 5.804a5.47 5.47 0 01-2.28-2.28 5.927 5.927 0 01-.605-3.31 6.765 6.765 0 011.185-3.314 7.086 7.086 0 012.68-2.28 8.02 8.02 0 013.648-.825 7.168 7.168 0 013.497.825 5.472 5.472 0 012.28 2.28 5.895 5.895 0 01.606 3.315 6.662 6.662 0 01-1.185 3.31 7.067 7.067 0 01-2.677 2.28 8.024 8.024 0 01-3.647.825 7.14 7.14 0 01-3.502-.826zm5.216-2.909a3.06 3.06 0 001.09-1.071c.296-.493.47-1.05.51-1.623a3.264 3.264 0 00-.227-1.628 2.393 2.393 0 00-.912-1.071 2.489 2.489 0 00-1.368-.379 2.835 2.835 0 00-1.431.379c-.447.26-.82.628-1.086 1.071a3.589 3.589 0 00-.51 1.628c-.066.551.011 1.11.223 1.623.188.442.506.816.912 1.071.408.259.884.39 1.368.379.505-.001 1-.14 1.431-.401v.022zm17.723 3.433l.455-5.607-3.068 4.5h-1.824l-2.28-4.309-.455 5.416h-3.78l1.076-12.31h3.41l3.397 6.561 4.473-6.556h3.41l-1.04 12.31-3.775-.005zm18.912-12.305l-1.076 12.31h-4.077l.794-9.087h-3.743l-.794 9.082h-4.076l1.076-12.31 11.896.005zm9.975 10.158h-4.678l-1.012 2.148h-4.217l6.451-12.31h4.081l4.299 12.31h-4.285l-.639-2.148zm-.884-2.986l-.912-3.092-1.468 3.092h2.38zm9.506 4.609a5.361 5.361 0 01-2.28-2.28 5.964 5.964 0 01-.592-3.328 6.772 6.772 0 011.176-3.333 6.973 6.973 0 012.653-2.28 7.93 7.93 0 013.602-.838 7.325 7.325 0 013.146.634 5.228 5.228 0 012.157 1.823l-2.822 2.34a3.093 3.093 0 00-4.728-.607 3.41 3.41 0 00-.985 2.243 2.904 2.904 0 00.592 2.239 2.531 2.531 0 002.02.834 3.7 3.7 0 002.813-1.44l2.417 2.338a6.732 6.732 0 01-2.48 1.824 8.145 8.145 0 01-3.256.63 7.026 7.026 0 01-3.433-.799zm-76.597 5.394h4.076l-.56 6.383 4.796-6.383h3.898l-1.076 12.31H60.43l.561-6.383-4.778 6.383h-3.935l1.094-12.31zm23.531 7.085a2.73 2.73 0 01.401 1.755 3.082 3.082 0 01-.994 2.016 5.863 5.863 0 01-2.307 1.3 10.374 10.374 0 01-3.11.455 11.853 11.853 0 01-5.014-1.072l1.463-2.863a9.224 9.224 0 001.746.534 8.87 8.87 0 001.742.187 4.192 4.192 0 001.65-.283.999.999 0 00.698-.825c.04-.493-.343-.739-1.149-.739h-3.324l.265-2.986h2.968c.285.017.57-.05.816-.196a.711.711 0 00-.1-1.245 2.686 2.686 0 00-1.254-.246 6.947 6.947 0 00-1.619.21c-.58.14-1.146.34-1.686.597l-.94-3.078a11.088 11.088 0 014.51-.912 9.116 9.116 0 012.922.456 4.668 4.668 0 012.065 1.272 2.504 2.504 0 01.648 1.96 2.953 2.953 0 01-.552 1.492 3.505 3.505 0 01-1.272 1.076c.582.221 1.08.618 1.427 1.135zm2.654-7.085H90.22l-.274 3.132h-6.588l-.123 1.423h2.932c1.5 0 2.626.319 3.369.957.743.638 1.067 1.56.962 2.768a3.9 3.9 0 01-1.628 2.95 6.465 6.465 0 01-3.907 1.076H78.48l1.076-12.306zm5.38 9.406c.346.017.689-.076.98-.265a1.011 1.011 0 00.41-.756c.055-.634-.35-.949-1.217-.949h-2.13l-.168 1.97h2.125zm7.709-9.406h4.076l-.556 6.383 4.792-6.383h3.903l-1.076 12.31h-4.076l.556-6.383-4.774 6.383h-3.92l1.075-12.31zm23.239.565a3.843 3.843 0 011.824 1.614c.401.755.56 1.614.456 2.462a4.746 4.746 0 01-.912 2.462 4.963 4.963 0 01-2.093 1.614 7.547 7.547 0 01-3.018.566h-1.778l-.265 3.023h-4.148l1.075-12.31h5.928a6.944 6.944 0 012.931.57zm-2.421 5.139a1.475 1.475 0 00.515-1.063 1.236 1.236 0 00-.328-1.062 1.723 1.723 0 00-1.231-.379h-1.514l-.25 2.882h1.532c.456.025.907-.109 1.276-.378zm13.532 4.454h-4.678l-1.012 2.148h-4.217l6.451-12.31h4.104l4.299 12.31h-4.286l-.661-2.148zm-.884-2.986l-.912-3.091-1.468 3.09h2.38zm17.603-3.954h-3.602l-.793 9.088h-4.076l.793-9.087h-3.601l.282-3.22h11.28l-.283 3.22zm11.08 5.978l-.274 3.132h-10.227l1.076-12.31h9.999l-.274 3.132h-5.927l-.127 1.441h5.202l-.26 2.986h-5.198l-.123 1.619h6.133zm14.494-9.196l-1.076 12.31h-4.081l.798-9.087h-2.813l-.16 1.423a25.895 25.895 0 01-.798 4.322 5.93 5.93 0 01-1.463 2.626 3.537 3.537 0 01-2.594.944 7.225 7.225 0 01-1.738-.228l.502-3.324c.149.037.302.055.456.055a1.23 1.23 0 001.039-.529c.291-.423.491-.9.589-1.404.132-.588.259-1.368.378-2.28l.579-4.8 10.382-.028zm12.966 0l-1.076 12.31h-4.076l.256-2.918h-1.108l-2.134 2.918h-4.341l2.736-3.515a3.713 3.713 0 01-1.696-1.591 4.254 4.254 0 01-.429-2.435 4.86 4.86 0 01.912-2.53 5.023 5.023 0 012.12-1.65 7.634 7.634 0 013.073-.584l5.763-.005zm-7.687 4.696c-.091 1.04.392 1.564 1.446 1.564h1.618l.269-3.06h-1.618c-1.052 0-1.624.499-1.715 1.496z" fill="#3E3E3E"/></svg>