<svg width="297" height="130" fill="none" xmlns="http://www.w3.org/2000/svg"><path d="M26.109 100.749a13 13 0 014.038-5.098c.298-.286.64-.521 1.015-.696l.526-5.69a34.823 34.823 0 0121.863-58.16l6.446-8.89a25.147 25.147 0 00-.452-1.69 24.311 24.311 0 00-2.482-5.186c-.126-.2-.252-.467-.378-.667a10.579 10.579 0 01.082-6.912 9.513 9.513 0 00-3.045 7.668c.053.82.24 1.626.556 2.386a14.011 14.011 0 01.74 6.475 3.12 3.12 0 01-.563 1.926 23.179 23.179 0 00-1.867-5.52 23.024 23.024 0 00-3.26-4.667 7.84 7.84 0 01-.481-.667 10.372 10.372 0 01-.986-6.772 9.437 9.437 0 00-1.881 8.084 9.1 9.1 0 00.926 2.304 13.803 13.803 0 011.711 6.29c.124.66.041 1.344-.237 1.956a21.03 21.03 0 00-2.756-5.134 20.185 20.185 0 00-3.92-4.127 3.449 3.449 0 01-.585-.6 10.447 10.447 0 01-2.044-6.535 9.365 9.365 0 00-.504 8.231c.314.76.73 1.472 1.237 2.12a13.12 13.12 0 012.704 5.89c.233.659.248 1.375.045 2.044-.93-1.716-2.1-3.29-3.475-4.675a21.633 21.633 0 00-4.579-3.49 5.594 5.594 0 01-.63-.488 10.083 10.083 0 01-3.045-6.135 9.55 9.55 0 00.741 8.194 8.89 8.89 0 001.578 1.92 13.959 13.959 0 013.586 5.452 3.26 3.26 0 01.356 1.956 20.204 20.204 0 00-4.186-4.053 22.528 22.528 0 00-5.001-2.704 2.912 2.912 0 01-.741-.37 10.58 10.58 0 01-3.979-5.587 9.552 9.552 0 002.053 7.987c.568.6 1.205 1.133 1.896 1.586a14.078 14.078 0 014.409 4.845c.36.554.59 1.182.674 1.838a22.815 22.815 0 00-4.779-3.312 24.98 24.98 0 00-5.423-1.912 3.783 3.783 0 01-.741-.215 10.69 10.69 0 01-4.846-4.927 9.513 9.513 0 003.26 7.565 8.894 8.894 0 002.09 1.296 13.402 13.402 0 015.097 4.046 3.89 3.89 0 01.941 1.763 22.232 22.232 0 00-5.186-2.526 24.159 24.159 0 00-5.631-1.038 4.03 4.03 0 01-.822-.155 10.299 10.299 0 01-5.476-4.068 9.633 9.633 0 004.342 6.957c.71.432 1.478.756 2.282.963a13.336 13.336 0 015.69 3.26 3.35 3.35 0 011.186 1.578 21.08 21.08 0 00-5.58-1.704 22.17 22.17 0 00-5.667-.11 4.19 4.19 0 01-.808 0 10.305 10.305 0 01-6.12-3.209 9.691 9.691 0 005.424 6.231 9.552 9.552 0 002.415.57 13.66 13.66 0 016.105 2.297c.608.329 1.12.812 1.482 1.4a20.672 20.672 0 00-5.78-.807 20.844 20.844 0 00-5.66.74c-.263.06-.53.098-.8.112a10.239 10.239 0 01-6.468-2.223 9.35 9.35 0 006.327 5.298c.8.174 1.62.242 2.438.2 2.18-.094 4.35.346 6.32 1.282a3.408 3.408 0 011.652 1.17 23.768 23.768 0 00-5.816.052 23.205 23.205 0 00-5.43 1.652 4.562 4.562 0 01-.793.274 10.624 10.624 0 01-6.772-1.17A9.387 9.387 0 007.72 60.94a7.66 7.66 0 002.467-.2 13.485 13.485 0 016.55.318c.662.107 1.28.397 1.785.838-1.951.11-3.88.469-5.742 1.066a23.902 23.902 0 00-5.186 2.49 3.417 3.417 0 01-.74.318 10.373 10.373 0 01-6.854 0 9.707 9.707 0 007.668 3.038 9.251 9.251 0 002.386-.556 13.255 13.255 0 016.468-.74 3.84 3.84 0 011.926.555 25.359 25.359 0 00-5.52 1.919 22.97 22.97 0 00-4.66 3.26c-.21.161-.433.305-.666.43A10.092 10.092 0 01.83 74.72a9.461 9.461 0 008.009 1.823 11.888 11.888 0 002.319-.986 12.95 12.95 0 016.283-1.763 3.824 3.824 0 011.963.29 21.035 21.035 0 00-5.134 2.703 21.59 21.59 0 00-4.098 3.957l-.607.533a10.084 10.084 0 01-6.557 2.06 9.633 9.633 0 008.239.578c.75-.341 1.465-.755 2.133-1.237a13.136 13.136 0 015.928-2.757 3.978 3.978 0 011.993-.044 25.01 25.01 0 00-4.638 3.526 22.884 22.884 0 00-3.438 4.52c-.138.23-.305.442-.496.63A10.372 10.372 0 016.6 91.65a9.543 9.543 0 008.187-.741 10.18 10.18 0 001.882-1.541 13.94 13.94 0 015.446-3.645 4.29 4.29 0 011.963-.364 20.745 20.745 0 00-6.75 9.24c-.106.235-.232.46-.377.674a10.247 10.247 0 01-5.616 3.993 9.558 9.558 0 007.972-2.045 8.422 8.422 0 001.593-1.845 13.936 13.936 0 014.793-4.4 4.112 4.112 0 011.89-.682 23.016 23.016 0 00-3.313 4.778 24.092 24.092 0 00-1.918 5.372 2.221 2.221 0 01-.267.741 9.95 9.95 0 01-4.868 4.786 9.515 9.515 0 007.58-3.208c.514-.634.954-1.326 1.311-2.06v.045zM82.505 1.21l-6.549 70.496a1.238 1.238 0 01-.207.548l-41.587 57.293a1.119 1.119 0 01-2.015-.741l6.55-70.51a1.06 1.06 0 01.207-.548L80.49.455a1.12 1.12 0 012.016.755zM70.31 70.424l-5.556-4.038c.03-.4.03-.8 0-1.2a7.408 7.408 0 00-13.336-3.882l-7.083-.652a.222.222 0 00-.148.407l5.779 4.194a7.408 7.408 0 0013.336 4.942l6.86.637a.23.23 0 00.148-.408zm31.977-11.706l5.016 10.284h-7.631l-3.2-7.231h-1.883L93.96 69h-6.742l1.749-20.003h6.742l-.652 7.46h2.045l4.912-7.46h7.024l-6.75 9.72zm10.684 9.432a8.893 8.893 0 01-3.705-3.705 9.634 9.634 0 01-.985-5.379 11 11 0 011.926-5.386 11.516 11.516 0 014.357-3.704 13.03 13.03 0 015.927-1.341 11.649 11.649 0 015.683 1.34 8.896 8.896 0 013.704 3.705 9.58 9.58 0 01.985 5.386 10.819 10.819 0 01-1.926 5.38 11.477 11.477 0 01-4.349 3.704 13.038 13.038 0 01-5.927 1.34 11.601 11.601 0 01-5.69-1.34zm8.476-4.727a4.965 4.965 0 001.77-1.741 5.925 5.925 0 00.83-2.638 5.306 5.306 0 00-.37-2.645 3.895 3.895 0 00-1.482-1.741 4.046 4.046 0 00-2.223-.615 4.606 4.606 0 00-2.326.615 4.946 4.946 0 00-1.763 1.741 5.822 5.822 0 00-.83 2.645 5.264 5.264 0 00.363 2.638 3.824 3.824 0 001.482 1.74 3.967 3.967 0 002.222.616 4.512 4.512 0 002.327-.652v.037zm28.798 5.579l.741-9.113L146 67.2h-2.964l-3.704-7.001-.741 8.802h-6.142l1.748-20.004h5.542l5.52 10.661 7.268-10.654h5.542l-1.689 20.004-6.135-.007zm30.732-19.997l-1.748 20.004h-6.624l1.289-14.766h-6.083l-1.289 14.759h-6.623l1.748-20.004 19.33.007zm16.211 16.507h-7.602l-1.645 3.49h-6.853l10.484-20.004h6.631l6.986 20.004h-6.964l-1.037-3.49zm-1.438-4.853l-1.481-5.023-2.386 5.023h3.867zm15.448 7.491a8.706 8.706 0 01-3.704-3.705 9.695 9.695 0 01-.964-5.408 11.013 11.013 0 011.912-5.416 11.326 11.326 0 014.312-3.705 12.884 12.884 0 015.853-1.363 11.907 11.907 0 015.112 1.03 8.495 8.495 0 013.504 2.964l-4.586 3.8a5.023 5.023 0 00-7.683-.985 5.547 5.547 0 00-1.6 3.645 4.724 4.724 0 00.963 3.638A4.098 4.098 0 00217.599 64a6.014 6.014 0 004.572-2.342l3.926 3.801a10.929 10.929 0 01-4.03 2.964 13.233 13.233 0 01-5.29 1.022c-1.94.049-3.86-.397-5.579-1.296zm-124.47 8.764h6.624l-.911 10.373 7.794-10.373h6.335l-1.749 20.004h-6.623l.91-10.372-7.764 10.372H84.95l1.778-20.004zm38.238 11.514c.533.85.763 1.855.652 2.852a5.009 5.009 0 01-1.615 3.275 9.535 9.535 0 01-3.749 2.111 16.857 16.857 0 01-5.053.741 19.265 19.265 0 01-8.15-1.74l2.378-4.654c.915.382 1.866.673 2.838.867.931.195 1.879.297 2.83.304a6.809 6.809 0 002.682-.46 1.621 1.621 0 001.134-1.34c.064-.8-.558-1.2-1.867-1.2h-5.401l.429-4.853h4.824c.464.028.925-.083 1.326-.319.173-.114.313-.272.405-.459a1.16 1.16 0 00-.568-1.564 4.365 4.365 0 00-2.038-.4c-.887.01-1.77.125-2.63.341-.944.229-1.863.554-2.741.97l-1.526-5a18.01 18.01 0 017.327-1.482 14.819 14.819 0 014.749.74 7.587 7.587 0 013.356 2.068 4.06 4.06 0 011.052 3.186 4.788 4.788 0 01-.896 2.422 5.704 5.704 0 01-2.067 1.749 4.884 4.884 0 012.319 1.845zm4.312-11.514h17.329l-.444 5.09h-10.706l-.2 2.312h4.764c2.437 0 4.267.518 5.475 1.556 1.208 1.037 1.734 2.534 1.563 4.497a6.327 6.327 0 01-2.645 4.793 10.504 10.504 0 01-6.349 1.749h-10.536l1.749-19.997zM138.02 92.2a2.69 2.69 0 001.593-.43 1.64 1.64 0 00.667-1.23c.089-1.03-.57-1.54-1.978-1.54h-3.46l-.274 3.2h3.452zm12.529-15.286h6.623l-.904 10.373 7.787-10.373h6.342l-1.748 20.004h-6.624l.904-10.372-7.757 10.372H148.8l1.749-20.004zm37.763.919a6.243 6.243 0 012.963 2.623 6.766 6.766 0 01.741 4 7.715 7.715 0 01-1.481 4.001 8.068 8.068 0 01-3.401 2.623 12.27 12.27 0 01-4.905.919h-2.889l-.43 4.912h-6.742l1.748-20.004h9.632c1.636-.04 3.262.276 4.764.926zm-3.934 8.35a2.396 2.396 0 00.837-1.726 2.03 2.03 0 00-.533-1.727 2.803 2.803 0 00-2.001-.615h-2.46l-.407 4.683h2.489a3.217 3.217 0 002.075-.615zm21.989 7.238h-7.601l-1.645 3.49h-6.853l10.483-20.004h6.668l6.987 20.004h-6.964l-1.075-3.49zm-1.437-4.853l-1.482-5.023-2.385 5.023h3.867zm28.606-6.423h-5.853l-1.289 14.766h-6.624l1.289-14.766h-5.853l.46-5.23h18.329l-.459 5.23zm18.003 9.713l-.444 5.09h-16.618l1.748-20.004h16.248l-.445 5.09h-9.631l-.208 2.341h8.454l-.422 4.853h-8.447l-.2 2.63h9.965zm23.553-14.944l-1.748 20.004h-6.631l1.296-14.766h-4.571l-.259 2.312a42.194 42.194 0 01-1.297 7.024 9.637 9.637 0 01-2.378 4.267 5.75 5.75 0 01-4.216 1.534c-.952-.009-1.9-.133-2.822-.37l.815-5.402c.242.06.491.09.74.09a2.001 2.001 0 001.69-.86 6.074 6.074 0 00.955-2.282c.215-.956.423-2.223.615-3.705l.941-7.801 16.87-.045zm21.071 0l-1.748 20.004h-6.624l.415-4.741h-1.8l-3.468 4.741h-7.053l4.445-5.712a6.044 6.044 0 01-2.756-2.586 6.906 6.906 0 01-.696-3.956 7.886 7.886 0 011.482-4.112 8.148 8.148 0 013.445-2.682 12.4 12.4 0 014.993-.948l9.365-.008zm-12.491 7.632c-.148 1.689.637 2.54 2.348 2.54h2.631l.437-4.97h-2.63c-1.709 0-2.638.81-2.786 2.43z" fill="#3E3E3E"/></svg>