<svg width="324" height="131" fill="none" xmlns="http://www.w3.org/2000/svg"><path d="M26.11 100.756a13.001 13.001 0 014-5.1c.293-.284.63-.517 1-.69l.53-5.7a34.81 34.81 0 0121.91-58.15l6.45-8.9c-.14-.61-.3-1.17-.45-1.68a24.07 24.07 0 00-2.49-5.19c-.12-.2-.25-.47-.37-.67a10.56 10.56 0 01.08-6.91 9.57 9.57 0 00-2.4 3.49 9.45 9.45 0 00-.65 4.18c.05.82.24 1.624.56 2.38a14.13 14.13 0 01.72 6.48 3.16 3.16 0 01-.56 1.93 23.187 23.187 0 00-1.87-5.52 22.995 22.995 0 00-3.24-4.7c-.17-.22-.33-.44-.48-.67a10.32 10.32 0 01-1-6.77 9.44 9.44 0 00-1.85 3.85 9.569 9.569 0 000 4.26c.192.816.498 1.6.91 2.33a13.83 13.83 0 011.71 6.29 3.27 3.27 0 01-.24 1.95 20.817 20.817 0 00-2.76-5.13 19.938 19.938 0 00-3.92-4.11 3.671 3.671 0 01-.58-.6 10.43 10.43 0 01-2-6.53 9.47 9.47 0 00-1.2 4.05 9.339 9.339 0 00.7 4.18 8.85 8.85 0 001.24 2.12 13 13 0 012.7 5.89 3.31 3.31 0 01.05 2 20.366 20.366 0 00-3.48-4.67 21.346 21.346 0 00-4.63-3.44 5.92 5.92 0 01-.63-.49 10.1 10.1 0 01-3-6.14 9.47 9.47 0 00-.56 4.18 9.571 9.571 0 001.3 4 8.79 8.79 0 001.58 1.92 13.82 13.82 0 013.58 5.45 3.25 3.25 0 01.36 2 19.915 19.915 0 00-4.19-4.06 22.348 22.348 0 00-5-2.7 3.001 3.001 0 01-.74-.37 10.61 10.61 0 01-4-5.59 9.56 9.56 0 002.05 8c.57.599 1.207 1.13 1.9 1.58a14.15 14.15 0 014.41 4.85c.362.554.59 1.183.67 1.84a22.357 22.357 0 00-4.77-3.31 24.877 24.877 0 00-5.46-2 3.275 3.275 0 01-.74-.21 10.61 10.61 0 01-4.83-4.95 9.44 9.44 0 003.26 7.57 8.93 8.93 0 002.08 1.29 13.36 13.36 0 015.1 4c.464.493.788 1.1.94 1.76a22.178 22.178 0 00-5.18-2.52 23.996 23.996 0 00-5.63-1 3.935 3.935 0 01-.83-.16 10.31 10.31 0 01-5.47-4.06 9.599 9.599 0 004.34 7 8.654 8.654 0 002.28 1 13.16 13.16 0 015.68 3.21c.547.39.962.938 1.19 1.57a21.318 21.318 0 00-5.57-1.66c-1.86-.29-3.748-.34-5.62-.15-.27.02-.54.02-.81 0A10.35 10.35 0 016 39.646a9.73 9.73 0 005.43 6.23c.774.3 1.584.49 2.41.57a13.638 13.638 0 016.16 2.3 3.9 3.9 0 011.48 1.4 20.996 20.996 0 00-5.78-.81c-1.911-.01-3.815.24-5.66.74-.263.062-.53.099-.8.11a10.2 10.2 0 01-6.5-2.18 9.23 9.23 0 002.55 3.38 9.36 9.36 0 003.78 1.92 9.512 9.512 0 002.44.2c2.18-.1 4.35.34 6.32 1.28a3.4 3.4 0 011.65 1.17 24.107 24.107 0 00-5.82.05 23.54 23.54 0 00-5.43 1.65 4.363 4.363 0 01-.79.28 10.61 10.61 0 01-6.77-1.21 9.41 9.41 0 007.05 4.22 7.613 7.613 0 002.47-.2 13.59 13.59 0 016.55.32c.66.109 1.277.4 1.78.84-1.952.125-3.88.495-5.74 1.1a24.525 24.525 0 00-5.19 2.49 3.256 3.256 0 01-.74.32 10.32 10.32 0 01-6.85 0 9.682 9.682 0 007.67 3 9.273 9.273 0 002.38-.56 13.329 13.329 0 016.47-.74 3.86 3.86 0 011.93.56 25.086 25.086 0 00-5.52 1.93 22.817 22.817 0 00-4.66 3.26c-.212.16-.436.304-.67.43a10.13 10.13 0 01-6.77 1 9.42 9.42 0 008 1.82 11.732 11.732 0 002.32-1 12.859 12.859 0 016.28-1.76 3.85 3.85 0 012 .28 20.996 20.996 0 00-5.13 2.71 21.91 21.91 0 00-4.1 3.95l-.61.54A10.08 10.08 0 013 83.346a9.711 9.711 0 008.24.58c.747-.346 1.46-.761 2.13-1.24a13.22 13.22 0 015.93-2.76 3.999 3.999 0 012 0 25.205 25.205 0 00-4.64 3.52 23.27 23.27 0 00-3.44 4.52 2.733 2.733 0 01-.49.63 10.37 10.37 0 01-6.13 3.1 9.522 9.522 0 008.19-.74 10.29 10.29 0 001.88-1.54 14 14 0 015.45-3.65 4.378 4.378 0 012-.36 20.79 20.79 0 00-6.75 9.24 4.442 4.442 0 01-.38.67 10.28 10.28 0 01-5.61 4 9.541 9.541 0 008-2 8.232 8.232 0 001.59-1.84 13.83 13.83 0 014.72-4.47 4.21 4.21 0 011.89-.69 23.44 23.44 0 00-3.31 4.78 24.389 24.389 0 00-1.92 5.37 2.16 2.16 0 01-.26.75 9.997 9.997 0 01-4.87 4.79 9.518 9.518 0 007.58-3.21c.514-.634.953-1.326 1.31-2.06v.02zm56.4-99.54L76 71.716c-.03.193-.101.378-.21.54l-41.59 57.3a1.087 1.087 0 01-.58.4 1.117 1.117 0 01-.7 0 1.089 1.089 0 01-.55-.44 1 1 0 01-.18-.68l6.51-70.53a1 1 0 01.2-.55L80.49.456a1.13 1.13 0 01.58-.4c.23-.075.48-.075.71 0a1.12 1.12 0 01.73 1.14v.02zm-12.2 69.21l-5.56-4c.03-.4.03-.8 0-1.2a7.41 7.41 0 00-13.33-3.92l-7.09-.65a.318.318 0 00-.14 0 .27.27 0 00-.105.19.17.17 0 00.015.07.18.18 0 00.09.12l5.81 4.22a6.006 6.006 0 000 1 7.4 7.4 0 0013.33 3.9l6.86.64a.23.23 0 00.14 0 .31.31 0 00.08-.11.22.22 0 000-.14.32.32 0 00-.1-.12zm45.18-24.95l-1 18.18H89.17l1-18.18h6l-.7 13.43h3.63l.7-13.43h6l-.71 13.43h3.64l.7-13.43h6.06zm15.26 15.01h-6.91l-1.39 3.17h-6.23l8.9-18.18h6l7 18.18h-6.32l-1.05-3.17zm-1.46-4.41l-1.53-4.57-2 4.57h3.53zm11.48-10.6h6l-.5 9.46 6.76-9.46h5.76l-.95 18.18h-6l.5-9.43-6.73 9.43h-5.79l.95-18.18zm4.79-2.15a3.952 3.952 0 01-.966-1.525 3.951 3.951 0 01-.184-1.795h4.08c-.067.444.033.896.28 1.27a1.548 1.548 0 001.22.39 1.8 1.8 0 001.28-.39 1.88 1.88 0 00.44-1.27h4.08a4.322 4.322 0 01-1.53 3.35 7.122 7.122 0 01-4.42 1.12c-2.01-.03-3.44-.41-4.28-1.15zm34.21 2.15l-1 18.18h-6l.7-13.42h-4.15l-.17 2.1a37.815 37.815 0 01-1 6.39 8.557 8.557 0 01-2 3.88 5.131 5.131 0 01-3.73 1.4 11.01 11.01 0 01-2.58-.34l.57-4.91c.22.051.444.078.67.08a1.75 1.75 0 001.51-.78c.407-.63.676-1.339.79-2.08.206-1.125.353-2.26.44-3.4l.61-7.09 15.34-.01zm6.28 17.37a8.52 8.52 0 01-3.48-3.38 8.923 8.923 0 01-1.07-4.9 9.671 9.671 0 011.58-4.89 9.848 9.848 0 013.84-3.39 11.649 11.649 0 015.34-1.22 10.85 10.85 0 015.2 1.22 8.448 8.448 0 013.54 3.39 9 9 0 011 4.89 9.75 9.75 0 01-1.58 4.9 9.908 9.908 0 01-3.84 3.38 11.539 11.539 0 01-5.34 1.23 10.781 10.781 0 01-5.19-1.23zm7.56-4.29a4.161 4.161 0 001.55-1.55 5.219 5.219 0 00.68-2.4 5.06 5.06 0 00-.42-2.4 3.677 3.677 0 00-3.42-2.2 4 4 0 00-2.1.56 4.353 4.353 0 00-1.55 1.58 5.346 5.346 0 00-.67 2.4 4.832 4.832 0 00.42 2.4 3.674 3.674 0 001.39 1.59 3.752 3.752 0 002 .56 4.06 4.06 0 002.12-.54zm14.15 4.29a8.46 8.46 0 01-3.48-3.38 8.923 8.923 0 01-1.07-4.9 9.587 9.587 0 011.58-4.89 9.848 9.848 0 013.84-3.39 11.64 11.64 0 015.37-1.22 10.86 10.86 0 015.21 1.22 8.366 8.366 0 013.48 3.39 8.789 8.789 0 011.07 4.89 9.562 9.562 0 01-1.58 4.9 9.908 9.908 0 01-3.84 3.38 11.521 11.521 0 01-5.34 1.23 10.782 10.782 0 01-5.24-1.23zm7.56-4.29a4.304 4.304 0 001.55-1.55 5.214 5.214 0 00.67-2.4 4.832 4.832 0 00-.42-2.4 3.652 3.652 0 00-3.42-2.2 3.999 3.999 0 00-2.09.56 4.353 4.353 0 00-1.55 1.58 5.213 5.213 0 00-.67 2.4 4.832 4.832 0 00.42 2.4 3.711 3.711 0 001.38 1.59c.602.37 1.294.563 2 .56a4.061 4.061 0 002.13-.54zm27.34-13.08l-.95 18.18h-6l.31-5.82a11.66 11.66 0 01-3.33.55c-2.67 0-4.66-.63-6-1.9a6.728 6.728 0 01-1.8-5.53l.29-5.48h6l-.25 4.81c-.125.864.09 1.742.6 2.45a2.713 2.713 0 002.16.79c.865.03 1.728-.11 2.54-.41l.4-7.64h6.03zm21.39 0l-8 13.69a10.921 10.921 0 01-3.38 3.71 7.53 7.53 0 01-4.2 1.27 9.17 9.17 0 01-3.5-.72l1.65-4.42a7.12 7.12 0 001.86.31 2.64 2.64 0 001.16-.23c.382-.19.722-.456 1-.78l-6.29-12.83h6.46l3.19 7.66 4.14-7.66h5.91zm19.19 0l-.95 18.18h-6.13l.35-6.7h-5.66l-.35 6.7h-6.13l.95-18.18h6.13l-.34 6.44h5.66l.34-6.44h6.13zm21.39 0l-8 13.69a10.904 10.904 0 01-3.37 3.71 7.562 7.562 0 01-4.26 1.27 9.17 9.17 0 01-3.5-.72l1.7-4.42a7.213 7.213 0 001.86.31c.402.013.802-.066 1.17-.23.381-.193.72-.458 1-.78l-6.33-12.83h6.47l3.2 7.66 4.14-7.66h5.92zm19.19 0l-.95 18.18h-6.13l.35-6.7h-5.66l-.35 6.7H305l1-18.18h6l-.33 6.44h5.66l.33-6.44h6.16zM101 80.276l4.89 9.34H99l-3.17-6.61h-1.71l-.34 6.57h-6.13l.95-18.17h6.13l-.35 6.78h1.86l4.23-6.78h6.38l-5.85 8.87zm10 8.54a8.493 8.493 0 01-3.48-3.39 8.888 8.888 0 01-1.07-4.89 9.75 9.75 0 011.58-4.9 9.996 9.996 0 013.84-3.39 11.65 11.65 0 015.37-1.24 10.85 10.85 0 015.2 1.22 8.57 8.57 0 013.49 3.39 8.996 8.996 0 011.07 4.9 9.634 9.634 0 01-1.59 4.89 9.746 9.746 0 01-3.83 3.39 11.651 11.651 0 01-5.34 1.21 10.89 10.89 0 01-5.24-1.19zm7.56-4.3a4.281 4.281 0 001.55-1.58 5.299 5.299 0 00.68-2.4 5.113 5.113 0 00-.42-2.41 3.698 3.698 0 00-1.37-1.58 3.75 3.75 0 00-2-.56 4.099 4.099 0 00-2.1.56 4.353 4.353 0 00-1.55 1.58 5.307 5.307 0 00-.67 2.41 4.867 4.867 0 00.42 2.4 3.7 3.7 0 001.39 1.58 3.752 3.752 0 002 .56 4.06 4.06 0 002.1-.56h-.03zm26.44 5.1l.38-8.28-4.38 6.67h-2.7l-3.61-6.36-.42 8h-5.59l1-18.17h5l5.42 9.68 6.27-9.68h5l-.9 18.17-5.47-.03zm27.26-18.17l-.95 18.17h-6l.69-13.42h-5.53l-.71 13.42h-6l1-18.17h17.5zm15.26 15.01h-6.91l-1.38 3.16H173l8.9-18.17h6l7 18.17h-6.34l-1.04-3.16zm-1.46-4.45l-1.52-4.57-2 4.57h3.52zm14.27 6.82a8.361 8.361 0 01-3.45-3.37 9.004 9.004 0 01-1-4.92 9.619 9.619 0 011.57-4.92 9.75 9.75 0 013.79-3.38 11.528 11.528 0 015.21-1.23 11 11 0 014.68.94 8.09 8.09 0 013.28 2.7l-4 3.45a4.66 4.66 0 00-3.91-2.09 4.227 4.227 0 00-3.15 1.24 4.829 4.829 0 00-1.35 3.29 4.374 4.374 0 001 3.31 3.863 3.863 0 003 1.23 5.27 5.27 0 004.08-2.13l3.69 3.45a9.36 9.36 0 01-3.57 2.7 11.649 11.649 0 01-4.78.94 10.551 10.551 0 01-5.09-1.21zm30.76-10.28a5.195 5.195 0 011.6 4.48 6.247 6.247 0 01-2.35 4.89 9.301 9.301 0 01-5.86 1.7h-9l.95-18.17h6l-.27 5.56h3.76a7.74 7.74 0 015.17 1.54zm-5.24 6.21a2.293 2.293 0 00.69-1.63c.06-1.21-.62-1.81-2-1.81h-2.57l-.21 4h2.57a2.19 2.19 0 001.52-.56zm9.15-13.31h6l-1 18.17h-6l1-18.17z" fill="#3E3E3E"/></svg>