<svg width="70" height="70" fill="none" xmlns="http://www.w3.org/2000/svg"><path d="M19.9 10.784c-.493.284-.959.547-1.42.818-2.295 1.344-4.48 2.846-6.51 4.569-1.973 1.669-3.76 3.51-5.193 5.671-1.024 1.545-1.807 3.196-2.162 5.032-.468 2.435-.016 4.69 1.304 6.778 1.064 1.685 2.504 2.957 4.257 3.886 1.845.98 3.816 1.592 5.853 2.02 2.111.442 4.247.68 6.4.806 1.98.116 3.96.12 5.94.059 2.518-.075 5.03-.28 7.527-.612.259-.035.512.027.764.074.817.153 1.598.408 2.3.868 1.085.708 1.593 1.703 1.53 3.003-.087 1.797-1.237 2.919-2.72 3.471-.588.219-1.197.276-1.81.323-2.326.18-4.657.23-6.99.185a65.128 65.128 0 01-4.64-.254 57.795 57.795 0 01-4.84-.63c-3.203-.57-6.324-1.414-9.284-2.795-1.754-.818-3.398-1.81-4.874-3.065-1.994-1.694-3.564-3.706-4.49-6.174-.954-2.535-.889-5.076.048-7.605.618-1.67 1.552-3.157 2.642-4.553a26.41 26.41 0 012.825-3.052c1.972-1.836 4.12-3.443 6.387-4.9a63.861 63.861 0 016.91-3.868c.062-.03.116-.083.247-.055z" fill="#919191"/><path d="M27.542 7.97c-.819.523-1.639 1.048-2.457 1.568-2.123 1.344-4.236 2.704-6.284 4.161a60.198 60.198 0 00-3.971 3.056c-1.083.915-2.13 1.87-3.09 2.913-1 1.086-1.917 2.233-2.627 3.533-.725 1.329-1.18 2.727-1.076 4.266.074 1.092.454 2.076 1.06 2.98.774 1.157 1.788 2.077 2.944 2.826.817.53 1.743.862 2.662 1.183 1.436.5 2.91.843 4.41 1.09a36.414 36.414 0 004.98.47c.778.018 1.558.061 2.336.023.885-.042 1.772-.047 2.657-.118.774-.061 1.55-.106 2.323-.188.886-.093 1.77-.2 2.653-.327.882-.128 1.765-.253 2.642-.411a93.356 93.356 0 006.387-1.39 90.024 90.024 0 007.067-2.111c3.147-1.08 6.234-2.31 9.262-3.69.835-.381 2.154-.038 2.427 1.085.134.554-.197 1.214-.747 1.431-1.295.51-2.608.973-3.924 1.43a153.673 153.673 0 01-13.257 3.958 112.08 112.08 0 01-8.956 1.86 74.483 74.483 0 01-4.746.628c-1.427.14-2.856.238-4.288.29a38.51 38.51 0 01-2.62.019c-2.575-.083-5.127-.344-7.612-1.069-1.383-.403-2.719-.928-3.943-1.69-1.785-1.11-3.357-2.457-4.447-4.29-.713-1.202-1.067-2.506-.98-3.907.097-1.562.669-2.966 1.469-4.288.697-1.152 1.541-2.19 2.459-3.174 1.455-1.56 3.078-2.93 4.77-4.224 2.752-2.107 5.671-3.964 8.652-5.726 1.221-.721 2.456-1.42 3.685-2.128.052-.03.107-.056.16-.083l.02.044z" fill="#919191"/><path d="M24.005 13.459a52.46 52.46 0 012.01-1.492c2.82-1.988 5.787-3.73 8.866-5.287 3.49-1.764 7.084-3.283 10.803-4.503C48.06 1.397 50.47.745 52.94.343c1.588-.26 3.184-.426 4.796-.3.803.061 1.593.194 2.342.517 1.568.677 2.176 1.988 1.675 3.62-.328 1.067-.93 1.984-1.607 2.856-1.46 1.876-3.21 3.46-5.034 4.969a44.506 44.506 0 01-1.936 1.51c-.065.048-.121.127-.226.094 1.253-1.184 2.438-2.419 3.322-3.908.437-.736.779-1.508.843-2.378.08-1.124-.394-1.995-1.296-2.612-.508-.348-1.124-.487-1.724-.629-1.502-.354-3.024-.397-4.555-.27-3.672.304-7.164 1.347-10.596 2.615-4.632 1.71-9.064 3.855-13.383 6.24-.44.24-.872.49-1.307.734-.072.04-.138.11-.25.058zM56.052 65.05c-1.011-.598-.876-2.038-.024-2.696.211-.162.202-.174-.027-.325-.944-.623-1.304-1.664-.983-2.884.257-.973.86-1.657 1.808-1.99 1.133-.396 2.278-.367 3.419 0 .19.062.381.284.54.201.123-.064.13-.343.201-.52.258-.63.676-.911 1.353-.91.25-.003.5.017.745.062.151.029.23.084.2.26a8.978 8.978 0 00-.097.86c-.011.176-.13.174-.243.175-.328.006-.656.02-.974.106a1.67 1.67 0 00-.306.11c-.31.152-.343.284-.15.57.685 1.016.502 2.594-.401 3.54-.578.604-1.312.842-2.112.932-.663.074-1.323.072-1.973-.102-.094-.025-.146.01-.206.065a.868.868 0 00-.281.866c.065.323.294.485.59.565.592.158 1.2.182 1.809.197.731.018 1.467-.02 2.189.14.16.034.317.078.472.13 1.096.38 1.584 1.191 1.428 2.34-.2 1.47-1.12 2.336-2.416 2.87-.983.407-2.017.433-3.06.35-.53-.043-1.05-.139-1.545-.35-1.617-.69-2.066-2.876-.839-4.08.242-.236.534-.377.883-.482zm2.822 3.927a4.6 4.6 0 00.903-.112c.658-.156 1.26-.418 1.663-.994.651-.93.227-2.035-.87-2.273a5.609 5.609 0 00-.716-.102c-.978-.082-1.963-.003-2.939-.136a.239.239 0 00-.134.02c-.456.24-.845.552-.953 1.084-.183.901.118 1.873 1.14 2.266.617.238 1.258.268 1.906.246zm-2.569-9.29c-.01.992.488 1.64 1.445 1.88.4.107.82.119 1.226.033.695-.154 1.258-.499 1.449-1.229.196-.75.108-1.461-.5-2.018-.489-.447-1.096-.565-1.737-.535-1.14.053-1.873.787-1.883 1.87zm-3.128-2.534a1 1 0 01-.263.413c-.996 1.03-2.118 1.908-3.29 2.725-.173.12-.206.17-.023.32 1.19.972 2.178 2.139 3.157 3.314.349.421.703.837.98 1.31.137.235.126.25-.145.25-.523 0-1.046-.008-1.568.005-.17.004-.25-.047-.334-.2-.317-.586-.754-1.088-1.171-1.6-.636-.779-1.269-1.562-2.01-2.248a2.104 2.104 0 00-.468-.345c-.127-.065-.215-.08-.21.119.026 1.114.045 2.228.068 3.342.005.25.015.498.03.75.006.121-.019.187-.164.182-.397-.01-.796-.01-1.193 0-.16.004-.197-.051-.191-.2.031-.92.07-1.839.08-2.758.026-2.51.08-5.02-.076-7.529a49.658 49.658 0 00-.134-1.653c-.013-.14.016-.194.162-.2.452-.016.903-.039 1.354-.068.14-.01.166.047.161.175-.09 2.283-.093 4.567-.093 6.851 0 .094-.055.227.046.278.102.05.203-.052.29-.113.515-.357.96-.796 1.412-1.224.486-.462.968-.929 1.39-1.452a.419.419 0 00.084-.11c.104-.321.342-.348.634-.335.483.017.972.001 1.485.001z" fill="#EC1A3D"/><path d="M32.3 60.942c0 1.225-.208 2.261-.88 3.153-1.55 2.057-4.456 2.295-6.222.629-.656-.62-1.006-1.405-1.124-2.283-.14-1.025-.072-2.037.311-3.01.62-1.575 2.201-2.65 3.898-2.65 1.652 0 2.873.721 3.617 2.2.328.652.406 1.367.4 1.961zm-6.763.37c-.003.75.19 1.487.562 2.138.468.822 1.155 1.264 2.117 1.25.96-.013 1.638-.467 2.055-1.302.783-1.578.68-3.12-.285-4.589-.817-1.246-2.851-1.188-3.666-.073-.545.745-.788 1.58-.783 2.576zm-17.876.331c.01-1.253.24-2.342.988-3.267 1.636-2.023 4.65-2.154 6.31-.305.546.609.827 1.336.934 2.13.131.96.066 1.912-.26 2.834-.642 1.826-2.559 2.972-4.485 2.76-1.458-.161-3.127-1.238-3.421-3.317-.044-.307-.086-.618-.066-.835zm6.756-.281a4.422 4.422 0 00-.756-2.533c-.846-1.28-2.947-1.217-3.771 0-.946 1.399-.948 3.54.044 4.913a2.327 2.327 0 003.883-.158 4.101 4.101 0 00.6-2.22v-.002z" fill="#919191"/><path d="M46.226 13.131c.27-.595.55-1.187.685-1.833.05-.221.078-.446.087-.672.026-1.045-.553-1.668-1.597-1.737-1.148-.077-2.248.173-3.333.495-2.342.692-4.562 1.696-6.767 2.734-.161.075-.31.207-.54.183 1.474-.99 3-1.901 4.572-2.728 1.831-.957 3.706-1.805 5.712-2.337.975-.259 1.963-.43 2.976-.405.608.007 1.21.121 1.78.339.628.247.899.796.706 1.451-.201.687-.655 1.215-1.126 1.727-.82.892-1.76 1.654-2.682 2.434-.148.126-.3.247-.449.37l-.024-.02z" fill="#EC1A3D"/><path d="M37.307 56.916a9.312 9.312 0 012.043.182c.18.038.231.093.184.275-.077.294-.133.592-.194.89-.025.125-.07.158-.204.113a5.871 5.871 0 00-2.622-.284 1.947 1.947 0 00-.475.116c-.702.277-.825 1.124-.227 1.595.272.214.585.356.9.493.75.328 1.53.584 2.205 1.064 1.187.842 1.304 2.622.23 3.582-.422.378-.937.556-1.483.637-1.193.177-2.376.062-3.553-.16-.157-.03-.21-.085-.172-.246.074-.302.133-.608.195-.914.025-.122.047-.192.21-.133.816.297 1.662.405 2.526.382.352-.01.703-.054 1.03-.188.346-.14.594-.366.637-.764.043-.399-.091-.721-.417-.955-.44-.317-.944-.51-1.442-.712-.528-.213-1.051-.437-1.526-.756-.761-.515-1.165-1.21-1.026-2.147.132-.895.655-1.494 1.483-1.834.567-.234 1.165-.255 1.698-.236zm-33.954 0a9.476 9.476 0 012.053.18c.207.042.228.134.187.306-.065.264-.129.53-.172.796-.029.183-.078.222-.267.16-.916-.303-1.853-.415-2.807-.22-.38.08-.727.24-.816.673-.099.482.083.843.53 1.12.548.339 1.16.531 1.743.791.592.264 1.165.556 1.626 1.03.89.92.715 3.182-1.135 3.695-.715.199-1.438.234-2.175.199a14.174 14.174 0 01-1.809-.2c-.343-.062-.345-.056-.274-.385.059-.273.126-.546.173-.821.024-.14.065-.162.197-.114a6.814 6.814 0 002.526.381 3.06 3.06 0 001.007-.174c.369-.14.628-.378.675-.79.047-.42-.132-.743-.472-.977-.362-.248-.764-.421-1.169-.584-.614-.248-1.228-.497-1.779-.87-.734-.496-1.122-1.173-1.008-2.067.116-.91.63-1.54 1.478-1.89.566-.234 1.165-.261 1.688-.24zm16.085 1.325c.115-.145.227-.292.346-.433.746-.886 1.694-1.102 2.785-.835.219.054.513.04.628.2.115.161-.076.402-.125.61-.05.206-.126.401-.168.608-.03.151-.087.162-.22.114-.574-.21-1.154-.281-1.764-.14-.852.192-1.506 1.11-1.476 1.872.05 1.277.018 2.558.026 3.836.003.398.014.796.038 1.191.01.17-.027.234-.212.229-.375-.015-.75-.013-1.124 0-.181.006-.222-.056-.215-.229.047-1.23.1-2.46.119-3.69a19.376 19.376 0 00-.367-4.174c-.034-.17.005-.22.17-.24.393-.047.786-.103 1.177-.166.12-.02.165.002.188.127.06.363.123.728.194 1.12z" fill="#919191"/><path d="M37.235 13.76c-.192.407-.387.813-.576 1.22-.114.24-.199.493-.252.753-.114.597.14.93.75.98.702.059 1.379-.09 2.052-.26 1.579-.4 3.102-.968 4.617-1.559a.57.57 0 01.251-.052c-.454.27-.904.548-1.362.811-1.604.92-3.247 1.755-5.003 2.347-.896.302-1.808.534-2.763.524a2.878 2.878 0 01-1.16-.235c-.434-.194-.562-.498-.415-.949.092-.258.228-.497.404-.707.95-1.19 2.17-2.065 3.457-2.873z" fill="#EC1A3D"/><path d="M42.805 65.491c-.655 0-1.097-.468-1.101-1.157-.005-.744.554-1.279 1.334-1.277.64 0 1.077.456 1.082 1.12a1.289 1.289 0 01-1.315 1.314z" fill="#919191"/><path d="M42.963 13.503c.172-.221.321-.448.397-.716.133-.468-.067-.796-.545-.899-.543-.114-1.07.004-1.592.123-.691.156-1.358.397-2.018.649-.094.035-.18.099-.314.05a13.718 13.718 0 011.639-.789c.892-.358 1.804-.634 2.778-.63a2.79 2.79 0 011.004.182c.422.163.52.477.272.852-.18.272-.427.475-.687.662a3.86 3.86 0 01-.934.516zm6.127 2.515l-.036-.06-.36.2-.165.085c-3.193 1.649-6.502 3.002-9.997 3.863-1.882.464-3.784.788-5.736.587-.67-.069-1.318-.228-1.92-.542-.505-.262-.782-.677-.833-1.242-.04-.436.05-.855.187-1.265.375-1.123 1.007-2.107 1.699-3.054a1.24 1.24 0 00.273-.38c-.093.06-.187.118-.237.224-.028.015-.055.03-.05.068-.089.004-.13.078-.188.127-.628.549-1.262 1.092-1.88 1.651-1.151 1.042-2.283 2.103-3.2 3.367-.307.425-.582.87-.731 1.377-.226.77-.016 1.28.687 1.66 1.061.573 2.215.655 3.386.608 1.401-.056 2.766-.34 4.115-.705 2.518-.681 4.935-1.639 7.31-2.702a88.27 88.27 0 007.275-3.672c.158-.024.256-.146.4-.195zm-2.897-2.825l-.006.018.01-.014-.004-.004z" fill="#EC1A3D"/><path d="M46.248 13.157c-.007.03-.02.05-.055.038l.004.004.03-.066.021.024zm23.5-1.27v-.004h-.004l.004.004zm.152-.16a.25.25 0 00-.151.156c.057-.04.126-.066.15-.156zm-.294.253l-.047.046a.218.218 0 00-.14.117l-.168.14-.046.042a.201.201 0 00.03.034l.046-.045c.073-.027.112-.091.16-.145.06-.027.114-.058.125-.13l-.009-.01.009.01.047-.051c.067-.003.093-.056.132-.099a.138.138 0 00-.14.09z" fill="#EC1A3D"/><path d="M69.135 12.397l-.005-.005c-.306.24-.609.482-.918.721a72.803 72.803 0 01-14.93 8.978c-5.419 2.449-11.05 4.197-16.939 5.086a55.674 55.674 0 01-7.476.62 57.99 57.99 0 01-5.537-.207c-1.18-.094-2.307-.357-3.381-.846-.984-.448-1.833-1.065-2.408-2.004-.761-1.243-.804-2.583-.478-3.952.475-1.993 1.52-3.672 2.906-5.155.047-.053.126-.086.135-.174-.02 0-.039-.01-.047-.004a1.668 1.668 0 00-.136.09 27.99 27.99 0 00-3.938 3.41c-1.013 1.068-1.928 2.21-2.664 3.488-.703 1.22-1.236 2.499-1.306 3.93-.071 1.451.424 2.673 1.517 3.641.75.663 1.628 1.094 2.566 1.413 1.852.63 3.773.822 5.712.856 2.997.052 5.968-.255 8.918-.757 7.242-1.23 14.132-3.543 20.71-6.798a73.652 73.652 0 0012.897-8.13 67.1 67.1 0 004.836-4.167l.065-.075a.197.197 0 01-.03-.034l-.074.07.005.005z" fill="#EC1A3D"/></svg>