<svg width="37" height="44" viewBox="0 0 37 44" fill="none" xmlns="http://www.w3.org/2000/svg">
<g filter="url(#filter0_d)">
<path d="M18.2766 15.1664H16.0568V40H18.2766V15.1664Z" fill="#42210B"/>
<path d="M33.2174 14.3604C33.2174 9.85311 30.1241 6.15654 26.1959 5.82356C26.1113 4.64446 25.6455 3.52486 24.8688 2.6337C24.4711 2.15905 23.9742 1.77734 23.4131 1.51543C22.8519 1.25353 22.2402 1.1178 21.621 1.1178C21.0018 1.1178 20.3901 1.25353 19.8289 1.51543C19.2678 1.77734 18.7709 2.15905 18.3732 2.6337C17.7692 3.32078 17.3521 4.15172 17.162 5.04661C16.9758 4.15133 16.56 3.31983 15.9555 2.6337C15.5578 2.15905 15.0609 1.77734 14.4998 1.51543C13.9387 1.25353 13.327 1.1178 12.7077 1.1178C12.0885 1.1178 11.4768 1.25353 10.9157 1.51543C10.3546 1.77734 9.85766 2.15905 9.45997 2.6337C8.68327 3.52486 8.21747 4.64446 8.13288 5.82356C4.20467 6.16137 1.11133 9.85311 1.11133 14.3604C1.11133 17.864 2.97409 20.8608 5.64276 22.2072C5.52892 23.1822 5.61852 24.1702 5.90592 25.1088C6.19332 26.0474 6.67226 26.9162 7.31249 27.6603C7.81982 28.2641 8.45314 28.7496 9.16801 29.0827C9.88287 29.4157 10.662 29.5883 11.4506 29.5883C12.2393 29.5883 13.0184 29.4157 13.7332 29.0827C14.4481 28.7496 15.0814 28.2641 15.5887 27.6603C16.4024 26.7284 16.9463 25.5921 17.162 24.374C17.3814 25.5919 17.9267 26.7276 18.74 27.6603C19.2473 28.2641 19.8806 28.7496 20.5955 29.0827C21.3104 29.4157 22.0895 29.5883 22.8781 29.5883C23.6668 29.5883 24.4459 29.4157 25.1607 29.0827C25.8756 28.7496 26.5089 28.2641 27.0163 27.6603C27.6565 26.9162 28.1354 26.0474 28.4228 25.1088C28.7102 24.1702 28.7998 23.1822 28.686 22.2072C31.3691 20.8608 33.2174 17.864 33.2174 14.3604Z" fill="#F8A861"/>
<path d="M22.8805 30.6814C21.9351 30.6752 21.0021 30.4661 20.1445 30.0681C19.287 29.6701 18.5249 29.0926 17.9099 28.3746C17.6336 28.0644 17.3834 27.7319 17.1619 27.3805C16.9406 27.7333 16.6886 28.066 16.4091 28.3746C15.7984 29.0971 15.0375 29.6777 14.1795 30.0759C13.3214 30.4741 12.3869 30.6804 11.4409 30.6804C10.4949 30.6804 9.56036 30.4741 8.70231 30.0759C7.84426 29.6777 7.08339 29.0971 6.47273 28.3746C5.13693 26.8386 4.43028 24.8548 4.49415 22.8201C3.09116 21.9049 1.94315 20.6488 1.15744 19.1694C0.37172 17.6899 -0.026045 16.0354 0.00132257 14.3605C0.00132257 9.66015 3.08019 5.66921 7.15799 4.83434C7.37957 3.74354 7.87814 2.72812 8.60574 1.88578C9.10815 1.29469 9.73306 0.819885 10.4372 0.494268C11.1413 0.16865 11.9078 0 12.6835 0C13.4593 0 14.2258 0.16865 14.9299 0.494268C15.634 0.819885 16.2589 1.29469 16.7614 1.88578C16.8965 2.03888 17.0222 2.20004 17.1378 2.36836C17.2566 2.20113 17.3838 2.04006 17.519 1.88578C18.0278 1.29663 18.6575 0.824005 19.3654 0.500068C20.0732 0.176131 20.8425 0.00848429 21.6209 0.00853608C22.396 0.0131367 23.1611 0.183954 23.8646 0.509461C24.5681 0.834967 25.1935 1.30759 25.6987 1.89543C26.4263 2.73777 26.9249 3.75319 27.1465 4.844C31.2243 5.66921 34.3032 9.6698 34.3032 14.3605C34.3305 16.0354 33.9328 17.6899 33.147 19.1694C32.3613 20.6488 31.2133 21.9049 29.8103 22.8201C29.8782 24.8529 29.1768 26.8364 27.8462 28.3746C27.2319 29.0922 26.4707 29.6696 25.614 30.0675C24.7573 30.4655 23.8251 30.6748 22.8805 30.6814ZM17.1619 23.2448C17.4195 23.2441 17.6695 23.3327 17.8692 23.4954C18.0689 23.6582 18.206 23.8851 18.2574 24.1376C18.4391 25.156 18.8927 26.1063 19.57 26.8883C19.9725 27.3757 20.4778 27.7682 21.0496 28.0377C21.6215 28.3071 22.2459 28.4468 22.8781 28.4468C23.5102 28.4468 24.1346 28.3071 24.7065 28.0377C25.2784 27.7682 25.7836 27.3757 26.1862 26.8883C26.7255 26.2617 27.1281 25.5295 27.3683 24.7384C27.6084 23.9473 27.6808 23.1148 27.5808 22.2941C27.5567 22.0685 27.6019 21.8409 27.7106 21.6417C27.8193 21.4425 27.9861 21.2812 28.1889 21.1794C30.568 19.997 32.1074 17.3187 32.1074 14.346C32.1074 10.4854 29.4677 7.20381 26.0993 6.91909C25.8411 6.89538 25.5993 6.782 25.416 6.59865C25.2326 6.4153 25.1192 6.17354 25.0955 5.91532C25.0254 4.98044 24.6546 4.09335 24.0387 3.3866C23.7419 3.03416 23.3729 2.74963 22.9566 2.5523C22.5403 2.35497 22.0864 2.24944 21.6258 2.24288C21.1651 2.24944 20.7112 2.35497 20.2949 2.5523C19.8786 2.74963 19.5096 3.03416 19.2129 3.3866C18.7286 3.93507 18.3959 4.60045 18.2477 5.31692C18.1928 5.56334 18.0556 5.78368 17.8586 5.9416C17.6617 6.09952 17.4168 6.18558 17.1643 6.18558C16.9119 6.18558 16.6669 6.09952 16.47 5.9416C16.273 5.78368 16.1358 5.56334 16.0809 5.31692C15.9327 4.60045 15.6 3.93507 15.1158 3.3866C14.8224 3.03072 14.4539 2.74414 14.0367 2.54741C13.6196 2.35067 13.1641 2.24865 12.7028 2.24865C12.2416 2.24865 11.7861 2.35067 11.369 2.54741C10.9518 2.74414 10.5833 3.03072 10.2899 3.3866C9.67284 4.09787 9.30362 4.99044 9.23792 5.9298C9.21323 6.19258 9.09572 6.43796 8.90645 6.62192C8.71719 6.80587 8.46857 6.91637 8.20519 6.93357C4.82713 7.21829 2.20189 10.4805 2.20189 14.3605C2.20189 17.3284 3.74132 20.0115 6.12045 21.1938C6.32859 21.2913 6.50152 21.4507 6.61555 21.6503C6.72958 21.8499 6.77915 22.0798 6.75745 22.3086C6.65744 23.1293 6.72983 23.9618 6.96998 24.7528C7.21013 25.5439 7.61276 26.2762 8.15211 26.9028C8.55463 27.3902 9.0599 27.7827 9.63179 28.0521C10.2037 28.3216 10.828 28.4613 11.4602 28.4613C12.0924 28.4613 12.7167 28.3216 13.2886 28.0521C13.8605 27.7827 14.3658 27.3902 14.7683 26.9028C15.4445 26.1157 15.8947 25.1601 16.0713 24.1376C16.1224 23.8859 16.2589 23.6596 16.4576 23.497C16.6563 23.3343 16.9051 23.2452 17.1619 23.2448Z" fill="#42210B"/>
<path d="M16.8579 4.07677L17.1619 24.3452L33.2174 13.1927C33.2174 13.1927 31.5718 7.14598 26.1958 5.82371C24.3669 3.76792 25.2789 -1.89758 16.8579 4.07677Z" fill="#F8C199"/>
<path d="M22.8805 30.6814C21.9351 30.6752 21.0021 30.4661 20.1445 30.0681C19.287 29.6701 18.5249 29.0926 17.9099 28.3746C17.6336 28.0644 17.3834 27.7319 17.1619 27.3805C16.9406 27.7333 16.6886 28.066 16.4091 28.3746C15.7984 29.0971 15.0375 29.6777 14.1795 30.0759C13.3214 30.4741 12.3869 30.6804 11.4409 30.6804C10.4949 30.6804 9.56036 30.4741 8.70231 30.0759C7.84426 29.6777 7.08339 29.0971 6.47273 28.3746C5.13693 26.8386 4.43028 24.8548 4.49415 22.8201C3.09116 21.9049 1.94315 20.6488 1.15744 19.1694C0.37172 17.6899 -0.026045 16.0354 0.00132257 14.3605C0.00132257 9.66015 3.08019 5.66921 7.15799 4.83434C7.37957 3.74354 7.87814 2.72812 8.60574 1.88578C9.10815 1.29469 9.73306 0.819885 10.4372 0.494268C11.1413 0.16865 11.9078 0 12.6835 0C13.4593 0 14.2258 0.16865 14.9299 0.494268C15.634 0.819885 16.2589 1.29469 16.7614 1.88578C16.8965 2.03888 17.0222 2.20004 17.1378 2.36836C17.2566 2.20113 17.3838 2.04006 17.519 1.88578C18.0278 1.29663 18.6575 0.824005 19.3654 0.500068C20.0732 0.176131 20.8425 0.00848429 21.6209 0.00853608C22.396 0.0131367 23.1611 0.183954 23.8646 0.509461C24.5681 0.834967 25.1935 1.30759 25.6987 1.89543C26.4263 2.73777 26.9249 3.75319 27.1465 4.844C31.2243 5.66921 34.3032 9.6698 34.3032 14.3605C34.3305 16.0354 33.9328 17.6899 33.147 19.1694C32.3613 20.6488 31.2133 21.9049 29.8103 22.8201C29.8782 24.8529 29.1768 26.8364 27.8462 28.3746C27.2319 29.0922 26.4707 29.6696 25.614 30.0675C24.7573 30.4655 23.8251 30.6748 22.8805 30.6814ZM17.1619 23.2448C17.4195 23.2441 17.6695 23.3327 17.8692 23.4954C18.0689 23.6582 18.206 23.8851 18.2574 24.1376C18.4391 25.156 18.8927 26.1063 19.57 26.8883C19.9725 27.3757 20.4778 27.7682 21.0496 28.0377C21.6215 28.3071 22.2459 28.4468 22.8781 28.4468C23.5102 28.4468 24.1346 28.3071 24.7065 28.0377C25.2784 27.7682 25.7836 27.3757 26.1862 26.8883C26.7255 26.2617 27.1281 25.5295 27.3683 24.7384C27.6084 23.9473 27.6808 23.1148 27.5808 22.2941C27.5567 22.0685 27.6019 21.8409 27.7106 21.6417C27.8193 21.4425 27.9861 21.2812 28.1889 21.1794C30.568 19.997 32.1074 17.3187 32.1074 14.346C32.1074 10.4854 29.4677 7.20381 26.0993 6.91909C25.8411 6.89538 25.5993 6.782 25.416 6.59865C25.2326 6.4153 25.1192 6.17354 25.0955 5.91532C25.0254 4.98044 24.6546 4.09335 24.0387 3.3866C23.7419 3.03416 23.3729 2.74963 22.9566 2.5523C22.5403 2.35497 22.0864 2.24944 21.6258 2.24288C21.1651 2.24944 20.7112 2.35497 20.2949 2.5523C19.8786 2.74963 19.5096 3.03416 19.2129 3.3866C18.7286 3.93507 18.3959 4.60045 18.2477 5.31692C18.1928 5.56334 18.0556 5.78368 17.8586 5.9416C17.6617 6.09952 17.4168 6.18558 17.1643 6.18558C16.9119 6.18558 16.6669 6.09952 16.47 5.9416C16.273 5.78368 16.1358 5.56334 16.0809 5.31692C15.9327 4.60045 15.6 3.93507 15.1158 3.3866C14.8224 3.03072 14.4539 2.74414 14.0367 2.54741C13.6196 2.35067 13.1641 2.24865 12.7028 2.24865C12.2416 2.24865 11.7861 2.35067 11.369 2.54741C10.9518 2.74414 10.5833 3.03072 10.2899 3.3866C9.67284 4.09787 9.30362 4.99044 9.23792 5.9298C9.21323 6.19258 9.09572 6.43796 8.90645 6.62192C8.71719 6.80587 8.46857 6.91637 8.20519 6.93357C4.82713 7.21829 2.20189 10.4805 2.20189 14.3605C2.20189 17.3284 3.74132 20.0115 6.12045 21.1938C6.32859 21.2913 6.50152 21.4507 6.61555 21.6503C6.72958 21.8499 6.77915 22.0798 6.75745 22.3086C6.65744 23.1293 6.72983 23.9618 6.96998 24.7528C7.21013 25.5439 7.61276 26.2762 8.15211 26.9028C8.55463 27.3902 9.0599 27.7827 9.63179 28.0521C10.2037 28.3216 10.828 28.4613 11.4602 28.4613C12.0924 28.4613 12.7167 28.3216 13.2886 28.0521C13.8605 27.7827 14.3658 27.3902 14.7683 26.9028C15.4445 26.1157 15.8947 25.1601 16.0713 24.1376C16.1224 23.8859 16.2589 23.6596 16.4576 23.497C16.6563 23.3343 16.9051 23.2452 17.1619 23.2448Z" fill="#42210B"/>
<path d="M12.2877 17.1981H7.8094C7.51503 17.1981 7.23271 17.0812 7.02456 16.873C6.8164 16.6649 6.69946 16.3826 6.69946 16.0882C6.69946 15.7938 6.8164 15.5115 7.02456 15.3034C7.23271 15.0952 7.51503 14.9783 7.8094 14.9783H12.2877C12.5821 14.9783 12.8644 15.0952 13.0726 15.3034C13.2807 15.5115 13.3977 15.7938 13.3977 16.0882C13.3977 16.3826 13.2807 16.6649 13.0726 16.873C12.8644 17.0812 12.5821 17.1981 12.2877 17.1981Z" fill="white"/>
</g>
<defs>
<filter id="filter0_d" x="0" y="0" width="36.3045" height="44" filterUnits="userSpaceOnUse" color-interpolation-filters="sRGB">
<feFlood flood-opacity="0" result="BackgroundImageFix"/>
<feColorMatrix in="SourceAlpha" type="matrix" values="0 0 0 0 0 0 0 0 0 0 0 0 0 0 0 0 0 0 127 0"/>
<feOffset dx="2" dy="4"/>
<feColorMatrix type="matrix" values="0 0 0 0 0 0 0 0 0 0 0 0 0 0 0 0 0 0 0.1 0"/>
<feBlend mode="normal" in2="BackgroundImageFix" result="effect1_dropShadow"/>
<feBlend mode="normal" in="SourceGraphic" in2="effect1_dropShadow" result="shape"/>
</filter>
</defs>
</svg>
