<svg width="54" height="44" viewBox="0 0 54 44" fill="none" xmlns="http://www.w3.org/2000/svg">
<g filter="url(#filter0_d)">
<path d="M13.333 12.9019L14.7943 15.9045L15.8076 19.1044L16.4049 20.971L20.0529 32.5654C20.2409 33.1607 20.3099 33.7873 20.2558 34.4092C20.2017 35.0312 20.0256 35.6364 19.7377 36.1903C19.4497 36.7442 19.0554 37.236 18.5774 37.6376C18.0994 38.0391 17.5469 38.3426 16.9516 38.5306C16.3563 38.7187 15.7298 38.7876 15.1078 38.7335C14.4858 38.6795 13.8806 38.5034 13.3267 38.2154C12.7728 37.9274 12.281 37.5332 11.8795 37.0551C11.4779 36.5771 11.1745 36.0247 10.9864 35.4294L7.64249 24.7629L4.26657 15.7658C4.07852 15.1705 4.00957 14.544 4.06365 13.922C4.11773 13.3001 4.29379 12.6948 4.58176 12.1409C4.86974 11.587 5.264 11.0952 5.74204 10.6937C6.22007 10.2921 6.77251 9.98867 7.36783 9.80062C7.96314 9.61258 8.58966 9.54362 9.21162 9.59771C9.83358 9.65179 10.4388 9.82784 10.9927 10.1158C11.5466 10.4038 12.0384 10.7981 12.44 11.2761C12.8415 11.7541 13.145 12.3066 13.333 12.9019Z" fill="#F8A861"/>
<path d="M15.5037 40C14.2336 39.997 12.9973 39.5904 11.9734 38.8388C10.9496 38.0872 10.1912 37.0296 9.80779 35.8187L6.47453 25.2056L3.10395 16.1925C3.10536 16.173 3.10536 16.1534 3.10395 16.1339C2.72404 14.6606 2.92011 13.0979 3.65221 11.7642C4.38432 10.4305 5.59737 9.42604 7.04424 8.95554C8.49111 8.48503 10.0629 8.58386 11.4395 9.23188C12.816 9.87989 13.8937 11.0284 14.453 12.4433L15.8183 15.2485C15.8756 15.3381 15.9204 15.4349 15.9516 15.5365L17.5516 20.6191L17.5836 20.7417L21.1995 32.2241C21.6762 33.7355 21.5333 35.3743 20.8023 36.7803C20.0713 38.1864 18.8119 39.2447 17.3009 39.7226C16.7192 39.905 16.1133 39.9985 15.5037 40ZM5.41322 15.3659L8.78381 24.379C8.7861 24.4003 8.7861 24.4217 8.78381 24.443L12.1277 35.1094C12.4155 35.9945 13.0416 36.7299 13.8695 37.1552C14.6974 37.5805 15.6598 37.6611 16.5469 37.3795C17.434 37.0979 18.1737 36.4769 18.6047 35.6519C19.0357 34.827 19.123 33.8651 18.8476 32.9761L15.2157 21.3657C15.2043 21.329 15.1954 21.2916 15.189 21.2537L13.653 16.4058L12.2131 13.4406C12.1854 13.3875 12.1622 13.3322 12.1437 13.2753C11.847 12.4067 11.2232 11.6882 10.405 11.2723C9.58676 10.8565 8.63862 10.7762 7.7621 11.0484C6.88559 11.3207 6.14981 11.9241 5.71119 12.7303C5.27256 13.5365 5.16566 14.4821 5.41322 15.3659Z" fill="#42210B"/>
<path d="M17.8342 8.2887H8.70905C6.72457 8.2887 4.82137 9.07703 3.41813 10.4803C2.01489 11.8835 1.22656 13.7867 1.22656 15.7712C1.22656 17.7557 2.01489 19.6589 3.41813 21.0621C4.82137 22.4653 6.72457 23.2537 8.70905 23.2537H17.8342V8.2887Z" fill="#F8C199"/>
<path d="M17.8342 24.4804H8.70913C6.39932 24.4804 4.18412 23.5628 2.55084 21.9295C0.917566 20.2963 0 18.0811 0 15.7713C0 13.4615 0.917566 11.2463 2.55084 9.61298C4.18412 7.9797 6.39932 7.06213 8.70913 7.06213H17.8342C18.1596 7.06213 18.4716 7.19137 18.7016 7.42141C18.9316 7.65145 19.0609 7.96345 19.0609 8.28877V23.2538C19.0609 23.5791 18.9316 23.8911 18.7016 24.1211C18.4716 24.3512 18.1596 24.4804 17.8342 24.4804ZM8.70913 9.51541C7.04997 9.51541 5.45877 10.1745 4.28557 11.3477C3.11237 12.5209 2.45328 14.1121 2.45328 15.7713C2.45328 17.4304 3.11237 19.0216 4.28557 20.1948C5.45877 21.368 7.04997 22.0271 8.70913 22.0271H16.6076V9.51541H8.70913Z" fill="#42210B"/>
<path d="M20.8582 8.2887H29.9833C34.1165 8.2887 38.1057 11.638 38.1057 15.7552C38.1057 19.8724 34.1165 23.2217 29.9833 23.2217H20.8582V8.2887Z" fill="white"/>
<path d="M29.9833 24.4804H20.8582C20.5329 24.4804 20.2209 24.3512 19.9909 24.1211C19.7608 23.8911 19.6316 23.5791 19.6316 23.2538V8.28877C19.6316 8.12769 19.6633 7.96818 19.725 7.81936C19.7866 7.67054 19.877 7.53531 19.9909 7.42141C20.1048 7.3075 20.24 7.21715 20.3888 7.15551C20.5376 7.09386 20.6971 7.06213 20.8582 7.06213H29.9833C34.9646 7.06213 39.3325 11.1314 39.3325 15.7713C39.3325 20.4112 34.9646 24.4804 29.9833 24.4804ZM22.0849 22.0271H29.9833C33.5939 22.0271 36.8792 19.0459 36.8792 15.7713C36.8792 12.4967 33.5993 9.51541 29.9833 9.51541H22.0849V22.0271Z" fill="#42210B"/>
<path d="M17.8182 8.30472V23.2377L28.1487 29.1789C28.6262 29.4552 29.1682 29.6009 29.7199 29.6013C30.2717 29.6016 30.8138 29.4567 31.2917 29.1809C31.7696 28.9052 32.1665 28.5085 32.4424 28.0306C32.7183 27.5528 32.8634 27.0107 32.8632 26.459V5.06213C32.8634 4.51037 32.7183 3.96829 32.4424 3.49046C32.1665 3.01262 31.7696 2.61587 31.2917 2.34015C30.8138 2.06442 30.2717 1.91944 29.7199 1.9198C29.1682 1.92016 28.6262 2.06584 28.1487 2.34219L17.8182 8.30472Z" fill="#F8A861"/>
<path d="M29.7219 30.8374C28.9536 30.8361 28.1993 30.6319 27.5353 30.2454L17.2049 24.2776C17.0178 24.1696 16.8625 24.014 16.7548 23.8267C16.6471 23.6394 16.5908 23.427 16.5916 23.2109V8.27796C16.5908 8.0619 16.6471 7.84948 16.7548 7.66218C16.8625 7.47487 17.0178 7.31934 17.2049 7.21132L27.5353 1.27546C28.1999 0.892982 28.9534 0.691987 29.7202 0.692628C30.4871 0.69327 31.2402 0.895526 31.9042 1.27911C32.5682 1.6627 33.1196 2.21412 33.5032 2.87809C33.8869 3.54206 34.0891 4.29522 34.0898 5.06203V26.4589C34.094 27.2266 33.8943 27.9818 33.5111 28.647C33.1278 29.3123 32.5748 29.8639 31.9085 30.2454C31.244 30.6307 30.49 30.8348 29.7219 30.8374ZM19.0555 22.507L28.7619 28.1175C29.0534 28.2845 29.3835 28.3721 29.7194 28.3717C30.0553 28.3712 30.3852 28.2826 30.6761 28.1147C30.9671 27.9468 31.2089 27.7056 31.3774 27.415C31.5459 27.1244 31.6353 26.7948 31.6365 26.4589V5.06203C31.6369 4.72551 31.5486 4.39484 31.3804 4.10333C31.2123 3.81183 30.9703 3.56979 30.6788 3.40161C30.3873 3.23342 30.0566 3.14504 29.7201 3.14535C29.3836 3.14567 29.0531 3.23468 28.7619 3.40341L19.0448 9.01394L19.0555 22.507Z" fill="#42210B"/>
<path d="M39.9991 6.58205C39.6756 6.57996 39.3656 6.45177 39.1351 6.22473C38.9052 5.99384 38.7761 5.68126 38.7761 5.35541C38.7761 5.02957 38.9052 4.71699 39.1351 4.4861L43.2417 0.358197C43.4723 0.128348 43.7847 -0.000498638 44.1102 1.45031e-06C44.4358 0.000501539 44.7478 0.130308 44.9777 0.360864C45.2075 0.59142 45.3364 0.90384 45.3359 1.2294C45.3354 1.55495 45.2056 1.86697 44.975 2.09682L40.8471 6.22473C40.6203 6.4475 40.317 6.5753 39.9991 6.58205Z" fill="#42210B"/>
<path d="M50.1588 17.0672H44.3243C43.999 17.0672 43.687 16.9379 43.4569 16.7079C43.2269 16.4779 43.0977 16.1659 43.0977 15.8405C43.0977 15.5152 43.2269 15.2032 43.4569 14.9732C43.687 14.7431 43.999 14.6139 44.3243 14.6139H50.1588C50.4841 14.6139 50.7961 14.7431 51.0262 14.9732C51.2562 15.2032 51.3855 15.5152 51.3855 15.8405C51.3855 16.1659 51.2562 16.4779 51.0262 16.7079C50.7961 16.9379 50.4841 17.0672 50.1588 17.0672Z" fill="#42210B"/>
<path d="M44.1057 31.6801C43.9451 31.6814 43.7858 31.6504 43.6374 31.5891C43.489 31.5277 43.3545 31.4371 43.2417 31.3228L39.1138 27.2002C38.8991 26.9674 38.7829 26.6605 38.7893 26.3439C38.7958 26.0273 38.9244 25.7254 39.1483 25.5015C39.3723 25.2776 39.6741 25.1489 39.9907 25.1425C40.3074 25.136 40.6142 25.2523 40.8471 25.4669L44.975 29.5895C45.1455 29.7613 45.2613 29.9798 45.3079 30.2173C45.3545 30.4549 45.3298 30.7009 45.2369 30.9244C45.1439 31.148 44.9869 31.339 44.7856 31.4735C44.5843 31.6079 44.3477 31.6798 44.1057 31.6801Z" fill="#42210B"/>
<path d="M13.013 14.7899H8.06917C7.74384 14.7899 7.43184 14.6607 7.2018 14.4307C6.97176 14.2006 6.84253 13.8886 6.84253 13.5633C6.84253 13.238 6.97176 12.926 7.2018 12.6959C7.43184 12.4659 7.74384 12.3367 8.06917 12.3367H13.013C13.3384 12.3367 13.6504 12.4659 13.8804 12.6959C14.1105 12.926 14.2397 13.238 14.2397 13.5633C14.2397 13.8886 14.1105 14.2006 13.8804 14.4307C13.6504 14.6607 13.3384 14.7899 13.013 14.7899Z" fill="white"/>
<path d="M22.4634 12.1285C22.1973 12.1302 21.9378 12.0453 21.7242 11.8866C21.5106 11.7279 21.3543 11.504 21.2791 11.2488C21.2038 10.9935 21.2136 10.7207 21.307 10.4715C21.4004 10.2223 21.5723 10.0102 21.7968 9.86723L25.962 7.20063C26.2354 7.04023 26.5603 6.99189 26.8685 7.06575C27.1768 7.1396 27.4445 7.32991 27.6155 7.59679C27.7865 7.86367 27.8476 8.1864 27.7859 8.49731C27.7242 8.80823 27.5446 9.0832 27.2846 9.26458L23.1247 11.9312C22.9269 12.057 22.6979 12.1254 22.4634 12.1285Z" fill="white"/>
</g>
<defs>
<filter id="filter0_d" x="0" y="0" width="53.3855" height="44" filterUnits="userSpaceOnUse" color-interpolation-filters="sRGB">
<feFlood flood-opacity="0" result="BackgroundImageFix"/>
<feColorMatrix in="SourceAlpha" type="matrix" values="0 0 0 0 0 0 0 0 0 0 0 0 0 0 0 0 0 0 127 0"/>
<feOffset dx="2" dy="4"/>
<feColorMatrix type="matrix" values="0 0 0 0 0 0 0 0 0 0 0 0 0 0 0 0 0 0 0.1 0"/>
<feBlend mode="normal" in2="BackgroundImageFix" result="effect1_dropShadow"/>
<feBlend mode="normal" in="SourceGraphic" in2="effect1_dropShadow" result="shape"/>
</filter>
</defs>
</svg>
