<svg width="33" height="44" viewBox="0 0 33 44" fill="none" xmlns="http://www.w3.org/2000/svg">
<g filter="url(#filter0_d)">
<path d="M15.2445 2.55039C15.4901 2.54988 15.7318 2.61166 15.9471 2.72995C16.1623 2.84824 16.3441 3.01918 16.4753 3.22679C19.2862 7.70103 26.0059 18.407 26.455 19.3828C27.3793 21.2991 27.8026 23.4184 27.6856 25.5426C27.5686 27.6669 26.915 29.7269 25.7858 31.53C24.6566 33.3331 23.0888 34.8206 21.2288 35.8534C19.3688 36.8862 17.2774 37.4306 15.1499 37.4358C13.0224 37.441 10.9283 36.9068 9.06328 35.8831C7.19826 34.8594 5.62319 33.3796 4.48524 31.582C3.3473 29.7844 2.68361 27.7277 2.55621 25.604C2.4288 23.4803 2.84183 21.359 3.75671 19.4383C4.25569 18.4459 11.0973 7.71766 13.997 3.23233C14.1306 3.02275 14.315 2.85034 14.5331 2.73112C14.7512 2.61189 14.9959 2.54972 15.2445 2.55039ZM15.2445 1.42663e-05C14.5681 -0.00178996 13.9023 0.167566 13.3091 0.492316C12.7158 0.817066 12.2143 1.28665 11.8514 1.85735C2.07125 17.0986 1.62216 18.03 1.47801 18.3405C0.375087 20.6496 -0.124391 23.2006 0.0262533 25.7551C0.176898 28.3097 0.972748 30.7843 2.33942 32.9478C3.70609 35.1112 5.59896 36.8928 7.84113 38.1261C10.0833 39.3594 12.6015 40.0041 15.1605 40C17.7195 39.9958 20.2356 39.3429 22.4737 38.1024C24.7119 36.8618 26.5989 35.074 27.9586 32.9061C29.3182 30.7382 30.106 28.261 30.2484 25.706C30.3907 23.151 29.8829 20.6016 28.7725 18.2962C28.6173 17.9746 28.2181 17.1097 18.632 1.89616C18.2766 1.31688 17.7785 0.838408 17.1854 0.506448C16.5924 0.174488 15.9241 0.000125186 15.2445 1.42663e-05Z" fill="#42210B"/>
<path d="M15.2278 2.55042C14.982 2.55254 14.7407 2.61603 14.5258 2.73513C14.3108 2.85422 14.129 3.02515 13.9969 3.23236C11.0973 7.71769 4.25564 18.4459 3.77883 19.4383C2.86046 21.3632 2.44652 23.4899 2.57591 25.6187C2.7053 27.7474 3.37378 29.8084 4.51853 31.6078C5.66328 33.4073 7.24671 34.8862 9.12005 35.9055C10.9934 36.9248 13.0951 37.4512 15.2278 37.435V2.55042Z" fill="#F8A861"/>
<path d="M15.2278 2.55042C15.4759 2.55227 15.7196 2.61551 15.9373 2.73451C16.155 2.8535 16.3398 3.02454 16.4752 3.23236C19.4137 7.71769 26.3829 18.4459 26.8652 19.4383C28.0021 21.7853 28.3723 24.4303 27.9236 26.9992C27.4749 29.5681 26.2299 31.931 24.3648 33.7537C23.1587 34.938 21.7309 35.8728 20.163 36.5045C18.5951 37.1362 16.918 37.4525 15.2278 37.4351V2.55042Z" fill="#F8C199"/>
<path d="M14.8009 33.3212C13.3035 33.3207 11.8305 32.9412 10.5193 32.2179C9.20807 31.4947 8.10129 30.4512 7.30207 29.1849C6.50286 27.9185 6.03722 26.4705 5.94855 24.9756C5.85988 23.4808 6.15107 21.9879 6.79498 20.6359C6.86778 20.4845 6.96971 20.3488 7.09493 20.2368C7.22015 20.1247 7.36622 20.0385 7.52478 19.9828C7.68335 19.9272 7.85132 19.9034 8.0191 19.9127C8.18687 19.922 8.35117 19.9643 8.50262 20.0371C8.65406 20.1099 8.78968 20.2119 8.90173 20.3371C9.01378 20.4623 9.10007 20.6084 9.15567 20.7669C9.21127 20.9255 9.2351 21.0935 9.22579 21.2612C9.21647 21.429 9.17421 21.5933 9.1014 21.7448C8.53427 22.926 8.3486 24.2543 8.57013 25.5457C8.79166 26.8371 9.40941 28.0277 10.3378 28.9523C10.9238 29.5396 11.6199 30.0055 12.3863 30.3233C13.1526 30.6412 13.9741 30.8048 14.8037 30.8048C15.6333 30.8048 16.4548 30.6412 17.2211 30.3233C17.9875 30.0055 18.6836 29.5396 19.2696 28.9523C19.3777 28.8029 19.5167 28.6786 19.6772 28.5879C19.8377 28.4972 20.0159 28.4422 20.1996 28.4266C20.3833 28.4111 20.5682 28.4354 20.7417 28.4979C20.9151 28.5605 21.073 28.6597 21.2046 28.7888C21.3362 28.918 21.4383 29.074 21.504 29.2463C21.5697 29.4185 21.5975 29.603 21.5854 29.7869C21.5733 29.9709 21.5216 30.1501 21.4339 30.3122C21.3461 30.4744 21.2244 30.6157 21.0771 30.7265C20.2541 31.552 19.2757 32.2063 18.1985 32.6517C17.1213 33.097 15.9666 33.3246 14.8009 33.3212Z" fill="white"/>
</g>
<defs>
<filter id="filter0_d" x="0" y="0" width="32.2718" height="44" filterUnits="userSpaceOnUse" color-interpolation-filters="sRGB">
<feFlood flood-opacity="0" result="BackgroundImageFix"/>
<feColorMatrix in="SourceAlpha" type="matrix" values="0 0 0 0 0 0 0 0 0 0 0 0 0 0 0 0 0 0 127 0"/>
<feOffset dx="2" dy="4"/>
<feColorMatrix type="matrix" values="0 0 0 0 0 0 0 0 0 0 0 0 0 0 0 0 0 0 0.1 0"/>
<feBlend mode="normal" in2="BackgroundImageFix" result="effect1_dropShadow"/>
<feBlend mode="normal" in="SourceGraphic" in2="effect1_dropShadow" result="shape"/>
</filter>
</defs>
</svg>
