<svg width="38" height="39" viewBox="0 0 38 39" fill="none" xmlns="http://www.w3.org/2000/svg">
<g filter="url(#filter0_d)">
<path d="M20.9519 2.23151C21.6998 2.23279 22.4167 2.53082 22.9451 3.06016C23.4736 3.58949 23.7704 4.30689 23.7704 5.05484V10.9635C23.771 11.3344 23.6984 11.7019 23.5568 12.0447C23.4151 12.3875 23.2072 12.699 22.9449 12.9613C22.6826 13.2236 22.3711 13.4315 22.0282 13.5732C21.6854 13.7149 21.318 13.7875 20.947 13.7868H15.0384C14.2896 13.7868 13.5715 13.4894 13.042 12.9599C12.5125 12.4304 12.2151 11.7123 12.2151 10.9635V5.05484C12.2163 4.30644 12.5142 3.58906 13.0434 3.05986C13.5726 2.53066 14.29 2.23279 15.0384 2.23151H20.9519ZM20.9519 0H15.0384C13.6994 0.00384527 12.4164 0.537797 11.47 1.48507C10.5237 2.43234 9.99096 3.71584 9.9884 5.05484V10.9635C9.99225 12.3012 10.5257 13.5829 11.4721 14.5284C12.4184 15.4739 13.7007 16.0061 15.0384 16.0086H20.9519C22.2904 16.0073 23.5739 15.4757 24.5214 14.5301C25.4688 13.5845 26.0029 12.302 26.0067 10.9635V5.05484C26.0054 3.71461 25.4725 2.42964 24.5248 1.48195C23.5771 0.534259 22.2921 0.00128436 20.9519 0V0Z" fill="#42210B"/>
<path d="M29.9167 7.41248H6.08326C3.51124 7.41248 1.42621 9.49751 1.42621 12.0695V28.4662C1.42621 31.0383 3.51124 33.1233 6.08326 33.1233H29.9167C32.4887 33.1233 34.5738 31.0383 34.5738 28.4662V12.0695C34.5738 9.49751 32.4887 7.41248 29.9167 7.41248Z" fill="#F8A861"/>
<path d="M18.5991 7.41248H5.54964C4.52037 7.41248 3.53325 7.82135 2.80545 8.54916C2.07764 9.27696 1.66876 10.2641 1.66876 11.2934V29.223C1.66876 29.7327 1.76914 30.2373 1.96418 30.7082C2.15921 31.179 2.44507 31.6068 2.80545 31.9672C3.16582 32.3276 3.59364 32.6134 4.06449 32.8085C4.53534 33.0035 5.04 33.1039 5.54964 33.1039H18.5991V7.41248Z" fill="#F8C199"/>
<path d="M30.1399 8.28583C31.1022 8.28583 32.0252 8.66813 32.7057 9.34863C33.3862 10.0291 33.7685 10.9521 33.7685 11.9144V28.6216C33.7685 29.584 33.3862 30.507 32.7057 31.1875C32.0252 31.868 31.1022 32.2503 30.1399 32.2503H5.86013C4.89776 32.2503 3.9748 31.868 3.2943 31.1875C2.61381 30.507 2.23151 29.584 2.23151 28.6216V11.9144C2.23151 10.9521 2.61381 10.0291 3.2943 9.34863C3.9748 8.66813 4.89776 8.28583 5.86013 8.28583H30.1399ZM30.1399 6.05432H5.86013C4.30632 6.05561 2.81652 6.67342 1.71781 7.77213C0.619102 8.87084 0.00128467 10.3606 0 11.9144L0 28.6216C0.00256848 30.1746 0.620952 31.6632 1.71952 32.7608C2.81809 33.8585 4.30716 34.4756 5.86013 34.4769H30.1399C31.6928 34.4756 33.1819 33.8585 34.2805 32.7608C35.379 31.6632 35.9974 30.1746 36 28.6216V11.9144C35.9987 10.3606 35.3809 8.87084 34.2822 7.77213C33.1835 6.67342 31.6937 6.05561 30.1399 6.05432Z" fill="#42210B"/>
<path d="M24.207 26.0068H12.1278C11.0579 25.9825 10.0135 25.6752 9.10093 25.1162C8.18834 24.5572 7.44008 23.7665 6.93226 22.8245C6.89821 22.7588 6.86902 22.6907 6.84494 22.6208L2.24609 8.33427L4.36602 7.65027L8.92606 21.83C9.24707 22.4021 9.7106 22.8815 10.2716 23.2215C10.8326 23.5615 11.4721 23.7506 12.1278 23.7705H24.207C24.8597 23.7487 25.4957 23.5586 26.0533 23.2186C26.6109 22.8787 27.0711 22.4003 27.3893 21.83L31.3381 7.96074L33.4726 8.57198L29.4996 22.5819C29.4757 22.6667 29.4415 22.7481 29.3977 22.8245C28.8911 23.7665 28.1437 24.5573 27.2319 25.1163C26.3201 25.6753 25.2763 25.9826 24.207 26.0068Z" fill="#42210B"/>
<path d="M19.8022 20.7482H15.9213C15.769 20.7583 15.6161 20.737 15.4723 20.6856C15.3285 20.6342 15.1968 20.5538 15.0853 20.4495C14.9738 20.3451 14.8849 20.2189 14.8242 20.0788C14.7634 19.9387 14.7321 19.7876 14.7321 19.6349C14.7321 19.4822 14.7634 19.3311 14.8242 19.191C14.8849 19.0509 14.9738 18.9247 15.0853 18.8204C15.1968 18.716 15.3285 18.6356 15.4723 18.5842C15.6161 18.5329 15.769 18.5115 15.9213 18.5216H19.8022C19.9546 18.5115 20.1074 18.5329 20.2512 18.5842C20.395 18.6356 20.5268 18.716 20.6383 18.8204C20.7497 18.9247 20.8386 19.0509 20.8994 19.191C20.9601 19.3311 20.9915 19.4822 20.9915 19.6349C20.9915 19.7876 20.9601 19.9387 20.8994 20.0788C20.8386 20.2189 20.7497 20.3451 20.6383 20.4495C20.5268 20.5538 20.395 20.6342 20.2512 20.6856C20.1074 20.737 19.9546 20.7583 19.8022 20.7482Z" fill="#42210B"/>
<path d="M25.1966 13.1223H20.6996C20.4037 13.1223 20.1199 13.0047 19.9107 12.7955C19.7014 12.5862 19.5839 12.3024 19.5839 12.0065C19.5839 11.7106 19.7014 11.4268 19.9107 11.2175C20.1199 11.0083 20.4037 10.8907 20.6996 10.8907H25.1966C25.4925 10.8907 25.7763 11.0083 25.9855 11.2175C26.1948 11.4268 26.3123 11.7106 26.3123 12.0065C26.3123 12.3024 26.1948 12.5862 25.9855 12.7955C25.7763 13.0047 25.4925 13.1223 25.1966 13.1223Z" fill="white"/>
</g>
<defs>
<filter id="filter0_d" x="0" y="0" width="38" height="38.4769" filterUnits="userSpaceOnUse" color-interpolation-filters="sRGB">
<feFlood flood-opacity="0" result="BackgroundImageFix"/>
<feColorMatrix in="SourceAlpha" type="matrix" values="0 0 0 0 0 0 0 0 0 0 0 0 0 0 0 0 0 0 127 0"/>
<feOffset dx="2" dy="4"/>
<feColorMatrix type="matrix" values="0 0 0 0 0 0 0 0 0 0 0 0 0 0 0 0 0 0 0.1 0"/>
<feBlend mode="normal" in2="BackgroundImageFix" result="effect1_dropShadow"/>
<feBlend mode="normal" in="SourceGraphic" in2="effect1_dropShadow" result="shape"/>
</filter>
</defs>
</svg>
