<svg width="44" height="39" viewBox="0 0 44 39" fill="none" xmlns="http://www.w3.org/2000/svg">
<g filter="url(#filter0_d)">
<path d="M10.5923 33.3581C9.36638 33.3556 8.1915 32.8671 7.32512 31.9998C6.45874 31.1325 5.97152 29.9571 5.97024 28.7312V14.3899C5.9691 14.2206 6.00701 14.0533 6.08104 13.9011C6.15506 13.7488 6.26319 13.6157 6.39704 13.512L20.4086 2.55592C20.6042 2.40015 20.8473 2.31626 21.0973 2.31827C21.3471 2.3178 21.5897 2.40152 21.786 2.55592L35.4435 13.2792C35.5774 13.3829 35.6855 13.516 35.7595 13.6683C35.8336 13.8205 35.8715 13.9878 35.8703 14.1571V28.7312C35.8703 29.9575 35.3835 31.1337 34.5169 32.0012C33.6502 32.8688 32.4746 33.3568 31.2483 33.3581H10.5923Z" fill="#F8C199"/>
<path d="M21.0973 3.4338L34.7597 14.1571V28.7313C34.7597 29.6617 34.3904 30.5541 33.7329 31.2125C33.0755 31.8709 32.1836 32.2414 31.2532 32.2427H10.5923C9.66182 32.2414 8.76993 31.8709 8.11247 31.2125C7.45501 30.5541 7.08572 29.6617 7.08573 28.7313V14.3899L21.0973 3.4338ZM21.0973 1.20282C20.5966 1.20463 20.1113 1.37554 19.7199 1.68781L5.70833 12.61C5.44244 12.82 5.22753 13.0875 5.07971 13.3924C4.93188 13.6973 4.85497 14.0317 4.85474 14.3705V28.7313C4.85602 30.253 5.46076 31.7121 6.53634 32.7886C7.61192 33.8651 9.07052 34.4711 10.5923 34.4737H31.2483C32.77 34.4711 34.2286 33.8651 35.3042 32.7886C36.3798 31.7121 36.9845 30.253 36.9858 28.7313V14.1814C36.9863 13.8431 36.9097 13.5092 36.7618 13.2049C36.6138 12.9007 36.3986 12.6342 36.1322 12.4257L22.4747 1.67811C22.0822 1.36783 21.5976 1.19718 21.0973 1.19312V1.20282Z" fill="#42210B"/>
<path d="M40.2548 16.4172L22.4748 1.75083C22.0596 1.34412 21.5016 1.11633 20.9204 1.11633C20.3392 1.11633 19.7812 1.34412 19.366 1.75083L1.59081 16.4172C1.18306 16.8281 0.955263 17.3842 0.957536 17.9632C0.958662 18.2498 1.01624 18.5335 1.12698 18.7979C1.23772 19.0623 1.39945 19.3023 1.60294 19.5042C1.80643 19.7061 2.0477 19.8659 2.31296 19.9746C2.57823 20.0832 2.8623 20.1386 3.14896 20.1374C3.72788 20.1352 4.28219 19.903 4.68995 19.492L20.9471 6.34861L37.1848 19.492C37.5977 19.8746 38.1427 20.0824 38.7054 20.0718C39.2682 20.0613 39.805 19.8333 40.2034 19.4356C40.6017 19.0379 40.8305 18.5015 40.8419 17.9387C40.8533 17.376 40.6464 16.8307 40.2645 16.4172H40.2548Z" fill="#FFCB05"/>
<path d="M38.7125 21.2429C37.8624 21.2454 37.0447 20.9166 36.433 20.3263L20.9131 7.78425L5.39316 20.3263C4.75609 20.8537 3.94387 21.1221 3.11798 21.0781C2.29208 21.0341 1.51297 20.681 0.935524 20.0889C0.358077 19.4967 0.0245732 18.709 0.00130474 17.8823C-0.0219637 17.0555 0.266707 16.2503 0.809937 15.6267L0.887536 15.5539L18.6191 0.921531C19.2303 0.326931 20.0506 -0.00396283 20.9034 3.58234e-05H20.9567C21.8029 0.000591492 22.6155 0.331188 23.2217 0.921531L40.9629 15.5539L41.0405 15.6267C41.655 16.2446 42 17.0807 42 17.9522C42 18.8237 41.655 19.6598 41.0405 20.2778C40.7361 20.5854 40.3734 20.8291 39.9737 20.9949C39.574 21.1606 39.1452 21.2449 38.7125 21.2429ZM20.9228 5.23801C21.1771 5.2377 21.4238 5.32505 21.6212 5.48536L37.8783 18.6239L37.9656 18.7015C38.0635 18.8 38.1799 18.8781 38.308 18.9314C38.4362 18.9846 38.5737 19.012 38.7125 19.0119C38.9185 19.0128 39.1202 18.9535 39.293 18.8413C39.4657 18.7291 39.6019 18.5689 39.6849 18.3804C39.7678 18.1918 39.7938 17.9832 39.7598 17.78C39.7258 17.5769 39.6332 17.3881 39.4933 17.2369L21.7667 2.61417L21.6648 2.54142C21.5689 2.43772 21.4515 2.35621 21.3208 2.30259C21.1902 2.24898 21.0493 2.22455 20.9082 2.23102C20.6212 2.23324 20.3456 2.34415 20.1371 2.54142L20.0546 2.61417L2.34738 17.2369C2.18667 17.445 2.1089 17.7054 2.12912 17.9676C2.14934 18.2298 2.2661 18.4752 2.45682 18.6562C2.64754 18.8373 2.89865 18.9412 3.16155 18.9477C3.42444 18.9543 3.68043 18.8631 3.87997 18.6918C3.90559 18.6623 3.93493 18.6362 3.96727 18.6142L20.2098 5.48051C20.4113 5.31738 20.6636 5.22987 20.9228 5.23316V5.23801Z" fill="#42210B"/>
<path d="M40.2548 16.4172L22.4748 1.75083C22.0596 1.34412 21.5016 1.11633 20.9204 1.11633C20.3392 1.11633 19.7812 1.34412 19.366 1.75083L1.59081 16.4172C1.18306 16.8281 0.955263 17.3842 0.957536 17.9632C0.958662 18.2498 1.01624 18.5335 1.12698 18.7979C1.23772 19.0623 1.39945 19.3023 1.60294 19.5042C1.80643 19.7061 2.0477 19.8659 2.31296 19.9746C2.57823 20.0832 2.8623 20.1386 3.14896 20.1374C3.72788 20.1352 4.28219 19.903 4.68995 19.492L20.9471 6.34861L37.1848 19.492C37.5977 19.8746 38.1427 20.0824 38.7054 20.0718C39.2682 20.0613 39.805 19.8333 40.2034 19.4356C40.6017 19.0379 40.8305 18.5015 40.8419 17.9387C40.8533 17.376 40.6464 16.8307 40.2645 16.4172H40.2548Z" fill="#F8C199"/>
<path d="M7.08583 15.903C6.78998 15.903 6.50625 15.7855 6.29706 15.5763C6.08786 15.3671 5.97034 15.0834 5.97034 14.7875V3.41919C5.97034 2.84551 6.19823 2.29532 6.60389 1.88966C7.00955 1.484 7.55974 1.2561 8.13343 1.2561H9.39927C9.97296 1.2561 10.5231 1.484 10.9288 1.88966C11.3345 2.29532 11.5624 2.84551 11.5624 3.41919V14.7875C11.5624 15.0834 11.4448 15.3671 11.2356 15.5763C11.0264 15.7855 10.7427 15.903 10.4469 15.903H7.08583Z" fill="#F8A861"/>
<path d="M9.39916 2.37161C9.677 2.37161 9.94346 2.48199 10.1399 2.67845C10.3364 2.87491 10.4468 3.14137 10.4468 3.41921V14.7876H7.08573V3.41921C7.08573 3.14137 7.1961 2.87491 7.39256 2.67845C7.58902 2.48199 7.85548 2.37161 8.13332 2.37161H9.39916ZM9.39916 0.140625H8.13332C7.26379 0.140625 6.42986 0.486046 5.81501 1.1009C5.20016 1.71575 4.85474 2.54967 4.85474 3.41921V14.7876C4.85474 15.3792 5.08979 15.9467 5.50818 16.3651C5.92657 16.7835 6.49403 17.0185 7.08573 17.0185H10.4468C11.0385 17.0185 11.6059 16.7835 12.0243 16.3651C12.4427 15.9467 12.6777 15.3792 12.6777 14.7876V3.41921C12.6777 2.54967 12.3323 1.71575 11.7175 1.1009C11.1026 0.486046 10.2687 0.140625 9.39916 0.140625Z" fill="#42210B"/>
<path d="M20.8161 3.65222L7.08582 14.3901V28.7315C7.08581 29.6619 7.4551 30.5543 8.11256 31.2127C8.77002 31.871 9.66191 32.2415 10.5923 32.2428H20.8161V3.65222Z" fill="#F8A861"/>
<path d="M20.8161 1.12512C20.269 1.14029 19.7485 1.36413 19.3611 1.75077L1.59081 16.4171C1.18306 16.8281 0.955263 17.3842 0.957536 17.9631C0.958662 18.2498 1.01624 18.5334 1.12698 18.7978C1.23772 19.0622 1.39945 19.3022 1.60294 19.5041C1.80643 19.706 2.0477 19.8659 2.31296 19.9745C2.57823 20.0832 2.8623 20.1385 3.14896 20.1374C3.72788 20.1351 4.28219 19.903 4.68995 19.492L20.8404 6.43585L20.8161 1.12512Z" fill="#F8A861"/>
<path d="M38.7125 21.2429C37.8624 21.2454 37.0447 20.9166 36.433 20.3263L20.9131 7.78425L5.39316 20.3263C4.75609 20.8537 3.94387 21.1221 3.11798 21.0781C2.29208 21.0341 1.51297 20.681 0.935524 20.0889C0.358077 19.4967 0.0245732 18.709 0.00130474 17.8823C-0.0219637 17.0555 0.266707 16.2503 0.809937 15.6267L0.887536 15.5539L18.6191 0.921531C19.2303 0.326931 20.0506 -0.00396283 20.9034 3.58234e-05H20.9567C21.8029 0.000591492 22.6155 0.331188 23.2217 0.921531L40.9629 15.5539L41.0405 15.6267C41.655 16.2446 42 17.0807 42 17.9522C42 18.8237 41.655 19.6598 41.0405 20.2778C40.7361 20.5854 40.3734 20.8291 39.9737 20.9949C39.574 21.1606 39.1452 21.2449 38.7125 21.2429ZM20.9228 5.23801C21.1771 5.2377 21.4238 5.32505 21.6212 5.48536L37.8783 18.6239L37.9656 18.7015C38.0635 18.8 38.1799 18.8781 38.308 18.9314C38.4362 18.9846 38.5737 19.012 38.7125 19.0119C38.9185 19.0128 39.1202 18.9535 39.293 18.8413C39.4657 18.7291 39.6019 18.5689 39.6849 18.3804C39.7678 18.1918 39.7938 17.9832 39.7598 17.78C39.7258 17.5769 39.6332 17.3881 39.4933 17.2369L21.7667 2.61417L21.6648 2.54142C21.5689 2.43772 21.4515 2.35621 21.3208 2.30259C21.1902 2.24898 21.0493 2.22455 20.9082 2.23102C20.6212 2.23324 20.3456 2.34415 20.1371 2.54142L20.0546 2.61417L2.34738 17.2369C2.18667 17.445 2.1089 17.7054 2.12912 17.9676C2.14934 18.2298 2.2661 18.4752 2.45682 18.6562C2.64754 18.8373 2.89865 18.9412 3.16155 18.9477C3.42444 18.9543 3.68043 18.8631 3.87997 18.6918C3.90559 18.6623 3.93493 18.6362 3.96727 18.6142L20.2098 5.48051C20.4113 5.31738 20.6636 5.22987 20.9228 5.23316V5.23801Z" fill="#42210B"/>
<path d="M17.6297 33.3582C17.3338 33.3582 17.0501 33.2407 16.8409 33.0315C16.6317 32.8223 16.5142 32.5386 16.5142 32.2427V23.5807C16.5148 23.224 16.5859 22.8711 16.7234 22.542C16.8609 22.2129 17.0621 21.9143 17.3154 21.6633C17.5687 21.4122 17.8691 21.2137 18.1994 21.0792C18.5296 20.9446 18.8832 20.8767 19.2398 20.8792H22.6348C23.3509 20.8805 24.0373 21.1655 24.5436 21.6719C25.05 22.1782 25.335 22.8646 25.3363 23.5807V32.2427C25.3363 32.5386 25.2187 32.8223 25.0095 33.0315C24.8004 33.2407 24.5166 33.3582 24.2208 33.3582H17.6297Z" fill="#F8C199"/>
<path d="M22.6347 21.9947C22.843 21.9947 23.0492 22.0357 23.2416 22.1154C23.4341 22.1951 23.6089 22.3119 23.7562 22.4592C23.9034 22.6064 24.0203 22.7813 24.1 22.9737C24.1797 23.1661 24.2207 23.3723 24.2207 23.5806V32.2427H17.6296V23.5806C17.6295 23.3703 17.6713 23.162 17.7526 22.968C17.8338 22.774 17.9528 22.5981 18.1026 22.4505C18.2525 22.3029 18.4302 22.1866 18.6254 22.1084C18.8206 22.0301 19.0295 21.9914 19.2398 21.9947H22.6347ZM22.6347 19.7637H19.2398C18.2274 19.765 17.2568 20.1673 16.5405 20.8827C15.8242 21.5981 15.4205 22.5682 15.418 23.5806V32.2427C15.418 32.8344 15.653 33.4018 16.0714 33.8202C16.4898 34.2386 17.0573 34.4736 17.649 34.4736H24.211C24.8027 34.4736 25.3701 34.2386 25.7885 33.8202C26.2069 33.4018 26.442 32.8344 26.442 32.2427V23.5806C26.4407 22.5704 26.0395 21.6017 25.326 20.8865C24.6126 20.1712 23.645 19.7675 22.6347 19.7637Z" fill="#42210B"/>
<path d="M30.4724 30.0699C30.1766 30.0699 29.8928 29.9524 29.6837 29.7432C29.4745 29.534 29.3569 29.2503 29.3569 28.9544V22.31C29.3569 22.1635 29.3858 22.0184 29.4418 21.8831C29.4979 21.7477 29.5801 21.6248 29.6837 21.5212C29.7872 21.4176 29.9102 21.3354 30.0455 21.2794C30.1809 21.2233 30.3259 21.1945 30.4724 21.1945C30.6189 21.1945 30.764 21.2233 30.8993 21.2794C31.0346 21.3354 31.1576 21.4176 31.2612 21.5212C31.3648 21.6248 31.4469 21.7477 31.503 21.8831C31.5591 22.0184 31.5879 22.1635 31.5879 22.31V28.935C31.5905 29.0831 31.5635 29.2303 31.5086 29.3679C31.4537 29.5054 31.372 29.6307 31.2681 29.7364C31.1643 29.842 31.0405 29.9259 30.9038 29.9832C30.7672 30.0405 30.6206 30.0699 30.4724 30.0699Z" fill="white"/>
</g>
<defs>
<filter id="filter0_d" x="0" y="0" width="44" height="38.4737" filterUnits="userSpaceOnUse" color-interpolation-filters="sRGB">
<feFlood flood-opacity="0" result="BackgroundImageFix"/>
<feColorMatrix in="SourceAlpha" type="matrix" values="0 0 0 0 0 0 0 0 0 0 0 0 0 0 0 0 0 0 127 0"/>
<feOffset dx="2" dy="4"/>
<feColorMatrix type="matrix" values="0 0 0 0 0 0 0 0 0 0 0 0 0 0 0 0 0 0 0.1 0"/>
<feBlend mode="normal" in2="BackgroundImageFix" result="effect1_dropShadow"/>
<feBlend mode="normal" in="SourceGraphic" in2="effect1_dropShadow" result="shape"/>
</filter>
</defs>
</svg>
