<svg width="50" height="37" viewBox="0 0 50 37" fill="none" xmlns="http://www.w3.org/2000/svg">
<g filter="url(#filter0_d)">
<path d="M4.67389 27.7765C4.34805 27.7765 4.03556 27.6471 3.80515 27.4167C3.57475 27.1863 3.44531 26.8738 3.44531 26.5479V18.5729C3.44553 17.5996 3.64954 16.6372 4.04422 15.7476C4.43889 14.8579 5.01549 14.0608 5.73688 13.4075L10.0102 9.51345C11.4541 8.20077 13.3363 7.47493 15.2877 7.47828H25.8962C26.0576 7.47828 26.2173 7.51006 26.3664 7.5718C26.5154 7.63354 26.6509 7.72404 26.765 7.83813C26.879 7.95221 26.9695 8.08765 27.0313 8.2367C27.093 8.38576 27.1248 8.54552 27.1248 8.70686V26.5479C27.1248 26.8738 26.9954 27.1863 26.765 27.4167C26.5346 27.6471 26.2221 27.7765 25.8962 27.7765H4.67389Z" fill="#F8C199"/>
<path d="M25.8963 8.71754V26.5479H4.67392V18.5729C4.67161 17.7683 4.83825 16.9722 5.16306 16.236C5.48787 15.4999 5.96362 14.8402 6.55952 14.2996L10.8328 10.4055C12.049 9.30788 13.6282 8.69902 15.2664 8.69617H25.8963V8.71754ZM25.8963 6.23902H15.2878C13.0402 6.23671 10.8727 7.07288 9.20898 8.584L4.93566 12.4781C4.09241 13.2489 3.41932 14.1872 2.95942 15.233C2.49953 16.2788 2.26296 17.409 2.26484 18.5515V26.5479C2.26484 27.1996 2.52372 27.8246 2.98453 28.2854C3.44533 28.7462 4.07032 29.0051 4.722 29.0051H25.8963C26.2191 29.0058 26.539 28.9427 26.8374 28.8195C27.1358 28.6962 27.407 28.5153 27.6353 28.287C27.8636 28.0587 28.0446 27.7875 28.1678 27.4891C28.291 27.1906 28.3541 26.8708 28.3534 26.5479V8.71754C28.3541 8.39466 28.291 8.07483 28.1678 7.77639C28.0446 7.47796 27.8636 7.20681 27.6353 6.9785C27.407 6.75019 27.1358 6.56922 26.8374 6.44599C26.539 6.32276 26.2191 6.25968 25.8963 6.26038V6.23902Z" fill="#42210B"/>
<path d="M25.8963 26.548H4.67395V18.573C4.67789 17.4795 4.99485 16.4099 5.58737 15.4908H25.8856L25.8963 26.548Z" fill="#F8A861"/>
<path d="M18.4287 16.372H10.6673C10.5432 16.3925 10.4159 16.3686 10.3077 16.3044C10.1995 16.2402 10.1175 16.14 10.076 16.0212C10.0345 15.9025 10.0362 15.7729 10.0809 15.6554C10.1255 15.5378 10.2102 15.4397 10.3201 15.3785L12.9909 13.2418C13.7904 12.6185 14.7761 12.2818 15.7899 12.2857H18.1028" fill="white"/>
<path d="M18.4287 17.6274H10.6673C10.2905 17.6354 9.92091 17.524 9.61142 17.309C9.30193 17.0939 9.06847 16.7865 8.9445 16.4306C8.82054 16.0747 8.81245 15.6887 8.92138 15.328C9.03032 14.9672 9.25069 14.6502 9.5509 14.4224L12.2217 12.2858C13.2427 11.4706 14.5102 11.0262 15.8166 11.0251H18.1296C18.4554 11.0251 18.7679 11.1546 18.9983 11.385C19.2287 11.6154 19.3581 11.9279 19.3581 12.2537C19.3581 12.5796 19.2287 12.8921 18.9983 13.1225C18.7679 13.3529 18.4554 13.4823 18.1296 13.4823H15.7899C15.0412 13.4847 14.315 13.7386 13.7281 14.2034L12.5689 15.1329H18.4447C18.7706 15.1329 19.0831 15.2623 19.3135 15.4927C19.5439 15.7231 19.6733 16.0356 19.6733 16.3614C19.6733 16.6873 19.5439 16.9998 19.3135 17.2302C19.0831 17.4606 18.7706 17.59 18.4447 17.59L18.4287 17.6274Z" fill="#42210B"/>
<path d="M4.43356 29.0372H1.22858C0.902739 29.0372 0.590245 28.9078 0.359842 28.6774C0.129439 28.447 0 28.1345 0 27.8087C0 27.4828 0.129439 27.1703 0.359842 26.9399C0.590245 26.7095 0.902739 26.5801 1.22858 26.5801H4.43356C4.7594 26.5801 5.0719 26.7095 5.3023 26.9399C5.5327 27.1703 5.66214 27.4828 5.66214 27.8087C5.66214 28.1345 5.5327 28.447 5.3023 28.6774C5.0719 28.9078 4.7594 29.0372 4.43356 29.0372Z" fill="#42210B"/>
<path d="M11.3029 31.7507C10.3981 31.7518 9.51331 31.4844 8.76056 30.9824C8.00781 30.4803 7.42092 29.7663 7.07418 28.9305C6.72744 28.0948 6.63644 27.175 6.8127 26.2876C6.98896 25.4001 7.42455 24.5849 8.06434 23.9451C8.70413 23.3053 9.51935 22.8697 10.4068 22.6934C11.2943 22.5172 12.2141 22.6082 13.0498 22.9549C13.8855 23.3017 14.5996 23.8885 15.1016 24.6413C15.6036 25.3941 15.871 26.2788 15.87 27.1836C15.8686 28.3945 15.3869 29.5553 14.5308 30.4115C13.6746 31.2677 12.5137 31.7493 11.3029 31.7507Z" fill="#F8A861"/>
<path d="M11.3029 32.9793C10.1542 32.9846 9.02981 32.6487 8.07221 32.0143C7.11462 31.3799 6.36693 30.4754 5.92393 29.4156C5.48092 28.3557 5.36253 27.1882 5.58377 26.0611C5.80502 24.9339 6.35592 23.8977 7.16667 23.084C7.97742 22.2702 9.01151 21.7155 10.1379 21.4901C11.2642 21.2647 12.4322 21.3788 13.4936 21.8179C14.5551 22.2569 15.4623 23.0013 16.1003 23.9565C16.7382 24.9118 17.0782 26.0349 17.0772 27.1836C17.0744 28.7162 16.4658 30.1855 15.3841 31.2712C14.3025 32.3568 12.8354 32.9708 11.3029 32.9793ZM11.3029 23.8398C10.6413 23.8387 9.99428 24.0339 9.44368 24.4007C8.89308 24.7675 8.46366 25.2894 8.20975 25.9003C7.95584 26.5112 7.88886 27.1837 8.01728 27.8327C8.1457 28.4817 8.46375 29.078 8.93119 29.5462C9.39862 30.0144 9.99443 30.3334 10.6432 30.4628C11.292 30.5923 11.9646 30.5264 12.576 30.2735C13.1873 30.0205 13.7098 29.5919 14.0775 29.0419C14.4452 28.4919 14.6414 27.8452 14.6414 27.1836C14.6414 26.2977 14.2899 25.448 13.6639 24.821C13.038 24.1941 12.1888 23.8412 11.3029 23.8398Z" fill="#42210B"/>
<path d="M11.3029 23.8398C11.9645 23.8387 12.6115 24.0339 13.1621 24.4007C13.7127 24.7675 14.1421 25.2894 14.396 25.9003C14.6499 26.5112 14.7169 27.1837 14.5885 27.8327C14.4601 28.4817 14.142 29.078 13.6746 29.5462C13.2072 30.0144 12.6113 30.3334 11.9626 30.4628C11.3138 30.5923 10.6412 30.5264 10.0298 30.2735C9.4185 30.0205 8.89595 29.5919 8.52828 29.0419C8.16062 28.4919 7.96437 27.8452 7.96437 27.1836C7.96366 26.7448 8.0495 26.3101 8.21696 25.9044C8.38442 25.4987 8.63023 25.1301 8.94031 24.8195C9.25039 24.5089 9.61866 24.2625 10.0241 24.0944C10.4295 23.9263 10.864 23.8398 11.3029 23.8398ZM11.3029 21.3826C10.1544 21.3773 9.03025 21.713 8.07277 22.3472C7.11529 22.9814 6.36761 23.8856 5.92444 24.9451C5.48128 26.0046 5.36258 27.1718 5.58339 28.2989C5.8042 29.4259 6.35457 30.4621 7.16479 31.276C7.975 32.09 9.00859 32.6451 10.1346 32.8712C11.2606 33.0972 12.4284 32.9839 13.4899 32.5456C14.5515 32.1073 15.4591 31.3638 16.0977 30.4093C16.7363 29.4547 17.0772 28.3321 17.0772 27.1836C17.0801 25.6474 16.474 24.1726 15.3917 23.0823C14.3094 21.992 12.8391 21.3751 11.3029 21.3666V21.3826Z" fill="#42210B"/>
<path d="M27.1035 27.8781C21.468 27.8781 19.9937 27.5362 19.3367 27.2371C19.1221 27.1398 18.94 26.9828 18.8122 26.7848C18.6843 26.5869 18.6161 26.3563 18.6156 26.1207V6.10556C18.617 4.81347 19.1305 3.57464 20.0437 2.6605C20.9568 1.74636 22.1951 1.23146 23.4872 1.22864H41.8945C43.1875 1.23005 44.4271 1.74432 45.3414 2.65862C46.2557 3.57291 46.77 4.81255 46.7714 6.10556V22.8997C46.77 24.1927 46.2557 25.4323 45.3414 26.3466C44.4271 27.2609 43.1875 27.7752 41.8945 27.7766H32.8137C32.8137 27.7766 30.0841 27.8781 27.1195 27.8781H27.1035Z" fill="#F8C199"/>
<path d="M41.8945 2.45715C42.8621 2.45715 43.7901 2.84153 44.4743 3.52573C45.1585 4.20993 45.5429 5.1379 45.5429 6.1055V22.8996C45.5429 23.8672 45.1585 24.7952 44.4743 25.4794C43.7901 26.1636 42.8621 26.548 41.8945 26.548H32.8138C32.8138 26.548 30.0949 26.6494 27.1196 26.6494C24.1443 26.6494 20.7951 26.5426 19.8603 26.1153V6.1055C19.8603 5.14159 20.2417 4.21684 20.9213 3.53325C21.6009 2.84967 22.5234 2.4628 23.4872 2.45715H41.8945ZM41.8945 0H23.4872C21.8693 0.00282792 20.3186 0.647162 19.175 1.79171C18.0315 2.93625 17.3885 4.48758 17.3871 6.1055V26.1206C17.3857 26.5931 17.5211 27.0559 17.7771 27.4531C18.033 27.8503 18.3985 28.1648 18.8293 28.3588C19.6893 28.7487 21.2865 29.1066 27.1035 29.1066C29.9132 29.1066 32.4452 29.0211 32.8405 29.0051H41.8945C43.513 29.0023 45.0643 28.3581 46.2087 27.2137C47.3531 26.0693 47.9972 24.518 48 22.8996V6.1055C47.9972 4.48709 47.3531 2.93577 46.2087 1.79138C45.0643 0.646987 43.513 0.00282446 41.8945 0Z" fill="#42210B"/>
<path d="M45.5428 15.4908V22.8997C45.5428 23.8673 45.1585 24.7953 44.4743 25.4795C43.7901 26.1637 42.8621 26.548 41.8945 26.548H32.8137C32.8137 26.548 21.7138 26.9593 19.8602 26.1207V15.4908H45.5428Z" fill="#F8A861"/>
<path d="M41.8944 13.4128C41.5686 13.4128 41.2561 13.2833 41.0257 13.0529C40.7953 12.8225 40.6658 12.51 40.6658 12.1842V8.07112C40.6658 7.86144 40.5825 7.66036 40.4343 7.5121C40.286 7.36384 40.0849 7.28055 39.8753 7.28055H32.5679C32.2399 7.28055 31.9254 7.15027 31.6935 6.91836C31.4616 6.68646 31.3313 6.37193 31.3313 6.04396C31.3313 5.716 31.4616 5.40147 31.6935 5.16956C31.9254 4.93766 32.2399 4.80737 32.5679 4.80737H39.8753C40.7366 4.80737 41.5627 5.14954 42.1717 5.75861C42.7808 6.36767 43.123 7.19374 43.123 8.05509V12.1682C43.1251 12.3308 43.0949 12.4923 43.0341 12.6432C42.9733 12.7941 42.8831 12.9315 42.7688 13.0473C42.6546 13.1631 42.5184 13.255 42.3683 13.3177C42.2182 13.3805 42.0571 13.4128 41.8944 13.4128Z" fill="white"/>
<path d="M33.4867 31.7507C32.5822 31.7507 31.6979 31.4824 30.9459 30.9798C30.1938 30.4771 29.6078 29.7627 29.2619 28.9268C28.9159 28.091 28.8257 27.1714 29.0026 26.2843C29.1794 25.3972 29.6154 24.5824 30.2554 23.9432C30.8954 23.3039 31.7107 22.8689 32.598 22.693C33.4853 22.5172 34.4048 22.6085 35.2403 22.9554C36.0757 23.3023 36.7894 23.8892 37.2912 24.6419C37.793 25.3945 38.0602 26.2791 38.0592 27.1836C38.0564 28.395 37.5736 29.5558 36.7165 30.4118C35.8595 31.2679 34.6981 31.7493 33.4867 31.7507Z" fill="#F8A861"/>
<path d="M33.4868 32.9792C32.3393 32.9792 31.2175 32.6389 30.2634 32.0012C29.3093 31.3636 28.5658 30.4573 28.1269 29.3969C27.688 28.3366 27.5734 27.17 27.7977 26.0445C28.0219 24.9191 28.5749 23.8855 29.3868 23.0744C30.1986 22.2633 31.2327 21.7112 32.3584 21.488C33.484 21.2648 34.6506 21.3804 35.7105 21.8203C36.7704 22.2602 37.676 23.0046 38.3128 23.9592C38.9496 24.9139 39.2889 26.036 39.2878 27.1836C39.285 28.7207 38.6728 30.1941 37.5853 31.2805C36.4979 32.3669 35.024 32.9778 33.4868 32.9792ZM33.4868 23.8397C32.8259 23.8418 32.1805 24.0397 31.632 24.4084C31.0835 24.7771 30.6566 25.3001 30.4051 25.9113C30.1537 26.5225 30.089 27.1945 30.2192 27.8424C30.3494 28.4904 30.6687 29.0852 31.1368 29.5518C31.6049 30.0184 32.2007 30.3358 32.8491 30.4639C33.4974 30.5921 34.1692 30.5253 34.7796 30.2719C35.39 30.0185 35.9116 29.5899 36.2786 29.0402C36.6455 28.4905 36.8414 27.8445 36.8414 27.1836C36.8407 26.7437 36.7533 26.3084 36.5844 25.9023C36.4154 25.4962 36.1681 25.1274 35.8566 24.8169C35.5451 24.5064 35.1755 24.2603 34.7689 24.0926C34.3623 23.9249 33.9266 23.839 33.4868 23.8397Z" fill="#42210B"/>
<path d="M33.4868 23.8398C34.1484 23.8387 34.7954 24.0339 35.346 24.4007C35.8966 24.7675 36.326 25.2894 36.58 25.9003C36.8339 26.5112 36.9008 27.1837 36.7724 27.8327C36.644 28.4817 36.326 29.078 35.8585 29.5462C35.3911 30.0144 34.7953 30.3334 34.1465 30.4628C33.4977 30.5923 32.8251 30.5264 32.2138 30.2735C31.6024 30.0205 31.0799 29.5919 30.7122 29.0419C30.3445 28.4919 30.1483 27.8452 30.1483 27.1836C30.1483 26.2977 30.4999 25.448 31.1258 24.821C31.7517 24.1941 32.6009 23.8412 33.4868 23.8398ZM33.4868 21.3826C32.3395 21.3826 31.2179 21.7228 30.2639 22.3603C29.31 22.9977 28.5664 23.9037 28.1274 24.9637C27.6883 26.0237 27.5734 27.1901 27.7973 28.3154C28.0211 29.4406 28.5736 30.4743 29.3849 31.2856C30.1962 32.0969 31.2298 32.6494 32.3551 32.8732C33.4804 33.097 34.6468 32.9821 35.7068 32.5431C36.7668 32.104 37.6728 31.3605 38.3102 30.4065C38.9476 29.4525 39.2878 28.331 39.2878 27.1836C39.2892 26.4207 39.1403 25.6649 38.8494 24.9596C38.5586 24.2542 38.1316 23.6131 37.5929 23.0729C37.0541 22.5327 36.4142 22.1039 35.7096 21.8111C35.0051 21.5183 34.2498 21.3673 33.4868 21.3666V21.3826Z" fill="#42210B"/>
</g>
<defs>
<filter id="filter0_d" x="0" y="0" width="50" height="36.9847" filterUnits="userSpaceOnUse" color-interpolation-filters="sRGB">
<feFlood flood-opacity="0" result="BackgroundImageFix"/>
<feColorMatrix in="SourceAlpha" type="matrix" values="0 0 0 0 0 0 0 0 0 0 0 0 0 0 0 0 0 0 127 0"/>
<feOffset dx="2" dy="4"/>
<feColorMatrix type="matrix" values="0 0 0 0 0 0 0 0 0 0 0 0 0 0 0 0 0 0 0.1 0"/>
<feBlend mode="normal" in2="BackgroundImageFix" result="effect1_dropShadow"/>
<feBlend mode="normal" in="SourceGraphic" in2="effect1_dropShadow" result="shape"/>
</filter>
</defs>
</svg>
