<svg width="43" height="44" viewBox="0 0 43 44" fill="none" xmlns="http://www.w3.org/2000/svg">
<g filter="url(#filter0_d)">
<path d="M16.7655 10.7902L21.0329 15.052L24.0574 18.0363L25.7758 19.7548L36.5104 30.5408C38.836 32.8321 39.3744 36.08 37.7305 37.7297C36.0865 39.3794 32.8616 38.8295 30.5417 36.5096L20.6835 26.6228L10.7968 16.7589C8.47114 14.439 7.93269 11.2198 9.57667 9.57012C11.2206 7.92042 14.4456 8.47032 16.7655 10.7902Z" fill="#F8C199"/>
<path d="M35.2159 39.9976C34.8646 39.9951 34.5141 39.9644 34.1677 39.906C32.4333 39.5706 30.8437 38.7108 29.6138 37.4429L19.7499 27.5561L9.86316 17.6923C6.99909 14.8282 6.42628 10.8185 8.64307 8.6418C10.8599 6.4651 14.818 6.98063 17.6993 9.85616L21.8693 14.0205L21.9724 14.1122L26.6924 18.8322L26.7784 18.9238L37.4441 29.6068C38.7175 30.8442 39.5777 32.4446 39.9072 34.1893C40.0779 34.983 40.0535 35.8063 39.836 36.5885C39.6185 37.3707 39.2144 38.0885 38.6585 38.6802C38.2005 39.1168 37.6604 39.4581 37.0694 39.6843C36.4784 39.9105 35.8484 40.017 35.2159 39.9976ZM12.08 9.93063C11.7934 9.91675 11.5069 9.96028 11.2374 10.0586C10.9679 10.157 10.7207 10.3082 10.5104 10.5034C9.36481 11.6147 9.93763 14.0549 11.7248 15.8306L21.6116 25.6887L31.5041 35.5812C32.3529 36.4548 33.4444 37.0535 34.6374 37.2997C35.014 37.4255 35.4182 37.444 35.8047 37.3529C36.1912 37.2618 36.5446 37.0648 36.8254 36.7841C37.1062 36.5033 37.3032 36.1498 37.3943 35.7633C37.4853 35.3768 37.4669 34.9726 37.341 34.596C37.0952 33.4013 36.4966 32.3078 35.6226 31.457L24.8308 20.7053C24.8308 20.7053 24.7792 20.6537 24.7563 20.6193L20.2082 16.0712C20.171 16.0439 20.1365 16.0132 20.1051 15.9795L15.8376 11.7235C14.8594 10.6687 13.5153 10.0274 12.08 9.93063Z" fill="#42210B"/>
<path d="M28.6915 13.4367L25.4093 16.7362L23.118 19.0274L21.7662 20.3907L13.4489 28.6736C11.656 30.4665 7.68069 29.4011 4.58177 26.2907C1.48284 23.1803 0.394499 19.2107 2.18741 17.4178L9.83447 9.82229L17.4357 2.17522C19.2286 0.382315 23.1982 1.45348 26.3086 4.58104C29.419 7.70861 30.4844 11.6438 28.6915 13.4367Z" fill="#F8A861"/>
<path d="M11.0948 30.8675C10.442 30.8614 9.79289 30.769 9.16438 30.5926C7.06568 29.9612 5.16431 28.8015 3.64245 27.2244C2.06312 25.7034 0.901318 23.8019 0.26858 21.7025C-0.304234 19.5545 0.0451825 17.6928 1.25955 16.4899L8.90661 8.88867L16.4964 1.24733C18.8449 -1.09547 23.5592 -0.0472246 27.2366 3.63024C30.9141 7.30771 31.9624 12.0277 29.6253 14.3648L26.4748 17.5382C26.4347 17.584 26.3946 17.6355 26.3488 17.6814L22.7114 21.3187L22.5854 21.4333L14.377 29.6073C13.9432 30.0279 13.4287 30.3564 12.8647 30.5729C12.3006 30.7895 11.6986 30.8897 11.0948 30.8675ZM19.8187 2.61636C19.5557 2.5988 19.2918 2.63327 19.0422 2.7178C18.7925 2.80233 18.562 2.93526 18.3638 3.10898L10.7683 10.7503L3.11546 18.3573C2.60566 18.8614 2.49682 19.8351 2.8176 21.0209C3.33238 22.67 4.25664 24.1618 5.5041 25.3571C6.69768 26.6145 8.19201 27.5469 9.84603 28.0665C11.0317 28.3873 12.0055 28.2727 12.5153 27.7629L20.8326 19.4743C20.8679 19.4368 20.9062 19.4023 20.9472 19.3712L24.384 15.9343C24.4191 15.8878 24.4574 15.8438 24.4986 15.8025L27.7808 12.4974C28.8692 11.4033 28.0844 8.17265 25.3922 5.48616C23.4274 3.54432 21.2966 2.61636 19.8187 2.61636Z" fill="#42210B"/>
<path d="M21.6 14.0091C21.2505 14.0091 20.9154 13.8703 20.6684 13.6232C20.4213 13.3762 20.2825 13.0411 20.2825 12.6917C20.281 11.8525 19.9466 11.0483 19.3527 10.4555C18.7588 9.86267 17.954 9.52972 17.1148 9.52972C16.7654 9.52972 16.4303 9.39091 16.1832 9.14384C15.9362 8.89677 15.7974 8.56166 15.7974 8.21225C15.7974 7.86283 15.9362 7.52773 16.1832 7.28065C16.4303 7.03358 16.7654 6.89478 17.1148 6.89478C18.6513 6.8978 20.124 7.50952 21.2105 8.59598C22.297 9.68245 22.9087 11.1552 22.9117 12.6917C22.9117 13.0401 22.7737 13.3743 22.5279 13.6212C22.282 13.8681 21.9484 14.0076 21.6 14.0091Z" fill="white"/>
</g>
<defs>
<filter id="filter0_d" x="0" y="0" width="42.0194" height="43.9999" filterUnits="userSpaceOnUse" color-interpolation-filters="sRGB">
<feFlood flood-opacity="0" result="BackgroundImageFix"/>
<feColorMatrix in="SourceAlpha" type="matrix" values="0 0 0 0 0 0 0 0 0 0 0 0 0 0 0 0 0 0 127 0"/>
<feOffset dx="2" dy="4"/>
<feColorMatrix type="matrix" values="0 0 0 0 0 0 0 0 0 0 0 0 0 0 0 0 0 0 0.1 0"/>
<feBlend mode="normal" in2="BackgroundImageFix" result="effect1_dropShadow"/>
<feBlend mode="normal" in="SourceGraphic" in2="effect1_dropShadow" result="shape"/>
</filter>
</defs>
</svg>
