<svg width="42" height="44" viewBox="0 0 42 44" fill="none" xmlns="http://www.w3.org/2000/svg">
<g filter="url(#filter0_d)">
<path d="M21.7191 36.5007C21.5694 36.5001 21.4213 36.4696 21.2835 36.411C21.1457 36.3524 21.0211 36.2669 20.9168 36.1594C20.8125 36.052 20.7308 35.9248 20.6763 35.7854C20.6219 35.6459 20.5959 35.497 20.5997 35.3473L20.8285 28.1787C20.8373 27.9139 20.9389 27.6607 21.1156 27.4633L29.3889 18.3432C29.4951 18.2344 29.6224 18.1485 29.763 18.0908C29.9036 18.033 30.0546 18.0046 30.2065 18.0074C30.3574 18.0071 30.5066 18.0386 30.6445 18.0998C30.8588 18.1899 31.0393 18.345 31.1607 18.5433C31.2821 18.7415 31.3382 18.9728 31.321 19.2046L30.5083 30.6899C30.4966 30.866 30.4434 31.0367 30.3528 31.1882C30.2623 31.3396 30.1371 31.4674 29.9875 31.561L22.3079 36.3401C22.1313 36.4494 21.9268 36.5052 21.7191 36.5007Z" fill="#F8A861"/>
<path d="M30.2065 19.1025L29.3937 30.6122L21.719 35.3913L21.9478 28.2275L30.2211 19.1074L30.2065 19.1025ZM30.2211 16.8687C29.9085 16.8689 29.5995 16.9343 29.3137 17.0609C29.0279 17.1874 28.7717 17.3723 28.5615 17.6036L20.2882 26.7237C19.9331 27.1178 19.7281 27.6244 19.7091 28.1545L19.4658 35.3231C19.4607 35.7234 19.5629 36.1177 19.7616 36.4652C19.9603 36.8127 20.2484 37.1007 20.596 37.2993C20.9436 37.498 21.338 37.6 21.7382 37.5948C22.1385 37.5896 22.5301 37.4774 22.8724 37.2698L30.5763 32.5102C30.8771 32.3234 31.1295 32.0683 31.313 31.7655C31.4966 31.4628 31.606 31.121 31.6324 30.7679L32.4451 19.2631C32.4799 18.7957 32.3671 18.3292 32.1227 17.9293C31.8782 17.5294 31.5144 17.2163 31.0825 17.0342C30.8058 16.915 30.5077 16.8537 30.2065 16.8541L30.2211 16.8687Z" fill="#42210B"/>
<path d="M4.66632 19.4675C4.46646 19.4675 4.27023 19.414 4.09803 19.3126C3.92583 19.2111 3.78393 19.0654 3.68708 18.8906C3.59023 18.7158 3.54195 18.5182 3.54727 18.3184C3.55259 18.1186 3.61131 17.9239 3.71732 17.7545L8.50125 10.0749C8.59431 9.9244 8.72186 9.79825 8.87334 9.70685C9.02482 9.61546 9.19589 9.56144 9.37238 9.54926L20.8772 8.76086H20.9599C21.1853 8.76176 21.4052 8.83071 21.5908 8.95867C21.7764 9.08663 21.919 9.26765 22 9.47802C22.081 9.68839 22.0966 9.91832 22.0448 10.1377C21.9929 10.3571 21.876 10.5557 21.7094 10.7075L12.5892 18.9809C12.3937 19.1605 12.1393 19.2626 11.8738 19.268L4.66632 19.4675Z" fill="#F8C199"/>
<path d="M20.9599 9.85589L11.8398 18.1292L4.66632 18.358L9.45025 10.6832L20.9599 9.87049V9.85589ZM20.9599 7.63183H20.7993L9.28965 8.43483C8.93655 8.45879 8.59427 8.56666 8.29125 8.74949C7.98822 8.93232 7.73321 9.18483 7.54738 9.48603L2.76832 17.1608C2.5613 17.4992 2.44797 17.8867 2.43991 18.2833C2.43186 18.68 2.52938 19.0717 2.72249 19.4183C2.9156 19.765 3.19736 20.054 3.53892 20.2559C3.88047 20.4578 4.26955 20.5653 4.66632 20.5674H4.73932L11.9079 20.3338C12.438 20.3187 12.9453 20.1151 13.3387 19.7596L22.4588 11.4862C22.7921 11.1826 23.0259 10.7853 23.1296 10.3466C23.2333 9.90781 23.2021 9.44796 23.0402 9.02721C22.8782 8.60646 22.5929 8.24443 22.2217 7.9885C21.8506 7.73258 21.4108 7.59469 20.9599 7.5929V7.63183Z" fill="#42210B"/>
<path d="M20.6484 28.4465C20.5016 28.4468 20.3561 28.4176 20.2207 28.3608C20.0853 28.304 19.9627 28.2206 19.86 28.1156L11.8835 20.144C11.6752 19.9335 11.5583 19.6493 11.5583 19.3531C11.5583 19.057 11.6752 18.7728 11.8835 18.5623L25.9969 4.44899C27.9435 2.50233 31.4962 1.12993 34.6206 1.12993C35.6377 1.11239 36.6497 1.27722 37.6087 1.61659C37.7727 1.666 37.9239 1.75072 38.0516 1.86479C38.2093 2.00837 38.3224 2.19416 38.3777 2.40013C39.7695 6.18639 38.0175 11.5251 35.5501 13.9925L21.4368 28.1058C21.3343 28.2117 21.2119 28.2963 21.0766 28.3548C20.9413 28.4133 20.7958 28.4444 20.6484 28.4465Z" fill="#F8C199"/>
<path d="M34.6352 2.23954C35.5444 2.22686 36.4481 2.38024 37.3022 2.69214C38.5772 6.00634 36.9664 10.9947 34.7618 13.1993L20.6484 27.3126L12.6769 19.3507L26.7902 5.23741C28.4546 3.57788 31.7055 2.24928 34.6255 2.24928L34.6352 2.23954ZM34.6255 0.0106116C31.2188 0.0106116 27.3547 1.50954 25.2085 3.65574L11.0952 17.7691C10.677 18.1902 10.4424 18.7597 10.4424 19.3532C10.4424 19.9467 10.677 20.5161 11.0952 20.9373L19.0668 28.9089C19.2743 29.1169 19.5208 29.282 19.7922 29.3946C20.0636 29.5073 20.3546 29.5653 20.6484 29.5653C20.9423 29.5653 21.2333 29.5073 21.5047 29.3946C21.7761 29.282 22.0226 29.1169 22.2301 28.9089L36.3434 14.7955C39.1077 12.0264 40.9911 6.26428 39.4289 2.02054C39.3424 1.75798 39.2106 1.51257 39.0396 1.29541C38.7616 0.943008 38.3858 0.680579 37.9592 0.541078C36.8912 0.168478 35.7662 -0.0143466 34.6352 0.000878275L34.6255 0.0106116Z" fill="#42210B"/>
<path d="M37.3119 2.70679C38.5821 6.02098 36.9712 10.9801 34.7715 13.2042L20.6582 27.3175L16.6724 23.3609L37.3119 2.70679Z" fill="#F8A861"/>
<path d="M30.9414 11.9583C30.371 11.9504 29.8154 11.7755 29.3433 11.4554C28.8712 11.1352 28.5032 10.6838 28.2847 10.1568C28.0663 9.62985 28.007 9.05046 28.1141 8.49017C28.2212 7.92988 28.4902 7.41325 28.8876 7.00408C29.1566 6.73338 29.4767 6.51872 29.8292 6.37253C30.1817 6.22634 30.5597 6.15153 30.9414 6.15241C31.349 6.10819 31.7614 6.15031 32.1516 6.27604C32.5419 6.40176 32.9013 6.60828 33.2065 6.88213C33.5117 7.15598 33.7558 7.49103 33.9228 7.86547C34.0899 8.23991 34.1763 8.64535 34.1763 9.05537C34.1763 9.4654 34.0899 9.87084 33.9228 10.2453C33.7558 10.6197 33.5117 10.9548 33.2065 11.2286C32.9013 11.5025 32.5419 11.709 32.1516 11.8347C31.7614 11.9604 31.349 12.0026 30.9414 11.9583ZM30.4547 8.58574C30.3875 8.64618 30.3332 8.71965 30.2953 8.80169C30.2574 8.88373 30.2365 8.97263 30.234 9.06298C30.2315 9.15334 30.2474 9.24326 30.2807 9.32728C30.314 9.41131 30.3641 9.48768 30.4278 9.55176C30.4916 9.61584 30.5677 9.66628 30.6515 9.70004C30.7354 9.73379 30.8252 9.75014 30.9156 9.74809C31.0059 9.74604 31.0949 9.72564 31.1772 9.68813C31.2594 9.65062 31.3332 9.59677 31.394 9.52987C31.4581 9.46646 31.5084 9.39052 31.5419 9.3068C31.5754 9.22307 31.5913 9.13334 31.5886 9.04321C31.5919 8.953 31.5763 8.8631 31.5427 8.77929C31.5092 8.69548 31.4585 8.6196 31.394 8.55654C31.3308 8.49179 31.255 8.44067 31.1713 8.40636C31.0876 8.37204 30.9977 8.35524 30.9073 8.35701C30.7394 8.37647 30.5849 8.45807 30.4742 8.58574H30.4547Z" fill="#42210B"/>
<path d="M2.98242 38.1944C2.76151 38.1942 2.54563 38.1286 2.36194 38.0058C2.17826 37.8831 2.03499 37.7088 1.95017 37.5049C1.86536 37.3009 1.84279 37.0764 1.88532 36.8596C1.92784 36.6428 2.03356 36.4435 2.18915 36.2867L11.7132 26.7675C11.9257 26.5716 12.2057 26.4655 12.4946 26.4714C12.7835 26.4773 13.059 26.5947 13.2633 26.799C13.4677 27.0034 13.5851 27.2788 13.591 27.5678C13.5968 27.8567 13.4907 28.1367 13.2949 28.3492L3.77568 37.8684C3.67155 37.9724 3.54783 38.0548 3.41167 38.1108C3.27552 38.1667 3.12962 38.1952 2.98242 38.1944Z" fill="#42210B"/>
<path d="M1.11846 31.5126C0.971254 31.5133 0.825361 31.4849 0.689206 31.4289C0.553051 31.373 0.429332 31.2906 0.325195 31.1865C0.116861 30.976 0 30.6918 0 30.3957C0 30.0995 0.116861 29.8153 0.325195 29.6049L7.44026 22.4898C7.65274 22.2939 7.93274 22.1878 8.22167 22.1937C8.51059 22.1996 8.78604 22.317 8.99039 22.5213C9.19473 22.7257 9.31212 23.0011 9.318 23.29C9.32388 23.579 9.21778 23.859 9.02192 24.0715L1.91173 31.1865C1.80759 31.2906 1.68387 31.373 1.54772 31.4289C1.41156 31.4849 1.26567 31.5133 1.11846 31.5126Z" fill="#42210B"/>
<path d="M9.60583 39.9999C9.38493 39.9997 9.16904 39.9341 8.98536 39.8114C8.80167 39.6886 8.6584 39.5143 8.57358 39.3104C8.48877 39.1064 8.4662 38.8819 8.50873 38.6651C8.55126 38.4483 8.65697 38.249 8.81256 38.0922L15.9276 30.9771C16.1374 30.7661 16.4223 30.647 16.7199 30.6461C17.0174 30.6452 17.3031 30.7625 17.5142 30.9723C17.7252 31.182 17.8443 31.467 17.8452 31.7645C17.8461 32.0621 17.7288 32.3478 17.519 32.5588L10.3991 39.6739C10.295 39.7779 10.1712 39.8603 10.0351 39.9163C9.89893 39.9722 9.75304 40.0007 9.60583 39.9999Z" fill="#42210B"/>
<path d="M18.3561 18.869C18.129 18.872 17.9064 18.8059 17.7177 18.6795C17.5291 18.553 17.3834 18.3722 17.3 18.161C17.2165 17.9497 17.1993 17.7181 17.2506 17.4969C17.3019 17.2756 17.4193 17.0753 17.5872 16.9223L22.6972 12.0556C22.914 11.8622 23.1976 11.7607 23.488 11.7725C23.7783 11.7844 24.0527 11.9087 24.253 12.1192C24.4534 12.3296 24.564 12.6098 24.5616 12.9004C24.5591 13.1909 24.4438 13.4692 24.2399 13.6762L19.1299 18.5429C18.9244 18.7483 18.6467 18.8653 18.3561 18.869Z" fill="white"/>
</g>
<defs>
<filter id="filter0_d" x="0" y="0" width="41.9946" height="43.9999" filterUnits="userSpaceOnUse" color-interpolation-filters="sRGB">
<feFlood flood-opacity="0" result="BackgroundImageFix"/>
<feColorMatrix in="SourceAlpha" type="matrix" values="0 0 0 0 0 0 0 0 0 0 0 0 0 0 0 0 0 0 127 0"/>
<feOffset dx="2" dy="4"/>
<feColorMatrix type="matrix" values="0 0 0 0 0 0 0 0 0 0 0 0 0 0 0 0 0 0 0.1 0"/>
<feBlend mode="normal" in2="BackgroundImageFix" result="effect1_dropShadow"/>
<feBlend mode="normal" in="SourceGraphic" in2="effect1_dropShadow" result="shape"/>
</filter>
</defs>
</svg>
