<svg width="26" height="44" viewBox="0 0 26 44" fill="none" xmlns="http://www.w3.org/2000/svg">
<g filter="url(#filter0_d)">
<path d="M10.5999 38.8831C9.59093 38.8792 8.62456 38.4761 7.91205 37.7617C7.19953 37.0474 6.79883 36.08 6.79756 35.0711V30.5938H5.15135C4.70209 30.5916 4.26266 30.462 3.88409 30.2201C3.50552 29.9782 3.20335 29.6338 3.01267 29.227C2.82198 28.8202 2.75061 28.3677 2.80684 27.922C2.86307 27.4762 3.04459 27.0556 3.33032 26.7089L4.66574 25.1113C4.47927 25.1561 4.28909 25.1837 4.09758 25.1938H3.9519C3.22081 25.1944 2.51783 24.9122 1.99012 24.4062C1.46242 23.9002 1.15091 23.2097 1.12081 22.4793C1.09444 22.1 1.14636 21.7193 1.27334 21.3609C1.40032 21.0025 1.59965 20.6741 1.85894 20.396L6.60817 15.2389C7.10055 14.7164 7.69532 14.301 8.35536 14.0186C9.01541 13.7362 9.72656 13.5929 10.4445 13.5975H13.4504C14.1703 13.5988 14.8821 13.7487 15.5414 14.0378C16.2007 14.3269 16.7932 14.749 17.2818 15.2777L22.031 20.396C22.4037 20.8025 22.6503 21.3086 22.7407 21.8526C22.831 22.3967 22.7614 22.9553 22.5402 23.4605C22.319 23.9657 21.9557 24.3957 21.4946 24.6982C21.0335 25.0008 20.4944 25.1628 19.9429 25.1647H19.7924C19.6142 25.1554 19.4371 25.131 19.2631 25.0918L20.6131 26.7089C20.9021 27.0534 21.0869 27.4732 21.1458 27.919C21.2047 28.3649 21.1353 28.8182 20.9457 29.226C20.7561 29.6338 20.4541 29.979 20.0753 30.2213C19.6964 30.4635 19.2563 30.5928 18.8066 30.5938H17.1021V35.0759C17.1008 36.0865 16.6988 37.0554 15.9842 37.77C15.2696 38.4846 14.3007 38.8866 13.2901 38.8879L10.5999 38.8831Z" fill="#F8C199"/>
<path d="M13.2901 40H10.5999C9.29303 39.9988 8.04009 39.479 7.11601 38.555C6.19194 37.6309 5.67224 36.378 5.67095 35.0711V31.7059H5.15135C4.48916 31.7079 3.84008 31.5214 3.28005 31.168C2.72001 30.8146 2.27218 30.3091 1.98894 29.7106C1.70571 29.112 1.59878 28.4452 1.68068 27.788C1.76257 27.1309 2.02989 26.5107 2.45138 26C1.8627 25.756 1.34136 25.374 0.931365 24.8862C0.52137 24.3983 0.234754 23.819 0.0957121 23.1972C-0.0433302 22.5753 -0.0307181 21.9291 0.132484 21.3131C0.295686 20.6971 0.604688 20.1294 1.03341 19.658L5.7875 14.496C6.38106 13.8532 7.10122 13.3401 7.90267 12.9891C8.70412 12.6381 9.56952 12.4568 10.4445 12.4564H13.4504C14.3245 12.4577 15.1888 12.6395 15.9894 12.9905C16.7899 13.3415 17.5093 13.854 18.1025 14.496L22.8517 19.6483C23.2724 20.1181 23.5756 20.6809 23.7364 21.2907C23.8973 21.9004 23.9112 22.5396 23.7771 23.1557C23.643 23.7719 23.3646 24.3474 22.9648 24.8351C22.5651 25.3228 22.0553 25.7087 21.4775 25.9611C21.9039 26.4691 22.1763 27.0882 22.2628 27.7458C22.3493 28.4033 22.2462 29.0719 21.9656 29.6728C21.685 30.2737 21.2387 30.782 20.6791 31.1379C20.1194 31.4937 19.4698 31.6824 18.8066 31.6816H18.219V35.0469C18.2216 35.696 18.096 36.3392 17.8495 36.9398C17.603 37.5403 17.2404 38.0863 16.7826 38.5464C16.3247 39.0065 15.7805 39.3718 15.1812 39.6212C14.5819 39.8707 13.9393 39.9994 13.2901 40ZM4.66574 23.975C4.87841 23.9751 5.08665 24.0358 5.26596 24.1502C5.44528 24.2645 5.58822 24.4277 5.67799 24.6205C5.76776 24.8133 5.80062 25.0277 5.7727 25.2385C5.74479 25.4493 5.65726 25.6478 5.52041 25.8106L4.18499 27.4083C4.03139 27.5922 3.93355 27.8162 3.90297 28.0539C3.87239 28.2916 3.91036 28.5331 4.0124 28.7499C4.11444 28.9667 4.27631 29.1499 4.47895 29.2779C4.68159 29.4058 4.91656 29.4732 5.15621 29.4721H6.79756C7.09378 29.4721 7.37786 29.5898 7.58732 29.7992C7.79678 30.0087 7.91445 30.2928 7.91445 30.589V35.0711C7.91574 35.7855 8.2001 36.4703 8.70525 36.9755C9.21041 37.4806 9.89518 37.765 10.6096 37.7662H13.2998C14.0142 37.765 14.699 37.4806 15.2042 36.9755C15.7093 36.4703 15.9937 35.7855 15.995 35.0711V30.5938C15.995 30.2976 16.1126 30.0135 16.3221 29.8041C16.5315 29.5946 16.8156 29.4769 17.1118 29.4769H18.8163C19.0559 29.4805 19.2914 29.415 19.4948 29.2884C19.6982 29.1617 19.8608 28.9791 19.9632 28.7625C20.0656 28.5459 20.1035 28.3044 20.0723 28.0669C20.0412 27.8293 19.9423 27.6057 19.7875 27.4228L18.4424 25.8252C18.2891 25.6469 18.1963 25.4246 18.1772 25.1903C18.1582 24.9559 18.2139 24.7216 18.3363 24.5209C18.4588 24.3202 18.6417 24.1635 18.8589 24.0732C19.076 23.983 19.3161 23.9639 19.5447 24.0187C19.6549 24.0434 19.767 24.0581 19.8798 24.0624H19.9866C20.4083 24.0627 20.8144 23.9031 21.123 23.6157C21.4551 23.3058 21.6528 22.8782 21.6736 22.4244C21.6945 21.9706 21.5369 21.5267 21.2346 21.1876L16.4611 16.0256C16.0773 15.61 15.6117 15.2782 15.0936 15.0509C14.5756 14.8236 14.0161 14.7058 13.4504 14.7048H10.4445C9.8779 14.7051 9.31753 14.8226 8.79856 15.0499C8.27959 15.2772 7.81325 15.6094 7.42885 16.0256L2.67961 21.1682C2.45545 21.4157 2.30774 21.7227 2.25434 22.0523C2.20094 22.3819 2.24413 22.7199 2.37868 23.0255C2.51324 23.3311 2.73341 23.5912 3.01259 23.7743C3.29177 23.9575 3.61801 24.0558 3.9519 24.0576H4.05388C4.16995 24.0509 4.28527 24.0347 4.39866 24.009C4.48583 23.9861 4.57561 23.9747 4.66574 23.975Z" fill="#42210B"/>
<path d="M13.4503 14.6902C14.0173 14.6925 14.5775 14.8123 15.0958 15.0422C15.614 15.272 16.0789 15.6069 16.4611 16.0256L21.2103 21.1779C21.4421 21.4242 21.5966 21.733 21.6546 22.0662C21.7127 22.3994 21.6717 22.7423 21.5368 23.0524C21.4019 23.3625 21.179 23.6263 20.8957 23.811C20.6124 23.9957 20.2811 24.0932 19.9429 24.0916H19.8458C19.6179 24.0847 19.3939 24.0312 19.1876 23.9343C18.9813 23.8374 18.7971 23.6992 18.6463 23.5283L16.0241 20.6777V22.9795L19.7778 27.418C19.9326 27.6009 20.0315 27.8244 20.0626 28.062C20.0937 28.2996 20.0558 28.5411 19.9534 28.7577C19.851 28.9743 19.6884 29.1568 19.485 29.2835C19.2817 29.4102 19.0462 29.4757 18.8066 29.4721H15.9852V35.0711C15.9839 35.7855 15.6996 36.4703 15.1944 36.9755C14.6893 37.4806 14.0045 37.765 13.2901 37.7662H10.5998C9.88543 37.765 9.20066 37.4806 8.69551 36.9755C8.19036 36.4703 7.90599 35.7855 7.90471 35.0711V29.4721H5.15132C4.91167 29.4732 4.6767 29.4058 4.47406 29.2779C4.27142 29.1499 4.10956 28.9667 4.00751 28.7499C3.90547 28.5331 3.86751 28.2916 3.89808 28.0539C3.92866 27.8162 4.02651 27.5922 4.18011 27.4083L7.88043 22.9795V20.6729L5.24358 23.4943C5.09284 23.6652 4.90861 23.8034 4.70229 23.9003C4.49598 23.9972 4.27197 24.0507 4.04414 24.0576H3.95187C3.50865 24.0568 3.08277 23.8853 2.76265 23.5787C2.44254 23.2722 2.2528 22.8541 2.23282 22.4114C2.21825 22.1835 2.25084 21.955 2.32854 21.7403C2.40625 21.5255 2.5274 21.3292 2.68444 21.1634L7.42882 16.0256C7.81304 15.6092 8.27934 15.2768 8.79835 15.0495C9.31736 14.8222 9.87782 14.7048 10.4444 14.7048H13.4503V14.6902ZM13.4503 12.471H10.4444C9.56949 12.4713 8.70408 12.6527 7.90263 13.0037C7.10118 13.3547 6.38103 13.8677 5.78746 14.5105L1.03823 19.6483C0.330013 20.4255 -0.0411071 21.4519 0.00622797 22.5024C0.0535631 23.5529 0.515491 24.5417 1.29075 25.2522C1.63173 25.5651 2.02442 25.8165 2.45135 25.9951C2.0319 26.5065 1.76631 27.1264 1.68549 27.7828C1.60467 28.4392 1.71194 29.1051 1.99482 29.7029C2.2777 30.3007 2.72455 30.8059 3.28336 31.1596C3.84217 31.5134 4.48996 31.7011 5.15132 31.701H5.67092V35.0663C5.67092 36.3739 6.19006 37.6281 7.11427 38.5533C8.03848 39.4784 9.29215 39.9988 10.5998 40H13.2901C14.5969 39.9988 15.8499 39.479 16.7739 38.555C17.698 37.6309 18.2177 36.378 18.219 35.0711V31.7059H18.8066C19.4698 31.7067 20.1194 31.518 20.679 31.1622C21.2387 30.8063 21.685 30.298 21.9656 29.6971C22.2461 29.0961 22.3493 28.4276 22.2628 27.7701C22.1763 27.1125 21.9038 26.4934 21.4774 25.9854C22.1689 25.694 22.7639 25.2128 23.1935 24.5976C23.6232 23.9823 23.87 23.2581 23.9055 22.5085C23.9343 21.9878 23.858 21.4667 23.6811 20.9761C23.5042 20.4855 23.2304 20.0356 22.876 19.6531L18.1025 14.496C17.5093 13.854 16.7899 13.3415 15.9893 12.9905C15.1888 12.6395 14.3244 12.4577 13.4503 12.4564V12.471Z" fill="#42210B"/>
<path d="M11.6974 14.6902H10.4445C9.8768 14.6921 9.31568 14.8117 8.79661 15.0416C8.27754 15.2715 7.81181 15.6065 7.42887 16.0256L2.68449 21.1633C2.52746 21.3291 2.4063 21.5255 2.3286 21.7403C2.25089 21.955 2.21831 22.1834 2.23288 22.4113C2.24111 22.6389 2.29526 22.8625 2.39206 23.0686C2.48886 23.2747 2.62632 23.4591 2.79618 23.6108C2.96271 23.7665 3.15934 23.8864 3.37397 23.9633C3.58861 24.0401 3.81669 24.0722 4.04419 24.0575C4.27202 24.0507 4.49603 23.9972 4.70234 23.9003C4.90866 23.8034 5.09289 23.6652 5.24364 23.4942L7.88534 20.6729V22.9795L4.18502 27.4082C4.03142 27.5922 3.93357 27.8162 3.90299 28.0539C3.87242 28.2916 3.91038 28.533 4.01242 28.7499C4.11447 28.9667 4.27633 29.1499 4.47897 29.2778C4.68161 29.4058 4.91658 29.4732 5.15623 29.4721H7.90962V35.0711C7.9109 35.7855 8.19527 36.4703 8.70042 36.9754C9.20557 37.4806 9.89034 37.7649 10.6047 37.7662H11.7022L11.6974 14.6902Z" fill="#F8A861"/>
<path d="M11.7847 10.378C11.1757 10.3864 10.5714 10.2706 10.0087 10.0376C9.44595 9.8047 8.93659 9.45952 8.51171 9.02317C8.07476 8.59772 7.72923 8.08758 7.49627 7.52396C7.26331 6.96035 7.14782 6.35512 7.15687 5.74532C7.14848 5.13634 7.26429 4.53204 7.49723 3.96931C7.73017 3.40657 8.07536 2.89722 8.51171 2.47233C8.93659 2.03598 9.44595 1.6908 10.0087 1.45786C10.5714 1.22492 11.1757 1.1091 11.7847 1.11749C12.3929 1.10977 12.9962 1.2259 13.5581 1.45882C14.1199 1.69174 14.6285 2.03658 15.0528 2.47233C15.4892 2.89722 15.8344 3.40657 16.0673 3.96931C16.3003 4.53204 16.4161 5.13634 16.4077 5.74532C16.4167 6.35512 16.3012 6.96035 16.0683 7.52396C15.8353 8.08758 15.4898 8.59772 15.0528 9.02317C14.6285 9.45892 14.1199 9.80376 13.5581 10.0367C12.9962 10.2696 12.3929 10.3857 11.7847 10.378Z" fill="#F8C199"/>
<path d="M11.7847 11.4949C11.0282 11.5053 10.2776 11.3612 9.57869 11.0715C8.8798 10.7818 8.2474 10.3524 7.72019 9.80982C7.17868 9.28203 6.75041 8.64941 6.46153 7.95058C6.17265 7.25176 6.02922 6.5014 6.03999 5.74529C6.02985 4.98884 6.17404 4.23827 6.46377 3.53942C6.75349 2.84058 7.18266 2.20815 7.72505 1.68076C8.25211 1.13962 8.88391 0.711547 9.58189 0.42267C10.2799 0.133792 11.0294 -0.00983106 11.7847 0.000564948C12.5408 -0.0102091 13.2912 0.133222 13.99 0.422102C14.6888 0.710983 15.3215 1.13925 15.8493 1.68076C16.3916 2.20815 16.8208 2.84058 17.1105 3.53942C17.4003 4.23827 17.5445 4.98884 17.5343 5.74529C17.5451 6.5014 17.4016 7.25176 17.1128 7.95058C16.8239 8.64941 16.3956 9.28203 15.8541 9.80982C15.326 10.3526 14.6927 10.7819 13.993 11.0717C13.2934 11.3614 12.5419 11.5054 11.7847 11.4949ZM11.7847 2.23436C11.3228 2.22484 10.8639 2.31095 10.4369 2.48728C10.0099 2.66361 9.6239 2.92635 9.30327 3.25899C8.96587 3.57824 8.69842 3.96407 8.51787 4.39205C8.33732 4.82003 8.24759 5.28084 8.25436 5.74529C8.24359 6.21389 8.33139 6.67953 8.51209 7.11203C8.69278 7.54452 8.96233 7.93422 9.30327 8.25588C9.62366 8.58916 10.0095 8.85264 10.4365 9.0298C10.8635 9.20695 11.3225 9.29396 11.7847 9.28537C12.2478 9.29464 12.7077 9.20796 13.1356 9.03078C13.5635 8.8536 13.9501 8.58977 14.271 8.25588C14.6054 7.9353 14.8695 7.54877 15.0468 7.12079C15.224 6.69281 15.3104 6.23269 15.3005 5.76957C15.3091 5.30735 15.2221 4.84834 15.0449 4.42132C14.8678 3.99431 14.6043 3.60851 14.271 3.28812C13.9526 2.94937 13.567 2.6807 13.1389 2.49927C12.7108 2.31783 12.2496 2.22761 11.7847 2.23436Z" fill="#42210B"/>
<path d="M11.7847 2.23429C12.2471 2.227 12.706 2.31411 13.1335 2.49029C13.561 2.66647 13.9481 2.92801 14.271 3.25892C14.6028 3.58146 14.8653 3.96834 15.0423 4.39586C15.2193 4.82339 15.3072 5.28255 15.3005 5.74523C15.3105 6.21197 15.2243 6.67576 15.0472 7.1077C14.87 7.53964 14.6058 7.93047 14.271 8.25582C13.945 8.58222 13.5578 8.84115 13.1316 9.01782C12.7054 9.19449 12.2485 9.28542 11.7872 9.28542C11.3258 9.28542 10.869 9.19449 10.4428 9.01782C10.0166 8.84115 9.62935 8.58222 9.30329 8.25582C8.96497 7.93214 8.69717 7.54207 8.51668 7.11005C8.33618 6.67803 8.24688 6.21338 8.25438 5.74523C8.24771 5.28255 8.33559 4.82339 8.51261 4.39586C8.68963 3.96834 8.95207 3.58146 9.28386 3.25892C9.60851 2.92621 9.99794 2.66362 10.4281 2.48738C10.8582 2.31114 11.32 2.225 11.7847 2.23429ZM11.7847 0.000500707C11.03 -0.000778563 10.2824 0.14694 9.58481 0.435187C8.88725 0.723433 8.25345 1.14654 7.71975 1.68024C7.18605 2.21394 6.76294 2.84774 6.47469 3.5453C6.18645 4.24286 6.03873 4.99046 6.04001 5.74523C6.03344 6.50074 6.17879 7.24986 6.46742 7.94809C6.75606 8.64632 7.18209 9.27942 7.72021 9.80976C8.79838 10.8874 10.2604 11.4927 11.7847 11.4927C13.3091 11.4927 14.7711 10.8874 15.8493 9.80976C16.3886 9.27909 16.8158 8.64535 17.1052 7.94626C17.3947 7.24717 17.5406 6.497 17.5343 5.74037C17.5405 4.98448 17.3945 4.23507 17.1051 3.53678C16.8156 2.83849 16.3885 2.20561 15.8493 1.67584C15.3185 1.1386 14.6852 0.713469 13.987 0.425675C13.2888 0.137882 12.5399 -0.00670362 11.7847 0.000500707Z" fill="#42210B"/>
<path d="M11.7848 2.23436C11.3233 2.22773 10.8652 2.31516 10.4386 2.49132C10.012 2.66748 9.6257 2.92868 9.30331 3.25899C8.96801 3.57986 8.70196 3.966 8.52157 4.3936C8.34117 4.8212 8.25025 5.28122 8.2544 5.7453C8.24691 6.21345 8.33621 6.6781 8.51671 7.11012C8.6972 7.54214 8.965 7.93221 9.30331 8.25588C9.62529 8.58707 10.0114 8.84917 10.438 9.02617C10.8647 9.20317 11.3229 9.29137 11.7848 9.28537V2.23436Z" fill="#F8A861"/>
<path d="M13.227 22.6736C12.9308 22.6736 12.6467 22.5559 12.4372 22.3465C12.2278 22.137 12.1101 21.8529 12.1101 21.5567V17.2736C12.1101 16.9774 12.2278 16.6933 12.4372 16.4839C12.6467 16.2744 12.9308 16.1567 13.227 16.1567C13.5232 16.1567 13.8073 16.2744 14.0168 16.4839C14.2262 16.6933 14.3439 16.9774 14.3439 17.2736V21.5567C14.3439 21.7034 14.315 21.8486 14.2589 21.9841C14.2028 22.1196 14.1205 22.2427 14.0168 22.3465C13.9131 22.4502 13.7899 22.5324 13.6544 22.5886C13.5189 22.6447 13.3737 22.6736 13.227 22.6736Z" fill="white"/>
<path d="M12.013 5.96377H11.2603C10.964 5.96377 10.68 5.8461 10.4705 5.63664C10.261 5.42718 10.1434 5.1431 10.1434 4.84688C10.1434 4.55066 10.261 4.26657 10.4705 4.05711C10.68 3.84765 10.964 3.72998 11.2603 3.72998H12.013C12.3092 3.72998 12.5933 3.84765 12.8027 4.05711C13.0122 4.26657 13.1299 4.55066 13.1299 4.84688C13.1299 5.1431 13.0122 5.42718 12.8027 5.63664C12.5933 5.8461 12.3092 5.96377 12.013 5.96377Z" fill="white"/>
</g>
<defs>
<filter id="filter0_d" x="0" y="0" width="25.9114" height="44" filterUnits="userSpaceOnUse" color-interpolation-filters="sRGB">
<feFlood flood-opacity="0" result="BackgroundImageFix"/>
<feColorMatrix in="SourceAlpha" type="matrix" values="0 0 0 0 0 0 0 0 0 0 0 0 0 0 0 0 0 0 127 0"/>
<feOffset dx="2" dy="4"/>
<feColorMatrix type="matrix" values="0 0 0 0 0 0 0 0 0 0 0 0 0 0 0 0 0 0 0.1 0"/>
<feBlend mode="normal" in2="BackgroundImageFix" result="effect1_dropShadow"/>
<feBlend mode="normal" in="SourceGraphic" in2="effect1_dropShadow" result="shape"/>
</filter>
</defs>
</svg>
