<svg width="36" height="38" viewBox="0 0 36 38" fill="none" xmlns="http://www.w3.org/2000/svg">
<g filter="url(#filter0_d)">
<path d="M17 32.7867C25.7188 32.7867 32.7868 25.7187 32.7868 16.9999C32.7868 8.28102 25.7188 1.21301 17 1.21301C8.28115 1.21301 1.21313 8.28102 1.21313 16.9999C1.21313 25.7187 8.28115 32.7867 17 32.7867Z" fill="#F8A861"/>
<path d="M17 34C13.6377 34 10.351 33.003 7.55532 31.135C4.75968 29.267 2.58075 26.612 1.29406 23.5056C0.00736591 20.3993 -0.329291 16.9812 0.326658 13.6835C0.982607 10.3858 2.6017 7.35669 4.97919 4.97919C7.35669 2.6017 10.3858 0.982607 13.6835 0.326658C16.9812 -0.329291 20.3993 0.00736591 23.5056 1.29406C26.612 2.58075 29.267 4.75968 31.135 7.55532C33.003 10.351 34 13.6377 34 17C33.9944 21.507 32.2016 25.8278 29.0147 29.0147C25.8278 32.2016 21.507 33.9944 17 34ZM17 2.42632C14.1176 2.42632 11.2999 3.28105 8.9033 4.88243C6.50667 6.48381 4.63872 8.75991 3.53568 11.4229C2.43263 14.0859 2.14402 17.0162 2.70635 19.8432C3.26868 22.6702 4.65669 25.267 6.69485 27.3052C8.73302 29.3433 11.3298 30.7313 14.1568 31.2937C16.9838 31.856 19.9141 31.5674 22.5771 30.4643C25.2401 29.3613 27.5162 27.4934 29.1176 25.0967C30.719 22.7001 31.5737 19.8824 31.5737 17C31.5695 13.1361 30.0327 9.43167 27.3005 6.69948C24.5684 3.96729 20.8639 2.43051 17 2.42632Z" fill="#42210B"/>
<path d="M20.0454 1.46183L11.613 31.8887L13.9512 32.5367L22.3836 2.10982L20.0454 1.46183Z" fill="#42210B"/>
<path d="M24.4266 13.4821C24.1048 13.4821 23.7962 13.3543 23.5687 13.1268C23.3412 12.8993 23.2134 12.5907 23.2134 12.269C23.212 11.541 22.9219 10.8434 22.4067 10.3292C21.8915 9.81497 21.1933 9.52616 20.4654 9.52616C20.1436 9.52616 19.835 9.39835 19.6075 9.17084C19.38 8.94333 19.2522 8.63476 19.2522 8.31301C19.2522 7.99126 19.38 7.68269 19.6075 7.45518C19.835 7.22767 20.1436 7.09985 20.4654 7.09985C21.8363 7.10125 23.1509 7.64613 24.1208 8.61507C25.0907 9.58401 25.6369 10.898 25.6397 12.269C25.6397 12.4283 25.6083 12.586 25.5474 12.7332C25.4864 12.8804 25.397 13.0141 25.2844 13.1268C25.1717 13.2394 25.038 13.3288 24.8908 13.3898C24.7436 13.4507 24.5859 13.4821 24.4266 13.4821Z" fill="white"/>
<path d="M27.6599 18.0971C15.349 18.0971 8.32326 3.88738 8.24414 3.72386L10.4331 2.66895C10.7601 3.35464 18.7142 19.3736 32.3754 14.8796L33.1297 17.1846C31.3669 17.7791 29.5202 18.0872 27.6599 18.0971Z" fill="#42210B"/>
<path d="M24.5691 26.6684C13.3975 26.6684 1.05494 16.7363 0.448364 16.23L1.978 14.3469C2.15206 14.4893 19.2997 28.2982 30.1496 23.05L31.2045 25.2389C29.1295 26.2119 26.8606 26.7007 24.5691 26.6684Z" fill="#42210B"/>
</g>
<defs>
<filter id="filter0_d" x="0" y="0" width="36" height="38" filterUnits="userSpaceOnUse" color-interpolation-filters="sRGB">
<feFlood flood-opacity="0" result="BackgroundImageFix"/>
<feColorMatrix in="SourceAlpha" type="matrix" values="0 0 0 0 0 0 0 0 0 0 0 0 0 0 0 0 0 0 127 0"/>
<feOffset dx="2" dy="4"/>
<feColorMatrix type="matrix" values="0 0 0 0 0 0 0 0 0 0 0 0 0 0 0 0 0 0 0.1 0"/>
<feBlend mode="normal" in2="BackgroundImageFix" result="effect1_dropShadow"/>
<feBlend mode="normal" in="SourceGraphic" in2="effect1_dropShadow" result="shape"/>
</filter>
</defs>
</svg>
