<svg width="40" height="44" viewBox="0 0 40 44" fill="none" xmlns="http://www.w3.org/2000/svg">
<g filter="url(#filter0_d)">
<path d="M7.87893 29.777C6.77473 29.7756 5.71618 29.3363 4.93539 28.5555C4.15461 27.7747 3.71532 26.7162 3.71387 25.612V9.90359C3.71532 8.79939 4.15461 7.74084 4.93539 6.96005C5.71618 6.17927 6.77473 5.73998 7.87893 5.73853H32.9738C33.5715 5.73842 34.1584 5.89738 34.6743 6.19908C35.1902 6.50077 35.6165 6.93434 35.9094 7.45525C36.2024 7.97616 36.3514 8.56566 36.3412 9.1632C36.331 9.76075 36.162 10.3448 35.8514 10.8554L32.1705 16.9077C31.9994 17.1877 31.9088 17.5094 31.9088 17.8376C31.9088 18.1657 31.9994 18.4875 32.1705 18.7674L35.8184 24.6656C36.1319 25.1732 36.3041 25.7552 36.3174 26.3516C36.3307 26.948 36.1846 27.5371 35.8941 28.0581C35.6036 28.5791 35.1792 29.0131 34.6649 29.3153C34.1506 29.6175 33.5649 29.7769 32.9683 29.777H7.87893Z" fill="#F8C199"/>
<path d="M32.9739 7.00398C33.3471 7.00405 33.7136 7.10352 34.0357 7.29215C34.3578 7.48079 34.6238 7.75178 34.8064 8.07729C34.9891 8.4028 35.0817 8.77108 35.0749 9.14426C35.0681 9.51745 34.962 9.88208 34.7675 10.2007L31.0867 16.253C30.7924 16.7331 30.6366 17.2854 30.6366 17.8486C30.6366 18.4117 30.7924 18.964 31.0867 19.4442L34.7455 25.3094C34.9422 25.6247 35.0507 25.987 35.0599 26.3585C35.069 26.7301 34.9785 27.0973 34.7976 27.4219C34.6167 27.7466 34.3522 28.0169 34.0314 28.2046C33.7107 28.3924 33.3455 28.4908 32.9739 28.4895H7.87896C7.10994 28.4895 6.37242 28.1841 5.82864 27.6403C5.28487 27.0965 4.97937 26.359 4.97937 25.59V9.90357C4.97937 9.13405 5.28469 8.39596 5.82831 7.8513C6.37193 7.30665 7.10944 6.99994 7.87896 6.99848H32.9739V7.00398ZM32.9739 4.46753H7.87896C6.43864 4.47044 5.05822 5.04428 4.04027 6.06326C3.02231 7.08224 2.44988 8.46324 2.44843 9.90357V25.612C2.44988 27.0518 3.02249 28.4322 4.0406 29.4503C5.05871 30.4684 6.43914 31.0411 7.87896 31.0425H32.9739C33.7962 31.0435 34.6039 30.8246 35.3131 30.4084C36.0224 29.9922 36.6074 29.3939 37.0076 28.6755C37.4078 27.9571 37.6085 27.1447 37.5891 26.3226C37.5696 25.5005 37.3306 24.6985 36.8968 23.9999L33.2545 18.1072C33.2062 18.0235 33.1808 17.9286 33.1808 17.832C33.1808 17.7355 33.2062 17.6406 33.2545 17.5569L36.9354 11.5047C37.3588 10.8018 37.5881 9.99926 37.6001 9.17883C37.612 8.3584 37.4061 7.54948 37.0034 6.83461C36.6007 6.11973 36.0155 5.52449 35.3076 5.10961C34.5997 4.69474 33.7944 4.47507 32.9739 4.47303V4.46753Z" fill="#42210B"/>
<path d="M21.0564 7.00415H7.85145C7.08766 7.01283 6.35801 7.32197 5.82048 7.86466C5.28294 8.40734 4.98077 9.1399 4.97937 9.90374V25.6121C4.97937 26.3811 5.28486 27.1187 5.82864 27.6624C6.37242 28.2062 7.10994 28.5117 7.87896 28.5117H21.0839L21.0564 7.00415Z" fill="#F8A861"/>
<path d="M2.53098 38.7344C2.19535 38.7344 1.87347 38.6011 1.63615 38.3638C1.39883 38.1265 1.2655 37.8046 1.2655 37.4689V4.74268C1.2655 3.82045 1.63186 2.93598 2.28398 2.28386C2.9361 1.63174 3.82057 1.26538 4.74281 1.26538C5.66505 1.26538 6.54951 1.63174 7.20163 2.28386C7.85375 2.93598 8.22011 3.82045 8.22011 4.74268V37.4689C8.22084 37.6353 8.1886 37.8002 8.12527 37.9541C8.06193 38.1079 7.96874 38.2477 7.85109 38.3654C7.73343 38.4831 7.59364 38.5762 7.43977 38.6396C7.28591 38.7029 7.12103 38.7352 6.95464 38.7344H2.53098Z" fill="#F8A861"/>
<path d="M4.74278 2.53095C5.32647 2.53095 5.88626 2.76282 6.299 3.17556C6.71173 3.58829 6.9436 4.14808 6.9436 4.73177V37.4691H2.54195V7.63686V4.74278C2.54195 4.15908 2.77383 3.5993 3.18656 3.18656C3.5993 2.77383 4.15908 2.54195 4.74278 2.54195V2.53095ZM4.74278 0.0110041C3.48726 0.0124514 2.28343 0.511091 1.39461 1.39784C0.505799 2.28459 0.00436364 3.48727 0 4.74278L0 7.63686V37.4691C0 38.1403 0.266653 38.7841 0.741298 39.2587C1.21594 39.7333 1.8597 40 2.53095 40H6.9326C7.60385 40 8.24761 39.7333 8.72225 39.2587C9.1969 38.7841 9.46355 38.1403 9.46355 37.4691V4.74278C9.46212 3.48916 8.96499 2.28698 8.08061 1.39848C7.19623 0.509976 5.99638 0.00726232 4.74278 0V0.0110041Z" fill="#42210B"/>
<path d="M27.3123 12.1046H14.0083C13.8355 12.116 13.6621 12.0918 13.499 12.0336C13.3359 11.9753 13.1865 11.8841 13.0601 11.7657C12.9336 11.6474 12.8328 11.5043 12.7639 11.3454C12.695 11.1865 12.6594 11.0151 12.6594 10.8419C12.6594 10.6687 12.695 10.4973 12.7639 10.3384C12.8328 10.1795 12.9336 10.0364 13.0601 9.91805C13.1865 9.79968 13.3359 9.70852 13.499 9.65023C13.6621 9.59194 13.8355 9.56775 14.0083 9.57917H27.3123C27.4851 9.56775 27.6585 9.59194 27.8216 9.65023C27.9847 9.70852 28.1341 9.79968 28.2605 9.91805C28.387 10.0364 28.4878 10.1795 28.5567 10.3384C28.6256 10.4973 28.6612 10.6687 28.6612 10.8419C28.6612 11.0151 28.6256 11.1865 28.5567 11.3454C28.4878 11.5043 28.387 11.6474 28.2605 11.7657C28.1341 11.8841 27.9847 11.9753 27.8216 12.0336C27.6585 12.0918 27.4851 12.116 27.3123 12.1046Z" fill="white"/>
</g>
<defs>
<filter id="filter0_d" x="0" y="0" width="39.6006" height="44" filterUnits="userSpaceOnUse" color-interpolation-filters="sRGB">
<feFlood flood-opacity="0" result="BackgroundImageFix"/>
<feColorMatrix in="SourceAlpha" type="matrix" values="0 0 0 0 0 0 0 0 0 0 0 0 0 0 0 0 0 0 127 0"/>
<feOffset dx="2" dy="4"/>
<feColorMatrix type="matrix" values="0 0 0 0 0 0 0 0 0 0 0 0 0 0 0 0 0 0 0.1 0"/>
<feBlend mode="normal" in2="BackgroundImageFix" result="effect1_dropShadow"/>
<feBlend mode="normal" in="SourceGraphic" in2="effect1_dropShadow" result="shape"/>
</filter>
</defs>
</svg>
