<svg width="35" height="44" viewBox="0 0 35 44" fill="none" xmlns="http://www.w3.org/2000/svg">
<g filter="url(#filter0_d)">
<path d="M19.0345 1.02576H4.34831C2.51332 1.02576 1.02576 2.51332 1.02576 4.34831V27.0264C1.02576 28.8614 2.51332 30.349 4.34831 30.349H19.0345C20.8695 30.349 22.357 28.8614 22.357 27.0264V4.34831C22.357 2.51332 20.8695 1.02576 19.0345 1.02576Z" fill="#F8C199"/>
<path d="M19.0345 2.05151C19.6432 2.05269 20.2268 2.29505 20.6572 2.72553C21.0877 3.15601 21.3301 3.73952 21.3313 4.34831V27.0309C21.3301 27.6393 21.0876 28.2223 20.657 28.6521C20.2264 29.0819 19.6428 29.3232 19.0345 29.3232H4.34831C4.0469 29.3238 3.74833 29.265 3.4697 29.15C3.19107 29.0351 2.93783 28.8663 2.7245 28.6534C2.51116 28.4405 2.34191 28.1876 2.22643 27.9092C2.11095 27.6307 2.05151 27.3323 2.05151 27.0309V4.34831C2.05151 3.73916 2.29349 3.15496 2.72423 2.72423C3.15496 2.29349 3.73916 2.05151 4.34831 2.05151H19.0345ZM19.0345 0H4.34831C3.19543 0.00118063 2.09011 0.459684 1.27489 1.27489C0.459684 2.09011 0.00118063 3.19543 0 4.34831L0 27.0309C0.00118202 28.1834 0.459828 29.2882 1.27517 30.1027C2.0905 30.9172 3.19584 31.3747 4.34831 31.3747H19.0345C20.1866 31.3736 21.2912 30.9157 22.1063 30.1014C22.9214 29.2872 23.3804 28.183 23.3828 27.0309V4.34831C23.3816 3.19543 22.9231 2.09011 22.1079 1.27489C21.2927 0.459684 20.1873 0.00118063 19.0345 0V0Z" fill="#42210B"/>
<path d="M16.4432 6.28393H7.13562C6.86357 6.28393 6.60267 6.17586 6.4103 5.98349C6.21793 5.79113 6.10986 5.53022 6.10986 5.25818C6.10986 4.98613 6.21793 4.72522 6.4103 4.53286C6.60267 4.34049 6.86357 4.23242 7.13562 4.23242H16.4432C16.7153 4.23242 16.9762 4.34049 17.1686 4.53286C17.3609 4.72522 17.469 4.98613 17.469 5.25818C17.469 5.53022 17.3609 5.79113 17.1686 5.98349C16.9762 6.17586 16.7153 6.28393 16.4432 6.28393Z" fill="#42210B"/>
<path d="M5.44983 24.5288C5.17778 24.5288 4.91688 24.4208 4.72451 24.2284C4.53214 24.036 4.42407 23.7751 4.42407 23.5031V9.84717C4.42407 9.57512 4.53214 9.31421 4.72451 9.12185C4.91688 8.92948 5.17778 8.82141 5.44983 8.82141C5.72187 8.82141 5.98278 8.92948 6.17515 9.12185C6.36751 9.31421 6.47558 9.57512 6.47558 9.84717V23.5165C6.47206 23.7862 6.36244 24.0437 6.17046 24.2331C5.97847 24.4226 5.71957 24.5289 5.44983 24.5288Z" fill="white"/>
<path d="M13.5623 38.9742C12.6842 38.9695 11.8437 38.6174 11.2244 37.9948C10.6052 37.3722 10.2576 36.5298 10.2576 35.6517V12.9691C10.2587 12.0894 10.6087 11.2462 11.2307 10.6242C11.8527 10.0021 12.696 9.65218 13.5757 9.651H24.0294C24.1636 9.65092 24.2965 9.67726 24.4204 9.72853C24.5444 9.7798 24.657 9.85499 24.7519 9.94981L31.2722 16.4656C31.4631 16.6594 31.5704 16.9204 31.571 17.1925V35.6517C31.5698 36.5325 31.2194 37.3769 30.5965 37.9998C29.9737 38.6226 29.1293 38.973 28.2484 38.9742H13.5623Z" fill="#F8A861"/>
<path d="M24.0294 10.6768L30.5452 17.1925V35.6517C30.5452 35.9533 30.4858 36.252 30.3703 36.5306C30.2549 36.8093 30.0857 37.0625 29.8725 37.2758C29.6592 37.489 29.406 37.6582 29.1273 37.7736C28.8487 37.8891 28.55 37.9485 28.2484 37.9485H13.5622C12.9539 37.9473 12.3708 37.7048 11.941 37.2742C11.5113 36.8436 11.2699 36.2601 11.2699 35.6517V12.9691C11.2699 12.3611 11.5114 11.7781 11.9413 11.3482C12.3712 10.9183 12.9543 10.6768 13.5622 10.6768H24.0294ZM24.0294 8.62525H13.5622C12.4105 8.62643 11.3063 9.08446 10.492 9.89884C9.6776 10.7132 9.21956 11.8174 9.21838 12.9691V35.6517C9.21838 36.8041 9.6759 37.9095 10.4904 38.7248C11.3049 39.5402 12.4098 39.9988 13.5622 40H28.2484C29.4013 39.9988 30.5066 39.5403 31.3218 38.7251C32.137 37.9099 32.5955 36.8046 32.5967 35.6517V17.1925C32.5972 16.9235 32.5447 16.657 32.4421 16.4083C32.3396 16.1596 32.189 15.9336 31.9991 15.7431L25.4788 9.22286C25.2884 9.0329 25.0623 8.88234 24.8136 8.77979C24.5649 8.67725 24.2984 8.62473 24.0294 8.62525Z" fill="#42210B"/>
<path d="M24.8143 11.4617L29.6131 16.2604H27.0933C26.7942 16.261 26.498 16.2026 26.2215 16.0886C25.9451 15.9745 25.6938 15.8071 25.4821 15.5958C25.2704 15.3846 25.1025 15.1336 24.9879 14.8574C24.8733 14.5811 24.8143 14.285 24.8143 13.9859V11.4617ZM24.8143 9.41017C24.5449 9.40934 24.278 9.46241 24.0294 9.56626C23.6512 9.71875 23.327 9.98051 23.0982 10.3181C22.8694 10.6557 22.7464 11.0539 22.745 11.4617V13.9859C22.7474 15.1333 23.2045 16.2329 24.0162 17.0438C24.828 17.8547 25.9281 18.3108 27.0755 18.3119H29.6131C30.0189 18.3123 30.4157 18.1924 30.7533 17.9673C31.0909 17.7422 31.3542 17.422 31.5098 17.0472C31.6654 16.6725 31.7064 16.26 31.6276 15.862C31.5488 15.4639 31.3537 15.0982 31.067 14.811L26.2682 10.0122C26.0773 9.82133 25.8506 9.6699 25.6012 9.5666C25.3517 9.46329 25.0843 9.41014 24.8143 9.41017Z" fill="#42210B"/>
<path d="M26.1479 21.6525H15.6674C15.3953 21.6525 15.1344 21.5444 14.942 21.352C14.7497 21.1597 14.6416 20.8988 14.6416 20.6267C14.6416 20.3547 14.7497 20.0938 14.942 19.9014C15.1344 19.709 15.3953 19.601 15.6674 19.601H26.1479C26.4199 19.601 26.6808 19.709 26.8732 19.9014C27.0656 20.0938 27.1737 20.3547 27.1737 20.6267C27.1737 20.8988 27.0656 21.1597 26.8732 21.352C26.6808 21.5444 26.4199 21.6525 26.1479 21.6525Z" fill="#42210B"/>
<path d="M26.1479 25.5189H15.6674C15.3953 25.5189 15.1344 25.4108 14.942 25.2185C14.7497 25.0261 14.6416 24.7652 14.6416 24.4932C14.6416 24.2211 14.7497 23.9602 14.942 23.7678C15.1344 23.5755 15.3953 23.4674 15.6674 23.4674H26.1479C26.4199 23.4674 26.6808 23.5755 26.8732 23.7678C27.0656 23.9602 27.1737 24.2211 27.1737 24.4932C27.1737 24.7652 27.0656 25.0261 26.8732 25.2185C26.6808 25.4108 26.4199 25.5189 26.1479 25.5189Z" fill="#42210B"/>
<path d="M26.1479 29.3856H15.6674C15.3953 29.3856 15.1344 29.2775 14.942 29.0852C14.7497 28.8928 14.6416 28.6319 14.6416 28.3599C14.6416 28.0878 14.7497 27.8269 14.942 27.6345C15.1344 27.4422 15.3953 27.3341 15.6674 27.3341H26.1479C26.4199 27.3341 26.6808 27.4422 26.8732 27.6345C27.0656 27.8269 27.1737 28.0878 27.1737 28.3599C27.1737 28.6319 27.0656 28.8928 26.8732 29.0852C26.6808 29.2775 26.4199 29.3856 26.1479 29.3856Z" fill="#42210B"/>
<path d="M26.1479 33.248H15.6674C15.3953 33.248 15.1344 33.14 14.942 32.9476C14.7497 32.7552 14.6416 32.4943 14.6416 32.2223C14.6416 31.9502 14.7497 31.6893 14.942 31.497C15.1344 31.3046 15.3953 31.1965 15.6674 31.1965H26.1479C26.4199 31.1965 26.6808 31.3046 26.8732 31.497C27.0656 31.6893 27.1737 31.9502 27.1737 32.2223C27.1737 32.4943 27.0656 32.7552 26.8732 32.9476C26.6808 33.14 26.4199 33.248 26.1479 33.248Z" fill="#42210B"/>
<path d="M19.8372 14.3739H15.6985C15.4264 14.3739 15.1655 14.2658 14.9732 14.0735C14.7808 13.8811 14.6727 13.6202 14.6727 13.3481C14.6727 13.0761 14.7808 12.8152 14.9732 12.6228C15.1655 12.4305 15.4264 12.3224 15.6985 12.3224H19.8372C20.1092 12.3224 20.3701 12.4305 20.5625 12.6228C20.7549 12.8152 20.8629 13.0761 20.8629 13.3481C20.8629 13.6202 20.7549 13.8811 20.5625 14.0735C20.3701 14.2658 20.1092 14.3739 19.8372 14.3739Z" fill="white"/>
</g>
<defs>
<filter id="filter0_d" x="0" y="0" width="34.5967" height="44" filterUnits="userSpaceOnUse" color-interpolation-filters="sRGB">
<feFlood flood-opacity="0" result="BackgroundImageFix"/>
<feColorMatrix in="SourceAlpha" type="matrix" values="0 0 0 0 0 0 0 0 0 0 0 0 0 0 0 0 0 0 127 0"/>
<feOffset dx="2" dy="4"/>
<feColorMatrix type="matrix" values="0 0 0 0 0 0 0 0 0 0 0 0 0 0 0 0 0 0 0.1 0"/>
<feBlend mode="normal" in2="BackgroundImageFix" result="effect1_dropShadow"/>
<feBlend mode="normal" in="SourceGraphic" in2="effect1_dropShadow" result="shape"/>
</filter>
</defs>
</svg>
