<svg width="42" height="44" viewBox="0 0 42 44" fill="none" xmlns="http://www.w3.org/2000/svg">
<g filter="url(#filter0_d)">
<path d="M17.9823 38.8358C17.4079 38.8344 16.8575 38.6055 16.4513 38.1994C16.0452 37.7932 15.8164 37.2428 15.8149 36.6684V33.3037C15.0221 33.0597 14.2538 32.7424 13.52 32.3558L11.1419 34.7338C10.7347 35.139 10.1837 35.3665 9.60923 35.3665C9.03479 35.3665 8.48372 35.139 8.07653 34.7338L5.23839 31.8957C4.83321 31.4885 4.60574 30.9374 4.60574 30.363C4.60574 29.7885 4.83321 29.2375 5.23839 28.8303L7.61644 26.4522C7.22558 25.7183 6.90272 24.9501 6.65192 24.1573H3.32597C2.75114 24.1573 2.19986 23.929 1.79339 23.5225C1.38692 23.1161 1.15857 22.5648 1.15857 21.9899V17.9822C1.15857 17.4073 1.38692 16.8561 1.79339 16.4496C2.19986 16.0431 2.75114 15.8148 3.32597 15.8148H6.65192C6.90158 15.0232 7.22063 14.2553 7.60535 13.5199L5.23839 11.1418C4.83321 10.7346 4.60574 10.1836 4.60574 9.60911C4.60574 9.03467 4.83321 8.4836 5.23839 8.07641L8.07653 5.23827C8.2778 5.03697 8.51674 4.87729 8.77973 4.76835C9.04271 4.65941 9.32458 4.60333 9.60923 4.60333C9.89389 4.60333 10.1758 4.65941 10.4387 4.76835C10.7017 4.87729 10.9407 5.03697 11.1419 5.23827L13.52 7.61077C14.2541 7.2217 15.0222 6.9007 15.8149 6.65179V3.32585C15.8149 2.75102 16.0432 2.19973 16.4497 1.79327C16.8562 1.3868 17.4075 1.15845 17.9823 1.15845H21.9901C22.5649 1.15845 23.1162 1.3868 23.5226 1.79327C23.9291 2.19973 24.1575 2.75102 24.1575 3.32585V6.65179C24.9499 6.89673 25.7181 7.21403 26.4524 7.59969L28.8249 5.23827C29.0261 5.03697 29.2651 4.87729 29.5281 4.76835C29.791 4.65941 30.0729 4.60333 30.3576 4.60333C30.6422 4.60333 30.9241 4.65941 31.1871 4.76835C31.4501 4.87729 31.689 5.03697 31.8903 5.23827L34.7284 8.07086C35.1336 8.47806 35.3611 9.02913 35.3611 9.60357C35.3611 10.178 35.1336 10.7291 34.7284 11.1363L32.3504 13.5143C32.7347 14.2492 33.0519 15.0173 33.2983 15.8092H36.663C37.2374 15.8107 37.7878 16.0395 38.194 16.4457C38.6001 16.8518 38.8289 17.4022 38.8304 17.9766V21.9844C38.8289 22.5588 38.6001 23.1092 38.194 23.5154C37.7878 23.9215 37.2374 24.1503 36.663 24.1518H33.3038C33.0585 24.9441 32.7412 25.7122 32.3559 26.4467L34.734 28.8247C35.1391 29.2319 35.3666 29.783 35.3666 30.3574C35.3666 30.9319 35.1391 31.483 34.734 31.8902L31.8958 34.7283C31.4886 35.1335 30.9376 35.3609 30.3631 35.3609C29.7887 35.3609 29.2376 35.1335 28.8304 34.7283L26.4524 32.3502C25.7181 32.7359 24.9499 33.0532 24.1575 33.2981V36.6629C24.156 37.2373 23.9272 37.7877 23.521 38.1939C23.1149 38.6 22.5644 38.8288 21.9901 38.8303L17.9823 38.8358ZM19.9834 15.0443C19.0062 15.0475 18.0518 15.3403 17.2409 15.8856C16.43 16.4309 15.7988 17.2043 15.4271 18.1081C15.0554 19.0119 14.9598 20.0056 15.1525 20.9636C15.3452 21.9217 15.8174 22.8011 16.5096 23.491C17.2017 24.1808 18.0828 24.6501 19.0415 24.8396C20.0002 25.029 20.9935 24.9301 21.8961 24.5554C22.7986 24.1807 23.5698 23.5469 24.1124 22.7341C24.655 21.9214 24.9446 20.9661 24.9446 19.9888C24.9439 19.3383 24.8149 18.6943 24.5651 18.0936C24.3154 17.493 23.9496 16.9474 23.4889 16.4882C23.0281 16.029 22.4813 15.6651 21.8799 15.4173C21.2784 15.1696 20.6339 15.0428 19.9834 15.0443Z" fill="#F8C199"/>
<path d="M21.99 2.27273C22.1273 2.2727 22.2632 2.30008 22.3898 2.35328C22.5163 2.40647 22.631 2.48441 22.727 2.58251C22.8231 2.68061 22.8985 2.7969 22.949 2.92457C22.9995 3.05223 23.024 3.18869 23.0211 3.32594V7.03437C23.0219 7.18213 23.0712 7.32554 23.1613 7.44266C23.2514 7.55978 23.3774 7.64417 23.52 7.68293C24.4515 7.94984 25.3498 8.32177 26.1973 8.79157C26.3024 8.85001 26.4208 8.88054 26.541 8.88027C26.6281 8.88151 26.7146 8.8655 26.7955 8.83315C26.8763 8.80081 26.95 8.75276 27.0122 8.6918L29.6341 6.0643C29.8293 5.87229 30.0921 5.76477 30.3659 5.76497C30.6379 5.76503 30.8989 5.87262 31.092 6.0643L33.9302 8.86918C34.1221 9.06324 34.2297 9.32517 34.2297 9.59811C34.2297 9.87106 34.1221 10.133 33.9302 10.327L31.3082 12.949C31.204 13.0509 31.1362 13.1842 31.1152 13.3285C31.0942 13.4727 31.1211 13.6198 31.1918 13.7472C31.6637 14.5996 32.0357 15.5036 32.3004 16.4412C32.3392 16.5838 32.4236 16.7098 32.5407 16.7999C32.6578 16.89 32.8012 16.9392 32.949 16.9401H36.6574C36.7942 16.9394 36.9298 16.9659 37.0563 17.0181C37.1827 17.0702 37.2976 17.1471 37.394 17.244C37.4905 17.341 37.5667 17.4563 37.6182 17.583C37.6697 17.7097 37.6955 17.8455 37.694 17.9823V21.99C37.694 22.2635 37.5854 22.5257 37.392 22.7191C37.1987 22.9124 36.9364 23.0211 36.663 23.0211H32.9601C32.8123 23.0219 32.6689 23.0712 32.5518 23.1613C32.4347 23.2514 32.3503 23.3774 32.3115 23.52C32.0446 24.4515 31.6727 25.3498 31.2029 26.1973C31.1285 26.3259 31.0986 26.4753 31.1176 26.6226C31.1366 26.7699 31.2036 26.9068 31.3082 27.0122L33.9302 29.6341C34.1221 29.8282 34.2297 30.0901 34.2297 30.3631C34.2297 30.636 34.1221 30.898 33.9302 31.092L31.092 33.9302C30.8989 34.1218 30.6379 34.2294 30.3659 34.2295C30.0921 34.2297 29.8293 34.1222 29.6341 33.9302L27.0122 31.3027C26.9503 31.2409 26.8768 31.192 26.7959 31.1587C26.7151 31.1255 26.6285 31.1084 26.541 31.1086C26.4258 31.107 26.3125 31.1377 26.214 31.1973C25.3601 31.6661 24.4565 32.038 23.52 32.306C23.3774 32.3447 23.2514 32.4291 23.1613 32.5463C23.0712 32.6634 23.0219 32.8068 23.0211 32.9545V36.663C23.0211 36.9364 22.9124 37.1987 22.7191 37.392C22.5257 37.5854 22.2635 37.694 21.99 37.694H17.9823C17.7088 37.694 17.4466 37.5854 17.2532 37.392C17.0598 37.1987 16.9512 36.9364 16.9512 36.663V32.9601C16.9503 32.8123 16.9011 32.6689 16.811 32.5518C16.7209 32.4347 16.5949 32.3503 16.4523 32.3115C15.5207 32.0446 14.6225 31.6727 13.7749 31.2029C13.6698 31.1444 13.5515 31.1139 13.4313 31.1142C13.3442 31.1129 13.2577 31.129 13.1768 31.1613C13.096 31.1936 13.0223 31.2417 12.9601 31.3027L10.3381 33.9302C10.143 34.1222 9.88018 34.2297 9.60643 34.2295C9.46984 34.2309 9.33433 34.2052 9.20776 34.1538C9.0812 34.1024 8.96611 34.0264 8.86918 33.9302L6.04213 31.092C5.85019 30.898 5.74254 30.636 5.74254 30.3631C5.74254 30.0901 5.85019 29.8282 6.04213 29.6341L8.66962 27.0122C8.77284 26.9094 8.83914 26.7754 8.85819 26.631C8.87724 26.4866 8.84797 26.34 8.77494 26.214C8.30616 25.3601 7.93431 24.4565 7.6663 23.52C7.62672 23.3778 7.54212 23.2524 7.42517 23.1624C7.30823 23.0724 7.16527 23.0229 7.01774 23.0211H3.32594C3.18869 23.024 3.05223 22.9995 2.92457 22.949C2.7969 22.8985 2.68061 22.8231 2.58251 22.727C2.48441 22.631 2.40647 22.5163 2.35328 22.3898C2.30008 22.2632 2.2727 22.1273 2.27273 21.99V17.9823C2.2727 17.845 2.30008 17.7091 2.35328 17.5825C2.40647 17.4559 2.48441 17.3413 2.58251 17.2453C2.68061 17.1492 2.7969 17.0737 2.92457 17.0232C3.05223 16.9728 3.18869 16.9483 3.32594 16.9512H7.03437C7.18213 16.9503 7.32554 16.9011 7.44266 16.811C7.55978 16.7209 7.64417 16.5949 7.68293 16.4523C7.94984 15.5207 8.32177 14.6225 8.79157 13.7749C8.86482 13.6465 8.89467 13.4978 8.87669 13.351C8.85872 13.2042 8.79388 13.0671 8.6918 12.9601L6.04213 10.3381C5.85019 10.1441 5.74254 9.88215 5.74254 9.6092C5.74254 9.33626 5.85019 9.07433 6.04213 8.88027L8.86918 6.04213C9.06226 5.85045 9.32327 5.74285 9.59534 5.74279C9.86909 5.74259 10.1319 5.85012 10.327 6.04213L12.949 8.66962C13.0109 8.73134 13.0844 8.78024 13.1653 8.81353C13.2461 8.84682 13.3327 8.86385 13.4202 8.86364C13.5352 8.8644 13.6483 8.83373 13.7472 8.77494C14.6006 8.30519 15.5044 7.93329 16.4412 7.6663C16.5838 7.62754 16.7098 7.54315 16.7999 7.42603C16.89 7.30891 16.9392 7.1655 16.9401 7.01774V3.32594C16.9372 3.18775 16.962 3.05037 17.0132 2.92197C17.0643 2.79357 17.1408 2.67677 17.238 2.57852C17.3352 2.48026 17.4512 2.40256 17.5791 2.35003C17.7069 2.2975 17.844 2.27121 17.9823 2.27273H21.99ZM19.9834 26.0532C21.1894 26.0532 22.3683 25.6956 23.371 25.0256C24.3737 24.3556 25.1553 23.4033 25.6168 22.2891C26.0783 21.1749 26.199 19.9489 25.9638 18.7661C25.7285 17.5833 25.1478 16.4968 24.295 15.644C23.4422 14.7913 22.3558 14.2105 21.1729 13.9753C19.9901 13.74 18.7641 13.8607 17.6499 14.3222C16.5357 14.7838 15.5834 15.5653 14.9134 16.568C14.2434 17.5708 13.8858 18.7497 13.8858 19.9557C13.8858 21.5728 14.5282 23.1238 15.6717 24.2673C16.8153 25.4108 18.3662 26.0532 19.9834 26.0532ZM21.99 0H17.9823C17.1002 0 16.2542 0.350411 15.6305 0.974146C15.0067 1.59788 14.6563 2.44385 14.6563 3.32594V5.87583C14.3459 5.99778 14.0355 6.12528 13.7306 6.26386L11.9457 4.43459C11.3232 3.82017 10.4838 3.47567 9.6092 3.47567C8.73459 3.47567 7.89517 3.82017 7.27273 4.43459L4.43459 7.27273C3.82017 7.89517 3.47567 8.73459 3.47567 9.6092C3.47567 10.4838 3.82017 11.3232 4.43459 11.9457L6.24168 13.7472C6.1031 14.0521 5.97007 14.3625 5.85366 14.6785H3.32594C2.44385 14.6785 1.59788 15.0289 0.974146 15.6526C0.350411 16.2764 0 17.1223 0 18.0044L0 22.0122C0 22.8943 0.350411 23.7403 0.974146 24.364C1.59788 24.9877 2.44385 25.3381 3.32594 25.3381H5.87583C5.99039 25.6523 6.11789 25.9627 6.25831 26.2694L4.43459 28.0266C3.8185 28.6493 3.47293 29.4899 3.47293 30.3659C3.47293 31.2418 3.8185 32.0824 4.43459 32.7051L7.26718 35.5432C7.88963 36.1576 8.72904 36.5022 9.60366 36.5022C10.4783 36.5022 11.3177 36.1576 11.9401 35.5432L13.7417 33.7361C14.0466 33.8747 14.357 34.0078 14.6729 34.1242V36.6741C14.6729 37.5562 15.0234 38.4021 15.6471 39.0259C16.2708 39.6496 17.1168 40 17.9989 40H22.0067C22.8887 40 23.7347 39.6496 24.3584 39.0259C24.9822 38.4021 25.3326 37.5562 25.3326 36.6741V34.1242C25.6486 34.0022 25.959 33.8747 26.2639 33.7361L28.0654 35.5432C28.6881 36.1593 29.5287 36.5049 30.4047 36.5049C31.2806 36.5049 32.1212 36.1593 32.7439 35.5432L35.5377 32.7051C36.1521 32.0826 36.4966 31.2432 36.4966 30.3686C36.4966 29.494 36.1521 28.6546 35.5377 28.0321L33.7306 26.2306C33.8692 25.9257 33.9967 25.6153 34.1186 25.2993H36.6685C37.5506 25.2993 38.3966 24.9489 39.0203 24.3252C39.644 23.7015 39.9945 22.8555 39.9945 21.9734V17.9823C39.9945 17.1002 39.644 16.2542 39.0203 15.6305C38.3966 15.0067 37.5506 14.6563 36.6685 14.6563H34.1186C33.9967 14.3404 33.8692 14.0299 33.7306 13.7251L35.5377 11.9235C36.1521 11.3011 36.4966 10.4616 36.4966 9.58703C36.4966 8.71241 36.1521 7.873 35.5377 7.25055L32.7051 4.43459C32.0826 3.82017 31.2432 3.47567 30.3686 3.47567C29.494 3.47567 28.6546 3.82017 28.0321 4.43459L26.2306 6.23614C25.9257 6.09756 25.6153 5.96452 25.2993 5.84811V3.32594C25.2993 2.44385 24.9489 1.59788 24.3252 0.974146C23.7015 0.350411 22.8555 0 21.9734 0L21.99 0ZM19.9834 23.7916C19.2299 23.7916 18.4934 23.5681 17.8671 23.1494C17.2407 22.7307 16.7526 22.1356 16.4645 21.4394C16.1764 20.7432 16.1014 19.9773 16.2487 19.2384C16.3961 18.4995 16.7594 17.821 17.2925 17.2886C17.8257 16.7562 18.5047 16.394 19.2438 16.2477C19.9829 16.1013 20.7488 16.1776 21.4445 16.4666C22.1403 16.7557 22.7347 17.2447 23.1525 17.8717C23.5703 18.4987 23.7927 19.2355 23.7916 19.9889C23.7901 20.9979 23.3882 21.9652 22.6742 22.6781C21.9602 23.3911 20.9924 23.7916 19.9834 23.7916Z" fill="#42210B"/>
<path d="M20.0333 26.0532H19.9834C18.3662 26.0532 16.8153 25.4108 15.6718 24.2673C14.5283 23.1237 13.8858 21.5728 13.8858 19.9556C13.8858 18.3385 14.5283 16.7875 15.6718 15.644C16.8153 14.5005 18.3662 13.8581 19.9834 13.8581H20.0333V2.27271H17.9823C17.845 2.27267 17.7091 2.30006 17.5826 2.35325C17.456 2.40645 17.3413 2.48439 17.2453 2.58249C17.1493 2.68059 17.0738 2.79688 17.0233 2.92454C16.9728 3.05221 16.9483 3.18867 16.9513 3.32592V7.03435C16.9504 7.18211 16.9011 7.32551 16.811 7.44264C16.7209 7.55976 16.595 7.64415 16.4524 7.6829C15.5155 7.9499 14.6118 8.3218 13.7584 8.79155C13.6323 8.86458 13.4857 8.89385 13.3413 8.8748C13.1969 8.85575 13.0629 8.78944 12.9601 8.68623L10.3382 6.04211C10.1441 5.85017 9.88219 5.74252 9.60924 5.74252C9.3363 5.74252 9.07437 5.85017 8.88031 6.04211L6.04217 8.86916C5.85023 9.06322 5.74258 9.32515 5.74258 9.59809C5.74258 9.87104 5.85023 10.133 6.04217 10.327L8.66966 12.949C8.77174 13.056 8.83659 13.1931 8.85456 13.3399C8.87254 13.4867 8.84269 13.6354 8.76944 13.7638C8.29964 14.6114 7.92771 15.5096 7.66079 16.4412C7.62204 16.5838 7.53765 16.7098 7.42053 16.7999C7.3034 16.89 7.16 16.9392 7.01224 16.9401H3.32598C3.18779 16.9371 3.05041 16.962 2.92201 17.0131C2.79361 17.0643 2.67681 17.1408 2.57856 17.238C2.4803 17.3352 2.4026 17.4512 2.35007 17.5791C2.29754 17.7069 2.27125 17.844 2.27277 17.9822V21.99C2.27274 22.1273 2.30012 22.2632 2.35332 22.3897C2.40651 22.5163 2.48445 22.631 2.58255 22.727C2.68065 22.823 2.79694 22.8985 2.92461 22.949C3.05227 22.9995 3.18873 23.024 3.32598 23.021H7.03441C7.18194 23.0228 7.3249 23.0724 7.44184 23.1624C7.55879 23.2523 7.64339 23.3778 7.68297 23.5199C7.95098 24.4564 8.32283 25.3601 8.79161 26.2139C8.86464 26.34 8.89391 26.4866 8.87486 26.631C8.85581 26.7754 8.78951 26.9094 8.68629 27.0122L6.04217 29.6341C5.85023 29.8282 5.74258 30.0901 5.74258 30.3631C5.74258 30.636 5.85023 30.8979 6.04217 31.092L8.86922 33.9301C9.06328 34.1221 9.32521 34.2297 9.59816 34.2297C9.8711 34.2297 10.133 34.1221 10.3271 33.9301L12.949 31.3026C13.0561 31.2006 13.1931 31.1357 13.3399 31.1177C13.4867 31.0998 13.6354 31.1296 13.7639 31.2029C14.6115 31.6727 15.5097 32.0446 16.4413 32.3115C16.5839 32.3503 16.7098 32.4347 16.7999 32.5518C16.89 32.6689 16.9393 32.8123 16.9402 32.9601V36.6685C16.9409 36.8044 16.9685 36.9387 17.0213 37.0639C17.0741 37.1891 17.1512 37.3026 17.248 37.3979C17.3449 37.4932 17.4596 37.5684 17.5856 37.6192C17.7116 37.67 17.8464 37.6954 17.9823 37.694H20.0333V26.0532Z" fill="#F8A861"/>
<path d="M29.418 20.7759C29.0798 20.7759 28.7556 20.6416 28.5165 20.4025C28.2774 20.1634 28.143 19.8391 28.143 19.501C28.1401 17.5113 27.3484 15.6039 25.9415 14.197C24.5345 12.7901 22.6272 11.9984 20.6375 11.9954C20.2994 11.9954 19.9751 11.8611 19.736 11.622C19.4969 11.3829 19.3625 11.0586 19.3625 10.7205C19.3625 10.3824 19.4969 10.0581 19.736 9.81898C19.9751 9.57988 20.2994 9.44556 20.6375 9.44556C23.3035 9.44849 25.8594 10.5088 27.7445 12.394C29.6296 14.2791 30.69 16.835 30.6929 19.501C30.6929 19.8391 30.5586 20.1634 30.3195 20.4025C30.0804 20.6416 29.7561 20.7759 29.418 20.7759Z" fill="white"/>
</g>
<defs>
<filter id="filter0_d" x="0" y="0" width="41.9945" height="44" filterUnits="userSpaceOnUse" color-interpolation-filters="sRGB">
<feFlood flood-opacity="0" result="BackgroundImageFix"/>
<feColorMatrix in="SourceAlpha" type="matrix" values="0 0 0 0 0 0 0 0 0 0 0 0 0 0 0 0 0 0 127 0"/>
<feOffset dx="2" dy="4"/>
<feColorMatrix type="matrix" values="0 0 0 0 0 0 0 0 0 0 0 0 0 0 0 0 0 0 0.1 0"/>
<feBlend mode="normal" in2="BackgroundImageFix" result="effect1_dropShadow"/>
<feBlend mode="normal" in="SourceGraphic" in2="effect1_dropShadow" result="shape"/>
</filter>
</defs>
</svg>
