<svg width="43" height="44" viewBox="0 0 43 44" fill="none" xmlns="http://www.w3.org/2000/svg">
<g filter="url(#filter0_d)">
<path d="M23.1608 15.9456L26.4132 19.1869L28.6832 21.468L30.0097 22.789L38.2073 30.9921C39.0566 31.8414 39.5338 32.9934 39.5338 34.1945C39.5338 35.3957 39.0566 36.5476 38.2073 37.397C37.7867 37.8175 37.2875 38.1511 36.738 38.3787C36.1885 38.6063 35.5996 38.7235 35.0048 38.7235C33.8037 38.7235 32.6517 38.2463 31.8024 37.397L24.293 29.8599L16.7559 22.3505C15.9066 21.5012 15.4294 20.3492 15.4294 19.1481C15.4294 17.9469 15.9066 16.795 16.7559 15.9456C17.6053 15.0963 18.7572 14.6191 19.9584 14.6191C21.1595 14.6191 22.3115 15.0963 23.1608 15.9456Z" fill="#F8A861"/>
<path d="M35.0048 40C34.2423 40.0021 33.487 39.8526 32.7829 39.56C32.0787 39.2675 31.4398 38.8379 30.9033 38.2961L23.3884 30.759L15.8568 23.2552C14.8015 22.1604 14.2178 20.6953 14.2312 19.1748C14.2446 17.6542 14.8541 16.1996 15.9286 15.1237C17.0031 14.0477 18.4568 13.4363 19.9773 13.4208C21.4979 13.4054 22.9638 13.9871 24.0599 15.0409L27.1958 18.1879C27.2335 18.2164 27.2687 18.2479 27.3012 18.2822L30.8977 21.8787L30.981 21.9675L39.0842 30.0874C39.8939 30.9 40.445 31.9341 40.6679 33.0594C40.8909 34.1847 40.7759 35.3508 40.3373 36.4108C39.8987 37.4708 39.1562 38.3772 38.2033 39.0159C37.2504 39.6547 36.1298 39.9971 34.9826 40H35.0048ZM19.9806 15.8957C19.3379 15.8965 18.7099 16.0876 18.1758 16.4451C17.6416 16.8025 17.2254 17.3102 16.9796 17.904C16.7337 18.4978 16.6693 19.1511 16.7945 19.7814C16.9197 20.4118 17.2288 20.991 17.6828 21.4458L25.1922 28.9552L32.7071 36.4923C33.0065 36.8058 33.3657 37.0563 33.7633 37.229C34.161 37.4017 34.5891 37.4931 35.0227 37.498C35.4562 37.5028 35.8863 37.4209 36.2877 37.2571C36.6891 37.0933 37.0537 36.8509 37.3601 36.5442C37.6665 36.2374 37.9084 35.8725 38.0718 35.4709C38.2351 35.0693 38.3164 34.6391 38.3111 34.2056C38.3057 33.7721 38.2137 33.344 38.0406 32.9466C37.8674 32.5491 37.6165 32.1903 37.3026 31.8912L29.1161 23.6881C29.0874 23.6631 29.0614 23.6352 29.0384 23.6048L25.614 20.1804L25.5307 20.0916L22.2783 16.8503C21.6685 16.2411 20.8425 15.8979 19.9806 15.8957Z" fill="#42210B"/>
<path d="M30.9144 16.0954C30.9144 19.0263 30.0453 21.8914 28.417 24.3283C26.7887 26.7653 24.4743 28.6647 21.7665 29.7863C19.0587 30.9079 16.0791 31.2014 13.2045 30.6296C10.3299 30.0578 7.68944 28.6464 5.61698 26.574C3.54451 24.5015 2.13315 21.861 1.56136 18.9864C0.989568 16.1118 1.28303 13.1323 2.40464 10.4245C3.52625 7.71665 5.42563 5.40225 7.86258 3.77393C10.2995 2.1456 13.1646 1.27649 16.0955 1.27649C18.0418 1.27576 19.9691 1.65857 21.7673 2.40303C23.5656 3.14749 25.1995 4.23901 26.5757 5.61522C27.9519 6.99143 29.0434 8.62535 29.7879 10.4236C30.5324 12.2218 30.9152 14.1492 30.9144 16.0954Z" fill="#F8C199"/>
<path d="M16.0955 32.1909C12.9121 32.1909 9.80019 31.2469 7.1533 29.4783C4.50642 27.7097 2.44343 25.196 1.2252 22.2549C0.00697384 19.3139 -0.31177 16.0776 0.309277 12.9554C0.930323 9.83318 2.46327 6.96525 4.71425 4.71426C6.96524 2.46327 9.83318 0.930323 12.9554 0.309277C16.0776 -0.31177 19.3139 0.00697385 22.2549 1.2252C25.196 2.44343 27.7097 4.50642 29.4783 7.15331C31.2469 9.80019 32.1909 12.9121 32.1909 16.0955C32.1909 20.3642 30.4951 24.4582 27.4767 27.4767C24.4582 30.4951 20.3642 32.1909 16.0955 32.1909ZM16.0955 2.55308C13.417 2.55308 10.7987 3.34733 8.57171 4.83538C6.34468 6.32344 4.60892 8.43847 3.58393 10.913C2.55894 13.3876 2.29076 16.1105 2.81329 18.7374C3.33583 21.3644 4.62561 23.7774 6.51955 25.6714C8.41348 27.5653 10.8265 28.8551 13.4535 29.3776C16.0804 29.9002 18.8034 29.632 21.2779 28.607C23.7524 27.582 25.8675 25.8462 27.3555 23.6192C28.8436 21.3922 29.6378 18.7739 29.6378 16.0955C29.6334 12.5051 28.2052 9.06315 25.6665 6.52442C23.1278 3.98568 19.6858 2.55749 16.0955 2.55308Z" fill="#42210B"/>
<path d="M16.262 1.2821V30.9088C20.1907 30.9088 23.9585 29.3481 26.7366 26.5701C29.5146 23.7921 31.0753 20.0242 31.0753 16.0955C31.0753 12.1667 29.5146 8.39888 26.7366 5.62084C23.9585 2.84279 20.1907 1.2821 16.262 1.2821Z" fill="#F8A861"/>
<path d="M16.0955 32.1909C12.9121 32.1909 9.80019 31.2469 7.1533 29.4783C4.50642 27.7097 2.44343 25.196 1.2252 22.2549C0.00697384 19.3139 -0.31177 16.0776 0.309277 12.9554C0.930323 9.83318 2.46327 6.96525 4.71425 4.71426C6.96524 2.46327 9.83318 0.930323 12.9554 0.309277C16.0776 -0.31177 19.3139 0.00697385 22.2549 1.2252C25.196 2.44343 27.7097 4.50642 29.4783 7.15331C31.2469 9.80019 32.1909 12.9121 32.1909 16.0955C32.1909 20.3642 30.4951 24.4582 27.4767 27.4767C24.4582 30.4951 20.3642 32.1909 16.0955 32.1909ZM16.0955 2.55308C13.417 2.55308 10.7987 3.34733 8.57171 4.83538C6.34468 6.32344 4.60892 8.43847 3.58393 10.913C2.55894 13.3876 2.29076 16.1105 2.81329 18.7374C3.33583 21.3644 4.62561 23.7774 6.51955 25.6714C8.41348 27.5653 10.8265 28.8551 13.4535 29.3776C16.0804 29.9002 18.8034 29.632 21.2779 28.607C23.7524 27.582 25.8675 25.8462 27.3555 23.6192C28.8436 21.3922 29.6378 18.7739 29.6378 16.0955C29.6334 12.5051 28.2052 9.06315 25.6665 6.52442C23.1278 3.98568 19.6858 2.55749 16.0955 2.55308Z" fill="#42210B"/>
<path d="M25.8971 16.0955C25.8971 18.0341 25.3222 19.9291 24.2452 21.541C23.1682 23.1528 21.6374 24.4091 19.8464 25.151C18.0554 25.8929 16.0847 26.087 14.1833 25.7088C12.282 25.3306 10.5355 24.3971 9.16477 23.0263C7.79399 21.6555 6.86048 19.909 6.48228 18.0077C6.10409 16.1064 6.29819 14.1356 7.04005 12.3446C7.78191 10.5536 9.0382 9.02282 10.6501 7.94581C12.2619 6.8688 14.157 6.29395 16.0955 6.29395C17.3829 6.29322 18.6578 6.54624 19.8473 7.03856C21.0368 7.53088 22.1176 8.25283 23.0279 9.16313C23.9382 10.0734 24.6602 11.1542 25.1525 12.3438C25.6448 13.5333 25.8978 14.8082 25.8971 16.0955Z" fill="#F8C199"/>
<path d="M16.0954 27.1958C13.9 27.1958 11.7539 26.5447 9.92843 25.325C8.10299 24.1053 6.68024 22.3717 5.84008 20.3433C4.99993 18.315 4.7801 16.0831 5.20841 13.9299C5.63672 11.7766 6.69392 9.79874 8.24633 8.24633C9.79873 6.69392 11.7766 5.63672 13.9299 5.20841C16.0831 4.7801 18.315 4.99993 20.3433 5.84008C22.3717 6.68024 24.1053 8.103 25.325 9.92843C26.5447 11.7539 27.1957 13.9 27.1957 16.0954C27.1957 19.0394 26.0262 21.8628 23.9445 23.9445C21.8628 26.0263 19.0394 27.1958 16.0954 27.1958ZM16.0954 7.5926C14.4084 7.5926 12.7593 8.09315 11.3569 9.03088C9.95446 9.96861 8.8618 11.3014 8.21722 12.8604C7.57264 14.4194 7.40512 16.1347 7.73586 17.789C8.06661 19.4433 8.88074 20.9622 10.0752 22.1536C11.2697 23.345 12.7908 24.1551 14.4459 24.4816C16.1011 24.808 17.8159 24.636 19.3732 23.9874C20.9306 23.3387 22.2605 22.2426 23.1945 20.8377C24.1286 19.4329 24.6249 17.7825 24.6205 16.0954C24.6175 13.8354 23.7184 11.6687 22.1203 10.0706C20.5222 8.47245 18.3555 7.57333 16.0954 7.5704V7.5926Z" fill="#42210B"/>
<path d="M20.9019 17.3719C20.5634 17.3719 20.2387 17.2374 19.9993 16.9981C19.7599 16.7587 19.6254 16.434 19.6254 16.0954C19.6254 15.1592 19.2535 14.2614 18.5915 13.5994C17.9295 12.9374 17.0317 12.5655 16.0955 12.5655C15.754 12.5655 15.4265 12.4298 15.185 12.1884C14.9435 11.9469 14.8079 11.6194 14.8079 11.2779C14.8079 10.9364 14.9435 10.6089 15.185 10.3674C15.4265 10.1259 15.754 9.99023 16.0955 9.99023C16.8972 9.99023 17.6911 10.1481 18.4318 10.455C19.1726 10.7618 19.8456 11.2115 20.4125 11.7784C20.9794 12.3453 21.4291 13.0183 21.7359 13.7591C22.0428 14.4998 22.2007 15.2937 22.2007 16.0954C22.2007 16.2649 22.167 16.4328 22.1014 16.5891C22.0359 16.7454 21.9399 16.8872 21.819 17.006C21.6981 17.1248 21.5547 17.2184 21.3973 17.2812C21.2398 17.344 21.0714 17.3749 20.9019 17.3719Z" fill="white"/>
</g>
<defs>
<filter id="filter0_d" x="0" y="0" width="42.7788" height="44" filterUnits="userSpaceOnUse" color-interpolation-filters="sRGB">
<feFlood flood-opacity="0" result="BackgroundImageFix"/>
<feColorMatrix in="SourceAlpha" type="matrix" values="0 0 0 0 0 0 0 0 0 0 0 0 0 0 0 0 0 0 127 0"/>
<feOffset dx="2" dy="4"/>
<feColorMatrix type="matrix" values="0 0 0 0 0 0 0 0 0 0 0 0 0 0 0 0 0 0 0.1 0"/>
<feBlend mode="normal" in2="BackgroundImageFix" result="effect1_dropShadow"/>
<feBlend mode="normal" in="SourceGraphic" in2="effect1_dropShadow" result="shape"/>
</filter>
</defs>
</svg>
