<svg width="45" height="44" viewBox="0 0 45 44" fill="none" xmlns="http://www.w3.org/2000/svg">
<g filter="url(#filter0_d)">
<path d="M12.1441 21.2186C12.1368 23.5427 13.0385 25.7775 14.6567 27.4456C16.4909 29.3384 17.387 31.1684 17.387 33.0445V34.4892C17.387 36.4239 18.7689 38.1534 21.2061 38.1534L21.2354 12.2823C20.0477 12.2571 18.8669 12.4699 17.7627 12.9082C16.6585 13.3464 15.6532 14.0012 14.806 14.834C13.9587 15.6668 13.2868 16.6607 12.8296 17.7572C12.3725 18.8537 12.1394 20.0307 12.1441 21.2186Z" fill="#F8C199"/>
<path d="M30.0628 21.2188C30.0706 23.5429 29.1688 25.7779 27.5502 27.4458C25.7119 29.3386 24.8199 31.1686 24.8199 33.0446V34.4894C24.8199 36.424 23.4338 38.1535 21.0008 38.1535L20.938 12.2824C22.1285 12.2527 23.3129 12.4622 24.421 12.8984C25.5291 13.3346 26.5384 13.9887 27.3893 14.8219C28.2401 15.6552 28.9151 16.6506 29.3743 17.7494C29.8335 18.8482 30.0676 20.0279 30.0628 21.2188Z" fill="#F8A861"/>
<path d="M25.5821 18.0068C25.4554 18.0074 25.3299 17.983 25.2127 17.9348C25.0956 17.8867 24.9891 17.8158 24.8995 17.7262C24.3803 17.2042 23.763 16.7901 23.0831 16.5076C22.4033 16.2252 21.6742 16.08 20.938 16.0805C20.6826 16.0805 20.4376 15.979 20.257 15.7984C20.0763 15.6178 19.9749 15.3728 19.9749 15.1174C19.9749 14.8619 20.0763 14.6169 20.257 14.4363C20.4376 14.2557 20.6826 14.1542 20.938 14.1542C21.9284 14.1512 22.9095 14.3447 23.8245 14.7236C24.7396 15.1024 25.5704 15.659 26.2688 16.3611C26.4494 16.5424 26.5507 16.7878 26.5507 17.0437C26.5507 17.2995 26.4494 17.545 26.2688 17.7262C26.179 17.8167 26.0719 17.8881 25.954 17.9363C25.836 17.9845 25.7095 18.0085 25.5821 18.0068Z" fill="white"/>
<path d="M25.3979 31.3862H16.8887V33.3125H25.3979V31.3862Z" fill="#42210B"/>
<path d="M25.3979 34.3428H16.8887V36.2691H25.3979V34.3428Z" fill="#42210B"/>
<path d="M21.1139 40C19.6534 39.9978 18.2534 39.4163 17.221 38.3832C16.1887 37.35 15.6083 35.9496 15.6072 34.4891V33.0443C15.6072 31.6624 14.8785 30.247 13.3877 28.7102C11.9149 27.1917 10.9221 25.273 10.5331 23.1937C10.1442 21.1143 10.3765 18.9665 11.2009 17.0184C12.0253 15.0702 13.4053 13.4081 15.1687 12.2396C16.9321 11.071 19.0006 10.4479 21.116 10.4479C23.2314 10.4479 25.2999 11.071 27.0633 12.2396C28.8266 13.4081 30.2067 15.0702 31.0311 17.0184C31.8555 18.9665 32.0877 21.1143 31.6988 23.1937C31.3099 25.273 30.317 27.1917 28.8442 28.7102C27.3493 30.247 26.6248 31.6415 26.6248 33.0443V34.4891C26.6237 35.9503 26.0427 37.3514 25.0095 38.3846C23.9762 39.4179 22.5751 39.9989 21.1139 40ZM21.1139 12.3617C19.3743 12.3582 17.6724 12.8682 16.2215 13.8279C14.7706 14.7876 13.6353 16.1542 12.9578 17.7564C12.2803 19.3587 12.0909 21.1252 12.4132 22.8347C12.7355 24.5441 13.5552 26.1204 14.7696 27.3659C16.6289 29.2797 17.5335 31.1348 17.5335 33.0443V34.4891C17.517 34.9698 17.5975 35.449 17.7702 35.898C17.9428 36.347 18.204 36.7567 18.5383 37.1026C18.8726 37.4485 19.2731 37.7236 19.716 37.9115C20.1588 38.0993 20.6349 38.1962 21.116 38.1962C21.597 38.1962 22.0732 38.0993 22.516 37.9115C22.9588 37.7236 23.3593 37.4485 23.6936 37.1026C24.0279 36.7567 24.2892 36.347 24.4618 35.898C24.6344 35.449 24.7149 34.9698 24.6985 34.4891V33.0443C24.6985 31.139 25.603 29.2755 27.4623 27.3659C28.6713 26.1194 29.4862 24.5442 29.8051 22.8372C30.1241 21.1302 29.933 19.367 29.2557 17.768C28.5783 16.169 27.4449 14.805 25.9968 13.8465C24.5488 12.8879 22.8504 12.3773 21.1139 12.3785V12.3617Z" fill="#42210B"/>
<path d="M6.86352 36.3277C6.67294 36.3275 6.4867 36.2707 6.32839 36.1646C6.17008 36.0585 6.04681 35.9078 5.97418 35.7316C5.90155 35.5554 5.88282 35.3616 5.92037 35.1748C5.95792 34.9879 6.05006 34.8164 6.18512 34.6819L10.2094 30.6618C10.3923 30.4933 10.6332 30.402 10.8818 30.4071C11.1304 30.4121 11.3674 30.5131 11.5433 30.689C11.7191 30.8648 11.8201 31.1018 11.8252 31.3504C11.8302 31.599 11.7389 31.84 11.5704 32.0228L7.53772 36.0471C7.35753 36.224 7.11601 36.3245 6.86352 36.3277Z" fill="#42210B"/>
<path d="M6.65412 22.0771H0.963152C0.707708 22.0771 0.462727 21.9756 0.282101 21.795C0.101475 21.6143 0 21.3693 0 21.1139C0 20.8585 0.101475 20.6135 0.282101 20.4329C0.462727 20.2522 0.707708 20.1508 0.963152 20.1508H6.65412C6.90957 20.1508 7.15455 20.2522 7.33517 20.4329C7.5158 20.6135 7.61728 20.8585 7.61728 21.1139C7.61728 21.3693 7.5158 21.6143 7.33517 21.795C7.15455 21.9756 6.90957 22.0771 6.65412 22.0771Z" fill="#42210B"/>
<path d="M10.8878 11.8508C10.7617 11.8513 10.6368 11.8268 10.5204 11.7786C10.4039 11.7305 10.2982 11.6596 10.2094 11.5702L6.18506 7.53754C6.03917 7.35233 5.96627 7.12003 5.9802 6.88466C5.99412 6.6493 6.0939 6.42721 6.26062 6.2605C6.42734 6.09378 6.64942 5.994 6.88479 5.98008C7.12015 5.96615 7.35245 6.03904 7.53766 6.18494L11.562 10.2092C11.6954 10.3437 11.7862 10.5144 11.823 10.7002C11.8599 10.8859 11.8412 11.0784 11.7692 11.2536C11.6973 11.4288 11.5753 11.5789 11.4185 11.6851C11.2617 11.7913 11.0771 11.8489 10.8878 11.8508Z" fill="#42210B"/>
<path d="M21.114 7.61728C20.9876 7.61728 20.8623 7.59236 20.7455 7.54396C20.6286 7.49556 20.5224 7.42461 20.433 7.33517C20.3435 7.24574 20.2726 7.13956 20.2242 7.02271C20.1758 6.90585 20.1509 6.78061 20.1509 6.65412V0.963152C20.1509 0.707708 20.2524 0.462727 20.433 0.282101C20.6136 0.101475 20.8586 0 21.114 0C21.3695 0 21.6145 0.101475 21.7951 0.282101C21.9757 0.462727 22.0772 0.707708 22.0772 0.963152V6.65412C22.0772 6.78061 22.0523 6.90585 22.0039 7.02271C21.9555 7.13956 21.8845 7.24574 21.7951 7.33517C21.7057 7.42461 21.5995 7.49556 21.4826 7.54396C21.3658 7.59236 21.2405 7.61728 21.114 7.61728Z" fill="#42210B"/>
<path d="M31.3401 11.851C31.15 11.8507 30.9642 11.7943 30.8062 11.6887C30.6481 11.5831 30.5249 11.4331 30.4519 11.2576C30.3789 11.0821 30.3595 10.8889 30.3961 10.7024C30.4327 10.5159 30.5236 10.3444 30.6575 10.2094L34.6818 6.18513C34.865 6.02397 35.1026 5.93837 35.3465 5.94562C35.5904 5.95286 35.8225 6.05241 35.9958 6.22415C36.1691 6.39589 36.2708 6.62702 36.2803 6.87085C36.2898 7.11468 36.2064 7.35302 36.047 7.53773L32.0227 11.562C31.9338 11.6531 31.8276 11.7255 31.7104 11.7751C31.5932 11.8247 31.4673 11.8505 31.3401 11.851Z" fill="#42210B"/>
<path d="M41.2648 22.0771H35.5947C35.3393 22.0771 35.0943 21.9756 34.9137 21.795C34.7331 21.6143 34.6316 21.3693 34.6316 21.1139C34.6316 20.8585 34.7331 20.6135 34.9137 20.4329C35.0943 20.2522 35.3393 20.1508 35.5947 20.1508H41.2648C41.5202 20.1508 41.7652 20.2522 41.9458 20.4329C42.1265 20.6135 42.2279 20.8585 42.2279 21.1139C42.2279 21.3693 42.1265 21.6143 41.9458 21.795C41.7652 21.9756 41.5202 22.0771 41.2648 22.0771Z" fill="#42210B"/>
<path d="M35.3644 36.3276C35.109 36.3266 34.864 36.2259 34.6818 36.047L30.6575 32.0227C30.477 31.8417 30.3758 31.5964 30.3762 31.3408C30.3766 31.0851 30.4785 30.8401 30.6596 30.6597C30.8406 30.4792 31.0859 30.378 31.3415 30.3784C31.5972 30.3788 31.8422 30.4807 32.0226 30.6618L36.0469 34.6819C36.1823 34.8166 36.2745 34.9885 36.3119 35.1757C36.3493 35.363 36.3302 35.5571 36.2571 35.7335C36.1839 35.9098 36.06 36.0605 35.9011 36.1663C35.7421 36.2721 35.5553 36.3282 35.3644 36.3276Z" fill="#42210B"/>
</g>
<defs>
<filter id="filter0_d" x="0" y="0" width="44.2279" height="44" filterUnits="userSpaceOnUse" color-interpolation-filters="sRGB">
<feFlood flood-opacity="0" result="BackgroundImageFix"/>
<feColorMatrix in="SourceAlpha" type="matrix" values="0 0 0 0 0 0 0 0 0 0 0 0 0 0 0 0 0 0 127 0"/>
<feOffset dx="2" dy="4"/>
<feColorMatrix type="matrix" values="0 0 0 0 0 0 0 0 0 0 0 0 0 0 0 0 0 0 0.1 0"/>
<feBlend mode="normal" in2="BackgroundImageFix" result="effect1_dropShadow"/>
<feBlend mode="normal" in="SourceGraphic" in2="effect1_dropShadow" result="shape"/>
</filter>
</defs>
</svg>
