<svg width="40" height="44" viewBox="0 0 40 44" fill="none" xmlns="http://www.w3.org/2000/svg">
<g filter="url(#filter0_d)">
<path d="M31.879 10.6124H28.0944V5.52861C28.0928 4.4451 27.6617 3.40641 26.8955 2.64025C26.1293 1.87409 25.0907 1.44298 24.0072 1.44141H13.4065C12.3225 1.44141 11.2829 1.87202 10.5164 2.63852C9.74995 3.40502 9.31933 4.44461 9.31933 5.52861V10.6124H5.52873C4.44474 10.6124 3.40515 11.043 2.63865 11.8095C1.87215 12.576 1.44153 13.6156 1.44153 14.6996V25.3002C1.44075 25.8372 1.54594 26.369 1.75106 26.8653C1.95619 27.3615 2.25722 27.8124 2.6369 28.1921C3.01659 28.5717 3.46747 28.8728 3.96371 29.0779C4.45994 29.283 4.99178 29.3882 5.52873 29.3874H9.31933V34.4712C9.31855 35.0082 9.42374 35.54 9.62886 36.0362C9.83398 36.5325 10.135 36.9834 10.5147 37.363C10.8944 37.7427 11.3453 38.0438 11.8415 38.2489C12.3377 38.454 12.8696 38.5592 13.4065 38.5584H24.0072C25.0911 38.5584 26.1307 38.1278 26.8972 37.3613C27.6637 36.5948 28.0944 35.5552 28.0944 34.4712V29.3874H31.879C32.416 29.3882 32.9478 29.283 33.444 29.0779C33.9403 28.8728 34.3912 28.5717 34.7709 28.1921C35.1505 27.8124 35.4516 27.3615 35.6567 26.8653C35.8618 26.369 35.967 25.8372 35.9662 25.3002V14.6996C35.9662 13.6156 35.5356 12.576 34.7691 11.8095C34.0026 11.043 32.963 10.6124 31.879 10.6124Z" fill="#F8C199"/>
<path d="M35.0883 11.6327H9.17105C4.90589 11.6327 1.45935 12.8191 1.45935 14.225V26.1485C1.45935 27.5781 4.92368 28.7408 9.17105 28.7408H35.0883V11.6327Z" fill="#F8A861"/>
<path d="M25.3893 12.2794H18.7039C18.5247 12.2794 18.3473 12.2441 18.1817 12.1756C18.0162 12.107 17.8658 12.0065 17.7391 11.8798C17.6124 11.7531 17.5119 11.6027 17.4433 11.4372C17.3748 11.2716 17.3395 11.0942 17.3395 10.915C17.3395 10.7359 17.3748 10.5584 17.4433 10.3929C17.5119 10.2274 17.6124 10.077 17.7391 9.95028C17.8658 9.82358 18.0162 9.72308 18.1817 9.65452C18.3473 9.58595 18.5247 9.55066 18.7039 9.55066H25.3893C25.7512 9.55066 26.0982 9.69441 26.3541 9.95028C26.6099 10.2061 26.7537 10.5532 26.7537 10.915C26.7537 11.2769 26.6099 11.6239 26.3541 11.8798C26.0982 12.1357 25.7512 12.2794 25.3893 12.2794Z" fill="white"/>
<path d="M24.0071 40H13.4065C11.9407 39.9984 10.5354 39.4154 9.49886 38.3789C8.46237 37.3425 7.87938 35.9371 7.87781 34.4713V30.8468H5.50498C4.04019 30.839 2.63825 30.2508 1.60638 29.2111C0.574502 28.1714 -0.00314811 26.7651 1.29052e-05 25.3003V14.6997C0.00158315 13.2339 0.584573 11.8285 1.62107 10.792C2.65756 9.75555 4.06289 9.17256 5.52871 9.17099H7.90154V5.5287C7.90309 4.06697 8.48282 2.66522 9.51419 1.6294C10.5456 0.593586 11.9448 0.00783264 13.4065 0L24.0071 0C25.473 0.00157024 26.8783 0.584561 27.9148 1.62105C28.9513 2.65754 29.5343 4.06288 29.5358 5.5287V9.17099H31.9087C33.3745 9.17256 34.7798 9.75555 35.8163 10.792C36.8528 11.8285 37.4358 13.2339 37.4374 14.6997V25.3003C37.4389 26.0301 37.2961 26.753 37.0172 27.4275C36.7383 28.1019 36.3287 28.7145 35.8121 29.23C35.2955 29.7455 34.6821 30.1537 34.007 30.4312C33.332 30.7087 32.6088 30.8499 31.879 30.8468H29.5062V34.4891C29.5 35.9467 28.919 37.343 27.8894 38.3748C26.8598 39.4066 25.4647 39.9906 24.0071 40ZM5.52871 12.054C4.82702 12.054 4.15408 12.3327 3.65791 12.8289C3.16175 13.3251 2.883 13.998 2.883 14.6997V25.3003C2.883 26.002 3.16175 26.6749 3.65791 27.1711C4.15408 27.6673 4.82702 27.946 5.52871 27.946H10.7608V34.4713C10.7608 35.173 11.0395 35.8459 11.5357 36.3421C12.0319 36.8383 12.7048 37.117 13.4065 37.117H24.0071C24.7088 37.117 25.3818 36.8383 25.8779 36.3421C26.3741 35.8459 26.6528 35.173 26.6528 34.4713V27.946H31.879C32.5807 27.946 33.2536 27.6673 33.7498 27.1711C34.246 26.6749 34.5247 26.002 34.5247 25.3003V14.6997C34.5247 13.998 34.246 13.3251 33.7498 12.8289C33.2536 12.3327 32.5807 12.054 31.879 12.054H26.6528V5.5287C26.6528 4.82701 26.3741 4.15407 25.8779 3.6579C25.3818 3.16173 24.7088 2.88299 24.0071 2.88299H13.4065C12.7048 2.88299 12.0319 3.16173 11.5357 3.6579C11.0395 4.15407 10.7608 4.82701 10.7608 5.5287V12.054H5.52871Z" fill="#42210B"/>
</g>
<defs>
<filter id="filter0_d" x="0" y="0" width="39.4374" height="44" filterUnits="userSpaceOnUse" color-interpolation-filters="sRGB">
<feFlood flood-opacity="0" result="BackgroundImageFix"/>
<feColorMatrix in="SourceAlpha" type="matrix" values="0 0 0 0 0 0 0 0 0 0 0 0 0 0 0 0 0 0 127 0"/>
<feOffset dx="2" dy="4"/>
<feColorMatrix type="matrix" values="0 0 0 0 0 0 0 0 0 0 0 0 0 0 0 0 0 0 0.1 0"/>
<feBlend mode="normal" in2="BackgroundImageFix" result="effect1_dropShadow"/>
<feBlend mode="normal" in="SourceGraphic" in2="effect1_dropShadow" result="shape"/>
</filter>
</defs>
</svg>
