<svg width="33" height="44" viewBox="0 0 33 44" fill="none" xmlns="http://www.w3.org/2000/svg">
<g filter="url(#filter0_d)">
<path d="M15.1318 2.55042C17.2622 2.55115 19.3576 3.09243 21.2218 4.12358C23.086 5.15473 24.6581 6.64203 25.791 8.44627C26.9238 10.2505 27.5804 12.3127 27.6991 14.4398C27.8179 16.5669 27.395 18.6893 26.47 20.6084C25.9988 21.5842 19.2624 32.2904 16.4902 36.7647C16.3597 36.9731 16.1781 37.1446 15.9627 37.263C15.7473 37.3814 15.5051 37.4427 15.2593 37.4411C15.0108 37.4418 14.7661 37.3796 14.548 37.2604C14.3299 37.1412 14.1455 36.9688 14.0118 36.7592C11.09 32.2793 4.2482 21.5454 3.77138 20.553C2.85663 18.6345 2.44261 16.5157 2.56793 14.394C2.69326 12.2723 3.35385 10.2169 4.4881 8.41952C5.62235 6.6221 7.19331 5.1412 9.05448 4.11492C10.9157 3.08864 13.0064 2.55041 15.1318 2.55042ZM15.1318 4.10491e-06C12.5764 0.00167207 10.0629 0.650064 7.82559 1.88479C5.58825 3.11951 3.6998 4.90039 2.33613 7.06156C0.972467 9.22272 0.177951 11.6939 0.026588 14.2448C-0.124775 16.7958 0.37194 19.3435 1.47047 21.6508C1.61462 21.9613 2.06372 22.8927 11.844 38.1397C12.2071 38.7099 12.7082 39.1792 13.3008 39.5044C13.8934 39.8295 14.5584 40 15.2344 40C15.9103 40 16.5754 39.8295 17.168 39.5044C17.7606 39.1792 18.2616 38.7099 18.6248 38.1397C28.1943 22.9204 28.6046 22.0611 28.7654 21.7339C29.8834 19.4256 30.3965 16.871 30.2565 14.31C30.1165 11.749 29.3281 9.26557 27.9651 7.09284C26.6022 4.92011 24.7095 3.12936 22.4647 1.88869C20.2199 0.648012 17.6966 -0.0018846 15.1318 4.10491e-06Z" fill="#42210B"/>
<path d="M15.2199 37.441C14.9742 37.4388 14.7329 37.3753 14.5179 37.2562C14.303 37.1371 14.1212 36.9662 13.9891 36.759C11.0894 32.2792 4.24761 21.5452 3.7708 20.5528C2.85241 18.6279 2.43846 16.5012 2.56786 14.3724C2.69725 12.2435 3.36574 10.1826 4.51051 8.38309C5.65527 6.58362 7.23873 5.10472 9.1121 4.08537C10.9855 3.06601 13.0872 2.53966 15.2199 2.55578V37.441Z" fill="#F8A861"/>
<path d="M14.9706 37.4409C15.2163 37.4388 15.4576 37.3753 15.6726 37.2562C15.8875 37.1371 16.0693 36.9662 16.2014 36.7589C19.0734 32.2791 25.9429 21.5452 26.4197 20.5527C27.3365 18.6277 27.7492 16.5013 27.6191 14.3731C27.489 12.2449 26.8203 10.1847 25.6759 8.38566C24.5314 6.58666 22.9486 5.1079 21.0761 4.08816C19.2036 3.06841 17.1027 2.5411 14.9706 2.55572V37.4409Z" fill="#F8C199"/>
<path d="M20.7643 13.8611C20.7632 15.0498 20.4097 16.2115 19.7484 17.1992C19.0871 18.1869 18.1477 18.9564 17.0491 19.4103C15.9505 19.8642 14.7419 19.9821 13.5763 19.7491C12.4107 19.5161 11.3403 18.9427 10.5005 18.1014C9.66079 17.2601 9.08937 16.1887 8.85855 15.0226C8.62772 13.8566 8.74786 12.6483 9.20376 11.5505C9.65966 10.4527 10.4309 9.51475 11.4198 8.85527C12.4088 8.19578 13.5711 7.84437 14.7598 7.84546C15.5492 7.84546 16.331 8.00114 17.0602 8.30359C17.7894 8.60604 18.4518 9.04932 19.0096 9.60807C19.5673 10.1668 20.0093 10.8301 20.3105 11.5599C20.6116 12.2896 20.7658 13.0716 20.7643 13.8611Z" fill="white"/>
<path d="M14.7598 21.1353C13.3182 21.1364 11.9087 20.7098 10.7097 19.9094C9.51065 19.1091 8.57602 17.971 8.02409 16.6392C7.47216 15.3075 7.32774 13.8419 7.60912 12.428C7.8905 11.0142 8.58502 9.71554 9.60478 8.69656C10.6245 7.67757 11.9237 6.98404 13.3378 6.70374C14.7519 6.42344 16.2173 6.56897 17.5487 7.12192C18.88 7.67486 20.0174 8.61036 20.8168 9.81C21.6162 11.0096 22.0418 12.4195 22.0396 13.8611C22.0352 15.7899 21.2666 17.6385 19.9022 19.0018C18.5378 20.3652 16.6887 21.1324 14.7598 21.1353ZM14.7598 9.12066C13.8234 9.11956 12.9076 9.39618 12.1283 9.91555C11.3491 10.4349 10.7413 11.1737 10.3819 12.0385C10.0226 12.9032 9.92768 13.8551 10.1093 14.7738C10.2909 15.6925 10.7409 16.5367 11.4023 17.1997C12.0637 17.8627 12.9069 18.3146 13.8251 18.4984C14.7434 18.6822 15.6955 18.5895 16.5611 18.2321C17.4267 17.8748 18.1669 17.2688 18.6881 16.4907C19.2093 15.7127 19.4881 14.7976 19.4892 13.8611C19.4892 12.6058 18.9913 11.4017 18.1047 10.513C17.2181 9.62433 16.0152 9.12359 14.7598 9.12066Z" fill="#42210B"/>
</g>
<defs>
<filter id="filter0_d" x="0" y="0" width="32.2791" height="44" filterUnits="userSpaceOnUse" color-interpolation-filters="sRGB">
<feFlood flood-opacity="0" result="BackgroundImageFix"/>
<feColorMatrix in="SourceAlpha" type="matrix" values="0 0 0 0 0 0 0 0 0 0 0 0 0 0 0 0 0 0 127 0"/>
<feOffset dx="2" dy="4"/>
<feColorMatrix type="matrix" values="0 0 0 0 0 0 0 0 0 0 0 0 0 0 0 0 0 0 0.1 0"/>
<feBlend mode="normal" in2="BackgroundImageFix" result="effect1_dropShadow"/>
<feBlend mode="normal" in="SourceGraphic" in2="effect1_dropShadow" result="shape"/>
</filter>
</defs>
</svg>
