<svg width="33" height="44" viewBox="0 0 33 44" fill="none" xmlns="http://www.w3.org/2000/svg">
<g filter="url(#filter0_d)">
<path d="M25.3155 24.0507H5.14308C4.7945 24.0507 4.46019 23.9122 4.2137 23.6657C3.96721 23.4192 3.82874 23.0849 3.82874 22.7363V10.6215C4.03306 7.73731 5.32293 5.03779 7.43845 3.06683C9.55397 1.09588 12.3379 0 15.2293 0C18.1207 0 20.9046 1.09588 23.0201 3.06683C25.1356 5.03779 26.4255 7.73731 26.6298 10.6215V22.7363C26.6298 23.0849 26.4913 23.4192 26.2449 23.6657C25.9984 23.9122 25.6641 24.0507 25.3155 24.0507ZM6.45743 21.422H24.0011V10.6215C24.0011 8.29199 23.0757 6.05793 21.4286 4.41075C19.7814 2.76356 17.5473 1.83818 15.2178 1.83818C12.8884 1.83818 10.6543 2.76356 9.00713 4.41075C7.35995 6.05793 6.43457 8.29199 6.43457 10.6215L6.45743 21.422Z" fill="#42210B"/>
<path d="M1.31433 14.6844V24.7821C1.31433 28.4695 2.77916 32.0059 5.38658 34.6133C7.99399 37.2208 11.5304 38.6856 15.2178 38.6856C18.9053 38.6856 22.4417 37.2208 25.0491 34.6133C27.6565 32.0059 29.1214 28.4695 29.1214 24.7821V14.6844H1.31433Z" fill="#F8C199"/>
<path d="M15.2179 40C11.1832 39.9954 7.31514 38.3907 4.46222 35.5377C1.6093 32.6848 0.00453755 28.8167 0 24.7821L0 14.6845C0 14.3359 0.138476 14.0016 0.384964 13.7551C0.631452 13.5086 0.965761 13.3701 1.31435 13.3701H29.1442C29.4928 13.3701 29.8271 13.5086 30.0736 13.7551C30.3201 14.0016 30.4586 14.3359 30.4586 14.6845V24.7821C30.454 28.8207 28.8461 32.6922 25.9883 35.5458C23.1304 38.3994 19.2565 40.0015 15.2179 40ZM2.64584 15.9988V24.7821C2.64584 28.1209 3.97219 31.323 6.33312 33.684C8.69405 36.0449 11.8962 37.3713 15.235 37.3713C18.5739 37.3713 21.776 36.0449 24.1369 33.684C26.4978 31.323 27.8242 28.1209 27.8242 24.7821V15.9988H2.64584Z" fill="#42210B"/>
<path d="M2.62866 15.9988V24.7821C2.6285 28.0947 3.93577 31.2735 6.26636 33.6277C8.59695 35.9818 11.7625 37.321 15.075 37.3541V15.9988H2.62866Z" fill="#F8A861"/>
<path d="M15.2179 40C11.1832 39.9954 7.31514 38.3907 4.46222 35.5377C1.6093 32.6848 0.00453755 28.8167 0 24.7821L0 14.6845C0 14.3359 0.138476 14.0016 0.384964 13.7551C0.631452 13.5086 0.965761 13.3701 1.31435 13.3701H29.1442C29.4928 13.3701 29.8271 13.5086 30.0736 13.7551C30.3201 14.0016 30.4586 14.3359 30.4586 14.6845V24.7821C30.454 28.8207 28.8461 32.6922 25.9883 35.5458C23.1304 38.3994 19.2565 40.0015 15.2179 40ZM2.64584 15.9988V24.7821C2.64584 28.1209 3.97219 31.323 6.33312 33.684C8.69405 36.0449 11.8962 37.3713 15.235 37.3713C18.5739 37.3713 21.776 36.0449 24.1369 33.684C26.4978 31.323 27.8242 28.1209 27.8242 24.7821V15.9988H2.64584Z" fill="#42210B"/>
<path d="M17.0922 30.8395C17.2964 30.8404 17.4976 30.7907 17.6779 30.6948C17.8581 30.5989 18.0117 30.4597 18.125 30.2898C18.2382 30.12 18.3076 29.9246 18.3268 29.7214C18.346 29.5181 18.3145 29.3132 18.2351 29.1251L16.7893 25.6392C17.3766 25.2943 17.8341 24.7657 18.0912 24.135C18.3484 23.5043 18.3908 22.8065 18.2121 22.1493C18.0334 21.4921 17.6434 20.9119 17.1022 20.4983C16.5611 20.0847 15.8989 19.8606 15.2178 19.8606C14.5367 19.8606 13.8746 20.0847 13.3334 20.4983C12.7923 20.9119 12.4023 21.4921 12.2236 22.1493C12.0449 22.8065 12.0873 23.5043 12.3444 24.135C12.6016 24.7657 13.059 25.2943 13.6463 25.6392L12.2006 29.1251C12.1227 29.3133 12.0923 29.5178 12.1122 29.7205C12.1321 29.9231 12.2016 30.1178 12.3145 30.2873C12.4275 30.4567 12.5805 30.5958 12.7599 30.6921C12.9394 30.7884 13.1398 30.839 13.3435 30.8395H17.0922Z" fill="#42210B"/>
<path d="M22.2296 30.2681C21.9637 30.2746 21.7022 30.1987 21.481 30.051C21.1949 29.8523 20.999 29.5486 20.9358 29.2061C20.8727 28.8636 20.9475 28.51 21.1439 28.2223C21.8314 27.2427 22.2023 26.0761 22.2068 24.8793V19.7648C22.2068 19.4162 22.3452 19.0819 22.5917 18.8354C22.8382 18.5889 23.1725 18.4504 23.5211 18.4504C23.8697 18.4504 24.204 18.5889 24.4505 18.8354C24.697 19.0819 24.8355 19.4162 24.8355 19.7648V24.845C24.8321 26.5745 24.2997 28.2615 23.3097 29.6795C23.1917 29.8587 23.0315 30.006 22.8431 30.1086C22.6548 30.2113 22.4441 30.2661 22.2296 30.2681Z" fill="white"/>
</g>
<defs>
<filter id="filter0_d" x="0" y="0" width="32.4586" height="44" filterUnits="userSpaceOnUse" color-interpolation-filters="sRGB">
<feFlood flood-opacity="0" result="BackgroundImageFix"/>
<feColorMatrix in="SourceAlpha" type="matrix" values="0 0 0 0 0 0 0 0 0 0 0 0 0 0 0 0 0 0 127 0"/>
<feOffset dx="2" dy="4"/>
<feColorMatrix type="matrix" values="0 0 0 0 0 0 0 0 0 0 0 0 0 0 0 0 0 0 0.1 0"/>
<feBlend mode="normal" in2="BackgroundImageFix" result="effect1_dropShadow"/>
<feBlend mode="normal" in="SourceGraphic" in2="effect1_dropShadow" result="shape"/>
</filter>
</defs>
</svg>
