<svg width="30" height="44" viewBox="0 0 30 44" fill="none" xmlns="http://www.w3.org/2000/svg">
<g filter="url(#filter0_d)">
<path d="M16.9558 38.8738C16.1301 38.8736 15.3323 38.575 14.7093 38.033C14.0864 37.4911 13.6803 36.7422 13.5658 35.9245C13.4529 36.7891 13.0138 37.5779 12.3386 38.1295C11.6633 38.6811 10.8028 38.9539 9.933 38.892C9.06325 38.8302 8.25 38.4383 7.65959 37.7967C7.06917 37.1551 6.74622 36.3121 6.75677 35.4402V23.43L6.04972 24.2145C5.80309 24.4872 5.50498 24.7085 5.17253 24.8656C4.84008 25.0226 4.47986 25.1124 4.11258 25.1298H3.9673C3.2382 25.1304 2.53713 24.849 2.01087 24.3444C1.4846 23.8398 1.17394 23.1511 1.14392 22.4227C1.11437 22.045 1.16275 21.6652 1.28604 21.307C1.40933 20.9488 1.60492 20.6197 1.86066 20.3402L6.59696 15.1971C7.08836 14.6766 7.68158 14.2626 8.33974 13.981C8.9979 13.6994 9.70694 13.5562 10.4228 13.5603H16.6362C17.3541 13.5613 18.0642 13.7106 18.7217 13.999C19.3792 14.2873 19.9701 14.7084 20.4572 15.2359L25.1886 20.3402C25.5606 20.746 25.8065 21.2511 25.8965 21.7941C25.9865 22.3371 25.9166 22.8945 25.6954 23.3985C25.4742 23.9025 25.1112 24.3313 24.6506 24.6327C24.19 24.9341 23.6518 25.095 23.1014 25.0959H22.9561C22.5831 25.0811 22.2169 24.9916 21.8792 24.8327C21.5415 24.6738 21.2391 24.4488 20.9899 24.1709L20.3119 23.4493L20.3942 35.4354C20.3879 36.3453 20.0236 37.2162 19.3801 37.8597C18.7367 38.5031 17.8658 38.8674 16.9558 38.8738Z" fill="#F8A861"/>
<path d="M16.9559 39.9876C16.3149 39.9855 15.6816 39.8481 15.0974 39.5844C14.5133 39.3207 13.9914 38.9366 13.5659 38.4572C12.9575 39.151 12.1517 39.6424 11.2564 39.8655C10.3611 40.0887 9.41891 40.033 8.55611 39.7059C7.69331 39.3788 6.95103 38.7959 6.42867 38.0352C5.90631 37.2746 5.6288 36.3725 5.6333 35.4498V25.8513C5.16396 26.0675 4.65775 26.1924 4.14171 26.2194H3.94799C2.93236 26.2192 1.9559 25.8275 1.22169 25.1257C0.487475 24.424 0.0520326 23.4662 0.00592424 22.4516C-0.0228238 21.9324 0.0532634 21.4127 0.229651 20.9234C0.406038 20.4342 0.679116 19.9855 1.03261 19.6041L5.77375 14.4561C6.36569 13.8151 7.08389 13.3034 7.88315 12.9534C8.68242 12.6033 9.54547 12.4225 10.418 12.4221H16.6362C17.508 12.4231 18.3701 12.6043 19.1685 12.9543C19.9669 13.3044 20.6843 13.8157 21.2757 14.4561L26.012 19.5944C26.5308 20.1592 26.874 20.8627 26.9998 21.6193C27.1257 22.3758 27.0286 23.1526 26.7206 23.8549C26.4126 24.5572 25.9068 25.1547 25.265 25.5746C24.6233 25.9944 23.8732 26.2185 23.1063 26.2194H22.9174C22.416 26.192 21.9237 26.0738 21.4645 25.8707L21.5323 35.4353C21.5222 36.6437 21.036 37.7993 20.1792 38.6515C19.3225 39.5037 18.1643 39.9838 16.9559 39.9876ZM13.5659 34.8106C13.8358 34.8116 14.0962 34.9103 14.2992 35.0883C14.5021 35.2663 14.6338 35.5116 14.67 35.7791C14.7547 36.3627 15.058 36.8923 15.5185 37.2606C15.9789 37.629 16.5622 37.8086 17.1501 37.763C17.738 37.7174 18.2866 37.4502 18.6849 37.0153C19.0831 36.5804 19.3012 36.0104 19.295 35.4208L19.2126 23.4686C19.2086 23.2422 19.2736 23.02 19.3991 22.8315C19.5245 22.643 19.7044 22.4972 19.9149 22.4136C20.1253 22.33 20.3562 22.3124 20.5768 22.3634C20.7974 22.4143 20.9973 22.5312 21.1498 22.6986L21.7987 23.4154C21.9503 23.5892 22.136 23.73 22.3443 23.8291C22.5525 23.9282 22.7789 23.9836 23.0094 23.9917H23.1208C23.5412 23.9915 23.946 23.8323 24.254 23.5461C24.5853 23.2371 24.7824 22.8107 24.8032 22.3581C24.824 21.9056 24.6669 21.4629 24.3654 21.1247L19.6388 15.9816C19.2564 15.5667 18.7921 15.2354 18.2754 15.0087C17.7586 14.782 17.2005 14.6648 16.6362 14.6644H10.4229C9.85785 14.6647 9.299 14.7819 8.78145 15.0086C8.2639 15.2352 7.79883 15.5665 7.41547 15.9816L2.67917 21.1102C2.45343 21.3562 2.30422 21.6627 2.24977 21.9921C2.19532 22.3215 2.23798 22.6597 2.37255 22.9653C2.50711 23.2709 2.72775 23.5307 3.00752 23.7129C3.28729 23.8952 3.61409 23.9921 3.94799 23.9917H4.04969C4.273 23.984 4.49243 23.9312 4.6947 23.8363C4.89698 23.7414 5.0779 23.6064 5.2265 23.4396L5.94324 22.6793C6.09517 22.5125 6.29414 22.3958 6.51382 22.3447C6.73351 22.2935 6.96356 22.3102 7.17353 22.3926C7.38351 22.475 7.56351 22.6192 7.68973 22.8062C7.81595 22.9932 7.88243 23.214 7.88038 23.4396V35.4498C7.88383 36.0324 8.10725 36.5921 8.5059 37.0169C8.90454 37.4417 9.44896 37.7002 10.0301 37.7406C10.6113 37.781 11.1862 37.6004 11.6398 37.2348C12.0934 36.8693 12.3922 36.3459 12.4762 35.7694C12.5123 35.5054 12.6423 35.2631 12.8424 35.087C13.0425 34.9109 13.2993 34.8128 13.5659 34.8106Z" fill="#42210B"/>
<path d="M16.6363 14.6498C17.2017 14.6521 17.7605 14.7716 18.2773 15.0008C18.7941 15.2301 19.2577 15.564 19.6389 15.9816L24.3703 21.1199C24.5269 21.2852 24.6478 21.4811 24.7253 21.6952C24.8028 21.9094 24.8353 22.1372 24.8207 22.3645C24.8008 22.806 24.6116 23.223 24.2923 23.5287C23.9731 23.8344 23.5484 24.0054 23.1064 24.0062H23.0143C22.7827 24.0002 22.555 23.9458 22.3456 23.8466C22.1363 23.7473 21.95 23.6054 21.7988 23.4299L19.1643 20.621L19.266 35.4547C19.2573 36.0655 19.0114 36.649 18.5803 37.0819C18.1493 37.5148 17.5668 37.7631 16.956 37.7744C16.3446 37.7744 15.7582 37.5315 15.3259 37.0992C14.8936 36.6669 14.6508 36.0806 14.6508 35.4692V29.0863H12.4763V35.4498C12.4906 35.7617 12.4415 36.0733 12.332 36.3658C12.2225 36.6582 12.0548 36.9254 11.8391 37.1512C11.6234 37.377 11.3642 37.5567 11.0771 37.6795C10.79 37.8023 10.481 37.8656 10.1687 37.8656C9.85646 37.8656 9.54744 37.8023 9.26033 37.6795C8.97323 37.5567 8.714 37.377 8.49831 37.1512C8.28262 36.9254 8.11495 36.6582 8.00543 36.3658C7.89591 36.0733 7.84681 35.7617 7.8611 35.4498V20.6162L5.23629 23.4299C5.08595 23.6004 4.90222 23.7382 4.69647 23.8348C4.49071 23.9315 4.26732 23.9848 4.0401 23.9917H3.94809C3.50608 23.9909 3.08136 23.8199 2.76212 23.5141C2.44288 23.2084 2.25365 22.7915 2.23373 22.3499C2.2192 22.1227 2.25169 21.8948 2.32919 21.6807C2.40668 21.4665 2.5275 21.2707 2.68411 21.1053L7.41556 15.9816C7.79892 15.5665 8.26399 15.2352 8.78154 15.0086C9.2991 14.7819 9.85794 14.6647 10.423 14.6644H16.6363V14.6498ZM16.6363 12.4366H10.423C9.5505 12.4376 8.68763 12.6187 7.88845 12.9687C7.08926 13.3187 6.371 13.83 5.77868 14.4706L1.04239 19.5944C0.523596 20.1592 0.180357 20.8627 0.0545302 21.6192C-0.0712969 22.3758 0.0257245 23.1526 0.333763 23.8549C0.641802 24.5572 1.14755 25.1547 1.78932 25.5746C2.4311 25.9944 3.18118 26.2185 3.94809 26.2194H4.14665C4.66257 26.1991 5.16943 26.0773 5.63824 25.861V35.4498C5.63651 36.3706 5.91526 37.2702 6.4374 38.0287C6.95955 38.7871 7.70031 39.3686 8.5611 39.6957C9.42189 40.0228 10.3619 40.0799 11.256 39.8595C12.15 39.6391 12.9558 39.1517 13.566 38.4621C14.1756 39.1454 14.9771 39.6293 15.8658 39.8505C16.7545 40.0717 17.6892 40.02 18.5481 39.7022C19.407 39.3843 20.1502 38.8151 20.6808 38.0687C21.2114 37.3222 21.5048 36.4332 21.5227 35.5176V35.4353L21.4549 25.8707C21.9133 26.0756 22.4062 26.1922 22.9078 26.2145H23.1064C23.8714 26.2119 24.6192 25.9873 25.2591 25.5679C25.8989 25.1485 26.4033 24.5525 26.711 23.852C27.0186 23.1516 27.1164 22.3769 26.9923 21.6219C26.8682 20.867 26.5277 20.1643 26.0121 19.5992L21.2758 14.4561C20.6844 13.8157 19.967 13.3044 19.1686 12.9543C18.3702 12.6043 17.5081 12.4231 16.6363 12.4221V12.4366Z" fill="#42210B"/>
<path d="M7.41544 15.9816L2.68398 21.1053C2.52738 21.2706 2.40655 21.4665 2.32906 21.6806C2.25157 21.8948 2.21907 22.1226 2.2336 22.3499C2.24181 22.5768 2.29581 22.7998 2.39235 23.0053C2.48888 23.2109 2.62597 23.3948 2.79537 23.5461C2.96145 23.7013 3.15754 23.821 3.37159 23.8976C3.58564 23.9742 3.8131 24.0062 4.03998 23.9916C4.26719 23.9848 4.49059 23.9314 4.69634 23.8348C4.90209 23.7382 5.08582 23.6003 5.23616 23.4298L7.87066 20.6162V35.4498C7.85637 35.7617 7.90547 36.0733 8.01499 36.3657C8.12451 36.6581 8.29218 36.9253 8.50787 37.1511C8.72356 37.3769 8.98279 37.5567 9.26989 37.6794C9.557 37.8022 9.86602 37.8655 10.1783 37.8655C10.4905 37.8655 10.7996 37.8022 11.0867 37.6794C11.3738 37.5567 11.633 37.3769 11.8487 37.1511C12.0644 36.9253 12.232 36.6581 12.3416 36.3657C12.4511 36.0733 12.5002 35.7617 12.4859 35.4498V29.0863H13.5658V14.6498H10.4228C9.85675 14.652 9.29724 14.7714 8.77963 15.0006C8.26201 15.2299 7.79752 15.5638 7.41544 15.9816Z" fill="#F8C199"/>
<path d="M13.5271 10.3494C12.9197 10.3586 12.3167 10.2435 11.7554 10.0111C11.1941 9.77879 10.6862 9.43409 10.263 8.99824C9.82726 8.57395 9.48267 8.06519 9.25035 7.50311C9.01802 6.94103 8.90284 6.33746 8.91187 5.72932C8.90351 5.122 9.019 4.51934 9.25131 3.95814C9.48362 3.39694 9.82786 2.88898 10.263 2.46525C11.1292 1.60053 12.3032 1.11487 13.5271 1.11487C14.751 1.11487 15.925 1.60053 16.7912 2.46525C17.2263 2.88898 17.5706 3.39694 17.8029 3.95814C18.0352 4.51934 18.1507 5.122 18.1423 5.72932C18.1523 6.33715 18.038 6.9406 17.8065 7.5027C17.575 8.0648 17.2311 8.57371 16.796 8.99824C16.3717 9.434 15.863 9.77859 15.3009 10.0109C14.7388 10.2432 14.1352 10.3584 13.5271 10.3494Z" fill="#F8A861"/>
<path d="M13.5271 2.22792C13.985 2.22328 14.439 2.31143 14.8618 2.48706C15.2846 2.66268 15.6675 2.92213 15.9873 3.24976C16.3173 3.57183 16.5781 3.95784 16.7538 4.38418C16.9295 4.81052 17.0164 5.26822 17.0091 5.72929C17.0197 6.1944 16.9345 6.65672 16.7587 7.08747C16.5829 7.51821 16.3203 7.90816 15.9873 8.23304C15.3305 8.88484 14.4428 9.2506 13.5175 9.2506C12.5922 9.2506 11.7044 8.88484 11.0476 8.23304C10.7176 7.91097 10.4568 7.52495 10.2811 7.09861C10.1054 6.67227 10.0185 6.21457 10.0258 5.7535C10.0152 5.28839 10.1004 4.82607 10.2762 4.39533C10.452 3.96458 10.7146 3.57464 11.0476 3.24976C11.3697 2.91975 11.7557 2.65892 12.182 2.48322C12.6084 2.30752 13.0661 2.22065 13.5271 2.22792ZM13.5271 0.000212677C12.7737 -0.00634058 12.0266 0.138613 11.3303 0.426462C10.634 0.714311 10.0026 1.13918 9.47369 1.67583C8.93703 2.20473 8.51216 2.8361 8.22431 3.53243C7.93647 4.22876 7.79151 4.97584 7.79806 5.72929C7.79169 6.48343 7.9367 7.23119 8.22452 7.92828C8.51234 8.62537 8.93711 9.25762 9.47369 9.78759C10.5514 10.8576 12.0085 11.458 13.5271 11.458C15.0458 11.458 16.5029 10.8576 17.5806 9.78759C18.1178 9.25812 18.5431 8.62597 18.8309 7.92876C19.1188 7.23155 19.2634 6.48355 19.2562 5.72929C19.2575 4.97658 19.1102 4.23102 18.8227 3.53536C18.5353 2.8397 18.1133 2.20762 17.5811 1.67538C17.0488 1.14313 16.4167 0.721175 15.7211 0.433714C15.0254 0.146253 14.2799 -0.00106311 13.5271 0.000212677Z" fill="#42210B"/>
<path d="M13.5272 2.22796C13.0661 2.22069 12.6084 2.30756 12.182 2.48326C11.7557 2.65896 11.3697 2.91979 11.0476 3.2498C10.7176 3.57187 10.4568 3.95788 10.2811 4.38422C10.1054 4.81056 10.0185 5.26827 10.0258 5.72933C10.0152 6.19445 10.1004 6.65677 10.2762 7.08751C10.452 7.51825 10.7146 7.9082 11.0476 8.23308C11.3693 8.56396 11.7551 8.82569 12.1815 9.00223C12.6078 9.17877 13.0657 9.2664 13.5272 9.25976V2.22796Z" fill="#F8C199"/>
<path d="M15.2899 22.6115C14.9945 22.6115 14.7112 22.4942 14.5023 22.2853C14.2934 22.0764 14.176 21.7931 14.176 21.4977V17.2263C14.176 16.9309 14.2934 16.6476 14.5023 16.4387C14.7112 16.2298 14.9945 16.1124 15.2899 16.1124C15.5853 16.1124 15.8686 16.2298 16.0775 16.4387C16.2864 16.6476 16.4037 16.9309 16.4037 17.2263V21.4977C16.4037 21.7931 16.2864 22.0764 16.0775 22.2853C15.8686 22.4942 15.5853 22.6115 15.2899 22.6115Z" fill="white"/>
<path d="M14.4182 5.94731H13.6676C13.3722 5.94731 13.0888 5.82996 12.88 5.62107C12.6711 5.41218 12.5537 5.12887 12.5537 4.83346C12.5537 4.53804 12.6711 4.25473 12.88 4.04584C13.0888 3.83696 13.3722 3.7196 13.6676 3.7196H14.4182C14.7136 3.7196 14.9969 3.83696 15.2058 4.04584C15.4147 4.25473 15.5321 4.53804 15.5321 4.83346C15.5321 5.12887 15.4147 5.41218 15.2058 5.62107C14.9969 5.82996 14.7136 5.94731 14.4182 5.94731Z" fill="white"/>
</g>
<defs>
<filter id="filter0_d" x="0" y="0" width="29.0534" height="44" filterUnits="userSpaceOnUse" color-interpolation-filters="sRGB">
<feFlood flood-opacity="0" result="BackgroundImageFix"/>
<feColorMatrix in="SourceAlpha" type="matrix" values="0 0 0 0 0 0 0 0 0 0 0 0 0 0 0 0 0 0 127 0"/>
<feOffset dx="2" dy="4"/>
<feColorMatrix type="matrix" values="0 0 0 0 0 0 0 0 0 0 0 0 0 0 0 0 0 0 0.1 0"/>
<feBlend mode="normal" in2="BackgroundImageFix" result="effect1_dropShadow"/>
<feBlend mode="normal" in="SourceGraphic" in2="effect1_dropShadow" result="shape"/>
</filter>
</defs>
</svg>
