<svg width="70" height="70" viewBox="0 0 70 70" fill="none" xmlns="http://www.w3.org/2000/svg">
<path d="M70 0H0V70H70V0Z" fill="#D9372A"/>
<mask id="mask0" mask-type="alpha" maskUnits="userSpaceOnUse" x="0" y="0" width="70" height="70">
<path d="M70 0H0V70H70V0Z" fill="#D9372A"/>
</mask>
<g mask="url(#mask0)">
<path d="M9.00202 4.10198C9.50137 3.70958 9.96944 3.27895 10.402 2.81398C10.5953 2.56613 10.7057 2.26377 10.7176 1.94971C10.7296 1.63564 10.6424 1.32578 10.4685 1.06398C10.3359 0.806173 10.1306 0.592877 9.87804 0.450438C9.6255 0.307999 9.33678 0.242655 9.04752 0.262478C8.85422 0.267486 8.66512 0.319941 8.49686 0.415223C8.3286 0.510505 8.18635 0.645693 8.08262 0.808884C7.9789 0.972074 7.91689 1.15826 7.90205 1.35106C7.88721 1.54385 7.91999 1.73734 7.99752 1.91448C8.03411 2.01515 8.09085 2.1073 8.16427 2.1853C8.23769 2.26329 8.32626 2.32548 8.42454 2.36808C8.52283 2.41067 8.62877 2.43276 8.73589 2.433C8.843 2.43324 8.94904 2.41162 9.04752 2.36948C9.21101 2.27625 9.3353 2.1271 9.39752 1.94948C9.43602 1.86548 9.33452 1.62048 9.27152 1.59948C9.08952 1.58772 8.9069 1.60907 8.73252 1.66248C8.66602 1.66248 8.61002 1.74648 8.52602 1.80598C8.46124 1.72942 8.41503 1.63894 8.39099 1.54158C8.36694 1.44423 8.36571 1.34263 8.38739 1.24473C8.40907 1.14682 8.45308 1.05524 8.51598 0.97714C8.57889 0.89904 8.65898 0.836527 8.75002 0.794477C8.98708 0.686146 9.25596 0.669855 9.50437 0.748776C9.75278 0.827698 9.96295 0.996187 10.094 1.22148C10.191 1.43918 10.2364 1.67631 10.2268 1.91443C10.2173 2.15255 10.1529 2.38526 10.0389 2.59449C9.92476 2.80372 9.76397 2.98383 9.56898 3.12084C9.37399 3.25785 9.15003 3.34806 8.91452 3.38448C8.67563 3.40499 8.43505 3.37726 8.20709 3.30294C7.97914 3.22861 7.76845 3.10921 7.58756 2.95183C7.40667 2.79445 7.25927 2.60231 7.15413 2.38682C7.04899 2.17134 6.98825 1.93691 6.97552 1.69748C6.97318 1.34624 6.99658 0.995299 7.04552 0.647478L5.95002 -2.19345e-05V-0.231022L7.05952 -0.910022C7.04202 -1.02552 6.99652 -1.26002 6.96852 -1.47702C6.92413 -1.73831 6.93669 -2.0061 7.00532 -2.26209C7.07396 -2.51808 7.19706 -2.75623 7.3662 -2.96027C7.53535 -3.16431 7.74655 -3.32942 7.98538 -3.44432C8.22421 -3.55922 8.48503 -3.6212 8.75002 -3.62602C9.0314 -3.63851 9.30983 -3.56431 9.54769 -3.41346C9.78555 -3.26261 9.97136 -3.04238 10.08 -2.78252C10.2151 -2.55848 10.2781 -2.29838 10.2606 -2.03736C10.2431 -1.77634 10.1458 -1.52699 9.98202 -1.32302C9.84953 -1.12982 9.6486 -0.994147 9.41988 -0.943464C9.19116 -0.892782 8.95172 -0.93087 8.75002 -1.05002C8.66123 -1.08749 8.58193 -1.14431 8.51789 -1.21633C8.45385 -1.28835 8.4067 -1.37375 8.37987 -1.46631C8.35304 -1.55887 8.34721 -1.65626 8.36281 -1.75136C8.3784 -1.84646 8.41503 -1.93688 8.47002 -2.01602L8.64152 -1.97752C8.85465 -1.93098 9.07118 -1.90172 9.28902 -1.89002C9.31352 -1.89002 9.41502 -2.24002 9.35552 -2.29602C9.21202 -2.46052 8.93552 -2.69852 8.81302 -2.64602C8.47414 -2.54178 8.17661 -2.33364 7.96252 -2.05102C7.85295 -1.82397 7.83509 -1.56343 7.91266 -1.32356C7.99022 -1.08368 8.15725 -0.882926 8.37902 -0.763022C8.66136 -0.592621 8.99168 -0.519202 9.31962 -0.553956C9.64757 -0.588709 9.95516 -0.729728 10.1955 -0.955522C10.4591 -1.21593 10.6293 -1.556 10.68 -1.92301C10.7306 -2.29003 10.6587 -2.6635 10.4755 -2.98552C10.2906 -3.26671 10.0627 -3.51709 9.80002 -3.72752C9.50782 -3.91107 9.23463 -4.12329 8.98452 -4.36102L10.3845 -4.61652C10.066 -6.49952 10.4825 -7.65102 11.7635 -8.19702C11.69 -7.92052 11.62 -7.68252 11.5675 -7.43752C11.344 -6.48865 11.3381 -5.50153 11.55 -4.55002C11.865 -3.22002 11.9 -1.90402 11.053 -0.724522L11.9 -0.126022L11.088 0.402477C11.088 0.423477 11.067 0.493478 11.088 0.535478C11.8685 1.72898 11.8335 3.02398 11.5185 4.33298C11.2921 5.42872 11.3524 6.56436 11.6935 7.62998C11.7609 7.81347 11.7779 8.01171 11.7425 8.20398C11.3366 9.37612 11.2698 10.6391 11.55 11.8475C11.851 13.1285 11.8055 14.378 11.0285 15.4945L11.9 16.1L11.088 16.6495C11.088 16.625 11.067 16.6705 11.088 16.695C11.9105 17.99 11.8195 19.3795 11.4975 20.7865C11.2385 21.9135 11.473 22.995 11.767 24.08C10.6085 23.898 10.017 22.274 10.437 20.5555L9.03702 20.349V20.16C9.25402 20.0445 9.47452 19.943 9.68452 19.81C10.955 19.04 11.06 17.325 9.87002 16.66C9.65163 16.5145 9.39279 16.4419 9.1306 16.4526C8.86841 16.4633 8.61634 16.5567 8.41052 16.7195C8.12989 17.0006 7.9597 17.3733 7.93102 17.7695C7.95093 17.9326 8.00961 18.0886 8.10217 18.2244C8.19473 18.3602 8.31846 18.4718 8.46302 18.55C8.67302 18.648 9.03702 18.4905 9.29252 18.368C9.36602 18.3295 9.29252 18.018 9.31002 17.8395L8.40002 17.899C8.42452 17.731 8.37202 17.388 8.51552 17.2305C8.61834 17.1301 8.74066 17.0519 8.87491 17.0008C9.00916 16.9496 9.15249 16.9265 9.29602 16.933C9.45402 16.9531 9.60582 17.0071 9.74102 17.0913C9.87622 17.1755 9.99163 17.2879 10.0794 17.4209C10.1671 17.5538 10.2251 17.7041 10.2494 17.8616C10.2736 18.019 10.2636 18.1798 10.22 18.333C10.1573 18.6762 9.98034 18.9882 9.71793 19.2182C9.45551 19.4482 9.12304 19.5828 8.77452 19.6C8.35315 19.6005 7.94491 19.4534 7.62073 19.1842C7.29655 18.915 7.07693 18.5408 7.00002 18.1265C6.96715 17.6849 6.96715 17.2415 7.00002 16.8L5.95002 16.226V15.974L7.11902 15.344C6.96672 14.9702 6.92534 14.5605 6.99983 14.1639C7.07431 13.7673 7.26151 13.4005 7.53902 13.1075C7.79657 12.8279 8.14437 12.648 8.52137 12.5994C8.89836 12.5507 9.28044 12.6364 9.60052 12.8415C9.89715 13.0471 10.1115 13.351 10.2057 13.6995C10.2998 14.0479 10.2677 14.4184 10.115 14.7455C9.9958 14.9664 9.8014 15.1372 9.56704 15.2271C9.33268 15.317 9.07387 15.32 8.83752 15.2355C8.40002 15.05 8.29152 14.7 8.48402 14.196C8.52 14.1908 8.55654 14.1908 8.59252 14.196L9.26802 14.378C9.30302 14.2135 9.41152 13.944 9.35552 13.9055C9.15371 13.7079 8.89093 13.5845 8.61002 13.5555C8.38904 13.5844 8.18823 13.6988 8.05078 13.8742C7.91332 14.0496 7.85021 14.272 7.87502 14.4935C7.86958 14.755 7.95585 15.0102 8.11887 15.2148C8.28189 15.4193 8.51137 15.5604 8.76752 15.6135C9.06783 15.6967 9.38681 15.6827 9.67861 15.5732C9.97041 15.4638 10.22 15.2647 10.3915 15.0045C10.7415 14.525 10.8395 13.692 10.4615 13.2125C10.0254 12.7283 9.5577 12.2734 9.06152 11.851L10.4405 11.5955C9.98202 10.143 10.339 8.90748 11.641 7.96248C10.3565 7.02798 9.95402 5.79598 10.4475 4.34348L9.00202 4.10198ZM4.77402 20.6745C4.7032 21.4374 4.73735 22.2064 4.87552 22.96C4.97569 23.3157 5.12658 23.6552 5.32352 23.968L4.49402 24.535L5.37602 25.1195C4.43802 26.376 4.59202 27.7655 4.88252 29.2145C4.97534 29.9395 4.97534 30.6734 4.88252 31.3985C4.81752 31.843 4.71806 32.2818 4.58502 32.711C6.10052 31.738 6.33502 30.471 5.98502 29.043L7.38502 28.756C7.27461 28.5943 7.13301 28.4562 6.96852 28.35C6.55293 28.0289 6.18007 27.6561 5.85902 27.2405C5.70101 26.9268 5.6497 26.57 5.71286 26.2245C5.77603 25.879 5.95024 25.5635 6.20902 25.326C6.45102 25.1159 6.7518 24.9855 7.07052 24.9523C7.38923 24.9191 7.71043 24.9848 7.99052 25.1405C8.19059 25.2565 8.34673 25.4354 8.4347 25.6493C8.52267 25.8633 8.53755 26.1002 8.47702 26.3235C8.46025 26.5259 8.36761 26.7144 8.21768 26.8514C8.06774 26.9883 7.87158 27.0635 7.66852 27.062C7.43018 27.0165 7.21359 26.8934 7.05252 26.712C6.98602 26.649 7.07702 26.425 7.09452 26.278C7.30802 26.306 7.52152 26.3305 7.73502 26.362C7.79102 26.362 7.84352 26.39 7.92402 26.411C7.98329 26.3306 8.02282 26.2374 8.03943 26.1389C8.05603 26.0404 8.04924 25.9394 8.0196 25.844C7.98997 25.7486 7.93831 25.6615 7.86881 25.5898C7.79931 25.518 7.71392 25.4636 7.61952 25.431C7.4781 25.3695 7.32488 25.3399 7.17075 25.3443C7.01661 25.3488 6.86534 25.3871 6.72769 25.4566C6.59003 25.5261 6.46938 25.625 6.37429 25.7464C6.2792 25.8678 6.21202 26.0087 6.17752 26.159C6.12663 26.3914 6.13079 26.6324 6.18965 26.8629C6.24851 27.0935 6.36045 27.307 6.51653 27.4865C6.67261 27.6661 6.86851 27.8066 7.08858 27.897C7.30865 27.9874 7.5468 28.025 7.78402 28.007C8.21356 27.9763 8.61672 27.7883 8.91634 27.479C9.21597 27.1697 9.39103 26.7608 9.40802 26.3305C9.40854 25.9585 9.38634 25.5868 9.34152 25.2175L9.45002 25.3225L10.374 24.5245L9.32402 23.653C9.35995 23.5255 9.38685 23.3957 9.40452 23.2645C9.57602 21.966 8.70452 20.9335 7.50052 21.0175C7.2015 21.0486 6.91867 21.1687 6.68848 21.362C6.45829 21.5554 6.2913 21.8133 6.20902 22.1025C6.07952 22.603 6.06202 23.1735 6.55902 23.4395C6.93787 23.6072 7.36519 23.6296 7.75952 23.5025C8.06052 23.4045 8.16552 22.988 7.89952 22.6135C7.83834 22.6569 7.77113 22.6911 7.70002 22.715C7.50162 22.7521 7.29901 22.7616 7.09802 22.743C7.06263 22.6802 7.04062 22.6108 7.03339 22.5391C7.02617 22.4674 7.03387 22.395 7.05602 22.3265C7.17847 22.1615 7.35608 22.046 7.55652 22.001C7.6599 21.9767 7.76738 21.9755 7.87127 21.9975C7.97516 22.0196 8.0729 22.0643 8.1575 22.1285C8.2421 22.1927 8.31147 22.2748 8.36066 22.3689C8.40984 22.463 8.43762 22.5669 8.44202 22.673C8.46718 23.0556 8.36235 23.4354 8.14452 23.751C7.98673 23.9349 7.77492 24.0644 7.53926 24.1209C7.3036 24.1775 7.05611 24.1583 6.83202 24.066C6.54098 23.9858 6.2801 23.8214 6.0821 23.5935C5.8841 23.3656 5.75779 23.0844 5.71902 22.785C5.66078 22.4383 5.70376 22.0823 5.84282 21.7594C5.98188 21.4366 6.21111 21.1608 6.50302 20.965C6.77569 20.7886 7.05851 20.6285 7.35002 20.4855V20.3035L5.97802 20.0445C6.22302 18.004 5.82752 16.9295 4.57802 16.499C5.13102 18.5815 5.08902 18.606 4.77402 20.6745ZM9.39052 6.80748C9.59702 5.59648 8.91452 4.61648 7.75952 4.46598C7.43971 4.44506 7.12163 4.52726 6.85199 4.70051C6.58236 4.87375 6.3754 5.1289 6.26152 5.42848C6.13684 5.68076 6.10045 5.9676 6.1582 6.24303C6.21596 6.51846 6.36449 6.76652 6.58002 6.94748C6.73529 7.09177 6.93622 7.17708 7.14787 7.18859C7.35952 7.2001 7.56851 7.13708 7.73852 7.01048C7.82028 6.96513 7.89073 6.90187 7.94457 6.82543C7.9984 6.74899 8.03424 6.66136 8.04939 6.5691C8.06455 6.47684 8.05862 6.38235 8.03206 6.2927C8.0055 6.20306 7.95899 6.12059 7.89602 6.05148C7.81552 6.11098 7.74202 6.20898 7.66502 6.21248C7.4578 6.20951 7.25094 6.19432 7.04552 6.16698C7.11753 5.93051 7.22491 5.70631 7.36402 5.50198C7.44102 5.41448 7.71402 5.45298 7.86802 5.50198C8.05481 5.54624 8.21988 5.65526 8.33393 5.80968C8.44799 5.96409 8.50364 6.15392 8.49102 6.34548C8.52269 6.5545 8.48806 6.7682 8.39201 6.95653C8.29596 7.14487 8.14331 7.29837 7.95552 7.39548C7.62793 7.57112 7.24758 7.62145 6.88558 7.53707C6.52357 7.45269 6.20468 7.23937 5.98852 6.93698C5.74579 6.56793 5.64731 6.12249 5.71186 5.68551C5.7764 5.24854 5.99946 4.85058 6.33852 4.56748C6.71883 4.2888 7.11372 4.0306 7.52152 3.79398L5.99202 3.49998C6.30002 1.58548 5.87652 0.409477 4.68302 -0.0385227C4.68302 -0.00352287 4.64452 0.0349779 4.64802 0.0699778C4.65964 0.147374 4.67838 0.223531 4.70402 0.297478C5.05367 1.46295 5.09348 2.69943 4.81952 3.88498C4.70918 4.64633 4.70918 5.41962 4.81952 6.18098C4.92932 6.61255 5.10022 7.02623 5.32702 7.40948L4.50802 8.01848L5.40052 8.56098C4.48702 9.79998 4.54302 11.1475 4.89302 12.5195C5.11336 13.5146 5.0687 14.55 4.76352 15.5225C4.72502 15.6695 4.69352 15.8165 4.65852 15.967L4.76702 16.0615C5.02884 15.8799 5.27263 15.6736 5.49502 15.4455C5.8301 15.0374 6.05207 14.5484 6.13868 14.0275C6.22529 13.5066 6.17351 12.9721 5.98852 12.4775L7.38852 12.1975L7.35002 12.0015C7.15402 11.907 6.95452 11.8195 6.76552 11.7145C5.69452 11.1195 5.36552 9.76148 6.10052 8.91448C6.26589 8.68535 6.4996 8.51451 6.7681 8.42648C7.0366 8.33845 7.32609 8.33775 7.59502 8.42448C7.98153 8.59384 8.29015 8.90246 8.45952 9.28898C8.51969 9.43917 8.53807 9.60286 8.51271 9.76266C8.48734 9.92245 8.41918 10.0724 8.31546 10.1966C8.21174 10.3208 8.07632 10.4145 7.9236 10.468C7.77087 10.5214 7.60653 10.5324 7.44802 10.5C7.25977 10.4125 7.11116 10.2577 7.03152 10.066C7.01849 9.99357 7.02455 9.91902 7.0491 9.84967C7.07365 9.78032 7.11584 9.71856 7.17152 9.67048C7.33679 9.65441 7.50339 9.68217 7.65452 9.75098C7.74599 9.79174 7.83282 9.84219 7.91352 9.90148C7.97906 9.81451 8.02248 9.71292 8.04005 9.60544C8.05762 9.49797 8.04881 9.38784 8.01437 9.28453C7.97993 9.18122 7.9209 9.08782 7.84237 9.01238C7.76383 8.93695 7.66813 8.88173 7.56352 8.85148C7.4137 8.79753 7.25358 8.77837 7.09526 8.79543C6.93694 8.8125 6.78458 8.86535 6.64971 8.94999C6.51483 9.03462 6.40097 9.14883 6.31674 9.28396C6.2325 9.41909 6.18011 9.57161 6.16352 9.72998C6.12186 10.0688 6.18804 10.4122 6.35266 10.7112C6.51728 11.0103 6.77196 11.2499 7.08052 11.396C7.40223 11.5032 7.74815 11.5146 8.07623 11.4288C8.4043 11.3431 8.7004 11.1639 8.92852 10.913C9.52352 10.2445 9.48152 9.46748 9.32052 8.77798L10.479 8.04998L10.4615 7.82248L9.29952 7.22398C9.32052 7.14698 9.36252 6.97898 9.39052 6.80748ZM10.4405 37.2575C9.94702 38.71 10.3495 39.942 11.634 40.8765C10.332 41.8215 9.97502 43.057 10.4335 44.5095L9.05452 44.765C9.5507 45.1874 10.0184 45.6423 10.4545 46.1265C10.8325 46.606 10.7345 47.439 10.3845 47.9185C10.213 48.1787 9.96342 48.3778 9.67161 48.4872C9.37981 48.5967 9.06083 48.6107 8.76052 48.5275C8.50438 48.4744 8.27489 48.3333 8.11187 48.1288C7.94885 47.9242 7.86258 47.669 7.86802 47.4075C7.84321 47.186 7.90632 46.9636 8.04378 46.7882C8.18123 46.6128 8.38204 46.4984 8.60302 46.4695C8.88393 46.4985 9.14671 46.6219 9.34852 46.8195C9.40452 46.858 9.29602 47.1275 9.26102 47.292L8.58552 47.11C8.54954 47.1048 8.513 47.1048 8.47702 47.11C8.28452 47.6 8.39652 47.9605 8.80602 48.1425C9.04237 48.227 9.30118 48.224 9.53554 48.1341C9.7699 48.0442 9.9643 47.8734 10.0835 47.6525C10.2362 47.3254 10.2683 46.9549 10.1742 46.6065C10.08 46.258 9.86565 45.9541 9.56902 45.7485C9.24894 45.5434 8.86686 45.4577 8.48987 45.5064C8.11287 45.555 7.76507 45.7349 7.50752 46.0145C7.23001 46.3075 7.04281 46.6743 6.96833 47.0709C6.89384 47.4675 6.93522 47.8772 7.08752 48.251L5.91852 48.881V49.133L7.00002 49.7C6.9668 50.1439 6.9668 50.5896 7.00002 51.0335C7.07838 51.4465 7.29863 51.8191 7.62266 52.0869C7.9467 52.3547 8.35415 52.5008 8.77452 52.5C9.12504 52.4821 9.45906 52.3456 9.72174 52.1128C9.98441 51.88 10.1601 51.5648 10.22 51.219C10.2636 51.0658 10.2736 50.905 10.2494 50.7476C10.2251 50.5901 10.1671 50.4398 10.0794 50.3069C9.99163 50.1739 9.87622 50.0615 9.74102 49.9773C9.60582 49.8931 9.45402 49.8391 9.29602 49.819C9.15249 49.8125 9.00916 49.8356 8.87491 49.8868C8.74066 49.9379 8.61834 50.0161 8.51552 50.1165C8.37202 50.274 8.42452 50.617 8.40002 50.785L9.31002 50.7255C9.31002 50.9075 9.36602 51.2155 9.29252 51.254C9.03702 51.3765 8.67302 51.534 8.46302 51.436C8.32019 51.3629 8.19643 51.2574 8.10163 51.128C8.00683 50.9985 7.94361 50.8487 7.91702 50.6905C7.9457 50.2943 8.11589 49.9216 8.39652 49.6405C8.60234 49.4777 8.85442 49.3843 9.1166 49.3736C9.37879 49.3629 9.63763 49.4355 9.85602 49.581C11.046 50.2285 10.941 51.9435 9.67052 52.731C9.46052 52.857 9.24002 52.9585 9.02302 53.081V53.27L10.423 53.4765C9.99252 55.195 10.5945 56.819 11.753 57.001C11.459 55.916 11.2245 54.8345 11.4835 53.7075C11.8055 52.3075 11.8965 50.9075 11.074 49.616C11.074 49.5915 11.074 49.546 11.074 49.5705L11.9 49L11.0425 48.405C11.8195 47.2885 11.865 46.039 11.564 44.758C11.2816 43.5502 11.3459 42.2873 11.7495 41.1145C11.7849 40.9222 11.7679 40.724 11.7005 40.5405C11.3594 39.4749 11.2991 38.3392 11.5255 37.2435C11.8405 35.9345 11.8755 34.6395 11.095 33.446C11.0705 33.404 11.095 33.334 11.095 33.313L11.9 32.774L11.0355 32.2C11.8755 31.003 11.8475 29.687 11.55 28.35C11.3462 27.3941 11.3617 26.4045 11.5955 25.4555C11.648 25.2105 11.718 24.9725 11.7915 24.696C10.5 25.249 10.0765 26.4005 10.395 28.2835L8.99502 28.539C9.24182 28.7761 9.51147 28.9883 9.80002 29.1725C10.0602 29.3834 10.2857 29.6338 10.4685 29.9145C10.6517 30.2365 10.7236 30.61 10.673 30.977C10.6223 31.344 10.4521 31.6841 10.1885 31.9445C9.94816 32.1703 9.64057 32.3113 9.31262 32.346C8.98468 32.3808 8.65436 32.3074 8.37202 32.137C8.15025 32.0171 7.98323 31.8163 7.90566 31.5764C7.82809 31.3366 7.84595 31.076 7.95552 30.849C8.16961 30.5664 8.46714 30.3582 8.80602 30.254C8.92852 30.2085 9.20502 30.4465 9.34852 30.604C9.40802 30.674 9.30652 31.01 9.28202 31.01C9.06418 30.9983 8.84765 30.969 8.63452 30.9225L8.46302 30.884C8.40822 30.9636 8.37193 31.0544 8.35681 31.1499C8.3417 31.2453 8.34813 31.3429 8.37566 31.4356C8.40318 31.5282 8.45108 31.6135 8.51586 31.6852C8.58064 31.7569 8.66065 31.8132 8.75002 31.85C8.95222 31.9674 9.19142 32.0038 9.4194 31.9518C9.64737 31.8999 9.84718 31.7634 9.97852 31.57C10.1423 31.366 10.2396 31.1167 10.2571 30.8556C10.2746 30.5946 10.2116 30.3345 10.0765 30.1105C9.96696 29.8525 9.78122 29.6342 9.54416 29.4847C9.30709 29.3352 9.03001 29.2617 8.75002 29.274C8.48533 29.2793 8.2249 29.3416 7.9865 29.4568C7.74809 29.5719 7.53732 29.7371 7.36856 29.941C7.19979 30.145 7.07701 30.383 7.00857 30.6387C6.94014 30.8945 6.92767 31.162 6.97202 31.423C7.00002 31.6505 7.04552 31.8745 7.06302 31.99L5.93252 32.669V32.9L7.04552 33.551C6.99658 33.8988 6.97318 34.2497 6.97552 34.601C6.98825 34.8404 7.04899 35.0748 7.15413 35.2903C7.25927 35.5058 7.40667 35.6979 7.58756 35.8553C7.76845 36.0127 7.97914 36.1321 8.20709 36.2064C8.43505 36.2808 8.67563 36.3085 8.91452 36.288C9.15003 36.2516 9.37399 36.1613 9.56898 36.0243C9.76397 35.8873 9.92476 35.7072 10.0389 35.498C10.1529 35.2888 10.2173 35.056 10.2268 34.8179C10.2364 34.5798 10.191 34.3427 10.094 34.125C9.96351 33.8991 9.75358 33.7298 9.50513 33.6503C9.25667 33.5707 8.98749 33.5864 8.75002 33.6945C8.65556 33.734 8.57174 33.7952 8.50539 33.8732C8.43904 33.9512 8.39202 34.0437 8.36815 34.1433C8.34428 34.2429 8.34423 34.3467 8.36802 34.4463C8.3918 34.5458 8.43874 34.6384 8.50502 34.7165C8.58902 34.657 8.64502 34.587 8.71152 34.573C8.8859 34.5196 9.06852 34.4982 9.25052 34.51C9.31352 34.51 9.41502 34.7655 9.37652 34.86C9.3143 35.0376 9.19001 35.1867 9.02652 35.28C8.92804 35.3221 8.822 35.3437 8.71489 35.3435C8.60777 35.3433 8.50183 35.3212 8.40354 35.2786C8.30526 35.236 8.21669 35.1738 8.14327 35.0958C8.06985 35.0178 8.01311 34.9256 7.97652 34.825C7.89899 34.6478 7.86621 34.4543 7.88105 34.2616C7.89589 34.0688 7.9579 33.8826 8.06162 33.7194C8.16535 33.5562 8.3076 33.421 8.47586 33.3257C8.64412 33.2304 8.83322 33.178 9.02652 33.173C9.32298 33.1682 9.61511 33.2445 9.87138 33.3936C10.1276 33.5427 10.3383 33.759 10.4806 34.0191C10.6229 34.2792 10.6915 34.5733 10.6788 34.8695C10.6662 35.1657 10.5729 35.4529 10.409 35.7C9.97644 36.1649 9.50837 36.5956 9.00902 36.988L10.4405 37.2575ZM4.78102 53.5675C4.7102 54.3304 4.74435 55.0994 4.88252 55.853C4.98269 56.2087 5.13358 56.5482 5.33052 56.861L4.50102 57.428L5.38302 58.0125C4.44502 59.269 4.59902 60.6585 4.88952 62.1075C4.98234 62.8325 4.98234 63.5664 4.88952 64.2915C4.82452 64.736 4.72506 65.1748 4.59202 65.604C6.10752 64.631 6.34202 63.364 5.99202 61.936L7.39202 61.649C7.27885 61.4891 7.13486 61.3534 6.96852 61.25C6.55293 60.9289 6.18007 60.5561 5.85902 60.1405C5.70101 59.8268 5.6497 59.47 5.71286 59.1245C5.77603 58.779 5.95024 58.4635 6.20902 58.226C6.45102 58.0159 6.7518 57.8855 7.07052 57.8523C7.38923 57.8191 7.71043 57.8848 7.99052 58.0405C8.19059 58.1565 8.34673 58.3354 8.4347 58.5493C8.52267 58.7633 8.53755 59.0002 8.47702 59.2235C8.46025 59.4258 8.36761 59.6144 8.21768 59.7514C8.06774 59.8883 7.87158 59.9635 7.66852 59.962C7.43018 59.9165 7.21359 59.7934 7.05252 59.612C6.98602 59.549 7.07702 59.325 7.09452 59.178L7.73502 59.262C7.79102 59.262 7.84352 59.29 7.92402 59.311C7.98329 59.2306 8.02282 59.1374 8.03943 59.0389C8.05603 58.9404 8.04924 58.8393 8.0196 58.744C7.98997 58.6486 7.93831 58.5615 7.86881 58.4898C7.79931 58.418 7.71392 58.3636 7.61952 58.331C7.4781 58.2695 7.32488 58.2399 7.17075 58.2443C7.01661 58.2488 6.86534 58.2871 6.72769 58.3566C6.59003 58.4261 6.46938 58.525 6.37429 58.6464C6.2792 58.7678 6.21202 58.9087 6.17752 59.059C6.12663 59.2914 6.13079 59.5324 6.18965 59.7629C6.24851 59.9934 6.36045 60.207 6.51653 60.3865C6.67261 60.5661 6.86851 60.7066 7.08858 60.797C7.30865 60.8874 7.5468 60.925 7.78402 60.907C8.21356 60.8763 8.61672 60.6883 8.91634 60.379C9.21597 60.0697 9.39103 59.6608 9.40802 59.2305C9.40854 58.8585 9.38634 58.4868 9.34152 58.1175L9.45002 58.2225L10.374 57.4245L9.32402 56.553C9.35995 56.4255 9.38685 56.2957 9.40452 56.1645C9.57602 54.866 8.70452 53.8335 7.50052 53.9175C7.2015 53.9486 6.91867 54.0687 6.68848 54.262C6.45829 54.4554 6.2913 54.7133 6.20902 55.0025C6.07952 55.503 6.06202 56.0735 6.55902 56.3395C6.93787 56.5072 7.36519 56.5296 7.75952 56.4025C8.06052 56.3045 8.16552 55.888 7.89952 55.5135C7.83834 55.5569 7.77113 55.5911 7.70002 55.615C7.50162 55.6521 7.29901 55.6615 7.09802 55.643C7.06263 55.5802 7.04062 55.5108 7.03339 55.4391C7.02617 55.3674 7.03387 55.295 7.05602 55.2265C7.17847 55.0615 7.35608 54.946 7.55652 54.901C7.6599 54.8766 7.76738 54.8755 7.87127 54.8975C7.97516 54.9195 8.0729 54.9643 8.1575 55.0285C8.2421 55.0927 8.31147 55.1748 8.36066 55.2689C8.40984 55.363 8.43762 55.4669 8.44202 55.573C8.46718 55.9556 8.36235 56.3354 8.14452 56.651C7.98673 56.8349 7.77492 56.9644 7.53926 57.0209C7.3036 57.0775 7.05611 57.0583 6.83202 56.966C6.54098 56.8858 6.2801 56.7214 6.0821 56.4935C5.8841 56.2656 5.75779 55.9844 5.71902 55.685C5.66078 55.3383 5.70376 54.9823 5.84282 54.6594C5.98188 54.3366 6.21111 54.0608 6.50302 53.865C6.77569 53.6886 7.05851 53.5285 7.35002 53.3855V53.2035L5.97802 52.9445C6.22302 50.904 5.82752 49.8295 4.57802 49.399C5.13102 51.4815 5.08902 51.506 4.77402 53.5745L4.78102 53.5675ZM9.39752 39.7005C9.60402 38.4895 8.92152 37.5095 7.76652 37.359C7.44671 37.3381 7.12863 37.4203 6.85899 37.5935C6.58936 37.7668 6.3824 38.0219 6.26852 38.3215C6.14384 38.5738 6.10745 38.8606 6.1652 39.136C6.22295 39.4115 6.37149 39.6595 6.58702 39.8405C6.74229 39.9848 6.94322 40.0701 7.15487 40.0816C7.36652 40.0931 7.57551 40.0301 7.74552 39.9035C7.82728 39.8581 7.89773 39.7949 7.95157 39.7184C8.0054 39.642 8.04124 39.5544 8.0564 39.4621C8.07155 39.3698 8.06562 39.2753 8.03906 39.1857C8.0125 39.0961 7.96599 39.0136 7.90302 38.9445C7.82252 39.004 7.74902 39.102 7.67202 39.1055C7.4648 39.1025 7.25794 39.0873 7.05252 39.06C7.12453 38.8235 7.23191 38.5993 7.37102 38.395C7.44802 38.3075 7.72102 38.346 7.87502 38.395C8.06181 38.4392 8.22688 38.5483 8.34093 38.7027C8.45499 38.8571 8.51064 39.0469 8.49802 39.2385C8.52969 39.4475 8.49506 39.6612 8.39901 39.8495C8.30296 40.0379 8.15031 40.1914 7.96252 40.2885C7.63493 40.4641 7.25458 40.5145 6.89258 40.4301C6.53057 40.3457 6.21168 40.1324 5.99552 39.83C5.75279 39.4609 5.65431 39.0155 5.71886 38.5785C5.7834 38.1415 6.00646 37.7436 6.34552 37.4605C6.72583 37.1818 7.12072 36.9236 7.52852 36.687L5.99202 36.4C6.31052 34.482 5.87652 33.306 4.68302 32.858C4.68302 32.893 4.64452 32.9315 4.64802 32.9665C4.65964 33.0439 4.67838 33.12 4.70402 33.194C5.05367 34.3594 5.09348 35.5959 4.81952 36.7815C4.70918 37.5428 4.70918 38.3161 4.81952 39.0775C4.92932 39.5091 5.10022 39.9227 5.32702 40.306L4.50802 40.915L5.40052 41.4575C4.48702 42.6965 4.54302 44.044 4.89302 45.416C5.11336 46.4111 5.0687 47.4465 4.76352 48.419C4.72502 48.566 4.69352 48.713 4.65852 48.8635L4.76702 48.958C5.02884 48.7764 5.27263 48.5701 5.49502 48.342C5.8301 47.9339 6.05207 47.4449 6.13868 46.924C6.22529 46.4031 6.17351 45.8686 5.98852 45.374L7.38852 45.094L7.36402 44.898C7.16802 44.8035 6.96852 44.716 6.77952 44.611C5.70852 44.016 5.37952 42.658 6.11452 41.811C6.27989 41.5819 6.5136 41.411 6.7821 41.323C7.0506 41.2349 7.34009 41.2342 7.60902 41.321C7.99553 41.4903 8.30415 41.799 8.47352 42.1855C8.53578 42.3371 8.55526 42.5029 8.52982 42.6648C8.50439 42.8268 8.43502 42.9786 8.32927 43.1039C8.22352 43.2291 8.08543 43.323 7.93005 43.3752C7.77467 43.4274 7.60794 43.436 7.44802 43.4C7.25977 43.3125 7.11116 43.1577 7.03152 42.966C7.01849 42.8936 7.02455 42.819 7.0491 42.7497C7.07365 42.6803 7.11584 42.6186 7.17152 42.5705C7.33679 42.5544 7.50339 42.5822 7.65452 42.651C7.74599 42.6917 7.83282 42.7422 7.91352 42.8015C7.97906 42.7145 8.02248 42.6129 8.04005 42.5054C8.05762 42.398 8.04881 42.2878 8.01437 42.1845C7.97993 42.0812 7.9209 41.9878 7.84237 41.9124C7.76383 41.8369 7.66813 41.7817 7.56352 41.7515C7.4137 41.6975 7.25358 41.6784 7.09526 41.6954C6.93694 41.7125 6.78458 41.7654 6.64971 41.85C6.51483 41.9346 6.40097 42.0488 6.31674 42.184C6.2325 42.3191 6.18011 42.4716 6.16352 42.63C6.12186 42.9688 6.18804 43.3122 6.35266 43.6112C6.51728 43.9103 6.77196 44.1499 7.08052 44.296C7.40223 44.4032 7.74815 44.4146 8.07623 44.3288C8.4043 44.2431 8.7004 44.0639 8.92852 43.813C9.52352 43.1445 9.48152 42.3675 9.32052 41.678L10.479 40.95L10.4615 40.7225L9.29952 40.124C9.32052 40.047 9.36252 39.879 9.39052 39.7075L9.39752 39.7005ZM10.4475 70.1505C9.95402 71.603 10.3565 72.835 11.641 73.7695C10.339 74.7145 9.98202 75.95 10.4405 77.4025L9.06152 77.658C9.5577 78.0804 10.0254 78.5353 10.4615 79.0195C10.8395 79.499 10.7415 80.332 10.3915 80.8115C10.22 81.0717 9.97041 81.2708 9.67861 81.3802C9.38681 81.4896 9.06783 81.5037 8.76752 81.4205C8.51137 81.3674 8.28189 81.2263 8.11887 81.0218C7.95585 80.8172 7.86958 80.562 7.87502 80.3005C7.85021 80.079 7.91332 79.8566 8.05078 79.6812C8.18823 79.5058 8.38904 79.3913 8.61002 79.3625C8.89093 79.3915 9.15371 79.5149 9.35552 79.7125C9.41152 79.751 9.30302 80.0205 9.26802 80.185L8.59252 80.003C8.55654 79.9977 8.52 79.9977 8.48402 80.003C8.29152 80.493 8.40352 80.8535 8.81302 81.0355C9.04937 81.12 9.30818 81.117 9.54254 81.0271C9.7769 80.9372 9.9713 80.7664 10.0905 80.5455C10.2432 80.2184 10.2753 79.8479 10.1812 79.4995C10.087 79.151 9.87265 78.8471 9.57602 78.6415C9.25594 78.4364 8.87386 78.3507 8.49687 78.3994C8.11987 78.448 7.77207 78.6279 7.51452 78.9075C7.23701 79.2005 7.04981 79.5673 6.97533 79.9639C6.90084 80.3605 6.94222 80.7702 7.09452 81.144L5.92552 81.774V82.026L7.00002 82.6C6.9668 83.0439 6.9668 83.4896 7.00002 83.9335C7.07838 84.3465 7.29863 84.7191 7.62266 84.9869C7.9467 85.2547 8.35415 85.4008 8.77452 85.4C9.12504 85.3821 9.45906 85.2456 9.72174 85.0128C9.98441 84.78 10.1601 84.4648 10.22 84.119C10.2636 83.9658 10.2736 83.805 10.2494 83.6476C10.2251 83.4901 10.1671 83.3398 10.0794 83.2069C9.99163 83.0739 9.87622 82.9615 9.74102 82.8773C9.60582 82.7931 9.45402 82.7391 9.29602 82.719C9.15249 82.7125 9.00916 82.7356 8.87491 82.7868C8.74066 82.8379 8.61834 82.9161 8.51552 83.0165C8.37202 83.174 8.42452 83.517 8.40002 83.685L9.31002 83.6255C9.31002 83.8075 9.36602 84.1155 9.29252 84.154C9.03702 84.2765 8.67302 84.434 8.46302 84.336C8.32019 84.2629 8.19643 84.1574 8.10163 84.028C8.00683 83.8985 7.94361 83.7487 7.91702 83.5905C7.9457 83.1943 8.11589 82.8216 8.39652 82.5405C8.60234 82.3777 8.85442 82.2843 9.1166 82.2736C9.37879 82.2629 9.63763 82.3355 9.85602 82.481C11.046 83.1285 10.941 84.8435 9.67052 85.631C9.46052 85.757 9.24002 85.8585 9.02302 85.981V86.17L10.423 86.3765C9.99252 88.095 10.5945 89.719 11.753 89.901C11.459 88.816 11.2245 87.7345 11.4835 86.6075C11.8055 85.2075 11.8965 83.8075 11.074 82.516C11.074 82.4915 11.074 82.446 11.074 82.4705L11.9 81.9L11.0425 81.305C11.8195 80.1885 11.865 78.939 11.564 77.658C11.2816 76.4502 11.3459 75.1873 11.7495 74.0145C11.7849 73.8222 11.7679 73.624 11.7005 73.4405C11.3594 72.3749 11.2991 71.2392 11.5255 70.1435C11.8405 68.8345 11.8755 67.5395 11.095 66.346C11.0705 66.304 11.095 66.234 11.095 66.213L11.9 65.674L11.0355 65.1C11.8755 63.9205 11.8475 62.6045 11.5325 61.2745C11.3287 60.3186 11.3442 59.329 11.578 58.38C11.6305 58.135 11.7005 57.897 11.774 57.6205C10.493 58.1665 10.0765 59.318 10.395 61.201L8.99502 61.4565C9.24263 61.6876 9.51224 61.8939 9.80002 62.0725C10.0602 62.2834 10.2857 62.5338 10.4685 62.8145C10.6517 63.1365 10.7236 63.51 10.673 63.877C10.6223 64.244 10.4521 64.5841 10.1885 64.8445C9.94816 65.0703 9.64057 65.2113 9.31262 65.246C8.98468 65.2808 8.65436 65.2074 8.37202 65.037C8.15025 64.9171 7.98323 64.7163 7.90566 64.4764C7.82809 64.2366 7.84595 63.976 7.95552 63.749C8.16961 63.4664 8.46714 63.2582 8.80602 63.154C8.92852 63.1085 9.20502 63.3465 9.34852 63.504C9.40802 63.574 9.30652 63.91 9.28202 63.91C9.06418 63.8983 8.84765 63.869 8.63452 63.8225L8.46302 63.784C8.40822 63.8636 8.37193 63.9544 8.35681 64.0499C8.3417 64.1453 8.34813 64.2429 8.37566 64.3356C8.40318 64.4282 8.45108 64.5135 8.51586 64.5852C8.58064 64.6569 8.66065 64.7132 8.75002 64.75C8.95222 64.8674 9.19142 64.9038 9.4194 64.8518C9.64737 64.7999 9.84718 64.6634 9.97852 64.47C10.1423 64.266 10.2396 64.0167 10.2571 63.7556C10.2746 63.4946 10.2116 63.2345 10.0765 63.0105C9.96786 62.7506 9.78204 62.5304 9.54419 62.3795C9.30633 62.2287 9.0279 62.1545 8.74652 62.167C8.48183 62.1723 8.2214 62.2346 7.983 62.3497C7.74459 62.4649 7.53382 62.6301 7.36506 62.834C7.19629 63.038 7.07351 63.276 7.00507 63.5317C6.93664 63.7875 6.92417 64.055 6.96852 64.316C6.99652 64.5435 7.04202 64.7675 7.05952 64.883L5.92902 65.562V65.8L7.04202 66.451C6.99308 66.7988 6.96968 67.1497 6.97202 67.501C6.98475 67.7404 7.04549 67.9748 7.15063 68.1903C7.25577 68.4058 7.40317 68.5979 7.58406 68.7553C7.76495 68.9127 7.97564 69.0321 8.20359 69.1064C8.43155 69.1808 8.67213 69.2085 8.91102 69.188C9.14653 69.1516 9.37049 69.0613 9.56548 68.9243C9.76047 68.7873 9.92126 68.6072 10.0354 68.398C10.1494 68.1888 10.2138 67.956 10.2233 67.7179C10.2329 67.4798 10.1875 67.2427 10.0905 67.025C9.96009 66.7999 9.75077 66.6313 9.50311 66.5518C9.25546 66.4722 8.98709 66.4874 8.75002 66.5945C8.65556 66.634 8.57174 66.6952 8.50539 66.7732C8.43904 66.8512 8.39202 66.9437 8.36815 67.0433C8.34428 67.1429 8.34423 67.2467 8.36802 67.3463C8.3918 67.4458 8.43874 67.5384 8.50502 67.6165C8.58902 67.557 8.64502 67.487 8.71152 67.473C8.8859 67.4196 9.06852 67.3982 9.25052 67.41C9.31352 67.41 9.41502 67.6655 9.37652 67.76C9.3143 67.9376 9.19001 68.0867 9.02652 68.18C8.92804 68.2221 8.822 68.2437 8.71489 68.2435C8.60777 68.2432 8.50183 68.2212 8.40354 68.1786C8.30526 68.136 8.21669 68.0738 8.14327 67.9958C8.06985 67.9178 8.01311 67.8256 7.97652 67.725C7.89899 67.5478 7.86621 67.3543 7.88105 67.1616C7.89589 66.9688 7.9579 66.7826 8.06162 66.6194C8.16535 66.4562 8.3076 66.321 8.47586 66.2257C8.64412 66.1304 8.83322 66.078 9.02652 66.073C9.32298 66.0682 9.61511 66.1445 9.87138 66.2936C10.1276 66.4427 10.3383 66.659 10.4806 66.9191C10.6229 67.1792 10.6915 67.4733 10.6788 67.7695C10.6662 68.0657 10.5729 68.3529 10.409 68.6C9.97644 69.0649 9.50837 69.4956 9.00902 69.888L10.4475 70.1505ZM4.78802 86.4605C4.7172 87.2234 4.75135 87.9924 4.88952 88.746C4.98969 89.1017 5.14058 89.4412 5.33752 89.754L4.50802 90.321L5.39002 90.9055C4.45202 92.162 4.60602 93.5515 4.89652 95.0005C4.98934 95.7255 4.98934 96.4594 4.89652 97.1845C4.83152 97.629 4.73206 98.0678 4.59902 98.497C6.11452 97.524 6.34902 96.257 5.99902 94.829L7.39902 94.542C7.28309 94.3839 7.13672 94.2506 6.96852 94.15C6.55293 93.8289 6.18007 93.4561 5.85902 93.0405C5.70101 92.7268 5.6497 92.37 5.71286 92.0245C5.77603 91.679 5.95024 91.3635 6.20902 91.126C6.45102 90.9159 6.7518 90.7855 7.07052 90.7523C7.38923 90.7191 7.71043 90.7848 7.99052 90.9405C8.19059 91.0565 8.34673 91.2354 8.4347 91.4493C8.52267 91.6633 8.53755 91.9002 8.47702 92.1235C8.46025 92.3258 8.36761 92.5144 8.21768 92.6514C8.06774 92.7883 7.87158 92.8635 7.66852 92.862C7.43018 92.8165 7.21359 92.6934 7.05252 92.512C6.98602 92.449 7.07702 92.225 7.09452 92.078C7.30802 92.106 7.52152 92.1305 7.73502 92.162C7.79102 92.162 7.84352 92.19 7.92402 92.211C7.98329 92.1306 8.02282 92.0374 8.03943 91.9389C8.05603 91.8404 8.04924 91.7394 8.0196 91.644C7.98997 91.5486 7.93831 91.4615 7.86881 91.3898C7.79931 91.318 7.71392 91.2636 7.61952 91.231C7.4781 91.1695 7.32488 91.1399 7.17075 91.1443C7.01661 91.1488 6.86534 91.1871 6.72769 91.2566C6.59003 91.3261 6.46938 91.425 6.37429 91.5464C6.2792 91.6678 6.21202 91.8087 6.17752 91.959C6.12663 92.1914 6.13079 92.4324 6.18965 92.6629C6.24851 92.8934 6.36045 93.107 6.51653 93.2865C6.67261 93.4661 6.86851 93.6066 7.08858 93.697C7.30865 93.7874 7.5468 93.825 7.78402 93.807C8.21356 93.7763 8.61672 93.5883 8.91634 93.279C9.21597 92.9697 9.39103 92.5608 9.40802 92.1305C9.40854 91.7585 9.38634 91.3868 9.34152 91.0175L9.45002 91.1225L10.374 90.3245L9.32402 89.453C9.35995 89.3255 9.38685 89.1957 9.40452 89.0645C9.57602 87.766 8.70452 86.7335 7.50052 86.8175C7.2015 86.8486 6.91867 86.9687 6.68848 87.162C6.45829 87.3554 6.2913 87.6133 6.20902 87.9025C6.07952 88.403 6.06202 88.9735 6.55902 89.2395C6.93787 89.4072 7.36519 89.4296 7.75952 89.3025C8.06052 89.2045 8.16552 88.788 7.89952 88.4135C7.83834 88.4569 7.77113 88.4911 7.70002 88.515C7.50162 88.5521 7.29901 88.5615 7.09802 88.543C7.06263 88.4802 7.04062 88.4108 7.03339 88.3391C7.02617 88.2674 7.03387 88.195 7.05602 88.1265C7.17847 87.9615 7.35608 87.846 7.55652 87.801C7.6599 87.7766 7.76738 87.7755 7.87127 87.7975C7.97516 87.8195 8.0729 87.8643 8.1575 87.9285C8.2421 87.9927 8.31147 88.0748 8.36066 88.1689C8.40984 88.263 8.43762 88.3669 8.44202 88.473C8.46718 88.8556 8.36235 89.2354 8.14452 89.551C7.98673 89.7349 7.77492 89.8644 7.53926 89.9209C7.3036 89.9775 7.05611 89.9583 6.83202 89.866C6.54098 89.7858 6.2801 89.6214 6.0821 89.3935C5.8841 89.1656 5.75779 88.8844 5.71902 88.585C5.66078 88.2383 5.70376 87.8823 5.84282 87.5594C5.98188 87.2366 6.21111 86.9608 6.50302 86.765C6.77569 86.5886 7.05851 86.4285 7.35002 86.2855V86.1035L5.97802 85.8445C6.22302 83.804 5.82752 82.7295 4.57802 82.299C5.13102 84.3815 5.08902 84.406 4.77402 86.4745L4.78802 86.4605ZM9.40452 72.5935C9.61102 71.3825 8.92852 70.4025 7.77352 70.252C7.45371 70.2311 7.13563 70.3133 6.86599 70.4865C6.59636 70.6597 6.3894 70.9149 6.27552 71.2145C6.15084 71.4668 6.11445 71.7536 6.1722 72.029C6.22996 72.3045 6.37849 72.5525 6.59402 72.7335C6.74929 72.8778 6.95022 72.9631 7.16187 72.9746C7.37352 72.9861 7.58251 72.9231 7.75252 72.7965C7.83428 72.7511 7.90473 72.6879 7.95857 72.6114C8.0124 72.535 8.04824 72.4474 8.0634 72.3551C8.07855 72.2628 8.07262 72.1683 8.04606 72.0787C8.0195 71.9891 7.97299 71.9066 7.91002 71.8375C7.82952 71.897 7.75602 71.995 7.67902 71.9985C7.4718 71.9955 7.26494 71.9803 7.05952 71.953C7.13153 71.7165 7.23891 71.4923 7.37802 71.288C7.45502 71.2005 7.72802 71.239 7.88202 71.288C8.06881 71.3322 8.23388 71.4413 8.34794 71.5957C8.46199 71.7501 8.51764 71.9399 8.50502 72.1315C8.53668 72.3405 8.50206 72.5542 8.40601 72.7425C8.30996 72.9309 8.15731 73.0844 7.96952 73.1815C7.64193 73.3571 7.26158 73.4074 6.89958 73.3231C6.53757 73.2387 6.21868 73.0254 6.00252 72.723C5.75979 72.3539 5.66131 71.9085 5.72586 71.4715C5.7904 71.0345 6.01346 70.6366 6.35252 70.3535C6.73283 70.0748 7.12772 69.8166 7.53552 69.58L5.99202 69.3C6.31052 67.382 5.87652 66.206 4.68302 65.758C4.68302 65.793 4.64452 65.8315 4.64802 65.8665C4.65964 65.9439 4.67838 66.02 4.70402 66.094C5.05367 67.2594 5.09348 68.4959 4.81952 69.6815C4.70918 70.4428 4.70918 71.2161 4.81952 71.9775C4.92932 72.409 5.10022 72.8227 5.32702 73.206L4.50802 73.815L5.40052 74.3575C4.48702 75.5965 4.54302 76.944 4.89302 78.316C5.11336 79.3111 5.0687 80.3465 4.76352 81.319C4.72502 81.466 4.69352 81.613 4.65852 81.7635L4.76702 81.858C5.02884 81.6764 5.27263 81.4701 5.49502 81.242C5.8301 80.8339 6.05207 80.3449 6.13868 79.824C6.22529 79.3031 6.17351 78.7686 5.98852 78.274L7.38852 77.994L7.36402 77.798C7.16802 77.7035 6.96852 77.616 6.77952 77.511C5.70852 76.916 5.37952 75.558 6.11452 74.711C6.27989 74.4818 6.5136 74.311 6.7821 74.223C7.0506 74.1349 7.34009 74.1342 7.60902 74.221C7.99553 74.3903 8.30415 74.699 8.47352 75.0855C8.53578 75.2371 8.55526 75.4029 8.52982 75.5648C8.50439 75.7268 8.43502 75.8786 8.32927 76.0039C8.22352 76.1291 8.08543 76.2229 7.93005 76.2752C7.77467 76.3274 7.60794 76.3359 7.44802 76.3C7.25977 76.2125 7.11116 76.0576 7.03152 75.866C7.01849 75.7936 7.02455 75.719 7.0491 75.6497C7.07365 75.5803 7.11584 75.5186 7.17152 75.4705C7.33679 75.4544 7.50339 75.4822 7.65452 75.551C7.74599 75.5917 7.83282 75.6422 7.91352 75.7015C7.97906 75.6145 8.02248 75.5129 8.04005 75.4054C8.05762 75.298 8.04881 75.1878 8.01437 75.0845C7.97993 74.9812 7.9209 74.8878 7.84237 74.8124C7.76383 74.7369 7.66813 74.6817 7.56352 74.6515C7.4137 74.5975 7.25358 74.5784 7.09526 74.5954C6.93694 74.6125 6.78458 74.6653 6.64971 74.75C6.51483 74.8346 6.40097 74.9488 6.31674 75.084C6.2325 75.2191 6.18011 75.3716 6.16352 75.53C6.12186 75.8688 6.18804 76.2122 6.35266 76.5112C6.51728 76.8103 6.77196 77.0499 7.08052 77.196C7.40223 77.3032 7.74815 77.3146 8.07623 77.2288C8.4043 77.1431 8.7004 76.9639 8.92852 76.713C9.52352 76.0445 9.48152 75.2675 9.32052 74.578L10.479 73.85L10.4615 73.6225L9.29952 73.024C9.32052 72.947 9.36252 72.779 9.39052 72.6075L9.40452 72.5935Z" fill="white"/>
</g>
<path d="M45.15 53.263C53.1719 53.263 59.675 46.76 59.675 38.738C59.675 30.7161 53.1719 24.213 45.15 24.213C37.1281 24.213 30.625 30.7161 30.625 38.738C30.625 46.76 37.1281 53.263 45.15 53.263Z" fill="white"/>
<path d="M56.5284 36.3755C56.4342 36.4021 56.3419 36.4349 56.2519 36.4735C56.2024 36.4986 56.1639 36.5409 56.1434 36.5925C56.0839 36.7395 55.9929 36.764 55.8494 36.673C55.7024 36.8305 55.5624 36.9915 55.4049 37.135C55.3559 37.1805 55.2474 37.156 55.1879 37.191C55.0059 37.2995 54.7819 37.352 54.6664 37.541C54.6383 37.575 54.6022 37.6014 54.5614 37.618C54.4914 37.6565 54.4179 37.688 54.3479 37.723C54.2909 37.7679 54.2271 37.8033 54.1589 37.828C54.0329 37.828 54.0119 37.919 54.0609 38.0065C54.1099 38.094 54.0854 38.2025 53.9769 38.262C53.9084 38.2969 53.8521 38.3516 53.8152 38.4191C53.7784 38.4865 53.7628 38.5635 53.7704 38.64C53.7645 38.7314 53.7231 38.8168 53.6549 38.878C53.5811 38.947 53.4958 39.0027 53.4029 39.0425C53.381 39.0528 53.3571 39.0581 53.3329 39.0581C53.3087 39.0581 53.2848 39.0528 53.2629 39.0425C53.1932 38.9889 53.1076 38.9598 53.0197 38.9598C52.9317 38.9598 52.8462 38.9889 52.7764 39.0425C52.7099 39.0775 52.6224 39.0635 52.5489 39.0915C52.4273 39.1323 52.3101 39.1851 52.1989 39.249C52.1573 39.2779 52.1078 39.2934 52.0572 39.2934C52.0065 39.2934 51.957 39.2779 51.9154 39.249C51.7754 39.179 51.6354 39.116 51.4884 39.249C51.4807 39.2523 51.4723 39.254 51.4639 39.254C51.4555 39.254 51.4472 39.2523 51.4394 39.249L50.8899 39.1405C50.7849 39.1195 50.6799 39.0705 50.5994 39.1965C50.5882 39.2081 50.5745 39.217 50.5593 39.2225C50.5442 39.2279 50.5279 39.2298 50.5119 39.228C50.3999 39.228 50.3614 39.2595 50.3579 39.3715C50.3579 39.417 50.2984 39.4625 50.2669 39.508L50.1304 39.718C50.0978 39.7961 50.0541 39.8692 50.0009 39.935C49.9134 40.026 49.8469 40.096 49.9134 40.243C49.9449 40.3095 49.9134 40.4215 49.8679 40.5055C49.8009 40.6295 49.7401 40.7569 49.6859 40.887C49.6474 41.041 49.4339 41.321 49.2834 41.3455C49.2589 41.3495 49.2337 41.3471 49.2104 41.3386C49.1871 41.33 49.1664 41.3155 49.1504 41.2965C49.0769 41.188 48.9614 41.181 48.9019 41.251C48.7724 41.405 48.6114 41.363 48.4609 41.3595C48.2299 41.3595 48.2299 41.3595 48.2299 41.5905H47.6524C47.6231 41.5489 47.5962 41.5057 47.5719 41.461C47.5299 41.377 47.5229 41.3035 47.6244 41.244C47.7259 41.1845 47.7434 41.0935 47.6244 41.048C47.4284 40.978 47.4214 40.8345 47.4319 40.6665C47.4279 40.6032 47.4149 40.5407 47.3934 40.481C47.3276 40.5006 47.2641 40.5276 47.2044 40.5615C47.0609 40.663 46.9174 40.768 46.7774 40.88C46.6374 40.992 46.5569 41.0795 46.4519 41.1845C46.3905 41.2191 46.3212 41.2374 46.2507 41.2374C46.1801 41.2374 46.1108 41.2191 46.0494 41.1845C45.9111 41.1068 45.7658 41.0424 45.6154 40.992C45.5769 40.992 45.4929 41.0445 45.4649 41.0935C45.4462 41.1575 45.4462 41.2255 45.4649 41.2895C45.4649 41.3175 45.5279 41.335 45.5489 41.3665C45.5746 41.4102 45.5968 41.4558 45.6154 41.503C45.5699 41.503 45.5279 41.503 45.4824 41.503C45.4369 41.503 45.2934 41.503 45.1919 41.503C45.1744 41.6395 45.1429 41.7445 44.9574 41.741C44.8734 41.741 44.7824 41.8495 44.7019 41.9195C44.631 41.9781 44.5676 42.0451 44.5129 42.119C44.4009 42.2625 44.2889 42.3325 44.1209 42.1925C44.0968 42.1812 44.0705 42.1754 44.0439 42.1754C44.0173 42.1754 43.991 42.1812 43.9669 42.1925C43.7849 42.259 43.6169 42.336 43.4664 42.399C43.4577 42.4623 43.4388 42.5238 43.4104 42.581C43.3404 42.679 43.2214 42.7525 43.3159 42.8995C43.3159 42.8995 43.2774 42.9905 43.2494 42.994C43.0779 42.994 43.0744 43.1165 43.0919 43.253C43.3404 43.309 43.3649 43.533 43.3719 43.7185C43.3719 43.8305 43.2634 43.9495 43.1969 44.0685C43.1678 44.1295 43.1205 44.18 43.0617 44.2132C43.0028 44.2463 42.9352 44.2606 42.8679 44.254C42.6264 44.254 42.3814 44.254 42.1399 44.254C42.1014 44.254 42.0454 44.254 42.0314 44.275C41.8879 44.4745 41.6289 44.4395 41.4469 44.562C41.4151 44.5727 41.3807 44.5727 41.3489 44.562L40.5124 44.541C40.4611 44.544 40.4097 44.5356 40.3619 44.5165C40.2394 44.443 40.1239 44.38 40.0119 44.5165C39.8439 44.422 39.6899 44.541 39.5359 44.562C39.4414 44.562 39.3574 44.6845 39.2804 44.7615C39.2034 44.8385 39.2524 44.8735 39.2279 44.9225C39.2034 44.9715 39.1229 45.024 39.0459 44.9225C38.9689 44.821 38.8849 44.793 38.8079 44.723C38.772 44.6901 38.7423 44.651 38.7204 44.6075C38.6399 44.4325 38.5069 44.415 38.3704 44.5305C38.2731 44.6031 38.1642 44.6587 38.0484 44.695C38.0197 44.6977 37.9908 44.6931 37.9645 44.6814C37.9381 44.6698 37.9152 44.6516 37.8979 44.6285C37.8841 44.6026 37.8769 44.5738 37.8769 44.5445C37.8769 44.5152 37.8841 44.4863 37.8979 44.4605C37.9273 44.4257 37.9434 44.3817 37.9434 44.3362C37.9434 44.2908 37.9273 44.2467 37.8979 44.212C37.8419 44.1175 37.7719 44.1315 37.6809 44.149C37.4394 44.1875 37.3309 44.1175 37.3309 43.953C37.3556 43.8826 37.391 43.8165 37.4359 43.757C37.426 43.727 37.4092 43.6998 37.3868 43.6777C37.3644 43.6555 37.337 43.6389 37.3069 43.6294C37.2769 43.6198 37.245 43.6175 37.2139 43.6226C37.1827 43.6278 37.1533 43.6403 37.1279 43.659C37.0124 43.7255 36.9074 43.806 36.7779 43.8655C36.7288 43.8798 36.6766 43.8798 36.6274 43.8655C36.5539 43.8655 36.4769 43.848 36.4034 43.8655C36.2634 43.8655 36.1514 43.9215 36.1794 44.107C36.1794 44.1385 36.1304 44.2085 36.0989 44.212C35.9624 44.212 35.8259 44.212 35.6929 44.212C35.5599 44.212 35.4759 44.289 35.3919 44.1665L35.3604 44.114L35.4549 43.974C35.4037 43.9537 35.3554 43.9266 35.3114 43.8935C35.2659 43.8585 35.2099 43.806 35.2099 43.7605C35.2099 43.631 35.1399 43.617 35.0349 43.6065C34.966 43.5927 34.8981 43.574 34.8319 43.5505C34.7863 43.5367 34.7376 43.5367 34.6919 43.5505C34.5519 43.603 34.4154 43.666 34.2754 43.722C34.2474 43.722 34.1949 43.743 34.1809 43.722C34.0899 43.624 33.9604 43.666 33.8659 43.624C33.7119 43.5575 33.6419 43.5995 33.5964 43.7255C33.4564 43.7045 33.3304 43.694 33.2079 43.666C33.1365 43.6489 33.0697 43.6167 33.0119 43.5715C32.9411 43.5097 32.8504 43.4757 32.7564 43.4757C32.6625 43.4757 32.5717 43.5097 32.5009 43.5715C32.4204 43.6275 32.2804 43.596 32.1509 43.5995C32.1194 43.5995 32.0844 43.575 32.0494 43.5715C32.0144 43.568 31.8884 43.5715 31.8779 43.5715C31.8674 43.5715 31.8184 43.4 31.8534 43.351C31.8932 43.3013 31.9148 43.2396 31.9148 43.176C31.9148 43.1124 31.8932 43.0507 31.8534 43.001C31.8192 42.949 31.801 42.8882 31.801 42.826C31.801 42.7638 31.8192 42.703 31.8534 42.651C31.9242 42.4843 31.9815 42.3123 32.0249 42.1365C32.1579 42.1365 32.2209 42.1715 32.2314 42.3255C32.2314 42.3675 32.2629 42.4375 32.2909 42.4445C32.3519 42.4528 32.4139 42.4431 32.4694 42.4165C32.4904 42.4165 32.5009 42.336 32.4904 42.2975C32.4641 42.2095 32.4602 42.1163 32.4791 42.0264C32.4981 41.9365 32.5393 41.8528 32.5989 41.783C32.7844 41.8915 32.7844 41.8915 33.0084 41.804C33.0924 41.769 33.1764 41.734 33.2639 41.706C33.3818 41.6561 33.5093 41.6334 33.6371 41.6394C33.765 41.6455 33.8898 41.6802 34.0024 41.741C34.1084 41.7913 34.22 41.8289 34.3349 41.853C34.3629 41.853 34.4119 41.853 34.4119 41.8775C34.4469 42.084 34.6219 42.0245 34.7619 42.0595C34.9719 42.1155 35.0069 42.224 34.8739 42.3885C34.8443 42.4441 34.8208 42.5028 34.8039 42.5635C34.9229 42.5635 35.0279 42.5635 35.0734 42.5285C35.163 42.4455 35.2294 42.3405 35.2659 42.224C35.3044 42.077 35.3359 41.9755 35.5179 41.965C35.5809 41.965 35.6439 41.874 35.7174 41.8145L35.7804 41.8635C35.9239 41.9615 36.0709 41.9055 36.0884 41.7305C36.1059 41.5555 36.1794 41.524 36.3334 41.531C36.4058 41.5199 36.4757 41.4962 36.5399 41.461C36.5733 41.442 36.6102 41.4301 36.6484 41.426C36.8794 41.4715 37.1244 41.461 37.2924 41.685C37.3449 41.755 37.4814 41.762 37.5899 41.804C37.6053 41.7677 37.6253 41.7336 37.6494 41.7025C37.6599 41.6909 37.673 41.682 37.6876 41.6766C37.7022 41.6711 37.7179 41.6692 37.7334 41.671C37.7473 41.6778 37.7596 41.6876 37.7693 41.6997C37.7789 41.7118 37.7858 41.7259 37.7894 41.741C37.8104 41.839 37.8244 41.9405 37.8489 42.091L38.3704 41.72L38.4789 41.818L38.7694 41.636L38.5734 41.496L39.1194 40.985L39.5499 41.3C39.6619 41.104 39.6619 41.104 39.4099 40.9255L39.5359 40.8625L39.4799 40.7995L39.3924 40.6875C39.4554 40.6875 39.5569 40.6875 39.5709 40.6875C39.602 40.7373 39.6462 40.7777 39.6987 40.8042C39.7511 40.8308 39.8098 40.8424 39.8684 40.838C39.9104 40.838 39.9489 40.894 39.9839 40.9255C40.0784 41.0095 40.1764 40.9815 40.1974 40.859C40.2289 40.663 40.3444 40.796 40.4249 40.7995C40.4249 40.7995 40.4529 40.7995 40.4529 40.7785C40.4704 40.565 40.5859 40.4775 40.8029 40.467C40.8694 40.467 40.9394 40.3795 40.9989 40.3235C41.0584 40.2675 41.1599 40.1625 41.2859 40.278C41.4119 40.3935 41.4889 40.3025 41.5344 40.138C41.3139 39.907 41.0864 39.8195 40.8344 40.103C40.8145 40.0599 40.7886 40.0198 40.7574 39.984C40.6956 39.9382 40.6255 39.9049 40.5509 39.886C40.4354 39.865 40.3129 39.886 40.2009 39.8545C40.0889 39.823 40.0994 39.76 40.0504 39.7075C40.0014 39.655 39.8894 39.5115 39.7984 39.4275C39.6987 39.3429 39.5947 39.2634 39.4869 39.1895C39.4029 39.354 39.2944 39.4835 39.0634 39.375L39.2069 39.277C39.1439 39.144 39.0739 39.0285 38.8954 39.046C38.8447 39.0451 38.7951 39.0306 38.7519 39.004C38.673 38.9598 38.5912 38.9212 38.5069 38.8885C38.3494 38.85 38.3354 38.7975 38.3879 38.6505C38.4194 38.563 38.3879 38.3845 38.3564 38.3565C38.1569 38.2515 38.1324 38.143 38.2934 37.968L37.9819 37.996C37.9539 37.996 37.9014 37.996 37.8979 37.9715C37.8909 37.9555 37.8872 37.9382 37.8872 37.9207C37.8872 37.9033 37.8909 37.886 37.8979 37.87C37.9749 37.793 37.9819 37.73 37.8804 37.6635C37.8349 37.7146 37.7939 37.7697 37.7579 37.828C37.7424 37.8734 37.7424 37.9226 37.7579 37.968C37.7836 38.0615 37.7852 38.1599 37.7625 38.2542C37.7399 38.3484 37.6938 38.4354 37.6284 38.507C37.5689 38.535 37.4849 38.507 37.4184 38.507C37.3519 38.507 37.3029 38.5455 37.2994 38.5735C37.2994 38.6785 37.2994 38.787 37.2994 38.892C37.2886 38.9459 37.2697 38.9978 37.2434 39.046C37.2084 39.011 37.1699 38.976 37.1349 38.9375C37.1198 38.9161 37.1058 38.8939 37.0929 38.871L36.9774 38.9935C36.9284 38.892 36.9774 38.7345 36.8024 38.731C36.6799 38.731 36.5609 38.6855 36.5364 38.801C36.434 38.8102 36.3309 38.8102 36.2284 38.801C36.1668 38.7837 36.1111 38.7498 36.0674 38.703C35.9764 38.6155 35.9029 38.4825 35.7489 38.703C35.7489 38.535 35.7489 38.4125 35.7489 38.2935C35.7489 38.1185 35.6369 38.01 35.5529 37.884C35.5529 37.8595 35.4444 37.884 35.3989 37.884C35.3263 37.9357 35.2503 37.9825 35.1714 38.024C35.1355 38.0302 35.0986 38.0291 35.0631 38.0207C35.0276 38.0123 34.9942 37.9967 34.9649 37.975C34.8569 37.8754 34.7541 37.7702 34.6569 37.66C34.5519 37.681 34.4574 37.7265 34.4014 37.695C34.3454 37.6635 34.3454 37.562 34.3419 37.4885C34.3384 37.415 34.3979 37.408 34.4399 37.387C34.4819 37.366 34.6254 37.317 34.7129 37.2715C34.7912 37.2386 34.8653 37.1963 34.9334 37.1455C34.9999 37.0895 35.0524 37.0125 35.1154 36.9495C35.1784 36.8865 35.3324 36.75 35.4654 36.659C35.522 36.5923 35.5939 36.5403 35.675 36.5074C35.756 36.4744 35.8438 36.4616 35.9309 36.47C36.0359 36.491 36.0044 36.379 35.9974 36.3055C35.9939 36.2472 35.9939 36.1888 35.9974 36.1305C36.0591 36.1252 36.1212 36.1252 36.1829 36.1305C36.3649 36.176 36.4769 36.05 36.6099 35.9695C36.7429 35.889 36.7919 35.875 36.8794 35.826C36.9669 35.777 36.9879 35.7735 37.0054 35.7315C37.0229 35.6895 36.9844 35.6335 36.9529 35.6055C36.8531 35.5129 36.744 35.4308 36.6274 35.3605C36.5917 35.3493 36.5541 35.3454 36.5168 35.349C36.4795 35.3526 36.4433 35.3637 36.4104 35.3815C36.3159 35.4235 36.2214 35.4445 36.1759 35.3465C36.1304 35.2485 36.2074 35.2135 36.2354 35.147C36.2634 35.0805 36.3229 35.0525 36.3229 35.007C36.3229 34.8705 36.3439 34.769 36.5189 34.7865C36.5452 34.7498 36.5587 34.7056 36.5574 34.6605C36.4734 34.4435 36.4699 34.454 36.7009 34.4015C36.734 34.3915 36.7647 34.3748 36.7912 34.3525C36.8177 34.3303 36.8393 34.3029 36.8549 34.272C36.9284 34.104 37.0159 33.971 37.2049 33.964C37.2049 33.964 37.2434 33.964 37.2539 33.964C37.3904 33.7785 37.5654 33.8835 37.7334 33.8905C37.8296 33.8931 37.9245 33.8676 38.0064 33.817C38.1169 33.7644 38.2386 33.7401 38.3608 33.7462C38.483 33.7523 38.6018 33.7886 38.7064 33.852C38.7463 33.8792 38.7899 33.9004 38.8359 33.915C38.9024 33.9465 38.9689 33.978 39.0354 34.0025C39.0864 34.0241 39.141 34.036 39.1964 34.0375C39.4387 34.0073 39.6843 34.0564 39.8964 34.1775C40.079 34.2539 40.269 34.3114 40.4634 34.349C40.5339 34.369 40.5948 34.4137 40.6349 34.475C40.672 34.5552 40.7328 34.6221 40.8092 34.6666C40.8856 34.711 40.9738 34.7309 41.0619 34.7235C41.2754 34.7235 41.4924 34.7235 41.7059 34.762C41.7339 34.7678 41.7601 34.78 41.7825 34.7976C41.805 34.8152 41.8231 34.8378 41.8354 34.8635C41.8844 35.0455 41.9439 35.105 42.1294 35.1085C42.1784 35.1085 42.2274 35.1085 42.3079 35.1085C42.2935 35.0527 42.276 34.9978 42.2554 34.944C42.1735 34.7959 42.138 34.6266 42.1536 34.458C42.1693 34.2895 42.2352 34.1295 42.3429 33.999C42.3648 33.9684 42.3801 33.9337 42.3879 33.897C42.3958 33.8603 42.3959 33.8223 42.3884 33.7855C42.3606 33.6489 42.3776 33.5071 42.4369 33.381C42.4962 33.2549 42.5946 33.1512 42.7174 33.0855C42.8385 33.0373 42.9624 32.9964 43.0884 32.963C43.2389 32.921 43.3509 32.858 43.3194 32.669C43.3194 32.6445 43.3404 32.613 43.3614 32.55C43.5504 32.83 43.7919 32.774 44.0614 32.704L43.9914 32.5675L44.0194 32.5185L44.4394 32.7075C44.4674 32.7075 44.4884 32.767 44.5164 32.7705C44.8139 32.809 44.9434 33.0715 45.1499 33.2325C45.1814 33.257 45.2129 33.299 45.2444 33.299C45.5071 33.3186 45.7586 33.4133 45.9689 33.572C46.3 33.7186 46.6569 33.7983 47.0189 33.8065C47.0746 33.8075 47.1299 33.8158 47.1834 33.831C47.4529 33.9255 47.5334 33.8975 47.6279 33.6245C47.6489 33.572 47.6629 33.488 47.6979 33.4775C47.7763 33.46 47.8575 33.46 47.9359 33.4775C48.0024 33.4775 48.0724 33.5545 48.1249 33.5405C48.3659 33.5056 48.6095 33.4915 48.8529 33.4985C48.9404 33.4985 49.0139 33.4775 49.0384 33.5895C49.0384 33.6105 49.0909 33.6455 49.1084 33.642C49.2449 33.607 49.3744 33.565 49.5109 33.5265L49.6544 33.4775C49.7927 33.4499 49.9261 33.4015 50.0499 33.334C50.1419 33.2561 50.2572 33.2111 50.3776 33.206C50.498 33.201 50.6167 33.2361 50.7149 33.306C50.896 33.3993 51.1044 33.4253 51.3029 33.3795C51.4859 33.3672 51.6694 33.3672 51.8524 33.3795C51.9422 33.3743 52.0322 33.3743 52.1219 33.3795C52.1975 33.3881 52.2723 33.4021 52.3459 33.4215C52.3704 33.4215 52.3949 33.453 52.4089 33.446C52.6644 33.3235 52.9234 33.446 53.1824 33.446C53.3076 33.4444 53.4327 33.4514 53.5569 33.467C53.5781 33.4647 53.5985 33.4575 53.6164 33.446C53.7321 33.3696 53.8692 33.3321 54.0077 33.339C54.1462 33.3459 54.2789 33.3969 54.3864 33.4845C54.3996 33.4939 54.4137 33.5021 54.4284 33.509C54.6069 33.509 54.7784 33.53 54.9569 33.5475C55.0549 33.5475 55.1494 33.5825 55.2824 33.607C55.3661 33.5452 55.4538 33.4891 55.5449 33.439C55.598 33.4283 55.6528 33.4283 55.7059 33.439C55.7129 33.4866 55.7129 33.5349 55.7059 33.5825C55.6827 33.6418 55.6738 33.7058 55.6798 33.7692C55.6859 33.8326 55.7068 33.8938 55.7409 33.9476C55.775 34.0014 55.8213 34.0465 55.876 34.0791C55.9307 34.1118 55.9923 34.1311 56.0559 34.1355C56.1005 34.1347 56.144 34.1498 56.1786 34.1779C56.2131 34.2061 56.2367 34.2456 56.2449 34.2895C56.2526 34.3264 56.2685 34.3611 56.2913 34.3911C56.3142 34.421 56.3435 34.4455 56.3771 34.4626C56.4107 34.4798 56.4477 34.4891 56.4854 34.4901C56.5231 34.491 56.5605 34.4834 56.5949 34.468C56.8643 34.3928 57.1503 34.4025 57.4139 34.496C57.5411 34.5281 57.6595 34.5886 57.7601 34.6728C57.8607 34.757 57.9409 34.8629 57.9949 34.9825C58.0509 35.119 58.1139 35.1645 58.2504 35.105C58.3869 35.0455 58.3729 35.1225 58.3904 35.2065C58.4131 35.3136 58.4471 35.4181 58.4919 35.518C58.5514 35.637 58.4919 35.6545 58.3974 35.6615L57.7499 35.6965C57.6604 35.6956 57.5731 35.7242 57.5016 35.778C57.4301 35.8318 57.3783 35.9077 57.3544 35.994C57.3195 36.1016 57.275 36.2058 57.2214 36.3055C57.1646 36.4054 57.0783 36.4853 56.9742 36.5342C56.8702 36.5831 56.7536 36.5986 56.6404 36.5785C56.5879 36.491 56.5564 36.4 56.5284 36.3755Z" fill="#1FADDB"/>
<path d="M45.2481 35.343L44.8001 35.756L44.8456 35.147L44.2471 35.056L44.7476 34.713L44.4431 34.188L45.0241 34.3665L45.2481 33.7995L45.4686 34.3665L46.0496 34.188L45.7486 34.713L46.2491 35.056L45.6506 35.147L45.6926 35.756L45.2481 35.343Z" fill="white"/>
<path d="M15.7185 53.9175H19.3515V54.579H16.45V56.308H17.787C18.185 56.2953 18.5826 56.3425 18.9665 56.448C19.2538 56.5401 19.5009 56.7279 19.6665 56.98C19.8439 57.2512 19.9354 57.5696 19.929 57.8935C19.9305 58.1686 19.8656 58.4399 19.74 58.6845C19.6122 58.934 19.417 59.1425 19.1765 59.2865C18.779 59.4727 18.3403 59.5535 17.9025 59.521H15.7185V53.9175ZM16.45 58.8875H17.9305C18.2491 58.9121 18.5665 58.8268 18.83 58.646C18.9337 58.5552 19.0149 58.4416 19.0672 58.314C19.1194 58.1865 19.1413 58.0485 19.131 57.911C19.1391 57.7038 19.0789 57.4996 18.9595 57.33C18.8428 57.1737 18.6739 57.0645 18.4835 57.022C18.1374 56.9579 17.7853 56.9321 17.4335 56.945H16.45V58.8875Z" fill="white"/>
<path d="M24.934 53.9175L23.1175 57.127V59.521H22.4175V57.127L20.5835 53.9175H21.35L22.456 55.8915C22.5669 56.0803 22.664 56.2768 22.7465 56.4795C22.8095 56.3325 22.9145 56.1295 23.0615 55.8565L24.1115 53.9175H24.934Z" fill="white"/>
<path d="M27.377 59.521V54.579H25.55V53.9175H29.974V54.579H28.119V59.521H27.377Z" fill="white"/>
<path d="M34.8495 53.9175L33.0295 57.127V59.521H32.3295V57.127L30.4955 53.9175H31.2585L32.368 55.8915C32.4775 56.081 32.5745 56.2774 32.6585 56.4795C32.7215 56.3325 32.8265 56.1295 32.97 55.8565L34.02 53.9175H34.8495Z" fill="white"/>
<path d="M35.8889 59.521V53.921H36.6309V56.2205H39.5499V53.921H40.2884V59.521H39.5499V56.8785H36.6379V59.521H35.8889Z" fill="white"/>
<path d="M15.6975 60.0355H16.45V62.4855C16.6992 62.5056 16.9475 62.4361 17.15 62.2895C17.3782 62.0052 17.5569 61.6846 17.6785 61.341C17.7852 61.0718 17.914 60.8119 18.0635 60.564C18.1764 60.4104 18.3239 60.2857 18.494 60.2C18.6817 60.0972 18.8925 60.0442 19.1065 60.046C19.3935 60.046 19.544 60.046 19.558 60.046V60.69H19.411H19.25C19.0581 60.6754 18.8683 60.737 18.7215 60.8615C18.5467 61.0814 18.4117 61.3301 18.3225 61.5965C18.2171 61.9145 18.0572 62.2117 17.85 62.475C17.715 62.6026 17.557 62.7035 17.3845 62.7725C17.7345 62.8705 18.0845 63.203 18.4555 63.7735L19.6 65.6355H18.69L17.7555 64.1165C17.5788 63.801 17.3611 63.5103 17.108 63.252C16.9288 63.0872 16.6934 62.9971 16.45 63V65.6215H15.6975V60.0355Z" fill="white"/>
<path d="M20.0864 60.0355H20.8249V62.426H22.1619C23.0404 62.426 23.6144 62.5905 23.8909 62.9125C24.1638 63.2226 24.312 63.623 24.3068 64.0361C24.3016 64.4492 24.1435 64.8457 23.8629 65.149C23.5689 65.4756 23.0206 65.6378 22.2179 65.6355H20.0864V60.0355ZM20.8249 65.0055H22.1829C22.5374 65.0344 22.8921 64.9525 23.1979 64.771C23.3071 64.6809 23.3928 64.5657 23.4476 64.4352C23.5025 64.3048 23.5249 64.163 23.5129 64.022C23.5202 63.8083 23.4521 63.5989 23.3204 63.4305C23.1963 63.2754 23.0216 63.1688 22.8269 63.1295C22.4935 63.0779 22.1561 63.0568 21.8189 63.0665H20.8249V65.0055ZM24.9794 60.0355H25.7214V65.6355H24.9794V60.0355Z" fill="white"/>
<path d="M26.7786 65.6355V60.0355H28.8786C29.1642 60.0295 29.4498 60.0471 29.7326 60.088C29.9827 60.1215 30.2221 60.2112 30.4326 60.3505C30.629 60.4906 30.7848 60.6802 30.8841 60.9C30.9975 61.1382 31.055 61.3992 31.0521 61.663C31.0637 62.1095 30.9005 62.5428 30.5971 62.8705C30.2961 63.203 29.7466 63.3675 28.9556 63.3675H27.5206V65.6425L26.7786 65.6355ZM27.5206 62.699H28.9661C29.3279 62.7325 29.6899 62.6371 29.9881 62.4295C30.0907 62.3341 30.1709 62.2171 30.223 62.087C30.275 61.9569 30.2976 61.8169 30.2891 61.677C30.2949 61.4636 30.2324 61.2539 30.1106 61.0785C30.0002 60.9155 29.835 60.7976 29.6451 60.746C29.4141 60.7049 29.1795 60.6885 28.9451 60.697H27.5206V62.699Z" fill="white"/>
<path d="M31.8115 60.0355H35.434V60.697H32.55V65.6355H31.8115V60.0355Z" fill="white"/>
<path d="M35.8821 60.0355H36.6206V62.426H37.9576C38.8361 62.426 39.4101 62.5905 39.6866 62.9125C39.9595 63.2226 40.1076 63.623 40.1025 64.0361C40.0973 64.4492 39.9391 64.8457 39.6586 65.149C39.3646 65.4756 38.8162 65.6378 38.0136 65.6355H35.8821V60.0355ZM36.6206 65.0055H37.9786C38.333 65.0344 38.6877 64.9525 38.9936 64.771C39.1027 64.6809 39.1884 64.5657 39.2433 64.4352C39.2982 64.3048 39.3206 64.163 39.3086 64.022C39.3159 63.8083 39.2477 63.5989 39.1161 63.4305C38.992 63.2754 38.8173 63.1688 38.6226 63.1295C38.2892 63.0779 37.9518 63.0568 37.6146 63.0665H36.6206V65.0055ZM40.7751 60.0355H41.5171V65.6355H40.7751V60.0355Z" fill="white"/>
<path d="M42.2695 64.05L42.9695 63.868C43.0418 64.1729 43.1899 64.4546 43.4 64.687C43.5143 64.8199 43.657 64.9254 43.8175 64.9957C43.9781 65.0659 44.1524 65.0992 44.3275 65.093C44.6635 65.1127 44.9946 65.0052 45.255 64.792C45.3641 64.7046 45.4522 64.5938 45.5128 64.4678C45.5733 64.3418 45.6049 64.2038 45.605 64.064C45.6103 63.9224 45.5813 63.7815 45.5203 63.6535C45.4594 63.5256 45.3683 63.4142 45.255 63.329C44.9671 63.1331 44.6228 63.0372 44.275 63.056H43.925V62.4085C44.1877 62.4144 44.4503 62.3944 44.709 62.349C44.8976 62.3041 45.0661 62.1983 45.1885 62.048C45.3226 61.8951 45.396 61.6984 45.395 61.495C45.3952 61.3749 45.3701 61.256 45.3213 61.1463C45.2724 61.0365 45.2009 60.9383 45.1115 60.858C45.0079 60.7634 44.8864 60.6905 44.7542 60.6436C44.6219 60.5967 44.4816 60.5768 44.3415 60.585C44.0836 60.5786 43.8302 60.6533 43.617 60.7985C43.4207 60.9338 43.2753 61.131 43.204 61.3585C43.141 61.526 43.1022 61.7016 43.0885 61.88L42.3885 61.7225C42.5635 60.5325 43.2204 59.9375 44.359 59.9375C44.8361 59.9114 45.3041 60.0749 45.661 60.3925C45.8125 60.5262 45.9338 60.6904 46.0171 60.8745C46.1003 61.0585 46.1436 61.2581 46.144 61.46C46.1468 61.7117 46.0787 61.9591 45.9475 62.1739C45.8163 62.3887 45.6273 62.5622 45.402 62.6745C45.6945 62.7606 45.9509 62.9399 46.1322 63.185C46.3135 63.4301 46.4098 63.7277 46.4065 64.0325C46.4102 64.263 46.3617 64.4913 46.2648 64.7004C46.1678 64.9095 46.0248 65.094 45.8465 65.24C45.4297 65.5817 44.9008 65.7563 44.3625 65.73C43.274 65.7335 42.588 65.1735 42.2695 64.05Z" fill="white"/>
<path d="M51.0125 63.672L51.7545 63.861C51.6374 64.4079 51.3419 64.9003 50.9145 65.261C50.4912 65.587 49.9681 65.7564 49.434 65.7405C48.9171 65.7638 48.4047 65.6348 47.9605 65.3695C47.5711 65.11 47.2706 64.7375 47.0995 64.302C46.8987 63.8271 46.7974 63.3161 46.802 62.8005C46.7942 62.2711 46.9142 61.7476 47.152 61.2745C47.3599 60.8554 47.6908 60.5098 48.1005 60.284C48.5161 60.054 48.9835 59.9336 49.4585 59.934C49.9592 59.92 50.4508 60.07 50.8585 60.361C51.2516 60.6625 51.5336 61.086 51.66 61.565L50.9285 61.7365C50.8371 61.3882 50.6388 61.0773 50.3615 60.8475C50.0908 60.6535 49.7633 60.555 49.4305 60.5675C49.0475 60.5527 48.6698 60.6606 48.3525 60.8755C48.0638 61.079 47.8498 61.3717 47.7435 61.7085C47.6248 62.0543 47.5645 62.4174 47.565 62.783C47.556 63.2078 47.6272 63.6306 47.775 64.029C47.8933 64.3611 48.1219 64.6428 48.4225 64.827C48.7096 65.0004 49.0391 65.0912 49.3745 65.0895C49.755 65.1015 50.1273 64.9774 50.4245 64.7395C50.7356 64.4604 50.9428 64.0841 51.0125 63.672Z" fill="white"/>
<path d="M53.6375 65.6355V60.697H51.8V60.0355H56.2415V60.697H54.3865V65.6355H53.6375Z" fill="white"/>
<path d="M55.9194 65.6355L58.0719 60.0355H58.8699L61.1624 65.6355H60.3189L59.6644 63.9415H57.3229L56.6999 65.6355H55.9194ZM57.5364 63.336H59.4334L58.8489 61.7855C58.6739 61.313 58.5409 60.928 58.4534 60.6235C58.3817 60.9879 58.281 61.346 58.1524 61.6945L57.5364 63.336Z" fill="white"/>
<path d="M61.6 65.6355V60.0355H62.3385V62.335H65.2505V60.0355H65.9925V65.6355H65.2505V63H62.3385V65.639L61.6 65.6355Z" fill="white"/>
</svg>
