<svg width="70" height="70" viewBox="0 0 70 70" fill="none" xmlns="http://www.w3.org/2000/svg">
<path d="M70 0H0V70H70V0Z" fill="#010667"/>
<path d="M11.6095 48.181C11.9945 47.257 12.3095 46.459 12.6595 45.6785C12.7542 45.4231 12.9372 45.21 13.1753 45.0778C13.4135 44.9456 13.6911 44.9029 13.958 44.9575C14.1925 44.9536 14.427 44.9724 14.658 45.0135C15.4805 45.3005 16.107 45.0135 16.7195 44.4605C17.3215 43.9248 17.9626 43.4346 18.6375 42.994C19.3865 42.504 20.1845 42.0875 21.028 41.594C20.783 40.943 20.4925 40.166 20.174 39.326C19.5405 39.641 18.9245 39.984 18.277 40.2465C17.9043 40.3562 17.5203 40.4231 17.1325 40.446C16.5375 40.5405 15.8655 40.481 15.358 40.7435C14.4267 41.1949 13.4133 41.4521 12.3795 41.4995C11.7967 41.5573 11.2091 41.5444 10.6295 41.461L13.5415 40.3375V40.25C12.8625 40.3165 12.18 40.3585 11.5045 40.4495C10.577 40.579 9.65645 40.7995 8.72545 40.88C8.26932 40.9011 7.81284 40.8467 7.37445 40.719C7.16795 40.67 7.00695 40.453 6.82495 40.313L6.88795 40.1765C7.23795 40.1765 7.58795 40.201 7.95545 40.1765C8.59068 40.1435 9.20918 39.9612 9.76074 39.6443C10.3123 39.3275 10.7814 38.8851 11.13 38.353C11.2162 38.2092 11.3391 38.091 11.4861 38.0105C11.6331 37.9299 11.7989 37.8899 11.9665 37.8945C13.0204 37.8852 14.0727 37.8068 15.1165 37.66C16.6355 37.38 18.123 36.9425 19.6945 36.5575C19.6945 35.5075 19.7995 34.4365 19.6455 33.4075C19.5825 32.97 19.054 32.48 18.613 32.2455C17.9882 31.9456 17.4504 31.4911 17.0504 30.9252C16.6505 30.3592 16.4016 29.7005 16.3275 29.0115C16.254 28.469 16.4745 28.3115 16.9855 28.4795C17.163 28.5519 17.335 28.6373 17.5 28.735C17.668 28.819 17.85 28.91 18.102 29.05C17.878 27.9405 18.1545 27.1005 19.061 26.6C19.6945 26.95 20.279 27.2755 20.8565 27.6045C21.2345 27.818 21.4375 27.713 21.6615 27.3245C23.485 24.0453 26.4455 21.5467 29.9844 20.3C33.6746 18.9988 37.7187 19.1303 41.3165 20.6683C44.9144 22.2063 47.8038 25.0389 49.4129 28.6055C49.4899 28.7805 49.553 28.9555 49.6614 29.2425L47.509 29.6345L47.5719 29.806C46.7915 29.7465 46.004 29.456 45.227 29.9915H46.4554V30.1L38.6469 32.347L39.0354 33.1135L43.4 31.85C48.118 30.45 52.8499 29.148 57.5364 27.622C58.7615 27.2195 60.0704 26.8555 61.1764 26.1135C59.8289 25.7985 58.6494 26.3655 57.449 26.8625C58.0509 26.474 58.653 26.075 59.262 25.697C59.3743 25.6581 59.4948 25.6484 59.612 25.669C60.809 25.669 62.0024 25.669 63.2064 25.767C62.5589 26.117 61.8904 26.446 61.271 26.845C60.5563 27.3718 59.7454 27.7535 58.884 27.9685C56.532 28.462 54.243 29.2705 51.905 29.96C53.0704 30.8315 54.2465 31.591 55.755 31.479C55.8636 31.4515 55.9772 31.4494 56.0868 31.473C56.1964 31.4966 56.299 31.5452 56.3868 31.615C56.4745 31.6848 56.5449 31.7739 56.5926 31.8753C56.6402 31.9768 56.6638 32.0879 56.6614 32.2C56.707 32.62 57.0499 32.9665 56.623 33.453C56.4594 33.6686 56.2419 33.8374 55.9925 33.9424C55.7431 34.0474 55.4705 34.0851 55.202 34.0515C54.3632 33.9852 53.5194 34.0299 52.6925 34.1845C52.0563 34.3741 51.4514 34.6559 50.8969 35.021C50.792 35.077 50.7955 35.371 50.7885 35.5495C50.6681 38.6709 49.6138 41.6844 47.762 44.2001C45.9102 46.7158 43.3461 48.6179 40.4014 49.6603C37.4567 50.7027 34.2669 50.8374 31.2448 50.047C28.2227 49.2566 25.5073 47.5776 23.45 45.227C23.1 44.835 22.7815 44.569 22.253 44.618C22.1963 44.6285 22.1381 44.6285 22.0815 44.618C21.056 44.2435 20.1915 44.5655 19.397 45.2235C19.2722 45.3125 19.1425 45.3943 19.0085 45.4685C15.89 47.439 15.89 47.439 12.2675 48.09C12.103 48.104 11.956 48.125 11.6095 48.181ZM42.077 36.631C42.665 37.198 43.3125 37.1595 43.9495 36.96C45.3921 36.4861 46.7192 35.7146 47.8449 34.6955C48.6079 34.0305 49.028 32.5255 48.8354 31.738C48.3035 31.9655 47.7855 32.3225 47.1975 32.41C46.1439 32.6191 45.1531 33.0696 44.303 33.726C44.1075 33.8713 43.8831 33.9728 43.645 34.0235C42.665 34.195 41.671 34.2825 40.7015 34.4995C40.3389 34.5735 39.9637 34.5583 39.6083 34.4553C39.2529 34.3522 38.9278 34.1644 38.6609 33.908C38.4545 33.7435 38.4615 33.327 38.3425 33.0365C38.2865 32.893 38.15 32.6585 38.0765 32.6865C37.8974 32.716 37.7367 32.8139 37.6285 32.9595C37.3065 33.439 37.534 34.104 38.15 34.4575C38.5455 34.685 38.9865 34.8355 39.3854 35.0595C39.6116 35.1829 39.8017 35.363 39.9371 35.5821C40.0725 35.8013 40.1486 36.0519 40.1578 36.3093C40.1669 36.5668 40.1089 36.8222 39.9895 37.0504C39.87 37.2786 39.6932 37.4718 39.4765 37.611C38.0485 38.612 36.6321 39.627 35.2275 40.656C34.8891 40.9427 34.5655 41.2464 34.2579 41.566C36.6449 41.6395 38.1605 40.4845 39.3925 38.731C39.7076 39.1482 40.044 39.5489 40.4005 39.9315C40.4886 40.0158 40.5931 40.081 40.7075 40.1231C40.8219 40.1653 40.9437 40.1834 41.0655 40.1765C42.511 39.9595 43.9529 39.6935 45.4054 39.4415C45.5766 40.4142 45.4203 41.4162 44.961 42.2905C46.3925 42.119 46.4484 42.084 46.7389 40.964C46.8789 40.432 46.9734 39.8895 47.0889 39.354C47.0848 40.2329 47.0063 41.1098 46.8545 41.9755C46.7879 42.2975 46.4204 42.763 46.1544 42.8015C44.8349 42.987 43.666 43.372 42.8714 44.7825L42.581 42.9905L41.4785 44.5445C41.3245 43.771 41.167 43.1445 41.076 42.511C41.0534 42.421 41.0513 42.327 41.0699 42.2361C41.0885 42.1452 41.1273 42.0596 41.1834 41.9857C41.2395 41.9118 41.3115 41.8514 41.3941 41.8091C41.4767 41.7667 41.5677 41.7435 41.6604 41.741C42.2065 41.671 42.756 41.6115 43.302 41.524C43.4729 41.5041 43.6315 41.4248 43.75 41.3C43.9599 40.9745 44.1 40.6 44.3555 40.117C42.931 40.495 41.664 40.845 40.3935 41.167C39.123 41.489 37.8104 41.8495 36.4979 42.084C35.798 42.21 35.028 42.105 34.1005 42.105L35.091 43.6205C33.691 43.4875 32.4974 43.078 31.521 42.098C31.108 41.6815 30.8209 41.685 30.4324 42.098C29.3616 43.2639 27.9488 44.0604 26.3969 44.373C26.0084 44.457 25.6165 44.5165 25.2035 44.5935C28.7035 48.4925 35.2765 50.3615 41.1775 47.537C46.0005 45.227 49.9835 38.829 48.986 34.916L44.7859 37.555L46.5639 37.968C45.5628 38.1576 44.5522 38.2931 43.5364 38.374C42.5145 38.5 41.8775 37.758 42.077 36.638V36.631ZM23.135 28.1155C23.5565 28.1528 23.9804 28.1528 24.402 28.1155C25.662 27.881 26.9185 27.6325 28.1609 27.328C29.533 26.978 30.884 26.551 32.263 26.236C33.9675 25.844 35.6825 25.7915 37.366 26.4565L37.4535 26.306L37.002 26.0715C37.443 25.998 37.8244 26.033 38.1954 25.984C38.3599 25.963 38.6224 25.7775 38.6329 25.6515C38.697 24.7302 39.1056 23.8667 39.7775 23.233C39.235 22.3335 38.7274 22.204 37.9329 22.8235C37.5314 23.156 37.0375 23.3571 36.5179 23.3997C35.9983 23.4422 35.4782 23.3242 35.028 23.0615C34.7541 22.867 34.509 22.6349 34.3 22.372L34.4084 22.211C34.8596 22.2373 35.3118 22.2373 35.763 22.211C36.2001 22.1376 36.6326 22.0383 37.0579 21.9135L37.0265 21.763L36.1515 21.693L37.0089 21.266C31.976 20.391 25.9 22.995 23.135 28.1155ZM16.8 45.227L16.8595 45.3215C17.024 45.2445 17.1885 45.171 17.3495 45.0835C18.2805 44.59 19.2045 44.0825 20.1495 43.6065C20.3649 43.4956 20.6101 43.4563 20.8495 43.4945C24.4755 44.226 27.58 43.344 29.981 40.46C30.9028 39.3917 31.962 38.4502 33.131 37.66C33.5475 37.3695 33.985 37.1105 34.4225 36.827C33.8659 36.2985 32.9735 36.3825 32.543 35.6475C30.422 36.274 28.2345 36.904 26.061 37.5795C25.7296 37.6982 25.4417 37.9141 25.235 38.199C24.6224 39.032 24.087 39.9175 23.485 40.761C22.7325 41.811 21.77 42.5565 20.4155 42.6615C20.3209 42.6653 20.2291 42.6943 20.1495 42.7455C19.0225 43.575 17.9095 44.4045 16.8 45.227ZM22.9844 30.912C20.951 31.283 19.1625 30.534 17.276 29.512C17.465 29.862 17.563 30.0405 17.6855 30.212C18.4429 31.3607 19.5628 32.2231 20.867 32.662C22.5982 33.2471 24.4462 33.3997 26.25 33.1065C28.658 32.7775 30.7719 31.8325 32.4065 29.9565C32.5155 29.8148 32.6171 29.6676 32.711 29.5155C32.2665 29.771 31.9515 29.953 31.6329 30.128C30.2015 30.919 28.7279 31.605 27.083 31.794C26.2055 31.9279 25.3081 31.8039 24.5 31.437C26.376 31.3495 28.0455 31.1255 29.575 30.2925C27.6604 30.4955 25.7565 30.7965 23.8385 30.401C24.0136 30.3439 24.1968 30.3155 24.381 30.317C26.187 30.254 28 30.1805 29.7045 29.533C31.409 28.8855 32.998 28.133 34.7305 27.412C33.789 27.496 32.8965 27.5065 32.0319 27.671C30.1349 28.021 28.2555 28.497 26.3655 28.8995C23.9155 29.421 21.5635 29.33 19.3655 27.951C19.3445 27.951 19.2955 27.951 19.2605 27.951C18.9 29.5015 19.9955 30.3485 22.9844 30.912ZM30.7055 32.5955C27.7865 34.188 24.64 34.5275 21.3255 33.817V36.267C22.2193 36.3657 23.1238 36.2456 23.961 35.917C24.7238 35.61 25.5031 35.3459 26.2955 35.126C27.5905 34.776 29.239 34.7235 30.016 34.958L25.2 36.4L25.4694 35.861C24.4439 36.211 23.5445 36.414 22.7185 36.785C20.9837 37.5033 19.1621 37.9905 17.3005 38.234C16.4916 38.4115 15.6935 38.6347 14.91 38.9025L14.959 39.0635L15.575 38.983C16.933 38.808 18.2875 38.633 19.6455 38.458C19.712 38.458 19.7855 38.4965 19.8555 38.5035C20.1158 38.5632 20.3844 38.5786 20.65 38.549C25.886 37.023 31.1185 35.4865 36.3475 33.9395C36.4979 33.894 36.6415 33.824 36.827 33.747C36.6897 33.5506 36.4916 33.4047 36.2633 33.332C36.035 33.2593 35.789 33.2637 35.5635 33.3445C34.2685 33.754 32.9559 34.1075 31.6609 34.5135C31.2795 34.6325 31.038 34.5415 30.961 34.188C30.8314 33.6665 30.8 33.145 30.7055 32.5955ZM40.8555 22.9285C41.3385 23.527 41.9475 23.9785 42.091 24.521C42.329 25.445 42.5669 26.4425 42.2064 27.419C42.1011 27.7056 41.9723 27.983 41.8214 28.2485C41.7654 28.35 41.608 28.49 41.531 28.469C40.894 28.308 40.8765 28.8435 40.705 29.169C40.4005 29.7885 40.7854 30.219 41.16 30.6355C41.5345 31.052 41.86 30.73 42.2099 30.6355L41.811 29.841C42.2686 30.0625 42.7793 30.151 43.2848 30.0966C43.7903 30.0421 44.2704 29.8468 44.6704 29.533C45.3772 29.0624 46.2215 28.843 47.0679 28.91C47.264 28.91 47.4634 28.91 47.7399 28.91C46.3258 26.0384 43.9822 23.7294 41.09 22.358L40.8555 22.9285ZM36.75 27.9055C36.4 27.9755 36.1199 27.951 35.959 28.084C35.1742 28.7151 34.4242 29.3881 33.712 30.1C33.2955 30.527 33.3619 30.9505 33.8344 31.353C34.7403 32.0931 35.8675 32.5095 37.037 32.536C36.4629 32.011 35.637 31.759 35.4375 31.0695L39.123 28.868C38.773 28.518 38.458 28.3815 38.003 28.623C37.4045 28.938 36.7815 29.2005 36.1689 29.4875L36.1235 29.4175L36.7185 28.8575L36.6625 28.7665L35 29.6415L34.909 29.533L36.75 27.9055ZM34.818 35.7455L37.3905 36.316C35.812 37.24 34.027 37.716 33.3025 39.508C34.0025 39.053 34.6569 38.5805 35.3569 38.164C36.4069 37.527 37.5199 36.939 38.5944 36.309C38.7729 36.204 39.0179 35.959 38.9969 35.833C38.9759 35.707 38.7274 35.483 38.535 35.385C37.9446 35.0973 37.2862 34.9787 36.6325 35.0423C35.9789 35.106 35.3557 35.3493 34.8319 35.7455H34.818ZM49.035 34.1425C49.4722 34.3267 49.9487 34.3983 50.4208 34.3506C50.8928 34.3029 51.3454 34.1375 51.737 33.8695C52.3425 33.5195 52.969 33.1695 53.557 32.8475C52.4195 32.655 51.184 32.431 49.9205 32.599C49.8319 32.6254 49.75 32.6702 49.68 32.7305C49.61 32.7909 49.5536 32.8653 49.5145 32.949C49.35 33.306 49.2169 33.705 49.049 34.1425H49.035ZM40.131 27.9405L40.1765 27.846C40.3759 27.902 40.5685 27.9685 40.7715 28.0105C40.9567 28.0703 41.158 28.0546 41.3317 27.9668C41.5054 27.879 41.6373 27.7261 41.699 27.5415C41.9771 26.7774 41.9771 25.9396 41.699 25.1755C40.859 25.2455 40.3655 25.592 40.2395 26.4005C40.1538 26.8882 40.0369 27.3698 39.8895 27.8425C39.8195 28.0565 39.8165 28.2868 39.8809 28.5026C39.9453 28.7184 40.0741 28.9094 40.25 29.05L40.7085 28.35L40.131 27.9405ZM53.9209 31.542C53.6599 31.5065 53.4016 31.4539 53.1475 31.3845C52.9025 31.3005 52.6715 31.1605 52.4475 31.0345C52.2261 30.9118 51.9912 30.8155 51.7475 30.7475C51.4247 30.7072 51.0997 30.6862 50.7745 30.6845C49.7245 30.611 49.7245 30.611 49.7245 31.6995C49.7245 31.731 49.756 31.766 49.7874 31.8325L53.9209 32.305V31.542ZM40.3025 22.442C40.4354 22.2006 40.5243 21.9375 40.565 21.665C40.5486 21.5268 40.5012 21.3942 40.4263 21.277C40.3513 21.1598 40.2508 21.0611 40.1322 20.9883C40.0137 20.9156 39.8801 20.8706 39.7417 20.8569C39.6033 20.8431 39.4635 20.861 39.333 20.909C38.9625 21.1101 38.611 21.3444 38.2829 21.609C37.7544 21.959 37.233 22.309 36.6939 22.6415C37.2295 22.9005 37.6145 22.561 38.024 22.2915C39.0424 21.574 39.452 21.6055 40.3025 22.4385V22.442ZM22.4 40.572L22.5925 40.6245L23.9084 38.353L23.7895 38.2375L21.77 38.8255L22.4 40.572ZM54.7645 31.6505C54.5859 32.781 54.712 33.0925 55.5205 33.4005C55.6815 33.4635 55.902 33.3655 56.0979 33.341V33.1345L55.3279 32.9245L55.3455 32.7845L56.3185 32.837C56.406 31.6435 55.3524 31.997 54.7785 31.6505H54.7645ZM43.5644 33.1205C42.567 32.438 41.6919 32.9875 40.7959 33.243L40.8204 33.46L43.5644 33.1205ZM40.663 24.1815C41.013 24.8815 40.2535 24.829 40.068 25.1965L41.916 24.5875L40.9185 23.471L40.8414 23.5515L41.1915 24.5385L41.0305 24.5875L40.663 24.1815ZM46.879 31.934V31.752H45.6294V31.934H46.879ZM25.928 38.7765C25.3925 39.662 24.906 40.579 24.4439 41.4015C25.2427 40.9688 25.8936 40.3069 26.313 39.501C26.7995 38.6295 27.2475 37.751 28.126 37.177C27.6714 37.2835 27.2428 37.4799 26.8653 37.7546C26.4878 38.0293 26.1691 38.3768 25.928 38.7765Z" fill="white"/>
</svg>
