<svg width="70" height="70" viewBox="0 0 70 70" fill="none" xmlns="http://www.w3.org/2000/svg">
<path d="M70 0H0V70H70V0Z" fill="white"/>
<path d="M16.373 46.781C22.8795 46.781 28.154 41.5065 28.154 35C28.154 28.4935 22.8795 23.219 16.373 23.219C9.86657 23.219 4.59204 28.4935 4.59204 35C4.59204 41.5065 9.86657 46.781 16.373 46.781Z" fill="#02E6CF"/>
<path d="M16.373 45.3075C22.0657 45.3075 26.6805 40.6927 26.6805 35C26.6805 29.3073 22.0657 24.6925 16.373 24.6925C10.6803 24.6925 6.06549 29.3073 6.06549 35C6.06549 40.6927 10.6803 45.3075 16.373 45.3075Z" fill="#10C8DF"/>
<path d="M16.373 43.8375C21.2538 43.8375 25.2105 39.8808 25.2105 35C25.2105 30.1192 21.2538 26.1625 16.373 26.1625C11.4922 26.1625 7.53552 30.1192 7.53552 35C7.53552 39.8808 11.4922 43.8375 16.373 43.8375Z" fill="#20A9EE"/>
<path d="M16.373 42.364C20.44 42.364 23.737 39.067 23.737 35C23.737 30.933 20.44 27.636 16.373 27.636C12.3059 27.636 9.00897 30.933 9.00897 35C9.00897 39.067 12.3059 42.364 16.373 42.364Z" fill="#2E8BFE"/>
<path d="M16.373 41.0235C19.6997 41.0235 22.3965 38.3267 22.3965 35C22.3965 31.6733 19.6997 28.9765 16.373 28.9765C13.0463 28.9765 10.3495 31.6733 10.3495 35C10.3495 38.3267 13.0463 41.0235 16.373 41.0235Z" fill="#215CE7"/>
<path d="M16.373 39.5535C18.8878 39.5535 20.9265 37.5148 20.9265 35C20.9265 32.4851 18.8878 30.4465 16.373 30.4465C13.8582 30.4465 11.8195 32.4851 11.8195 35C11.8195 37.5148 13.8582 39.5535 16.373 39.5535Z" fill="#152ECF"/>
<path d="M16.373 38.213C18.1475 38.213 19.586 36.7745 19.586 35C19.586 33.2255 18.1475 31.787 16.373 31.787C14.5985 31.787 13.16 33.2255 13.16 35C13.16 36.7745 14.5985 38.213 16.373 38.213Z" fill="#0900B8"/>
<path d="M37.331 30.8C37.5092 30.9578 37.6489 31.1544 37.7393 31.3746C37.8297 31.5949 37.8685 31.8329 37.8525 32.0705C37.8704 32.3342 37.8259 32.5984 37.7225 32.8417C37.6191 33.0849 37.4598 33.3004 37.2575 33.4705C36.7846 33.8147 36.2069 33.9841 35.623 33.95H33.068V28.784H34.776V30.366H35.826C36.3632 30.3286 36.8962 30.4823 37.331 30.8ZM35.931 32.55C35.99 32.489 36.0357 32.4165 36.0653 32.337C36.0948 32.2575 36.1075 32.1727 36.1025 32.088C36.1025 31.738 35.8995 31.5735 35.497 31.5735H34.776V32.7145H35.504C35.5836 32.7173 35.6631 32.7043 35.7376 32.676C35.8121 32.6478 35.8802 32.6049 35.938 32.55H35.931ZM38.318 28.777H40.026V33.95H38.325L38.318 28.777Z" fill="black"/>
<path d="M40.95 28.784H42.658V31.4615L44.4325 28.784H46.067V33.95H44.359V31.2655L42.609 33.936H40.95V28.784ZM42.2765 28.1715C42.1454 28.0519 42.0432 27.904 41.9777 27.7391C41.9122 27.5741 41.8851 27.3964 41.8985 27.2195H43.05C43.0412 27.344 43.0758 27.4677 43.148 27.5695C43.1956 27.6108 43.2514 27.6418 43.3116 27.6605C43.3719 27.6792 43.4353 27.6851 43.498 27.678C43.6244 27.6896 43.7503 27.6506 43.848 27.5695C43.9241 27.4693 43.9614 27.345 43.953 27.2195H45.1115C45.1246 27.3971 45.0966 27.5753 45.0299 27.7403C44.9631 27.9054 44.8593 28.0529 44.7265 28.1715C44.362 28.4128 43.9266 28.5238 43.491 28.4865C43.061 28.5225 42.6316 28.4115 42.273 28.1715H42.2765Z" fill="black"/>
<path d="M51.5795 33.95V31.6015L50.4595 33.488H49.693L48.573 31.682V33.95H46.991V28.784H48.419L50.099 31.528L51.7335 28.784H53.1615V33.936L51.5795 33.95Z" fill="black"/>
<path d="M57.7045 33.04H55.748L55.398 33.936H53.648L55.8985 28.784H57.61L59.85 33.95H58.0545L57.7045 33.04ZM57.225 31.787L56.7245 30.492L56.224 31.787H57.225Z" fill="black"/>
<path d="M65.408 28.784V33.95H63.658V32.0355H62.055V33.95H60.305V28.784H62.055V30.6075H63.658V28.784H65.408Z" fill="black"/>
<path d="M38.15 37.485V42.6405H36.4V40.74H34.804V42.6405H33.054V37.485H34.804V39.312H36.4V37.485H38.15Z" fill="black"/>
<path d="M44.2155 37.4849L42.147 41.3664C41.9376 41.7858 41.6273 42.1466 41.244 42.4164C40.8981 42.6501 40.4889 42.7722 40.0715 42.7664C39.7265 42.7627 39.3855 42.6926 39.067 42.5599L39.473 41.3069C39.6458 41.3591 39.8246 41.3885 40.005 41.3944C40.1172 41.3979 40.2287 41.3752 40.3305 41.3279C40.4339 41.2757 40.5237 41.2003 40.593 41.1074L38.619 37.4709H40.453L41.475 39.6409L42.525 37.4709L44.2155 37.4849Z" fill="black"/>
<path d="M48.3 37.7195C48.6355 37.8616 48.9216 38.0994 49.1228 38.4032C49.324 38.7069 49.4313 39.0632 49.4313 39.4275C49.4313 39.7918 49.324 40.1481 49.1228 40.4518C48.9216 40.7556 48.6355 40.9934 48.3 41.1355C47.906 41.3014 47.4814 41.3825 47.054 41.3735H46.312V42.6405H44.562V37.485H47.0435C47.4742 37.4734 47.9025 37.5533 48.3 37.7195ZM47.474 39.8755C47.534 39.8181 47.5808 39.7482 47.611 39.6708C47.6413 39.5935 47.6542 39.5104 47.649 39.4275C47.6542 39.3451 47.6412 39.2626 47.6109 39.1858C47.5807 39.109 47.534 39.0397 47.474 38.983C47.322 38.8671 47.1326 38.8111 46.942 38.8255H46.312V40.033H46.942C47.1338 40.0483 47.3245 39.9922 47.4775 39.8755H47.474Z" fill="black"/>
<path d="M54.9745 37.4849L52.906 41.3664C52.6944 41.7844 52.3845 42.1447 52.003 42.4164C51.6557 42.65 51.2455 42.7721 50.827 42.7664C50.4831 42.7627 50.1432 42.6926 49.826 42.5599L50.232 41.3069C50.4036 41.3588 50.5813 41.3882 50.7605 41.3944C50.8738 41.3983 50.9865 41.3756 51.0895 41.3279C51.1929 41.2757 51.2827 41.2003 51.352 41.1074L49.378 37.4709H51.212L52.234 39.6409L53.284 37.4709L54.9745 37.4849Z" fill="black"/>
</svg>
