<svg width="70" height="70" viewBox="0 0 70 70" fill="none" xmlns="http://www.w3.org/2000/svg">
<path d="M0 0H70V70H0V0Z" fill="#00AEC6"/>
<path d="M32.2 20.755C32.4647 21.0608 32.6829 21.404 32.8475 21.7735C32.8935 21.6364 32.8959 21.4885 32.8545 21.35C32.806 20.8952 32.6448 20.4597 32.3855 20.083C32.2893 19.9416 32.2139 19.7872 32.1615 19.6245C32.0678 19.3419 32.0403 19.0416 32.0809 18.7467C32.1216 18.4518 32.2294 18.1702 32.396 17.9235C32.3418 18.4131 32.4553 18.9067 32.718 19.3235C32.7505 19.3727 32.7881 19.4184 32.83 19.46C33.1275 19.7236 33.3866 20.0276 33.6 20.363C33.8145 20.7085 33.9805 21.0818 34.0935 21.4725C34.1587 21.349 34.1855 21.2088 34.1705 21.07C34.1925 20.6111 34.1036 20.1537 33.9115 19.7365C33.8327 19.5828 33.775 19.4191 33.74 19.25C33.6952 18.9572 33.7173 18.658 33.8046 18.375C33.8919 18.0919 34.0421 17.8323 34.244 17.6155C34.1158 18.0867 34.1503 18.5873 34.342 19.0365C34.377 19.0925 34.398 19.138 34.433 19.1835C34.6748 19.4976 34.878 19.8395 35.0385 20.202C35.1875 20.5799 35.2886 20.975 35.3395 21.378C35.4303 21.2671 35.4819 21.1293 35.4865 20.986C35.5766 20.5371 35.561 20.0733 35.441 19.6315C35.3862 19.4691 35.359 19.2988 35.3605 19.1275C35.362 18.8302 35.4305 18.5372 35.5608 18.27C35.691 18.0028 35.8798 17.7683 36.113 17.584C35.9117 18.0336 35.8674 18.5377 35.987 19.0155C36.0115 19.061 36.0325 19.117 36.057 19.1625C36.2454 19.5124 36.3911 19.8838 36.491 20.2685C36.5844 20.6651 36.6267 21.0721 36.617 21.4795C36.7092 21.3795 36.7774 21.2598 36.8165 21.1295C36.9798 20.6979 37.0339 20.2326 36.974 19.775C36.9582 19.6074 36.9582 19.4386 36.974 19.271C37.0256 18.9799 37.1405 18.7038 37.3104 18.4619C37.4803 18.22 37.7012 18.0183 37.9575 17.871C37.6891 18.2861 37.566 18.7784 37.6075 19.271L37.6425 19.439C37.7778 19.815 37.8648 20.2066 37.9015 20.6045C37.9341 21.0083 37.9106 21.4147 37.8315 21.812C37.9448 21.728 38.0341 21.6158 38.0905 21.4865C38.3171 21.0861 38.4444 20.6372 38.4615 20.1775C38.4623 20.0058 38.4919 19.8354 38.549 19.6735C38.6389 19.3908 38.7927 19.1327 38.9984 18.919C39.2042 18.7054 39.4564 18.542 39.7355 18.4415C39.4147 18.7913 39.2254 19.2416 39.2 19.7155C39.1932 19.7713 39.1932 19.8277 39.2 19.8835C39.2676 20.2751 39.2899 20.6732 39.2665 21.07C39.2297 21.4747 39.1427 21.8733 39.0075 22.2565C39.1343 22.1911 39.2426 22.0948 39.3225 21.9765C39.607 21.6178 39.7993 21.1948 39.8825 20.7445C39.9162 20.5732 39.9727 20.4073 40.0505 20.251C40.1873 19.9889 40.3808 19.7606 40.6169 19.5826C40.853 19.4046 41.1258 19.2814 41.4155 19.222C41.038 19.534 40.7746 19.9624 40.6665 20.44C40.6597 20.4958 40.6597 20.5522 40.6665 20.608C40.6687 21.0079 40.6277 21.4069 40.544 21.798C40.4518 22.1885 40.3058 22.5643 40.11 22.9145C40.2446 22.8727 40.3656 22.7953 40.46 22.6905C40.8048 22.3862 41.0632 21.9962 41.209 21.56C41.2687 21.3984 41.3474 21.2445 41.4435 21.1015C41.622 20.8643 41.8507 20.6694 42.1133 20.5309C42.3759 20.3923 42.6659 20.3135 42.9625 20.3C42.5351 20.5401 42.2028 20.9193 42.021 21.3745L41.9895 21.5425C41.9342 21.9378 41.8332 22.3254 41.6885 22.6975C41.5313 23.0736 41.3241 23.4268 41.0725 23.7475C41.2118 23.7283 41.3428 23.67 41.4505 23.5795C41.8351 23.3251 42.1542 22.9833 42.3815 22.582C42.4588 22.4289 42.5604 22.2895 42.6825 22.169C42.8943 21.9606 43.1501 21.8021 43.4311 21.7052C43.7121 21.6083 44.0111 21.5755 44.3065 21.609C43.8474 21.788 43.4616 22.1158 43.211 22.54C43.185 22.5901 43.1616 22.6415 43.141 22.694C43.027 23.0736 42.8696 23.4389 42.672 23.7825C42.4579 24.1288 42.1976 24.4444 41.8985 24.7205C42.0398 24.7166 42.178 24.6782 42.301 24.6085C42.714 24.4179 43.0744 24.1296 43.351 23.7685C43.4727 23.6332 43.6062 23.5091 43.75 23.3975C43.9921 23.2257 44.2696 23.1104 44.5622 23.0602C44.8548 23.0099 45.1549 23.0259 45.4405 23.107C44.9602 23.2046 44.5286 23.4656 44.219 23.8455C44.1786 23.8855 44.1485 23.9348 44.1315 23.989C43.9565 24.3471 43.7378 24.6822 43.4805 24.9865C43.2235 25.3018 42.9216 25.5778 42.5845 25.8055C42.7258 25.8229 42.8692 25.8036 43.001 25.7495C43.4416 25.6322 43.8451 25.4045 44.1735 25.088C44.3026 24.9748 44.442 24.8741 44.59 24.787C44.8569 24.6545 45.1502 24.5836 45.4482 24.5794C45.7462 24.5751 46.0413 24.6377 46.312 24.7625C45.8206 24.7875 45.3521 24.9774 44.982 25.3015C44.9448 25.3432 44.9109 25.3876 44.8805 25.4345C44.6498 25.7586 44.3832 26.0556 44.086 26.32C43.7711 26.584 43.4228 26.8053 43.05 26.978C43.1849 27.0169 43.328 27.0169 43.463 26.978C43.9215 26.9293 44.3606 26.7669 44.7405 26.5055C44.8834 26.4121 45.0374 26.3368 45.199 26.2815C45.4801 26.1887 45.7788 26.162 46.072 26.2032C46.3651 26.2445 46.6448 26.3527 46.8895 26.5195C46.4 26.4681 45.9073 26.5814 45.4895 26.8415C45.4438 26.8732 45.4026 26.9109 45.367 26.9535C45.093 27.2447 44.7852 27.5021 44.45 27.72C44.1062 27.9369 43.7323 28.102 43.3405 28.21C43.4638 28.2764 43.603 28.3078 43.743 28.301C44.2022 28.3142 44.6584 28.222 45.0765 28.0315C45.2335 27.9581 45.3994 27.9052 45.57 27.874C45.8627 27.8303 46.1616 27.8529 46.4445 27.9401C46.7274 28.0274 46.9871 28.177 47.2045 28.378C46.7317 28.2504 46.2298 28.2862 45.78 28.4795C45.724 28.5145 45.682 28.5355 45.6365 28.5705C45.3199 28.8133 44.9742 29.0156 44.6075 29.1725C44.2338 29.324 43.842 29.4263 43.442 29.477C43.5502 29.5649 43.6841 29.6152 43.8235 29.6205C44.2749 29.7194 44.7439 29.7049 45.1885 29.5785C45.352 29.5288 45.5216 29.5017 45.6925 29.498C45.9923 29.4942 46.2889 29.5598 46.5591 29.6897C46.8293 29.8197 47.0658 30.0104 47.25 30.247C46.8038 30.0464 46.3028 30.0032 45.829 30.1245L45.6715 30.191C44.9686 30.5858 44.1706 30.7795 43.365 30.751C43.4638 30.8455 43.5838 30.9151 43.715 30.954C44.1416 31.1176 44.6025 31.1717 45.0555 31.1115C45.2265 31.094 45.3989 31.094 45.57 31.1115C45.8628 31.1618 46.1407 31.2772 46.383 31.4492C46.6253 31.6213 46.8259 31.8455 46.97 32.1055C46.5585 31.8288 46.0632 31.7049 45.57 31.7555L45.4125 31.7905C45.0377 31.9293 44.6454 32.0153 44.247 32.046C43.8434 32.0822 43.4366 32.0598 43.0395 31.9795C43.1234 32.0928 43.2356 32.1822 43.365 32.2385C43.7666 32.4592 44.2157 32.5793 44.674 32.5885C44.8445 32.6026 45.0133 32.6331 45.178 32.6795C45.4597 32.7711 45.7171 32.9254 45.9305 33.131C46.1439 33.3365 46.3078 33.5878 46.41 33.866C46.0446 33.5371 45.5778 33.3432 45.087 33.3165C45.0311 33.3113 44.9748 33.3113 44.919 33.3165C44.5278 33.3882 44.1293 33.4117 43.7325 33.3865C43.3302 33.3559 42.9343 33.2687 42.5565 33.1275C42.6152 33.2588 42.713 33.3687 42.8365 33.4425C43.1969 33.7242 43.6192 33.9162 44.0685 34.0025C44.2368 34.0345 44.3995 34.0911 44.5515 34.1705C44.8148 34.3057 45.0441 34.4988 45.2223 34.7351C45.4005 34.9715 45.5229 35.2451 45.5805 35.5355C45.2723 35.1562 44.8459 34.8913 44.3695 34.783C44.3136 34.7778 44.2573 34.7778 44.2015 34.783C43.8027 34.7857 43.4048 34.7446 43.015 34.6605C42.62 34.5666 42.2397 34.4194 41.8845 34.223C41.9288 34.3599 42.0114 34.4814 42.1225 34.573C42.4275 34.9178 42.8171 35.1771 43.253 35.3255C43.4079 35.3925 43.5576 35.4709 43.701 35.56C43.9407 35.7372 44.1375 35.966 44.2769 36.2295C44.4162 36.4931 44.4945 36.7846 44.506 37.0825C44.2623 36.654 43.8795 36.3218 43.421 36.141L43.2635 36.1095C42.8677 36.0544 42.4799 35.9521 42.1085 35.805C41.735 35.6482 41.3824 35.446 41.0585 35.203C41.0843 35.3392 41.1459 35.466 41.237 35.5705C41.4885 35.9576 41.8309 36.2772 42.2345 36.5015C42.3837 36.5849 42.5223 36.686 42.6475 36.8025C42.8544 37.015 43.0112 37.2712 43.1063 37.5522C43.2013 37.8332 43.2323 38.1319 43.197 38.4265C43.024 37.9662 42.6993 37.5785 42.2765 37.3275L42.1225 37.261C41.7395 37.1562 41.3731 36.9983 41.034 36.792C40.6939 36.5875 40.3831 36.3379 40.11 36.05C40.1018 36.1928 40.1412 36.3344 40.222 36.4525C40.4115 36.8651 40.6986 37.2255 41.0585 37.5025C41.1896 37.6116 41.3071 37.7362 41.4085 37.8735C41.5795 38.1159 41.6944 38.3935 41.7447 38.6859C41.7949 38.9784 41.7793 39.2783 41.699 39.564C41.6106 39.0801 41.3478 38.6455 40.9605 38.3425C40.9174 38.3086 40.8718 38.2781 40.824 38.2515C40.4652 38.0752 40.1281 37.8579 39.8195 37.604C39.5105 37.3435 39.2385 37.042 39.011 36.708C38.9941 36.8473 39.0096 36.9887 39.0565 37.121C39.1775 37.5634 39.4087 37.968 39.7285 38.297C39.8441 38.4255 39.9418 38.5692 40.019 38.724C40.1521 38.9886 40.2244 39.2796 40.2305 39.5758C40.2365 39.8719 40.1762 40.1657 40.054 40.4355C40.029 39.9453 39.8348 39.479 39.5045 39.116C39.4697 39.0725 39.4284 39.0347 39.382 39.004C39.0573 38.7739 38.7602 38.5073 38.4965 38.2095C38.2344 37.8989 38.0122 37.5567 37.835 37.191C37.796 37.3252 37.7888 37.4666 37.814 37.604C37.8677 38.0608 38.0284 38.4984 38.283 38.8815C38.3827 39.0228 38.4628 39.1771 38.521 39.34C38.6085 39.6242 38.6316 39.9243 38.5886 40.2185C38.5456 40.5127 38.4376 40.7937 38.2725 41.041C38.3296 40.5507 38.2145 40.0558 37.947 39.641C37.9178 39.5975 37.885 39.5565 37.849 39.5185C37.5617 39.2418 37.3058 38.9343 37.086 38.6015C36.8775 38.2546 36.7162 37.8815 36.6065 37.492C36.5385 37.6148 36.5069 37.7544 36.5155 37.8945C36.4922 38.3545 36.5849 38.8131 36.785 39.228C36.8531 39.3859 36.9059 39.55 36.9425 39.718C36.9864 40.0108 36.9639 40.3097 36.8767 40.5927C36.7894 40.8756 36.6397 41.1353 36.4385 41.3525C36.5679 40.8802 36.5283 40.3776 36.3265 39.9315C36.3067 39.88 36.2796 39.8316 36.246 39.788C35.9972 39.4678 35.7946 39.1144 35.644 38.738C35.4812 38.3687 35.3751 37.9769 35.329 37.576C35.2502 37.6896 35.1997 37.8204 35.182 37.9575C35.0901 38.4103 35.1093 38.8787 35.238 39.3225C35.2879 39.486 35.315 39.6556 35.3185 39.8265C35.3156 40.1231 35.2454 40.4152 35.1132 40.6807C34.9811 40.9463 34.7903 41.1783 34.5555 41.3595C34.7608 40.9146 34.8041 40.4119 34.678 39.9385C34.6656 39.8839 34.6468 39.8311 34.622 39.781C34.4318 39.4306 34.286 39.0579 34.188 38.6715C34.0952 38.2795 34.054 37.8771 34.0655 37.4745C33.9677 37.5709 33.8975 37.6917 33.8625 37.8245C33.6956 38.2626 33.6415 38.7355 33.705 39.2C33.733 39.3668 33.733 39.5372 33.705 39.704C33.659 39.997 33.5465 40.2756 33.376 40.5183C33.2055 40.761 32.9815 40.9614 32.7215 41.104C32.9976 40.6923 33.1214 40.1972 33.0715 39.704C33.0712 39.6465 33.0605 39.5896 33.04 39.536C32.905 39.1599 32.818 38.7683 32.781 38.3705C32.7589 37.9666 32.7824 37.5616 32.851 37.163C32.7414 37.2494 32.6529 37.3595 32.592 37.485C32.3522 37.8924 32.2175 38.3531 32.2 38.8255C32.1974 38.9962 32.1715 39.1658 32.123 39.3295C32.0291 39.6114 31.8727 39.8683 31.6654 40.0811C31.4581 40.2938 31.2053 40.4569 30.926 40.558C31.2551 40.1932 31.4522 39.7286 31.486 39.2385C31.4927 39.1827 31.4927 39.1263 31.486 39.0705C31.4104 38.6798 31.3881 38.2807 31.4195 37.884C31.4505 37.4828 31.534 37.0874 31.668 36.708C31.5441 36.7736 31.4392 36.87 31.3635 36.988C31.0791 37.3472 30.8857 37.7699 30.8 38.22C30.7719 38.3868 30.7188 38.5485 30.6425 38.6995C30.5078 38.9673 30.3139 39.201 30.0757 39.3829C29.8374 39.5648 29.5608 39.6902 29.267 39.7495C29.6526 39.4459 29.921 39.0179 30.0265 38.5385C30.0332 38.4827 30.0332 38.4263 30.0265 38.3705C30.0122 37.9718 30.0499 37.573 30.1385 37.184C30.2349 36.7877 30.3844 36.4062 30.583 36.05C30.4456 36.0918 30.3238 36.1734 30.233 36.2845C29.8906 36.5931 29.6297 36.9814 29.4735 37.415C29.4164 37.5744 29.3375 37.7252 29.239 37.863C29.0631 38.1019 28.836 38.2984 28.5744 38.4383C28.3128 38.5782 28.0233 38.6578 27.727 38.6715C28.1504 38.4241 28.4774 38.0403 28.6545 37.583C28.676 37.5337 28.6913 37.482 28.7 37.429C28.7499 37.0322 28.8523 36.6438 29.0045 36.274C29.1543 35.8972 29.357 35.5437 29.6065 35.224C29.4659 35.2386 29.3335 35.2974 29.2285 35.392C28.8403 35.6435 28.5233 35.9906 28.308 36.4C28.2244 36.5502 28.1234 36.69 28.007 36.8165C27.7945 37.0234 27.5383 37.18 27.2572 37.2745C26.976 37.369 26.6773 37.3991 26.383 37.3625C26.8425 37.1961 27.2273 36.8708 27.468 36.4455C27.4999 36.3973 27.5236 36.344 27.538 36.288C27.653 35.9081 27.814 35.5438 28.0175 35.203C28.2304 34.8578 28.4868 34.5413 28.7805 34.2615C28.638 34.2651 28.4986 34.3035 28.3745 34.3735C27.9632 34.567 27.6035 34.8548 27.3245 35.2135C27.225 35.3461 27.1071 35.464 26.9745 35.5635C26.7327 35.7361 26.4556 35.8527 26.1632 35.9048C25.8707 35.9569 25.5704 35.9431 25.284 35.8645C25.7648 35.7619 26.196 35.4975 26.5055 35.1155C26.5395 35.0733 26.5688 35.0275 26.593 34.979C26.7579 34.6126 26.9659 34.2672 27.2125 33.95C27.4801 33.6452 27.7846 33.3748 28.119 33.145C27.9796 33.1276 27.8382 33.1432 27.706 33.1905C27.2625 33.3167 26.8557 33.5471 26.5195 33.8625C26.3928 33.9757 26.2529 34.0732 26.103 34.153C25.8384 34.2862 25.5473 34.3585 25.2512 34.3645C24.955 34.3706 24.6613 34.3103 24.3915 34.188C24.8806 34.1585 25.3455 33.9649 25.711 33.6385C25.7537 33.6029 25.7913 33.5617 25.823 33.516C26.0453 33.1948 26.3063 32.9021 26.6 32.6445C26.9118 32.384 27.2537 32.1619 27.6185 31.983C27.485 31.9401 27.3426 31.9329 27.2055 31.962C26.7496 32.0131 26.3139 32.178 25.9385 32.4415C25.7943 32.5328 25.6406 32.6079 25.48 32.6655C25.1962 32.7545 24.896 32.7787 24.6016 32.7363C24.3072 32.6939 24.0261 32.586 23.779 32.4205C24.2694 32.48 24.7651 32.3648 25.179 32.095L25.312 31.9935C25.585 31.7033 25.893 31.4482 26.229 31.234C26.5752 31.0235 26.9485 30.8611 27.3385 30.751C27.2184 30.6896 27.0848 30.6595 26.95 30.6635C26.4896 30.636 26.03 30.7289 25.6165 30.933C25.458 31.0021 25.2926 31.0537 25.123 31.087C24.8301 31.1314 24.5311 31.1092 24.2481 31.0219C23.965 30.9347 23.7054 30.7846 23.4885 30.583C23.9618 30.7133 24.4658 30.6737 24.913 30.471C24.9636 30.4508 25.0117 30.425 25.0565 30.394C25.3711 30.153 25.7129 29.9497 26.075 29.7885C26.4536 29.6394 26.8482 29.5349 27.251 29.477C27.1352 29.395 27.0001 29.3444 26.859 29.33C26.4098 29.2364 25.9444 29.2556 25.5045 29.386C25.3409 29.4357 25.1713 29.4628 25.0005 29.4665C24.7013 29.4618 24.407 29.3905 24.1388 29.258C23.8706 29.1254 23.6353 28.9348 23.45 28.7C23.8972 28.8976 24.3983 28.9371 24.871 28.812C24.926 28.8013 24.979 28.7824 25.0285 28.756C25.3776 28.5781 25.7465 28.4418 26.1275 28.35C26.5228 28.2556 26.9287 28.2133 27.335 28.224C27.2375 28.1284 27.1169 28.0597 26.985 28.0245C26.5545 27.8566 26.0889 27.7989 25.6305 27.8565C25.46 27.8827 25.2864 27.8827 25.116 27.8565C24.823 27.8089 24.5447 27.6953 24.3022 27.5243C24.0596 27.3533 23.8592 27.1294 23.716 26.8695C24.1294 27.1417 24.6231 27.2651 25.116 27.2195C25.1731 27.2104 25.2293 27.1964 25.284 27.1775C25.6567 27.0436 26.0447 26.9566 26.439 26.9185C26.8431 26.8957 27.2485 26.9215 27.6465 26.9955C27.5669 26.8763 27.4536 26.7837 27.321 26.7295C26.9249 26.5017 26.4791 26.3744 26.0225 26.3585C25.8431 26.3477 25.6663 26.3112 25.4975 26.25C25.2151 26.1571 24.9577 26.001 24.7448 25.7936C24.5319 25.5861 24.3691 25.3328 24.2689 25.053C24.6284 25.3834 25.0906 25.5799 25.578 25.6095C25.6338 25.6147 25.6901 25.6147 25.746 25.6095C26.1426 25.5337 26.5478 25.5137 26.95 25.55C27.356 25.578 27.7557 25.6652 28.1365 25.809C28.0719 25.6815 27.9755 25.573 27.8565 25.494C27.4921 25.2007 27.0602 25.0034 26.6 24.92C26.4291 24.8899 26.2631 24.8369 26.1065 24.7625C25.8441 24.6233 25.6157 24.4279 25.4378 24.19C25.2599 23.9522 25.1368 23.678 25.0775 23.387C25.3861 23.776 25.8204 24.0458 26.306 24.15C26.3618 24.1552 26.4181 24.1552 26.474 24.15C26.8691 24.1372 27.2643 24.1749 27.65 24.262C28.0451 24.3601 28.4254 24.5107 28.7805 24.71C28.7429 24.5733 28.6648 24.4513 28.5565 24.36C28.2485 24.0169 27.86 23.7558 27.426 23.6005C27.2571 23.5496 27.0968 23.4741 26.95 23.3765C26.7153 23.1976 26.5225 22.9696 26.3853 22.7084C26.2481 22.4473 26.1696 22.1592 26.1555 21.8645C26.3987 22.2861 26.7774 22.613 27.23 22.792C27.284 22.8136 27.3404 22.8289 27.398 22.8375C27.7933 22.8927 28.1809 22.9937 28.553 23.1385C28.9274 23.2946 29.2803 23.4981 29.603 23.744C29.5811 23.6044 29.5232 23.4729 29.435 23.3625C29.1824 22.9811 28.8414 22.6665 28.441 22.4455C28.0998 22.2642 27.8229 21.982 27.6481 21.6375C27.4733 21.2929 27.4092 20.9028 27.4645 20.5205C27.6434 20.9795 27.9713 21.3653 28.3955 21.616C28.441 21.6401 28.4891 21.6589 28.539 21.672C28.9224 21.7908 29.2911 21.9528 29.638 22.155C29.9824 22.3677 30.2987 22.6228 30.5795 22.9145C30.5715 22.7771 30.5333 22.6433 30.4675 22.5225C30.2748 22.1039 29.9872 21.736 29.6275 21.448C29.49 21.3468 29.3654 21.2293 29.2565 21.098C29.0856 20.8554 28.9709 20.5779 28.9206 20.2855C28.8704 19.9931 28.8859 19.6932 28.966 19.4075C29.0691 19.8856 29.329 20.3155 29.7045 20.629C29.7496 20.6642 29.799 20.6936 29.8515 20.7165C30.2094 20.8846 30.5446 21.0975 30.849 21.35C31.1615 21.6108 31.4339 21.9162 31.6575 22.2565C31.6852 22.1163 31.6693 21.9709 31.612 21.84C31.4887 21.3966 31.262 20.9887 30.9505 20.65C30.8309 20.5274 30.7295 20.3883 30.6495 20.237C30.5179 19.9716 30.4474 19.6802 30.4432 19.384C30.439 19.0879 30.5011 18.7945 30.625 18.5255C30.6406 19.0142 30.8263 19.482 31.15 19.8485C31.1881 19.8886 31.2291 19.9261 31.2725 19.9605C31.6162 20.1821 31.9282 20.4494 32.2 20.755Z" fill="#FFFF00"/>
<path d="M39.0461 45.0275C39.8896 44.3485 41.1986 44.3065 42.2416 44.597C43.9916 45.136 44.0371 47.8485 42.1191 48.223C42.6091 48.3385 43.1411 48.51 43.3721 48.944C44.0021 50.1025 43.6346 51.877 42.0911 52.297C41.0411 52.521 39.7076 52.5105 38.8921 51.772C38.2656 51.1875 38.3391 50.33 38.3251 49.588C38.9726 49.588 39.6166 49.588 40.2641 49.5705C40.2921 49.987 40.2291 50.4315 40.4566 50.813C40.5229 50.8975 40.6095 50.9639 40.7083 51.0059C40.8072 51.048 40.9151 51.0644 41.0219 51.0536C41.1288 51.0427 41.2312 51.0051 41.3196 50.944C41.408 50.883 41.4796 50.8006 41.5276 50.7045C41.6349 50.4613 41.6752 50.1939 41.6445 49.9299C41.6137 49.6659 41.5129 49.415 41.3526 49.203C41.062 49.088 40.7515 49.0321 40.4391 49.0385C40.4391 48.58 40.4391 48.1215 40.4391 47.6595C40.7891 47.6105 41.4331 47.684 41.4891 47.2325C41.6081 46.753 41.7481 45.8325 40.9431 45.787C40.1521 45.836 40.4146 46.718 40.3551 47.187H38.3706C38.3916 46.4415 38.3706 45.5875 39.0391 45.0345L39.0461 45.0275Z" fill="#FFFF00"/>
<path d="M46.095 44.5445C47.1765 44.2575 48.545 44.4325 49.245 45.297C49.742 45.899 49.693 46.697 49.6965 47.397C48.9965 47.397 48.3245 47.397 47.6385 47.397C47.6739 46.9477 47.6491 46.4958 47.565 46.053C47.306 45.6085 46.3925 45.8185 46.494 46.347C46.4695 47.747 46.4695 49.147 46.494 50.547C46.466 51.1525 47.39 51.226 47.6525 50.736C47.6315 50.239 47.6315 49.742 47.6525 49.245C48.3525 49.245 49.0245 49.245 49.707 49.245C49.707 50.0255 49.812 50.89 49.2555 51.562C48.5555 52.4475 47.173 52.591 46.0775 52.318C45.6357 52.2119 45.2412 51.963 44.9552 51.6099C44.6692 51.2568 44.5076 50.8192 44.4955 50.365C44.4745 49.0875 44.4955 47.8065 44.4955 46.515C44.5012 46.0511 44.6654 45.603 44.9608 45.2452C45.2562 44.8874 45.6651 44.6414 46.1195 44.548L46.095 44.5445Z" fill="#FFFF00"/>
<path d="M3.57007 44.5585C4.23507 44.5585 4.90357 44.5585 5.57207 44.5585C5.60357 45.6085 5.48457 46.6585 5.61757 47.7085C6.05507 46.6585 6.47507 45.6295 6.89857 44.5865C7.63707 44.555 8.37557 44.562 9.11407 44.562C8.55057 45.549 8.03607 46.5605 7.49707 47.558C7.30807 47.817 7.53907 48.1005 7.60207 48.363C8.12357 49.672 8.56807 51.0055 9.11407 52.311C8.39307 52.311 7.66857 52.311 6.94757 52.311C6.59757 51.3975 6.24757 50.2635 5.60007 49.511C5.48807 51.261 5.51607 50.988 5.50207 52.311H3.57007C3.61907 49.7326 3.61907 47.1531 3.57007 44.5725V44.5585Z" fill="#FFFF00"/>
<path d="M9.69849 52.297C9.73699 49.714 9.69849 47.131 9.71599 44.5445H11.7495C11.711 45.521 11.7495 46.4975 11.7495 47.474C12.6455 47.474 13.7305 47.376 14.385 48.0445C15.0605 48.8495 15.0535 49.9485 14.84 50.89C14.6825 51.6985 13.79 52.241 12.894 52.2655C11.844 52.304 10.7765 52.2655 9.71599 52.2655L9.69849 52.297ZM11.7425 48.8635C11.7425 49.5262 11.7425 50.1877 11.7425 50.848C12.229 50.8795 12.544 50.9005 12.7505 50.603C13.2265 49.9345 12.9045 48.65 11.725 48.895L11.7425 48.8635Z" fill="#FFFF00"/>
<path d="M15.5925 44.555C16.2925 44.555 16.9575 44.555 17.64 44.555V52.2935H15.5925C15.6065 49.7175 15.6065 47.138 15.5925 44.555Z" fill="#FFFF00"/>
<path d="M18.5081 44.562C19.8381 44.5865 21.1996 44.4395 22.5051 44.7125C22.8695 44.8008 23.1943 45.0074 23.4286 45.3C23.663 45.5926 23.7936 45.9547 23.8001 46.3295C23.8736 47.187 23.8526 48.2195 23.0511 48.8285C22.3511 49.3465 21.3781 49.2345 20.5311 49.245C20.5556 50.2635 20.5311 51.282 20.5556 52.3005H18.5046C18.5396 49.7338 18.5396 47.1567 18.5046 44.569L18.5081 44.562ZM20.5381 45.9025C20.5381 46.571 20.5381 47.236 20.5381 47.901C20.9581 47.859 21.5496 47.901 21.7141 47.4705C21.8668 47.0572 21.8492 46.6003 21.6651 46.2C21.4306 45.85 20.9336 45.9165 20.5416 45.8955L20.5381 45.9025Z" fill="#FFFF00"/>
<path d="M24.6366 52.304C24.6366 49.721 24.6366 47.1345 24.6366 44.5515H28.9416C28.9416 45.045 28.9416 45.5455 28.9416 46.0425H26.6561C26.6841 48.125 26.6561 50.211 26.6771 52.2935L24.6366 52.304Z" fill="#FFFF00"/>
<path d="M29.519 44.562C30.219 44.562 30.8875 44.562 31.5735 44.562C31.5735 45.5385 31.5735 46.5185 31.5735 47.495C32.48 47.495 33.5685 47.4075 34.216 48.0935C34.86 48.8845 34.832 49.952 34.657 50.869C34.517 51.674 33.6525 52.241 32.7565 52.269C31.6855 52.3215 30.6145 52.269 29.5435 52.2935C29.5435 49.714 29.575 47.1345 29.5435 44.555L29.519 44.562ZM31.577 48.888C31.577 49.5565 31.577 50.2285 31.605 50.897C31.9209 50.8879 32.2325 50.8227 32.5255 50.7045C32.837 50.2845 32.753 49.728 32.6585 49.259C32.466 48.867 31.9375 48.9265 31.5525 48.895L31.577 48.888Z" fill="#FFFF00"/>
<path d="M35.3851 44.5585C36.0851 44.5585 36.7501 44.5585 37.4361 44.5585C37.4151 47.1345 37.4081 49.7105 37.4361 52.283C36.7361 52.304 36.0676 52.304 35.3816 52.283C35.4189 49.7093 35.4201 47.1345 35.3851 44.5585Z" fill="#FFFF00"/>
<path d="M50.2425 44.5585C51.7895 44.5585 53.34 44.5585 54.8835 44.5585C54.8835 45.0555 54.8835 45.5525 54.8835 46.0495H53.5605C53.5605 48.1495 53.5605 50.2215 53.5605 52.3075C52.8605 52.3075 52.2025 52.3075 51.52 52.3075C51.5655 50.232 51.52 48.1565 51.555 46.081C51.1105 46.06 50.6625 46.053 50.218 46.0425C50.239 45.5525 50.239 45.0625 50.218 44.5725L50.2425 44.5585Z" fill="#FFFF00"/>
<path d="M56.315 44.5655C57.218 44.5445 58.1245 44.5655 59.0275 44.5655C59.57 47.1485 60.0775 49.735 60.69 52.3075C59.969 52.3075 59.2515 52.3075 58.5305 52.3075C58.4885 51.8525 58.4325 51.3975 58.3625 50.9425H56.917C56.8575 51.3975 56.8015 51.8525 56.742 52.3075H54.691C55.2464 49.7408 55.7877 47.1613 56.315 44.569V44.5655ZM57.5925 45.7625C57.5027 47.0275 57.3461 48.2869 57.1235 49.5355H58.1735C57.9565 48.3 57.9355 46.998 57.5925 45.759V45.7625Z" fill="#FFFF00"/>
<path d="M61.1801 44.555H63.2276C63.2276 45.535 63.2276 46.515 63.2276 47.495H64.3756C64.4071 46.5115 64.3756 45.528 64.3756 44.5445C65.0756 44.5445 65.7441 44.5445 66.4266 44.5445C66.3963 47.1252 66.3963 49.7035 66.4266 52.2795H64.3861C64.3861 51.1665 64.3861 50.0535 64.3861 48.9405H63.2066C63.2066 50.05 63.2066 51.163 63.2066 52.276C62.5066 52.276 61.8346 52.276 61.1521 52.276C61.1521 49.693 61.1521 47.11 61.1521 44.527L61.1801 44.555Z" fill="#FFFF00"/>
</svg>
