<svg width="70" height="70" viewBox="0 0 70 70" fill="none" xmlns="http://www.w3.org/2000/svg">
<path d="M70 0H0V70H70V0Z" fill="white"/>
<path d="M13.3909 44.3415L15.0499 40.334H16.9609V47.88H15.3649V42.84L13.9404 46.4135H12.8309L11.4064 42.84V47.88H9.82794V40.334H11.7494L13.3909 44.3415ZM23.2469 41.5905H20.2999V43.3685H22.7814V44.688H20.2999V46.655H23.6319V47.88H18.6549V40.334H23.2469V41.5905ZM24.8359 47.8905V40.334H26.4144V43.176C26.6371 43.2293 26.8714 43.202 27.0759 43.099C27.2743 42.9389 27.4315 42.7337 27.5344 42.5005C27.6144 42.3723 27.6835 42.2377 27.7409 42.098C27.984 41.529 28.3069 40.9975 28.6999 40.5195C28.8144 40.4048 28.951 40.3147 29.1014 40.2545C29.2519 40.1943 29.413 40.1654 29.5749 40.1695C29.8123 40.1685 30.0484 40.2039 30.2749 40.2745V41.4995C30.1979 41.4819 30.1181 41.4803 30.0405 41.4947C29.9628 41.5091 29.889 41.5394 29.8234 41.5835C29.6834 41.7076 29.5651 41.8543 29.4734 42.0175C29.4174 42.1085 29.3334 42.2555 29.2249 42.4515C29.1164 42.6475 29.0079 42.826 28.9939 42.854C28.9341 42.989 28.8577 43.116 28.7664 43.232C28.5757 43.5013 28.3088 43.7073 27.9999 43.8235C28.3288 43.9172 28.617 44.118 28.8189 44.394C29.065 44.7817 29.2736 45.1919 29.4419 45.619C29.4682 45.6544 29.4894 45.6933 29.5049 45.7345L29.5784 45.906C29.6714 46.1274 29.807 46.3284 29.9774 46.4975C30.1306 46.6233 30.3255 46.687 30.5234 46.676V47.9255C30.3342 48.0042 30.133 48.0503 29.9284 48.062C29.6265 48.0784 29.3287 47.9865 29.0884 47.803C28.7432 47.4839 28.4678 47.0965 28.2799 46.6655C28.2379 46.5675 28.1924 46.466 28.1504 46.3645L28.0139 46.0635L27.8739 45.766C27.6394 45.2725 27.4854 44.9645 27.4154 44.842C27.3356 44.7078 27.212 44.6052 27.0654 44.5515C26.8585 44.4758 26.6356 44.4541 26.4179 44.4885V47.88L24.8359 47.8905ZM36.1829 41.5905H33.2254V43.3685H35.6999V44.688H33.2254V46.655H36.5574V47.88H31.5944V40.334H36.1829V41.5905ZM39.3924 44.415V47.88H37.7719V40.334H39.3924V43.155H42.0944V40.334H43.7114V47.88H42.0944V44.415H39.3924ZM47.0154 44.8805L49.7664 41.265V40.334H51.3554V47.88H49.7664V43.33L47.0154 46.9245V47.8835H45.4159V40.334H47.0154V44.8805ZM56.6194 44.3415L58.2609 40.334H60.1719V47.88H58.5934V42.84L57.1724 46.4135H56.0594L54.6384 42.84V47.88H53.0599V40.334H54.9814L56.6194 44.3415Z" fill="#35CB95"/>
<path fill-rule="evenodd" clip-rule="evenodd" d="M20.2615 37.051C24.3215 26.3655 37.1315 32.2595 44.0825 28.5635C40.3515 38.248 26.1135 31.15 20.2615 37.051Z" fill="#35CB95"/>
<path fill-rule="evenodd" clip-rule="evenodd" d="M22.1094 32.83C23.6529 28.896 27.1984 25.6445 32.7494 24.976C35.9239 24.591 43.7009 25.9105 48.5624 23.2575C48.4854 26.313 43.6344 28.91 36.5539 29.1655C31.2129 29.358 25.6234 28.868 22.1094 32.83Z" fill="#35CB95"/>
<path fill-rule="evenodd" clip-rule="evenodd" d="M25.7144 26.9885C32.1474 14.539 44.3904 21.7385 53.0144 18.55C51.5864 22.869 44.8944 23.989 39.2139 24.108C33.8239 24.22 30.1314 23.4465 25.7004 26.9885H25.7144Z" fill="#35CB95"/>
<path fill-rule="evenodd" clip-rule="evenodd" d="M20.2615 37.051C25.641 28.0385 39.1615 35.259 44.0825 28.5635C40.3515 38.248 26.1135 31.15 20.2615 37.051Z" fill="#3E8693"/>
<path fill-rule="evenodd" clip-rule="evenodd" d="M22.1095 32.83C25.151 27.4015 30.3275 26.8205 35.4795 26.6665C40.551 26.5195 44.6845 27.2335 48.5625 23.2575C48.5004 24.1304 48.1279 24.9523 47.5125 25.5745C45.717 27.5345 41.727 28.9765 36.54 29.1655C31.199 29.358 25.6095 28.868 22.0955 32.83H22.1095Z" fill="#3E8693"/>
<path fill-rule="evenodd" clip-rule="evenodd" d="M25.7144 26.9885C33.0644 16.8 45.2584 25.6515 53.0144 18.55C51.5864 22.869 44.8944 23.989 39.2139 24.108C33.8239 24.22 30.1314 23.4465 25.7004 26.9885H25.7144Z" fill="#3E8693"/>
<path fill-rule="evenodd" clip-rule="evenodd" d="M50.883 18.571C51.6285 17.7415 51.954 17.0975 51.8035 15.631C52.8325 16.0825 53.1615 16.898 52.983 18.004C52.3927 18.2288 51.7836 18.4009 51.163 18.5185L50.883 18.571Z" fill="#35CB95"/>
<path d="M10.906 50.9845L12.5265 49.035H13.881L12.1835 50.9845L14.371 54.25H12.95L11.396 51.9295L10.906 52.5V54.25H9.76495V49.035H10.906V50.9845ZM19.4145 54.25V49.035H20.552V54.25H19.4145ZM15.1375 49.035H16.275V50.8725H17.115C17.4548 50.869 17.7925 50.9259 18.1125 51.0405C18.4046 51.145 18.6583 51.3353 18.8405 51.5865C19.0324 51.8661 19.1304 52.1995 19.1205 52.5385C19.1522 52.7849 19.1206 53.0354 19.0288 53.2662C18.9369 53.4971 18.7878 53.7007 18.5955 53.858C18.1501 54.1406 17.6277 54.2776 17.101 54.25H15.1375V49.035ZM16.275 53.3925H16.7195C16.9883 53.4007 17.2553 53.3468 17.5 53.235C17.717 53.13 17.8115 52.885 17.794 52.535C17.773 52.024 17.437 51.7685 16.786 51.7685H16.275V53.403V53.3925ZM22.9005 52.5525V54.25H21.756V49.035H23.3625C23.959 49.0005 24.553 49.1378 25.074 49.4305C25.473 49.693 25.6655 50.1585 25.6515 50.8305C25.6375 51.9785 24.9305 52.5525 23.5305 52.5525H22.9005ZM22.9005 51.6635H23.4045C23.6548 51.6787 23.9025 51.6057 24.1045 51.457C24.1932 51.3754 24.2623 51.2747 24.3065 51.1626C24.3508 51.0504 24.369 50.9297 24.36 50.8095C24.3845 50.2005 24.0625 49.896 23.3975 49.896H22.9005V51.6635ZM29.659 49.9135H27.65V54.25H26.5055V49.035H29.6555V49.903L29.659 49.9135ZM34.7094 54.25V49.035H35.847V54.25H34.7094ZM30.45 49.035H31.57V50.8725H32.41C32.7487 50.8687 33.0853 50.9256 33.404 51.0405C33.6976 51.144 33.9527 51.3344 34.1355 51.5865C34.3273 51.8661 34.4254 52.1995 34.4155 52.5385C34.4472 52.7849 34.4156 53.0354 34.3238 53.2662C34.2319 53.4971 34.0828 53.7007 33.8905 53.858C33.445 54.1406 32.9227 54.2776 32.396 54.25H30.45V49.035ZM31.5875 53.3925H32.0319C32.2984 53.3996 32.563 53.3457 32.8055 53.235C33.019 53.13 33.117 52.885 33.0995 52.535C33.0785 52.024 32.7425 51.7685 32.0915 51.7685H31.57V53.403L31.5875 53.3925ZM37.3834 50.225L36.8795 49.525C37.4074 49.1249 38.0546 48.9141 38.717 48.9265C39.0772 48.9069 39.4371 48.9728 39.767 49.119C40.012 49.2289 40.2207 49.4061 40.3689 49.63C40.4943 49.8241 40.5733 50.0445 40.6 50.274C40.6141 50.4524 40.5939 50.6318 40.5405 50.8025C40.4876 50.978 40.3856 51.1347 40.2464 51.254C40.0902 51.3846 39.9016 51.4705 39.7005 51.5025V51.5795C39.9851 51.6024 40.2521 51.7266 40.453 51.9295C40.5587 52.0357 40.6413 52.1628 40.6955 52.3025C40.7497 52.4423 40.7744 52.5917 40.768 52.7415C40.7681 53.0201 40.6866 53.2927 40.5334 53.5255C40.36 53.7877 40.1179 53.9971 39.8334 54.131C39.4717 54.2999 39.0777 54.3883 38.6785 54.39C37.9322 54.3965 37.2101 54.1259 36.652 53.6305L37.198 52.9305C37.2211 52.934 37.2429 52.9436 37.261 52.9585L37.317 53.004L37.478 53.1055C37.5445 53.151 37.6215 53.1965 37.709 53.2455C38.012 53.4048 38.3555 53.4706 38.6959 53.4345C38.9257 53.413 39.1397 53.3085 39.2979 53.1405C39.3657 53.0675 39.4177 52.9814 39.4508 52.8875C39.4839 52.7935 39.4974 52.6938 39.4904 52.5945C39.4904 52.2025 39.2104 52.003 38.6959 52.003H38.15V51.1H38.5665C38.6819 51.1151 38.7992 51.1038 38.9096 51.0668C39.02 51.0298 39.1205 50.9681 39.2035 50.8865C39.2557 50.8221 39.2935 50.7472 39.314 50.6668C39.3345 50.5864 39.3374 50.5026 39.3224 50.421C39.3097 50.3368 39.2799 50.256 39.2347 50.1838C39.1896 50.1116 39.1301 50.0493 39.0599 50.001C38.8829 49.8841 38.6733 49.8265 38.4615 49.8365C38.0647 49.8595 37.682 49.9915 37.3555 50.218L37.3834 50.225ZM45.6049 49.6405L45.0449 50.3405C44.8887 50.1808 44.6992 50.0576 44.4899 49.9795C44.2805 49.9015 44.0566 49.8706 43.834 49.889C43.6568 49.9163 43.4868 49.9781 43.3335 50.071C43.1246 50.2018 42.9581 50.3902 42.854 50.6135C42.7046 50.9425 42.6374 51.3028 42.6579 51.6635C42.6235 52.1223 42.758 52.5779 43.0359 52.9445C43.2422 53.1735 43.5196 53.3264 43.8234 53.3785C44.2785 53.452 44.716 53.2525 45.1395 52.773L45.7659 53.3295C45.5299 53.651 45.2224 53.9132 44.8677 54.0954C44.513 54.2776 44.1207 54.3749 43.722 54.3795C43.284 54.3838 42.854 54.2623 42.4829 54.0295C42.1107 53.792 41.8124 53.4549 41.6219 53.0565C41.4084 52.6213 41.3028 52.1411 41.3139 51.6565C41.2928 51.2764 41.3531 50.8962 41.4907 50.5413C41.6283 50.1864 41.8401 49.865 42.1119 49.5985C42.5853 49.1516 43.2109 48.9013 43.8619 48.8985C44.195 48.8943 44.5253 48.9599 44.8314 49.091C45.1194 49.2142 45.3782 49.3966 45.5909 49.6265L45.6049 49.6405ZM48.6115 49.896V54.25H47.4739V49.896H46.1439V49.035H49.9414V49.896H48.6115ZM51.8245 53.172L51.4044 54.25H50.26L52.2199 49.0385H53.2944L55.2999 54.25H54.1554L53.7179 53.1545L51.8139 53.1755L51.8245 53.172ZM52.157 52.283H53.4205L52.7729 50.6415L52.157 52.283ZM57.2145 51.8525V54.25H56.077V49.035H57.2145V50.9845H59.1115V49.035H60.2524V54.25H59.1115V51.856L57.2145 51.8525Z" fill="#3E8693"/>
</svg>
