<svg width="70" height="70" viewBox="0 0 70 70" fill="none" xmlns="http://www.w3.org/2000/svg">
<path d="M70 0H0V70H70V0Z" fill="white"/>
<path d="M13.9475 32.7355V35.8435H12.4355V27.2405C12.7855 27.2405 13.1845 27.2405 13.601 27.2405C14.0175 27.2405 14.455 27.2405 14.882 27.2405C15.4172 27.2289 15.9505 27.3058 16.4605 27.468C16.8579 27.5848 17.2191 27.8003 17.5105 28.0945C17.7475 28.3455 17.9308 28.642 18.0495 28.966C18.17 29.3028 18.2293 29.6584 18.2245 30.016C18.2306 30.3857 18.1593 30.7526 18.0153 31.0932C17.8712 31.4337 17.6576 31.7404 17.388 31.9935C17.0705 32.2735 16.6999 32.4866 16.2982 32.6201C15.8965 32.7536 15.472 32.8047 15.05 32.7705C14.5635 32.7705 14.1925 32.76 13.9475 32.7355ZM15.029 28.63L13.9475 28.6545V31.297C14.3815 31.339 14.7385 31.3565 14.9975 31.3565C15.4137 31.378 15.8244 31.2542 16.1595 31.0065C16.3095 30.8779 16.4272 30.7159 16.5031 30.5335C16.5791 30.3512 16.6113 30.1536 16.597 29.9565C16.6087 29.0698 16.086 28.6277 15.029 28.63Z" fill="#DA1A50"/>
<path d="M24.0696 35.8435H18.9666V27.2405H23.9471V28.6405H20.4786V30.8H23.5761V32.2H20.4786V34.4225H24.0696V35.8435Z" fill="#DA1A50"/>
<path d="M30.3065 35.9415H28.7945V34.8005C27.7557 34.8536 26.7313 34.5402 25.9 33.915C25.5399 33.6102 25.255 33.2265 25.0674 32.7937C24.8798 32.3609 24.7946 31.8906 24.8185 31.4195C24.7947 30.9519 24.88 30.4852 25.0677 30.0564C25.2554 29.6275 25.5404 29.2482 25.9 28.9485C26.7265 28.3169 27.7482 27.9949 28.7875 28.0385V27.1425H30.2995V28.0385C31.3371 27.9958 32.3563 28.3219 33.1765 28.959C33.5213 29.2716 33.7969 29.653 33.9855 30.0786C34.1741 30.5041 34.2715 30.9645 34.2715 31.43C34.2715 31.8954 34.1741 32.3558 33.9855 32.7813C33.7969 33.2069 33.5213 33.5883 33.1765 33.901C32.3476 34.519 31.3328 34.8362 30.2995 34.8005L30.3065 35.9415ZM26.4215 31.4195C26.403 31.697 26.4489 31.9751 26.5558 32.232C26.6627 32.4888 26.8275 32.7175 27.0375 32.9C27.5434 33.27 28.1615 33.4542 28.7875 33.4215V29.428C28.1576 29.3947 27.5367 29.5884 27.0375 29.974C26.8326 30.1529 26.6707 30.3759 26.5641 30.6262C26.4574 30.8765 26.4087 31.1477 26.4215 31.4195ZM32.6795 31.4195C32.6918 31.1481 32.6431 30.8774 32.5371 30.6273C32.4311 30.3771 32.2705 30.1539 32.067 29.974C31.5674 29.5892 30.9468 29.3956 30.317 29.428V33.411C31.892 33.404 32.6795 32.7401 32.6795 31.4195Z" fill="#03487B"/>
<path d="M35.0349 31.542C35.0027 30.3841 35.4132 29.2576 36.1829 28.392C36.5523 27.9783 37.0071 27.6499 37.516 27.4293C38.0248 27.2087 38.5755 27.1013 39.1299 27.1145C39.6796 27.0998 40.2261 27.2024 40.733 27.4154C41.24 27.6284 41.6957 27.947 42.0699 28.35C42.8671 29.2241 43.2872 30.3774 43.2389 31.5595C43.2818 32.7333 42.862 33.8771 42.0699 34.7445C41.6896 35.1388 41.2341 35.4529 40.7303 35.6682C40.2265 35.8835 39.6847 35.9956 39.1368 35.9979C38.589 36.0002 38.0462 35.8926 37.5406 35.6815C37.0351 35.4705 36.577 35.1602 36.1934 34.769C35.3949 33.8893 34.9783 32.7287 35.0349 31.542ZM36.4979 31.542C36.4685 32.3319 36.7371 33.1039 37.2504 33.705C37.4798 33.9794 37.7675 34.1992 38.0927 34.3481C38.4179 34.4971 38.7723 34.5715 39.1299 34.566C39.4956 34.5816 39.8598 34.512 40.1939 34.3626C40.5281 34.2131 40.8228 33.988 41.0549 33.705C41.5476 33.0942 41.8036 32.3262 41.7759 31.542C41.805 30.7455 41.5311 29.9675 41.0094 29.365C40.7729 29.0986 40.4827 28.8853 40.1578 28.7393C39.833 28.5932 39.4808 28.5177 39.1246 28.5177C38.7684 28.5177 38.4163 28.5932 38.0914 28.7393C37.7666 28.8853 37.4763 29.0986 37.2399 29.365C36.7294 29.9726 36.4647 30.7491 36.4979 31.542Z" fill="#03487B"/>
<path d="M45.5 32.7355V35.8435H43.995V27.2405C44.345 27.2405 44.744 27.2405 45.164 27.2405C45.584 27.2405 46.0145 27.2405 46.4415 27.2405C46.9766 27.2287 47.51 27.3055 48.02 27.468C48.4173 27.5847 48.7786 27.8003 49.07 28.0945C49.3067 28.3462 49.4911 28.6425 49.6125 28.966C49.7301 29.3034 49.7881 29.6587 49.784 30.016C49.7901 30.3857 49.7188 30.7526 49.5747 31.0932C49.4307 31.4337 49.217 31.7404 48.9475 31.9935C48.6362 32.2762 48.2714 32.4937 47.8746 32.6331C47.4779 32.7726 47.0572 32.8312 46.6375 32.8055C46.1265 32.7705 45.752 32.76 45.5 32.7355ZM46.5815 28.63L45.5 28.6545V31.297C45.934 31.339 46.291 31.3565 46.55 31.3565C46.9662 31.3785 47.3772 31.2548 47.712 31.0065C47.8619 30.8779 47.9796 30.7159 48.0556 30.5335C48.1316 30.3512 48.1637 30.1535 48.1495 29.9565C48.1658 29.0698 47.6455 28.6277 46.5885 28.63H46.5815Z" fill="#03487B"/>
<path d="M51.8595 35.8435H50.5295V27.2405H51.87L54.46 31.2585L56.931 27.2405H58.191V35.8435H56.868V29.624L54.474 33.446H54.278L51.8595 29.6625V35.8435Z" fill="#03487B"/>
<path d="M60.4695 35.8435H58.9435L62.5835 27.216H63.91L67.55 35.8435H65.94L65.0405 33.6455H61.3655L60.4695 35.8435ZM64.463 32.2315L63.21 29.169L61.95 32.2315H64.463Z" fill="#03487B"/>
<path d="M46.9 42.847H46.4835V39.8265H44.6355V42.847H44.219V39.438H46.9V42.847Z" fill="#03487B"/>
<path d="M47.5195 42.847H47.0995L48.566 39.417H48.916L50.3825 42.847H49.945L49.5075 41.797H47.95L47.5195 42.847ZM49.3465 41.426L48.734 39.9665L48.118 41.426H49.3465Z" fill="#03487B"/>
<path d="M50.9985 41.538V42.847H50.582V39.438H51.016H51.4745C51.6475 39.4218 51.8219 39.44 51.9877 39.4917C52.1535 39.5433 52.3074 39.6274 52.4405 39.739C52.6359 39.9444 52.7428 40.2183 52.7382 40.5018C52.7336 40.7852 52.6179 41.0555 52.416 41.2545C52.2932 41.364 52.1498 41.448 51.9941 41.5015C51.8385 41.5549 51.6737 41.5769 51.5095 41.566C51.303 41.5555 51.1315 41.5485 50.9985 41.538ZM51.513 39.816H50.9985V41.132C51.2015 41.132 51.3695 41.1565 51.4955 41.1565C51.7069 41.1672 51.9152 41.1027 52.0835 40.9745C52.1549 40.9121 52.2112 40.8344 52.2482 40.7471C52.2852 40.6597 52.3019 40.5652 52.297 40.4705C52.3032 40.3794 52.2888 40.288 52.2549 40.2032C52.2209 40.1183 52.1684 40.0422 52.101 39.9805C51.9314 39.8563 51.7225 39.7978 51.513 39.816Z" fill="#03487B"/>
<path d="M53.746 39.8265H52.5525V39.438H55.3525V39.8265H54.159V42.847H53.746V39.8265Z" fill="#03487B"/>
<path d="M57.9601 40.1205L55.8881 42.847H55.5381V39.438H55.9511V42.1645L58.0231 39.438H58.3731V42.847H57.9601V40.1205Z" fill="#03487B"/>
<path d="M61.019 42.847H60.6025V41.58H59.9655L59.0835 42.847H58.6145L59.563 41.5065C59.3679 41.4316 59.198 41.3029 59.073 41.1355C58.9491 40.9661 58.884 40.7608 58.8875 40.551C58.8852 40.3991 58.9152 40.2485 58.9755 40.1091C59.0359 39.9697 59.1252 39.8447 59.2375 39.7425C59.5154 39.5121 59.8715 39.398 60.2315 39.424H60.641H61.033L61.019 42.847ZM59.9165 41.1915H60.6165V39.8265C60.3925 39.8265 60.2385 39.8265 60.1545 39.8265C59.9385 39.8144 59.726 39.8844 59.5595 40.0225C59.4873 40.0881 59.4304 40.1689 59.3929 40.259C59.3554 40.3492 59.3382 40.4464 59.3425 40.544C59.3399 40.6255 59.354 40.7068 59.3841 40.7827C59.4142 40.8585 59.4596 40.9274 59.5175 40.985C59.6242 41.0958 59.7644 41.1683 59.9165 41.1915Z" fill="#03487B"/>
<path d="M64.022 42.203L64.19 42.5145C64.0585 42.6425 63.8992 42.7383 63.7245 42.7945C63.5274 42.8622 63.3204 42.8965 63.112 42.896C62.882 42.9041 62.6527 42.8661 62.4375 42.7844C62.2223 42.7026 62.0257 42.5788 61.859 42.42C61.6982 42.2498 61.5732 42.049 61.4915 41.8295C61.4097 41.6101 61.3728 41.3765 61.383 41.1425C61.3666 40.681 61.5312 40.2314 61.8415 39.8895C62.0001 39.7212 62.1933 39.5893 62.4078 39.5029C62.6223 39.4165 62.853 39.3777 63.084 39.389C63.4625 39.3663 63.8361 39.4834 64.134 39.718L63.945 40.033C63.7001 39.8564 63.4032 39.7665 63.1015 39.7775C62.9313 39.7719 62.7619 39.803 62.6048 39.8689C62.4478 39.9347 62.3068 40.0337 62.1915 40.159C61.9579 40.4342 61.8297 40.7833 61.8297 41.1443C61.8297 41.5052 61.9579 41.8544 62.1915 42.1295C62.3174 42.2553 62.4678 42.3537 62.6334 42.4187C62.799 42.4838 62.9762 42.514 63.154 42.5075C63.4702 42.5119 63.7778 42.404 64.022 42.203Z" fill="#03487B"/>
<path d="M64.4561 39.438H64.8726V40.705C65.0966 40.705 65.2506 40.6805 65.3241 40.6805C65.6603 40.6572 65.9939 40.754 66.2656 40.9535C66.3733 41.051 66.4578 41.1714 66.5129 41.3059C66.5681 41.4403 66.5924 41.5854 66.5841 41.7305C66.5935 41.8869 66.5668 42.0433 66.5061 42.1878C66.4454 42.3322 66.3523 42.4608 66.2341 42.5635C65.9462 42.7753 65.5932 42.8793 65.2366 42.8575H64.8096H64.4596L64.4561 39.438ZM65.2961 41.069C65.1806 41.069 65.0406 41.069 64.8726 41.097V42.4515H65.2786C65.8596 42.4515 66.1466 42.21 66.1466 41.727C66.1518 41.6324 66.1349 41.538 66.0972 41.4511C66.0596 41.3642 66.0021 41.2873 65.9296 41.2265C65.7416 41.1054 65.5188 41.05 65.2961 41.069ZM67.5501 42.847H67.1371V39.438H67.5501V42.847Z" fill="#03487B"/>
<path d="M8.97045 32.55H10.6155V33.929H8.80595L8.55395 35.952H7.12595L7.37795 33.929H5.51945L5.26745 35.952H3.84995L4.10195 33.929H2.44995V32.55H4.26995L4.54995 30.5025H2.88045V29.127H4.70045L4.95245 27.104H6.35245L6.10045 29.127H7.95895L8.21095 27.104H9.62845L9.37295 29.127H11.018V30.5025H9.19795L8.97045 32.55ZM7.54245 32.55L7.80845 30.5025H5.94995L5.68395 32.55H7.54245Z" fill="#DB1954"/>
</svg>
