<svg width="70" height="70" viewBox="0 0 70 70" fill="none" xmlns="http://www.w3.org/2000/svg">
<path d="M70 0H0V70H70V0Z" fill="#3D6294"/>
<path d="M36.5505 45.85C36.5715 46.2 36.6135 46.55 36.6135 46.8615C36.6135 49.273 36.638 51.681 36.6135 54.0925C36.6135 54.7715 36.841 55.006 37.5095 55.0025C38.542 55.0025 38.542 55.0305 38.542 56.077C38.542 57.218 38.521 58.359 38.542 59.4965C38.542 60.039 38.339 60.2385 37.807 60.2175C37.135 60.186 36.4595 60.193 35.784 60.2175C35.3325 60.2175 35.126 60.067 35.1085 59.598C35.1085 59.066 35.21 58.289 34.9195 58.0615C34.5695 57.778 33.8415 57.9215 33.278 57.918C31.6435 57.918 30.009 57.953 28.378 57.8935C27.6045 57.8655 27.3665 58.142 27.433 58.87C27.4437 59.2941 27.4274 59.7185 27.384 60.1405C26.334 60.1405 25.333 60.1405 24.3355 60.1195C24.22 60.1195 24.0485 59.8115 24.024 59.6295C23.9993 59.2332 23.9993 58.8358 24.024 58.4395C23.093 58.3625 22.1375 58.3625 21.224 58.198C17.374 57.5225 15.848 54.901 16.1805 51.2505C16.5725 46.6165 20.3875 45.2585 23.8 45.57C26.117 45.7835 26.11 45.8395 26.117 48.195V49.2695C25.2525 49.0385 24.5175 48.804 23.765 48.65C21.952 48.2825 20.3455 49.5985 20.0725 51.639C20.0086 52.0554 20.0317 52.4805 20.1405 52.8875C20.2493 53.2945 20.4413 53.6745 20.7045 54.0034C20.9677 54.3324 21.2962 54.6032 21.6694 54.7986C22.0426 54.9941 22.4522 55.11 22.8725 55.139C24.78 55.293 25.536 54.8485 26.3095 53.0915C27.1254 51.2423 27.6156 49.2661 27.7585 47.25C27.79 46.788 27.8635 46.3295 27.9195 45.829L36.5505 45.85ZM29.645 54.908H32.6585V48.6885C32.06 48.8145 31.3355 48.51 31.115 49.2975C30.597 51.1525 30.135 53.025 29.645 54.908Z" fill="white"/>
<path d="M39.13 57.8935V45.85H49.861V57.8795C48.6325 57.8795 47.411 57.9005 46.1685 57.848C46.0355 57.848 45.8185 57.4105 45.8185 57.1725C45.7905 54.684 45.8185 52.199 45.8185 49.7105V48.727C45.0485 48.727 44.331 48.6885 43.624 48.7585C43.4735 48.776 43.274 49.196 43.274 49.4305C43.246 51.814 43.274 54.1975 43.2495 56.581C43.2495 58.079 43.372 57.8725 41.9825 57.8865C41.0375 57.9005 40.131 57.8935 39.13 57.8935Z" fill="white"/>
<path d="M56.168 50.6625C57.0815 49.2625 58.009 47.8625 58.898 46.431C59 46.2251 59.1619 46.0547 59.3623 45.9423C59.5628 45.8299 59.7926 45.7807 60.0215 45.801C61.3585 45.836 62.699 45.801 64.141 45.801C64.0045 46.0355 63.924 46.214 63.812 46.3645C62.692 47.824 61.6 49.308 60.424 50.7185C59.899 51.345 59.85 51.7685 60.3785 52.4265C61.5545 53.9035 62.6325 55.461 63.7455 56.9765C63.91 57.204 64.0605 57.4385 64.2845 57.7675C64.0722 57.8134 63.857 57.845 63.6405 57.862C62.5275 57.862 61.4075 57.82 60.298 57.8865C60.0075 57.9185 59.7142 57.8587 59.4594 57.7156C59.2046 57.5725 59.0009 57.3532 58.877 57.0885C57.9949 55.6308 57.0248 54.2282 55.972 52.8885V56.3885C55.972 56.672 55.972 56.959 55.972 57.2425C55.993 57.6555 55.86 57.8655 55.405 57.855C54.3165 57.834 53.2315 57.855 52.073 57.855V45.794C53.242 45.794 54.425 45.773 55.601 45.822C55.7305 45.822 55.951 46.2175 55.951 46.4345C55.986 47.5755 55.951 48.7165 55.951 49.8575V50.61L56.168 50.6625Z" fill="white"/>
</svg>
