<svg width="140" height="140" fill="none" xmlns="http://www.w3.org/2000/svg"><path d="M140 0H0v140h140V0z" fill="#3D6294"/><path d="M73.101 91.7c.042.7.126 1.4.126 2.023 0 4.823.049 9.639 0 14.462 0 1.358.455 1.827 1.792 1.82 2.065 0 2.065.056 2.065 2.149 0 2.282-.042 4.564 0 6.839 0 1.085-.406 1.484-1.47 1.442a48.742 48.742 0 00-4.046 0c-.903 0-1.316-.301-1.351-1.239 0-1.064.203-2.618-.378-3.073-.7-.567-2.156-.28-3.283-.287-3.269 0-6.538.07-9.8-.049-1.547-.056-2.023.497-1.89 1.953.022.848-.011 1.697-.098 2.541-2.1 0-4.102 0-6.097-.042-.231 0-.574-.616-.623-.98a19.13 19.13 0 010-2.38c-1.862-.154-3.773-.154-5.6-.483-7.7-1.351-10.752-6.594-10.087-13.895.784-9.268 8.414-11.984 15.239-11.361 4.634.427 4.62.539 4.634 5.25v2.149c-1.729-.462-3.199-.931-4.704-1.239-3.626-.735-6.839 1.897-7.385 5.978a6.09 6.09 0 005.6 7c3.815.308 5.327-.581 6.874-4.095A35.087 35.087 0 0055.517 94.5c.063-.924.21-1.841.322-2.842l17.262.042zM59.29 109.816h6.027V97.377c-1.197.252-2.646-.357-3.087 1.218-1.036 3.71-1.96 7.455-2.94 11.221zm18.97 5.971V91.7h21.462v24.059c-2.457 0-4.9.042-7.385-.063-.266 0-.7-.875-.7-1.351-.056-4.977 0-9.947 0-14.924v-1.967c-1.54 0-2.975-.077-4.39.063-.3.035-.7.875-.7 1.344-.055 4.767 0 9.534-.048 14.301 0 2.996.245 2.583-2.534 2.611-1.89.028-3.703.014-5.705.014zm34.076-14.462c1.827-2.8 3.682-5.6 5.46-8.463a2.282 2.282 0 012.247-1.26c2.674.07 5.355 0 8.239 0-.273.47-.434.826-.658 1.127-2.24 2.92-4.424 5.887-6.776 8.708-1.05 1.253-1.148 2.1-.091 3.416 2.352 2.954 4.508 6.069 6.734 9.1.329.455.63.924 1.078 1.582a9.66 9.66 0 01-1.288.189c-2.226 0-4.466-.084-6.685.049a2.8 2.8 0 01-2.842-1.596 83.76 83.76 0 00-5.81-8.4v8.708c.042.826-.224 1.246-1.134 1.225-2.177-.042-4.347 0-6.664 0V91.588c2.338 0 4.704-.042 7.056.056.259 0 .7.791.7 1.225.07 2.282 0 4.564 0 6.846v1.505l.434.105z" fill="#fff"/></svg>