<svg width="20" height="15" viewBox="0 0 20 15" fill="none" xmlns="http://www.w3.org/2000/svg">
<path d="M14.2012 10.2807L12.9063 11.9444C12.6629 12.2653 12.2608 12.7855 12.0136 13.1064L10.7409 14.7628C10.6916 14.8358 10.6251 14.8957 10.5473 14.937C10.4694 14.9784 10.3826 15 10.2945 15C10.2064 15 10.1196 14.9784 10.0418 14.937C9.96395 14.8957 9.89746 14.8358 9.84814 14.7628L8.56437 13.0991L7.66794 11.9481L6.38417 10.2807C6.14069 9.9634 6.26612 9.70148 6.66822 9.70148H8.80784V4.92422C8.80784 4.77942 8.86537 4.64055 8.96776 4.53816C9.07014 4.43577 9.20901 4.37825 9.35382 4.37825H11.2352C11.3084 4.37578 11.3814 4.38807 11.4498 4.41439C11.5182 4.44072 11.5806 4.48055 11.6332 4.53149C11.6859 4.58244 11.7278 4.64347 11.7564 4.71094C11.785 4.77841 11.7997 4.85095 11.7996 4.92422V9.71993H13.9356C14.3192 9.70148 14.4483 9.96709 14.2012 10.2807ZM17.702 5.67309C17.895 4.55072 17.687 3.39623 17.1143 2.41182C16.5417 1.42742 15.641 0.675863 14.5699 0.288791C13.4989 -0.0982809 12.3258 -0.0961926 11.2561 0.294691C10.1865 0.685574 9.28844 1.44033 8.71931 2.42677C8.25589 2.11649 7.71685 1.93801 7.15983 1.91041C6.60282 1.88282 6.04878 2.00715 5.55696 2.27011C5.06515 2.53307 4.65406 2.92476 4.36766 3.4033C4.08125 3.88185 3.93031 4.42924 3.93098 4.98694C3.00151 5.02754 2.12625 5.43571 1.49772 6.12165C0.869203 6.80759 0.538915 7.71512 0.579518 8.64458C0.620121 9.57405 1.02829 10.4493 1.71423 11.0778C2.40017 11.7064 3.3077 12.0366 4.23717 11.996H6.31039L5.52832 10.9594C5.33951 10.7488 5.2179 10.4866 5.17909 10.2063C5.14027 9.92613 5.18602 9.64072 5.31046 9.38668C5.43491 9.13264 5.63238 8.92155 5.87757 8.78046C6.12276 8.63937 6.40449 8.57472 6.68667 8.59478H7.71959V4.90578C7.72056 4.46776 7.89499 4.04796 8.20472 3.73824C8.51445 3.42851 8.93424 3.25408 9.37226 3.2531H11.2537C11.4721 3.25358 11.6883 3.29727 11.8898 3.38165C12.0913 3.46603 12.2741 3.58943 12.4277 3.74476C12.5813 3.90008 12.7027 4.08426 12.7849 4.28668C12.867 4.48911 12.9083 4.70578 12.9063 4.92422V8.61323H13.9356C14.218 8.59235 14.5003 8.65641 14.7461 8.79719C14.9919 8.93796 15.19 9.14902 15.3149 9.40323C15.4398 9.65745 15.4859 9.94321 15.4472 10.2238C15.4085 10.5044 15.2867 10.767 15.0976 10.9779L14.2786 11.996H15.6104C16.3488 11.9979 17.0689 11.7665 17.668 11.3348C18.267 10.9031 18.7145 10.2932 18.9464 9.59217C19.1783 8.89112 19.1828 8.13474 18.9594 7.43096C18.7359 6.72718 18.2959 6.11196 17.702 5.67309Z" fill="#3DB0F0"/>
</svg>
