<svg width="140" height="140" viewBox="0 0 140 140" fill="none" xmlns="http://www.w3.org/2000/svg">
<path d="M140 0H0V140H140V0Z" fill="#3D6294"/>
<path d="M73.101 91.7C73.143 92.4 73.227 93.1 73.227 93.723C73.227 98.546 73.276 103.362 73.227 108.185C73.227 109.543 73.682 110.012 75.019 110.005C77.084 110.005 77.084 110.061 77.084 112.154C77.084 114.436 77.042 116.718 77.084 118.993C77.084 120.078 76.678 120.477 75.614 120.435C74.27 120.372 72.919 120.386 71.568 120.435C70.665 120.435 70.252 120.134 70.217 119.196C70.217 118.132 70.42 116.578 69.839 116.123C69.139 115.556 67.683 115.843 66.556 115.836C63.287 115.836 60.018 115.906 56.756 115.787C55.209 115.731 54.733 116.284 54.866 117.74C54.8875 118.588 54.8547 119.437 54.768 120.281C52.668 120.281 50.666 120.281 48.671 120.239C48.44 120.239 48.097 119.623 48.048 119.259C47.9986 118.466 47.9986 117.672 48.048 116.879C46.186 116.725 44.275 116.725 42.448 116.396C34.748 115.045 31.696 109.802 32.361 102.501C33.145 93.233 40.775 90.517 47.6 91.14C52.234 91.567 52.22 91.679 52.234 96.39V98.539C50.505 98.077 49.035 97.608 47.53 97.3C43.904 96.565 40.691 99.197 40.145 103.278C40.0171 104.111 40.0634 104.961 40.281 105.775C40.4985 106.589 40.8826 107.349 41.409 108.007C41.9353 108.665 42.5924 109.206 43.3388 109.597C44.0851 109.988 44.9045 110.22 45.745 110.278C49.56 110.586 51.072 109.697 52.619 106.183C54.2507 102.485 55.2312 98.5322 55.517 94.5C55.58 93.576 55.727 92.659 55.839 91.658L73.101 91.7ZM59.29 109.816H65.317V97.377C64.12 97.629 62.671 97.02 62.23 98.595C61.194 102.305 60.27 106.05 59.29 109.816Z" fill="white"/>
<path d="M78.2598 115.787V91.7H99.7218V115.759C97.2648 115.759 94.8218 115.801 92.3368 115.696C92.0708 115.696 91.6368 114.821 91.6368 114.345C91.5808 109.368 91.6368 104.398 91.6368 99.421V97.454C90.0968 97.454 88.6618 97.377 87.2478 97.517C86.9468 97.552 86.5478 98.3919 86.5478 98.8609C86.4918 103.628 86.5478 108.395 86.4988 113.162C86.4988 116.158 86.7438 115.745 83.9648 115.773C82.0748 115.801 80.2618 115.787 78.2598 115.787Z" fill="white"/>
<path d="M112.336 101.325C114.163 98.525 116.018 95.7251 117.796 92.8621C118 92.4502 118.324 92.1095 118.725 91.8847C119.126 91.6598 119.585 91.5613 120.043 91.6021C122.717 91.6721 125.398 91.6021 128.282 91.6021C128.009 92.0711 127.848 92.4281 127.624 92.7291C125.384 95.6481 123.2 98.6161 120.848 101.437C119.798 102.69 119.7 103.537 120.757 104.853C123.109 107.807 125.265 110.922 127.491 113.953C127.82 114.408 128.121 114.877 128.569 115.535C128.144 115.627 127.714 115.69 127.281 115.724C125.055 115.724 122.815 115.64 120.596 115.773C120.015 115.837 119.428 115.717 118.919 115.431C118.409 115.145 118.002 114.706 117.754 114.177C115.99 111.262 114.05 108.456 111.944 105.777V112.777C111.944 113.344 111.944 113.918 111.944 114.485C111.986 115.311 111.72 115.731 110.81 115.71C108.633 115.668 106.463 115.71 104.146 115.71V91.588C106.484 91.588 108.85 91.546 111.202 91.644C111.461 91.644 111.902 92.435 111.902 92.869C111.972 95.151 111.902 97.433 111.902 99.715V101.22L112.336 101.325Z" fill="white"/>
</svg>
