<svg width="324" height="131" viewBox="0 0 324 131" fill="none" xmlns="http://www.w3.org/2000/svg">
<path d="M26.11 100.756C26.9914 98.7457 28.3675 96.9912 30.11 95.6562C30.4029 95.3725 30.7408 95.1393 31.11 94.9662L31.64 89.2662C27.2847 84.5219 24.331 78.6625 23.1073 72.3397C21.8836 66.0168 22.4379 59.4784 24.7086 53.4519C26.9794 47.4253 30.8774 42.1468 35.9692 38.2035C41.0611 34.2602 47.147 31.8068 53.55 31.1162L60 22.2162C59.86 21.6062 59.7 21.0462 59.55 20.5362C58.9306 18.7128 58.0946 16.9703 57.06 15.3462C56.94 15.1462 56.81 14.8762 56.69 14.6762C55.9409 12.429 55.9691 9.99534 56.77 7.76617C55.7194 8.73564 54.8993 9.92818 54.37 11.2562C53.8403 12.5825 53.618 14.0116 53.72 15.4362C53.7708 16.2555 53.9601 17.0602 54.28 17.8162C55.0219 19.8905 55.2684 22.1096 55 24.2962C55.0283 24.9833 54.8317 25.6609 54.44 26.2262C54.0513 24.3148 53.423 22.4602 52.57 20.7062C51.6894 19.011 50.601 17.4322 49.33 16.0062C49.16 15.7862 49 15.5662 48.85 15.3362C47.7564 13.2589 47.4036 10.8709 47.85 8.56616C46.9473 9.69129 46.3144 11.0083 46 12.4162C45.6799 13.8181 45.6799 15.2742 46 16.6762C46.1919 17.4919 46.4982 18.2763 46.91 19.0062C47.973 20.9366 48.5593 23.0932 48.62 25.2962C48.7418 25.9554 48.658 26.6361 48.38 27.2462C47.705 25.4153 46.7759 23.6884 45.62 22.1162C44.5161 20.5661 43.1961 19.1821 41.7 18.0062C41.4845 17.8289 41.2899 17.6276 41.12 17.4062C39.7394 15.5156 39.035 13.2156 39.12 10.8762C38.4202 12.1186 38.01 13.503 37.92 14.9262C37.8299 16.3547 38.0694 17.7849 38.62 19.1062C38.9328 19.867 39.3501 20.5806 39.86 21.2262C41.2427 22.9301 42.1715 24.9564 42.56 27.1162C42.7826 27.7617 42.8 28.4603 42.61 29.1162C41.6797 27.4008 40.5077 25.8281 39.13 24.4462C37.7494 23.0953 36.1918 21.9381 34.5 21.0062C34.2792 20.8572 34.0687 20.6935 33.87 20.5162C32.187 18.8802 31.1262 16.7092 30.87 14.3762C30.3715 15.7097 30.1801 17.1385 30.31 18.5562C30.4414 19.9694 30.8854 21.3357 31.61 22.5562C32.043 23.2678 32.575 23.9143 33.19 24.4762C34.801 25.9813 36.0285 27.85 36.77 29.9262C37.1007 30.5372 37.2269 31.2382 37.13 31.9262C35.9402 30.3745 34.5284 29.0065 32.94 27.8662C31.395 26.7571 29.7148 25.8498 27.94 25.1662C27.6774 25.0776 27.4284 24.9531 27.2 24.7962C25.2833 23.4283 23.8761 21.4617 23.2 19.2062C22.922 20.6081 22.9618 22.0545 23.3166 23.4389C23.6714 24.8234 24.332 26.1107 25.25 27.2062C25.8198 27.8049 26.4574 28.3352 27.15 28.7862C28.9794 30.0354 30.4899 31.6966 31.56 33.6362C31.9216 34.19 32.1508 34.8195 32.23 35.4762C30.7906 34.1702 29.1871 33.0575 27.46 32.1662C25.7244 31.2884 23.8919 30.6171 22 30.1662C21.7459 30.1255 21.4975 30.055 21.26 29.9562C19.1423 28.8919 17.4419 27.1493 16.43 25.0062C16.3656 26.4323 16.6255 27.8545 17.1902 29.1657C17.7549 30.477 18.6096 31.643 19.69 32.5762C20.3208 33.0996 21.0207 33.5337 21.77 33.8662C23.7726 34.7607 25.5241 36.1344 26.87 37.8662C27.3337 38.3592 27.6581 38.9666 27.81 39.6262C26.2002 38.5646 24.4589 37.7174 22.63 37.1062C20.7999 36.5497 18.9098 36.2139 17 36.1062C16.7184 36.0828 16.4401 36.0292 16.17 35.9462C13.9393 35.2517 12.0107 33.8202 10.7 31.8862C10.8587 33.3019 11.3305 34.6645 12.0812 35.8752C12.8318 37.086 13.8425 38.1145 15.04 38.8862C15.7478 39.3277 16.5158 39.6645 17.32 39.8862C19.4528 40.4624 21.4061 41.5664 23 43.0962C23.5468 43.4866 23.9619 44.0342 24.19 44.6662C22.4178 43.8612 20.5437 43.3026 18.62 43.0062C16.7608 42.716 14.872 42.6656 13 42.8562C12.7304 42.8761 12.4596 42.8761 12.19 42.8562C9.81749 42.5343 7.62995 41.3999 6 39.6462C6.39236 41.0195 7.08226 42.2896 8.0207 43.3663C8.95915 44.443 10.1231 45.2999 11.43 45.8762C12.2036 46.1751 13.0144 46.3669 13.84 46.4462C16.0502 46.699 18.1649 47.4886 20 48.7462C20.6087 49.0735 21.1194 49.5566 21.48 50.1462C19.6004 49.6084 17.655 49.3358 15.7 49.3362C13.7886 49.3265 11.8847 49.5755 10.04 50.0762C9.7774 50.138 9.50954 50.1748 9.24 50.1862C6.8867 50.2312 4.59024 49.461 2.74 48.0062C3.31661 49.3152 4.18958 50.4723 5.29 51.3862C6.38656 52.3069 7.67973 52.9637 9.07 53.3062C9.87132 53.4777 10.6914 53.5449 11.51 53.5062C13.6899 53.4063 15.8608 53.846 17.83 54.7862C18.486 54.9997 19.0614 55.4078 19.48 55.9562C17.5451 55.7378 15.5909 55.7545 13.66 56.0062C11.79 56.3347 9.96666 56.8887 8.23 57.6562C7.97627 57.7747 7.71171 57.8684 7.44 57.9362C5.11158 58.2957 2.72973 57.87 0.67 56.7262C1.4495 57.9169 2.48893 58.9153 3.71008 59.6463C4.93122 60.3772 6.30226 60.8217 7.72 60.9462C8.54873 61.0149 9.38312 60.9473 10.19 60.7462C12.3667 60.3166 14.6155 60.4264 16.74 61.0662C17.4 61.1749 18.0165 61.4658 18.52 61.9062C16.5681 62.031 14.6397 62.4005 12.78 63.0062C10.9583 63.6296 9.21628 64.4653 7.59 65.4962C7.35757 65.6331 7.10899 65.7406 6.85 65.8162C4.63326 66.5961 2.21674 66.5961 0 65.8162C0.979219 66.8494 2.17428 67.654 3.50004 68.1726C4.82579 68.6911 6.2496 68.9109 7.67 68.8162C8.48458 68.7354 9.28487 68.5471 10.05 68.2562C12.1123 67.4784 14.3353 67.2241 16.52 67.5162C17.2015 67.5292 17.8674 67.7224 18.45 68.0762C16.5411 68.5021 14.6885 69.1499 12.93 70.0062C11.2468 70.8943 9.68132 71.9894 8.27 73.2662C8.05821 73.4267 7.8342 73.5705 7.6 73.6962C5.52766 74.8047 3.13434 75.1583 0.83 74.6962C1.93989 75.5832 3.23605 76.2077 4.62145 76.5229C6.00685 76.838 7.44561 76.8358 8.83 76.5162C9.63694 76.267 10.4147 75.9317 11.15 75.5162C13.0573 74.3996 15.2202 73.7934 17.43 73.7562C18.1097 73.6699 18.8001 73.7665 19.43 74.0362C17.6028 74.6978 15.8764 75.6098 14.3 76.7462C12.7674 77.8789 11.3891 79.2068 10.2 80.6962L9.59 81.2362C7.71112 82.6951 5.37682 83.4424 3 83.3462C4.24635 84.0427 5.63098 84.4558 7.05525 84.5561C8.47951 84.6563 9.90836 84.4412 11.24 83.9262C11.9868 83.5797 12.6999 83.1645 13.37 82.6862C15.0843 81.284 17.1234 80.3349 19.3 79.9262C19.9559 79.7568 20.6441 79.7568 21.3 79.9262C19.6225 80.9163 18.0655 82.0975 16.66 83.4462C15.3331 84.8067 14.1778 86.3247 13.22 87.9662C13.0884 88.199 12.9233 88.4113 12.73 88.5962C11.0982 90.2959 8.93618 91.3893 6.6 91.6962C7.93365 92.1928 9.36167 92.3841 10.779 92.2561C12.1964 92.128 13.567 91.6838 14.79 90.9562C15.4753 90.5189 16.1064 90.002 16.67 89.4162C18.172 87.7851 20.0399 86.5341 22.12 85.7662C22.7492 85.491 23.4343 85.3677 24.12 85.4062C21.05 87.7941 18.7114 90.9954 17.37 94.6462C17.263 94.8801 17.1358 95.1043 16.99 95.3162C15.6358 97.2551 13.6545 98.6679 11.38 99.3162C12.7782 99.6024 14.2227 99.5713 15.6073 99.2252C16.9918 98.8791 18.281 98.2267 19.38 97.3162C19.9982 96.785 20.534 96.1648 20.97 95.4762C22.1658 93.6323 23.7839 92.1 25.69 91.0062C26.255 90.6268 26.9035 90.39 27.58 90.3162C26.2826 91.766 25.1707 93.3716 24.27 95.0962C23.4222 96.8049 22.7778 98.6072 22.35 100.466C22.3104 100.73 22.2223 100.984 22.09 101.216C21.0792 103.335 19.3552 105.031 17.22 106.006C18.6432 106.073 20.0633 105.819 21.3753 105.264C22.6873 104.708 23.8577 103.865 24.8 102.796C25.3135 102.162 25.753 101.47 26.11 100.736V100.756ZM82.51 1.21617L76 71.7162C75.9705 71.9094 75.8988 72.0938 75.79 72.2562L34.2 129.556C34.0563 129.75 33.8523 129.891 33.62 129.956C33.3927 130.031 33.1473 130.031 32.92 129.956C32.693 129.874 32.4996 129.72 32.37 129.516C32.2296 129.319 32.1657 129.077 32.19 128.836L38.7 58.3062C38.7103 58.107 38.78 57.9155 38.9 57.7562L80.49 0.456165C80.6358 0.264427 80.839 0.124279 81.07 0.056165C81.3007 -0.0187217 81.5493 -0.0187217 81.78 0.056165C82.0094 0.140504 82.2049 0.297568 82.3367 0.503398C82.4685 0.709227 82.5294 0.952521 82.51 1.19617V1.21617ZM70.31 70.4262L64.75 66.4262C64.78 66.0267 64.78 65.6256 64.75 65.2262C64.6453 63.717 64.0811 62.276 63.1334 61.0969C62.1856 59.9177 60.8997 59.0569 59.4483 58.6301C57.997 58.2033 56.4498 58.231 55.0146 58.7093C53.5794 59.1877 52.325 60.0939 51.42 61.3062L44.33 60.6562C44.2839 60.6458 44.2361 60.6458 44.19 60.6562C44.1493 60.6869 44.1181 60.7285 44.1 60.7762C44.0901 60.7982 44.0849 60.822 44.0849 60.8462C44.0849 60.8703 44.0901 60.8942 44.1 60.9162C44.1055 60.9415 44.1164 60.9653 44.1319 60.986C44.1474 61.0067 44.1673 61.0238 44.19 61.0362L50 65.2562C49.9722 65.5889 49.9722 65.9234 50 66.2562C50.103 67.7667 50.6669 69.2092 51.6155 70.3892C52.5641 71.5691 53.8518 72.4297 55.3049 72.8549C56.758 73.28 58.3065 73.2492 59.7415 72.7666C61.1766 72.284 62.4291 71.3729 63.33 70.1562L70.19 70.7962C70.2355 70.8107 70.2845 70.8107 70.33 70.7962C70.3645 70.7659 70.3918 70.7283 70.41 70.6862C70.4252 70.6407 70.4252 70.5916 70.41 70.5462C70.3871 70.4985 70.3527 70.4573 70.31 70.4262Z" fill="#3E3E3E"/>
<path d="M115.49 45.4762L114.49 63.6562H89.17L90.17 45.4762H96.17L95.47 58.9062H99.1L99.8 45.4762H105.8L105.09 58.9062H108.73L109.43 45.4762H115.49Z" fill="#3E3E3E"/>
<path d="M130.75 60.4862H123.84L122.45 63.6562H116.22L125.12 45.4762H131.12L138.12 63.6562H131.8L130.75 60.4862ZM129.29 56.0762L127.76 51.5062L125.76 56.0762H129.29Z" fill="#3E3E3E"/>
<path d="M140.77 45.4762H146.77L146.27 54.9362L153.03 45.4762H158.79L157.84 63.6562H151.84L152.34 54.2262L145.61 63.6562H139.82L140.77 45.4762ZM145.56 43.3262C145.125 42.8995 144.794 42.3776 144.594 41.8015C144.395 41.2254 144.332 40.6108 144.41 40.0062H148.49C148.423 40.4496 148.523 40.9021 148.77 41.2762C148.934 41.4244 149.127 41.5358 149.338 41.6031C149.548 41.6703 149.771 41.6918 149.99 41.6662C150.451 41.7055 150.909 41.5658 151.27 41.2762C151.568 40.9215 151.725 40.4693 151.71 40.0062H155.79C155.798 40.6428 155.664 41.2732 155.4 41.8524C155.135 42.4315 154.746 42.945 154.26 43.3562C152.949 44.2039 151.396 44.5974 149.84 44.4762C147.83 44.4462 146.4 44.0662 145.56 43.3262Z" fill="#3E3E3E"/>
<path d="M179.77 45.4762L178.77 63.6562H172.77L173.47 50.2362H169.32L169.15 52.3362C169 54.4908 168.665 56.6286 168.15 58.7262C167.83 60.1706 167.141 61.5074 166.15 62.6062C165.653 63.0769 165.067 63.4434 164.427 63.6839C163.786 63.9243 163.104 64.0339 162.42 64.0062C161.55 63.9953 160.684 63.8812 159.84 63.6662L160.41 58.7562C160.63 58.8074 160.854 58.8342 161.08 58.8362C161.377 58.8452 161.672 58.7783 161.936 58.6418C162.2 58.5053 162.425 58.3038 162.59 58.0562C162.997 57.4263 163.266 56.7174 163.38 55.9762C163.586 54.8514 163.733 53.7164 163.82 52.5762L164.43 45.4862L179.77 45.4762Z" fill="#3E3E3E"/>
<path d="M186.05 62.8462C184.587 62.0805 183.378 60.9063 182.57 59.4662C181.752 57.9688 181.381 56.2682 181.5 54.5662C181.576 52.8236 182.122 51.134 183.08 49.6762C184.039 48.2273 185.363 47.0577 186.92 46.2862C188.578 45.4609 190.408 45.0426 192.26 45.0662C194.068 45.0332 195.855 45.4525 197.46 46.2862C198.949 47.0416 200.181 48.2212 201 49.6762C201.788 51.1793 202.134 52.8745 202 54.5662C201.922 56.3116 201.376 58.0039 200.42 59.4662C199.458 60.9095 198.134 62.075 196.58 62.8462C194.925 63.679 193.093 64.1009 191.24 64.0762C189.434 64.1074 187.65 63.6844 186.05 62.8462ZM193.61 58.5562C194.256 58.1874 194.791 57.6521 195.16 57.0062C195.577 56.2729 195.811 55.4494 195.84 54.6062C195.898 53.7839 195.753 52.96 195.42 52.2062C195.129 51.544 194.65 50.9821 194.041 50.5909C193.433 50.1996 192.723 49.9962 192 50.0062C191.262 49.9954 190.535 50.1893 189.9 50.5662C189.256 50.9504 188.722 51.4947 188.35 52.1462C187.941 52.8821 187.711 53.7045 187.68 54.5462C187.613 55.3689 187.757 56.1952 188.1 56.9462C188.398 57.6009 188.881 58.1538 189.49 58.5362C190.091 58.9074 190.784 59.1015 191.49 59.0962C192.233 59.1135 192.966 58.9268 193.61 58.5562Z" fill="#3E3E3E"/>
<path d="M207.76 62.8462C206.295 62.0834 205.085 60.9084 204.28 59.4662C203.462 57.9688 203.091 56.2682 203.21 54.5662C203.282 52.8228 203.828 51.1321 204.79 49.6762C205.749 48.2273 207.073 47.0577 208.63 46.2862C210.297 45.4558 212.138 45.0375 214 45.0662C215.811 45.0319 217.602 45.4513 219.21 46.2862C220.68 47.0473 221.891 48.227 222.69 49.6762C223.513 51.168 223.885 52.8669 223.76 54.5662C223.691 56.3133 223.145 58.008 222.18 59.4662C221.218 60.9095 219.894 62.075 218.34 62.8462C216.685 63.6797 214.853 64.1016 213 64.0762C211.177 64.1158 209.375 63.6926 207.76 62.8462ZM215.32 58.5562C215.962 58.1817 216.496 57.6478 216.87 57.0062C217.284 56.272 217.514 55.4485 217.54 54.6062C217.607 53.7834 217.463 52.9571 217.12 52.2062C216.832 51.5416 216.354 50.9775 215.745 50.5858C215.136 50.194 214.424 49.9923 213.7 50.0062C212.965 49.9973 212.242 50.191 211.61 50.5662C210.966 50.9504 210.432 51.4947 210.06 52.1462C209.646 52.8803 209.416 53.7038 209.39 54.5462C209.323 55.3689 209.467 56.1952 209.81 56.9462C210.107 57.5983 210.586 58.1505 211.19 58.5362C211.792 58.9054 212.484 59.0994 213.19 59.0962C213.936 59.1154 214.673 58.9285 215.32 58.5562Z" fill="#3E3E3E"/>
<path d="M242.66 45.4762L241.71 63.6562H235.71L236.02 57.8362C234.943 58.18 233.821 58.3653 232.69 58.3862C230.02 58.3862 228.03 57.7562 226.69 56.4862C225.996 55.7577 225.473 54.8827 225.162 53.9256C224.85 52.9686 224.757 51.9539 224.89 50.9562L225.18 45.4762H231.18L230.93 50.2862C230.805 51.1497 231.02 52.028 231.53 52.7362C231.81 53.0182 232.149 53.2351 232.522 53.3717C232.895 53.5082 233.294 53.5609 233.69 53.5262C234.555 53.5561 235.418 53.4169 236.23 53.1162L236.63 45.4762H242.66Z" fill="#3E3E3E"/>
<path d="M264.05 45.4762L256.05 59.1662C255.227 60.6485 254.069 61.9187 252.67 62.8762C251.427 63.7071 249.965 64.1492 248.47 64.1462C247.267 64.138 246.078 63.8933 244.97 63.4262L246.62 59.0062C247.224 59.1913 247.849 59.2955 248.48 59.3162C248.879 59.3282 249.276 59.2496 249.64 59.0862C250.022 58.8955 250.362 58.6303 250.64 58.3062L244.35 45.4762H250.81L254 53.1362L258.14 45.4762H264.05Z" fill="#3E3E3E"/>
<path d="M283.24 45.4762L282.29 63.6562H276.16L276.51 56.9562H270.85L270.5 63.6562H264.37L265.32 45.4762H271.45L271.11 51.9162H276.77L277.11 45.4762H283.24Z" fill="#3E3E3E"/>
<path d="M304.63 45.4762L296.63 59.1662C295.81 60.6478 294.656 61.9181 293.26 62.8762C291.999 63.7168 290.515 64.1593 289 64.1462C287.797 64.138 286.608 63.8933 285.5 63.4262L287.2 59.0062C287.804 59.1905 288.429 59.2947 289.06 59.3162C289.462 59.329 289.862 59.2504 290.23 59.0862C290.611 58.8933 290.95 58.6284 291.23 58.3062L284.9 45.4762H291.37L294.57 53.1362L298.71 45.4762H304.63Z" fill="#3E3E3E"/>
<path d="M323.82 45.4762L322.87 63.6562H316.74L317.09 56.9562H311.43L311.08 63.6562H305L306 45.4762H312L311.67 51.9162H317.33L317.66 45.4762H323.82Z" fill="#3E3E3E"/>
<path d="M101 80.2762L105.89 89.6162H99L95.83 83.0062H94.12L93.78 89.5762H87.65L88.6 71.4062H94.73L94.38 78.1862H96.24L100.47 71.4062H106.85L101 80.2762Z" fill="#3E3E3E"/>
<path d="M111 88.8162C109.535 88.0493 108.325 86.871 107.52 85.4262C106.702 83.9323 106.331 82.235 106.45 80.5362C106.528 78.7908 107.074 77.0984 108.03 75.6362C108.994 74.1919 110.317 73.0236 111.87 72.2462C113.535 71.4093 115.377 70.9841 117.24 71.0062C119.048 70.9732 120.835 71.3925 122.44 72.2262C123.906 72.9953 125.119 74.1727 125.93 75.6162C126.744 77.1151 127.115 78.8144 127 80.5162C126.923 82.2602 126.373 83.9504 125.41 85.4062C124.458 86.8569 123.136 88.0271 121.58 88.7962C119.921 89.618 118.091 90.0328 116.24 90.0062C114.421 90.0534 112.62 89.6443 111 88.8162ZM118.56 84.5162C119.206 84.1345 119.741 83.5896 120.11 82.9362C120.524 82.2017 120.758 81.3789 120.79 80.5362C120.847 79.7107 120.703 78.8838 120.37 78.1262C120.075 77.4787 119.599 76.9301 119 76.5462C118.399 76.1749 117.706 75.9808 117 75.9862C116.262 75.9805 115.537 76.174 114.9 76.5462C114.256 76.9304 113.722 77.4747 113.35 78.1262C112.938 78.8645 112.708 79.6909 112.68 80.5362C112.614 81.3588 112.759 82.1847 113.1 82.9362C113.401 83.5863 113.883 84.1351 114.49 84.5162C115.091 84.8874 115.784 85.0815 116.49 85.0762C117.228 85.0838 117.954 84.8902 118.59 84.5162H118.56Z" fill="#3E3E3E"/>
<path d="M145 89.6162L145.38 81.3362L141 88.0062H138.3L134.69 81.6462L134.27 89.6462H128.68L129.68 71.4762H134.68L140.1 81.1562L146.37 71.4762H151.37L150.47 89.6462L145 89.6162Z" fill="#3E3E3E"/>
<path d="M172.26 71.4462L171.31 89.6162H165.31L166 76.1962H160.47L159.76 89.6162H153.76L154.76 71.4462H172.26Z" fill="#3E3E3E"/>
<path d="M187.52 86.4562H180.61L179.23 89.6162H173L181.9 71.4462H187.9L194.9 89.6162H188.56L187.52 86.4562ZM186.06 82.0062L184.54 77.4362L182.54 82.0062H186.06Z" fill="#3E3E3E"/>
<path d="M200.33 88.8262C198.874 88.0661 197.674 86.894 196.88 85.4562C196.087 83.9442 195.74 82.2378 195.88 80.5362C195.945 78.7837 196.488 77.0824 197.45 75.6162C198.393 74.1745 199.7 73.0083 201.24 72.2362C202.856 71.4231 204.641 71.0017 206.45 71.0062C208.06 70.9732 209.658 71.294 211.13 71.9462C212.444 72.5379 213.577 73.47 214.41 74.6462L210.41 78.0962C209.983 77.4505 209.402 76.9213 208.719 76.5564C208.037 76.1915 207.274 76.0024 206.5 76.0062C205.918 75.9848 205.338 76.0839 204.796 76.2973C204.254 76.5107 203.761 76.8337 203.35 77.2462C202.498 78.1312 202.015 79.3077 202 80.5362C201.933 81.1269 201.987 81.7251 202.159 82.2943C202.331 82.8634 202.617 83.3915 203 83.8462C203.381 84.2565 203.847 84.579 204.365 84.7914C204.883 85.0038 205.441 85.101 206 85.0762C206.797 85.0529 207.578 84.8491 208.285 84.4801C208.992 84.1112 209.605 83.5867 210.08 82.9462L213.77 86.3962C212.816 87.5716 211.591 88.4981 210.2 89.0962C208.691 89.7429 207.062 90.0632 205.42 90.0362C203.649 90.0666 201.898 89.6505 200.33 88.8262Z" fill="#3E3E3E"/>
<path d="M231.09 78.5462C231.694 79.1118 232.154 79.8133 232.432 80.5925C232.711 81.3717 232.799 82.206 232.69 83.0262C232.691 83.9654 232.48 84.8929 232.073 85.7394C231.666 86.586 231.074 87.3301 230.34 87.9162C228.633 89.1257 226.569 89.7246 224.48 89.6162H215.48L216.43 71.4462H222.43L222.16 77.0062H225.92C227.772 76.8829 229.607 77.4295 231.09 78.5462ZM225.85 84.7562C226.067 84.5435 226.24 84.29 226.358 84.0102C226.477 83.7304 226.538 83.43 226.54 83.1262C226.6 81.9162 225.92 81.3162 224.54 81.3162H221.97L221.76 85.3162H224.33C224.89 85.3306 225.434 85.1302 225.85 84.7562ZM235 71.4462H241L240 89.6162H234L235 71.4462Z" fill="#3E3E3E"/>
</svg>
