<svg width="183" height="80" viewBox="0 0 183 80" fill="none" xmlns="http://www.w3.org/2000/svg">
<path d="M16.067 61.9992C16.6163 60.76 17.4713 59.6807 18.5519 58.8624C18.7352 58.6863 18.9462 58.5415 19.1765 58.4338L19.5002 54.9323C16.8218 52.0138 15.0047 48.41 14.2508 44.5211C13.497 40.6323 13.8358 36.6105 15.2297 32.9026C16.6236 29.1947 19.018 25.9457 22.147 23.5165C25.276 21.0873 29.0171 19.5729 32.9548 19.1416L36.9214 13.6704C36.8348 13.292 36.739 12.9501 36.6433 12.6309C36.2622 11.5104 35.7495 10.4391 35.1159 9.43938C35.0384 9.31628 34.9609 9.15215 34.8834 9.02905C34.4233 7.64548 34.441 6.14753 34.9335 4.7752C34.2869 5.37063 33.7828 6.10401 33.4584 6.92092C33.134 7.73784 32.9977 8.61732 33.0596 9.4941C33.0921 9.99894 33.2077 10.495 33.4016 10.9622C33.8647 12.2362 34.0209 13.6014 33.8575 14.947C33.8758 15.3696 33.7539 15.7863 33.511 16.1325C33.2724 14.9564 32.8864 13.8152 32.3621 12.7358C31.8148 11.699 31.1409 10.7342 30.356 9.8634C30.2501 9.7319 30.1511 9.59493 30.0596 9.45306C29.3919 8.17258 29.1781 6.70352 29.4532 5.28584C28.8939 5.97192 28.4989 6.77675 28.2981 7.63884C28.0974 8.50094 28.0964 9.39751 28.2951 10.2601C28.4194 10.7565 28.6112 11.2336 28.8651 11.678C29.5202 12.8657 29.8813 14.193 29.9183 15.5489C29.9946 15.9555 29.9437 16.3759 29.7724 16.7525C29.3564 15.6257 28.7856 14.5623 28.0763 13.5929C27.3963 12.6367 26.5843 11.7817 25.6644 11.0534C25.5298 10.9454 25.4088 10.8214 25.3042 10.6841C24.4449 9.52307 24.0016 8.1065 24.0459 6.66276C23.611 7.42742 23.357 8.28148 23.3033 9.1595C23.2495 10.0375 23.3975 10.9162 23.7358 11.7282C23.9292 12.1954 24.1854 12.6341 24.4972 13.0321C25.3463 14.0822 25.9185 15.3284 26.1614 16.6568C26.3043 17.0626 26.3139 17.5035 26.1887 17.9152C25.6169 16.8591 24.8968 15.8903 24.0504 15.0382C23.2111 14.2001 22.2634 13.4779 21.2328 12.8908C21.0966 12.7998 20.9671 12.6992 20.8452 12.5899C19.7993 11.5887 19.1364 10.2532 18.9713 8.81476C18.6667 9.63612 18.5495 10.5152 18.6284 11.3877C18.7073 12.2602 18.9802 13.104 19.4273 13.8574C19.6941 14.2945 20.021 14.692 20.3984 15.0382C21.3888 15.9667 22.145 17.1167 22.6051 18.3939C22.8016 18.7625 22.8781 19.1833 22.824 19.5975C22.0903 18.6461 21.2226 17.8061 20.2479 17.1036C19.2965 16.4212 18.2624 15.862 17.1704 15.4395C17.0083 15.3856 16.8548 15.3088 16.7145 15.2115C15.5393 14.3692 14.6779 13.1597 14.2661 11.7738C14.096 12.6353 14.1212 13.524 14.3398 14.3746C14.5583 15.2251 14.9647 16.0159 15.529 16.6887C15.8788 17.0583 16.2705 17.3857 16.6962 17.6644C17.8224 18.4312 18.7518 19.4528 19.409 20.6462C19.6306 20.9871 19.7724 21.3736 19.8239 21.7769C18.9346 20.975 17.9463 20.2901 16.8832 19.7389C15.8197 19.2196 14.6998 18.8249 13.5457 18.5626C13.3897 18.5341 13.2369 18.4898 13.0898 18.4304C11.7877 17.7777 10.7389 16.7113 10.108 15.3984C10.0722 16.2751 10.2339 17.1486 10.5811 17.9543C10.9284 18.7601 11.4523 19.4775 12.1141 20.0535C12.5037 20.3777 12.9364 20.6462 13.3998 20.8514C14.6341 21.4109 15.7114 22.2659 16.5367 23.3408C16.8209 23.6458 17.0205 24.0199 17.1157 24.4259C16.1239 23.7712 15.051 23.2485 13.9242 22.8711C12.7985 22.5218 11.6353 22.3075 10.4591 22.2328C10.2875 22.2186 10.1179 22.1865 9.953 22.1371C8.57817 21.7097 7.38985 20.8269 6.58366 19.634C6.68651 20.5003 6.9793 21.3331 7.44114 22.0732C7.90298 22.8132 8.52248 23.4422 9.25542 23.9152C9.69187 24.1807 10.165 24.3804 10.6597 24.5079C11.9757 24.8748 13.1792 25.5643 14.1613 26.514C14.4965 26.7571 14.7507 27.0955 14.8907 27.4852C13.8005 26.9782 12.645 26.6253 11.4576 26.4365C10.3027 26.2646 9.13046 26.2416 7.96969 26.3681C7.80442 26.3841 7.638 26.3841 7.47273 26.3681C6.02762 26.163 4.69748 25.4658 3.70673 24.394C3.94614 25.2395 4.36947 26.0217 4.94642 26.6846C5.52338 27.3474 6.2397 27.8746 7.04415 28.2283C7.52222 28.4095 8.02188 28.5275 8.53049 28.5794C9.87862 28.74 11.1677 29.2249 12.2874 29.9928C12.6616 30.1951 12.9761 30.4923 13.1992 30.8545C12.0433 30.5215 10.8459 30.3542 9.64296 30.3575C8.46644 30.349 7.29434 30.5024 6.15964 30.8135C5.99776 30.8503 5.83302 30.8732 5.66724 30.8819C4.22292 30.8956 2.81772 30.4127 1.68695 29.5141C2.04331 30.3191 2.57965 31.0317 3.25469 31.5968C3.92973 32.162 4.72545 32.5647 5.58061 32.774C6.07293 32.8814 6.57737 32.9228 7.08063 32.8971C8.4219 32.8392 9.75699 33.11 10.9697 33.6859C11.3738 33.8174 11.7284 34.0686 11.9865 34.4062C10.7966 34.2703 9.5946 34.281 8.40739 34.4381C7.25598 34.639 6.13359 34.9805 5.06541 35.4549C4.9083 35.5259 4.745 35.5824 4.57756 35.6236C3.14704 35.8517 1.68125 35.5983 0.410339 34.9032C0.889258 35.6373 1.52895 36.2528 2.28096 36.703C3.03296 37.1533 3.87757 37.4265 4.75081 37.502C5.26022 37.5435 5.773 37.502 6.26907 37.3789C7.60821 37.1116 8.99262 37.179 10.2995 37.575C10.7068 37.6404 11.0875 37.8189 11.3983 38.0902C10.1974 38.1582 9.01004 38.3789 7.86483 38.7467C6.74319 39.127 5.67159 39.6414 4.6733 40.2786C4.5296 40.3618 4.37656 40.4276 4.21737 40.4747C2.85218 40.9525 1.36519 40.9525 0 40.4747C0.601018 41.1137 1.33542 41.6125 2.151 41.9355C2.96658 42.2586 3.84332 42.3981 4.7189 42.344C5.22125 42.2956 5.71495 42.1806 6.187 42.0021C7.45522 41.5215 8.82325 41.3648 10.1673 41.5461C10.5857 41.5535 10.9947 41.6715 11.3527 41.8881C10.1788 42.1495 9.03896 42.5457 7.95601 43.0689C6.92066 43.6162 5.95734 44.2901 5.0882 45.075C4.95893 45.1743 4.82168 45.2628 4.67786 45.3395C3.40628 46.0332 1.93218 46.2606 0.510644 45.9823C1.19506 46.5277 1.9936 46.9117 2.84689 47.1059C3.70019 47.3001 4.58627 47.2994 5.43927 47.1039C5.93509 46.9529 6.41347 46.7496 6.86634 46.4975C8.04136 45.8118 9.37238 45.4382 10.7326 45.4124C11.144 45.3643 11.5608 45.4257 11.9409 45.5902C10.8158 45.9963 9.75251 46.5564 8.78125 47.2544C7.83699 47.951 6.98918 48.7697 6.25995 49.6891L5.88608 50.0173C4.73101 50.8993 3.30301 51.3479 1.85108 51.2848C2.61691 51.7164 3.46913 51.9721 4.34601 52.0336C5.2229 52.0952 6.10248 51.9608 6.92105 51.6405C7.38287 51.4308 7.82273 51.1757 8.23413 50.8791C9.28762 50.0154 10.5423 49.432 11.8816 49.183C12.2815 49.0699 12.7035 49.0605 13.108 49.1556C12.0754 49.7654 11.1175 50.4937 10.2539 51.3259C9.43602 52.1615 8.72538 53.0958 8.13839 54.1071C8.05345 54.2487 7.9508 54.3789 7.83291 54.4946C6.82883 55.5394 5.4991 56.2115 4.06236 56.4004C4.88302 56.7046 5.76131 56.8216 6.63299 56.7427C7.50467 56.6638 8.3477 56.3911 9.1004 55.9445C9.52294 55.6758 9.91174 55.3574 10.2585 54.9961C11.1813 53.9927 12.3301 53.2237 13.6096 52.7529C13.9891 52.5845 14.4031 52.5079 14.8178 52.5295C12.9277 53.9979 11.4884 55.968 10.6643 58.215C10.5989 58.3598 10.5211 58.4986 10.4317 58.6299C9.598 59.8235 8.37691 60.6918 6.97576 61.0874C7.83558 61.2563 8.72228 61.231 9.57106 61.0133C10.4198 60.7956 11.2093 60.391 11.8816 59.829C12.2616 59.5001 12.5919 59.1177 12.8618 58.6937C13.6176 57.5708 14.6285 56.6428 15.8117 55.9855C16.1586 55.7517 16.5581 55.6076 16.9744 55.566C16.1734 56.4562 15.4886 57.4443 14.9363 58.5068C14.4132 59.558 14.0168 60.6676 13.7555 61.8123C13.7283 61.9728 13.6727 62.1272 13.5913 62.2682C12.9714 63.5725 11.9104 64.6157 10.5959 65.2136C11.4716 65.255 12.3454 65.0991 13.1527 64.7574C13.96 64.4157 14.6802 63.8969 15.26 63.2394C15.5764 62.8489 15.8471 62.4237 16.067 61.9719V61.9992ZM50.7726 0.74476L46.7422 44.1267C46.7272 44.2478 46.6835 44.3635 46.6145 44.4641L21.023 79.7213C20.9345 79.8409 20.8095 79.9285 20.667 79.9712C20.5244 80.0138 20.3719 80.0091 20.2322 79.9577C20.0926 79.9064 19.9733 79.8112 19.8923 79.6864C19.8113 79.5615 19.7729 79.4138 19.7829 79.2654L23.8133 35.8743C23.8233 35.7521 23.8676 35.6352 23.941 35.5369L49.5325 0.279709C49.6214 0.15919 49.7472 0.0709563 49.8908 0.0283898C50.0344 -0.0141768 50.1879 -0.00875435 50.3282 0.0438347C50.4684 0.0964238 50.5877 0.193311 50.6679 0.319802C50.7481 0.446293 50.7848 0.595487 50.7726 0.74476ZM43.268 43.3379L39.8485 40.8531C39.8667 40.6072 39.8667 40.3604 39.8485 40.1145C39.781 39.1865 39.4313 38.3014 38.8463 37.578C38.2612 36.8545 37.4688 36.3274 36.5755 36.0673C35.6822 35.8073 34.7307 35.8268 33.8487 36.1231C32.9668 36.4195 32.1967 36.9786 31.6417 37.7254L27.283 37.3242C27.2522 37.3203 27.221 37.327 27.1945 37.3431C27.168 37.3593 27.1478 37.384 27.1372 37.4131C27.1266 37.4423 27.1262 37.4742 27.1361 37.5036C27.146 37.533 27.1657 37.5582 27.1918 37.575L30.7481 40.1555C30.7344 40.3681 30.7344 40.5813 30.7481 40.7938C30.813 41.7229 31.1609 42.6098 31.745 43.3352C32.3291 44.0607 33.1214 44.5898 34.0152 44.8515C34.909 45.1132 35.8615 45.0949 36.7446 44.799C37.6278 44.5032 38.3991 43.9439 38.9548 43.1966L43.1768 43.5887C43.2061 43.5891 43.2348 43.5803 43.2589 43.5636C43.283 43.547 43.3013 43.5232 43.3113 43.4957C43.3214 43.4681 43.3226 43.4381 43.3148 43.4099C43.307 43.3816 43.2906 43.3565 43.268 43.3379Z" fill="#3E3E3E"/>
<path d="M62.946 36.1342L66.0326 42.4625H61.3365L59.3669 38.0126H58.2088L57.8213 42.4625H53.6723L54.7483 30.1524H58.8973L58.4961 34.7436H59.7545L62.7773 30.1524H67.0995L62.946 36.1342Z" fill="#3E3E3E"/>
<path d="M69.5205 41.9382C68.5489 41.4245 67.7545 40.6302 67.2409 39.6586C66.7232 38.637 66.5126 37.4873 66.6345 36.3485C66.7302 35.1584 67.1392 34.0148 67.8199 33.0339C68.5076 32.0606 69.4297 31.2766 70.5008 30.7542C71.6346 30.1955 72.8844 29.9128 74.1482 29.929C75.3651 29.9027 76.5685 30.1867 77.6452 30.7542C78.6168 31.2679 79.4112 32.0623 79.9249 33.0339C80.4452 34.0562 80.656 35.2082 80.5313 36.3485C80.4397 37.5381 80.0303 38.6813 79.3459 39.6586C78.66 40.6318 77.7394 41.4159 76.6695 41.9382C75.5357 42.4967 74.2859 42.7795 73.0221 42.7635C71.8036 42.7918 70.5981 42.5077 69.5205 41.9382ZM74.7364 39.0294C75.1844 38.7702 75.5593 38.4015 75.8261 37.9579C76.1219 37.4647 76.2968 36.9086 76.3367 36.3348C76.4008 35.7817 76.3223 35.2214 76.1087 34.7071C75.919 34.2667 75.6013 33.8934 75.1969 33.6357C74.7873 33.3795 74.3121 33.248 73.8291 33.2573C73.3268 33.2544 72.8327 33.385 72.3975 33.6357C71.9509 33.8952 71.5775 34.2639 71.3123 34.7071C71.0137 35.2008 70.8386 35.7591 70.8017 36.3348C70.7362 36.8861 70.8131 37.4449 71.0251 37.9579C71.2126 38.3997 71.5308 38.7736 71.937 39.0294C72.3454 39.288 72.8214 39.4197 73.3048 39.4078C73.8096 39.4067 74.3045 39.268 74.7364 39.0066V39.0294Z" fill="#3E3E3E"/>
<path d="M92.4585 42.4625L92.9144 36.8546L89.846 41.3546H88.0222L85.7426 37.0461L85.2867 42.4625H81.507L82.583 30.1524H85.9933L89.39 36.7132L93.8627 30.1569H97.2731L96.2336 42.4671L92.4585 42.4625Z" fill="#3E3E3E"/>
<path d="M111.371 30.1569L110.295 42.4671H106.218L107.012 33.3804H103.269L102.475 42.4625H98.3993L99.4753 30.1524L111.371 30.1569Z" fill="#3E3E3E"/>
<path d="M121.346 40.3151H116.668L115.656 42.4625H111.439L117.89 30.1524H121.971L126.27 42.4625H121.985L121.346 40.3151ZM120.462 37.3288L119.55 34.2375L118.082 37.3288H120.462Z" fill="#3E3E3E"/>
<path d="M129.968 41.9382C128.992 41.4302 128.196 40.6343 127.688 39.6586C127.174 38.6295 126.968 37.4736 127.096 36.3303C127.186 35.1348 127.592 33.9847 128.272 32.9974C128.948 32.0243 129.862 31.2397 130.925 30.7177C132.043 30.1581 133.277 29.8706 134.527 29.8788C135.61 29.855 136.684 30.0714 137.673 30.5126C138.546 30.9112 139.292 31.5421 139.83 32.3363L137.008 34.6752C136.765 34.29 136.439 33.9633 136.055 33.7184C135.672 33.4735 135.238 33.3164 134.786 33.2585C134.335 33.2005 133.876 33.2431 133.442 33.3832C133.009 33.5233 132.612 33.7574 132.28 34.0688C131.685 34.669 131.334 35.4682 131.295 36.312C131.235 36.7059 131.256 37.1078 131.358 37.493C131.46 37.8781 131.64 38.2381 131.887 38.5506C132.14 38.8323 132.453 39.0536 132.802 39.198C133.152 39.3425 133.53 39.4064 133.907 39.385C134.453 39.3674 134.989 39.229 135.475 38.9799C135.962 38.7308 136.387 38.3771 136.72 37.9443L139.137 40.2832C138.462 41.0747 137.613 41.699 136.657 42.1069C135.626 42.5377 134.518 42.7519 133.401 42.7361C132.208 42.7662 131.026 42.4916 129.968 41.9382Z" fill="#3E3E3E"/>
<path d="M53.3714 47.3319H57.4474L56.8866 53.715L61.683 47.3319H65.5813L64.5053 59.6421H60.4292L60.99 53.259L56.2119 59.6421H52.2772L53.3714 47.3319Z" fill="#3E3E3E"/>
<path d="M76.9021 54.4171C77.2301 54.9402 77.3715 55.5588 77.3033 56.1724C77.2374 56.9453 76.8824 57.6649 76.3093 58.1876C75.6495 58.791 74.8604 59.2355 74.0023 59.4871C72.995 59.7961 71.9465 59.9498 70.8929 59.943C69.163 59.9561 67.4512 59.5904 65.8776 58.8715L67.3412 56.0083C67.9042 56.2434 68.4891 56.4221 69.0874 56.5417C69.6603 56.6616 70.2437 56.7243 70.829 56.7287C71.3926 56.7464 71.954 56.6503 72.4795 56.446C72.6627 56.3899 72.8259 56.2822 72.9496 56.1359C73.0733 55.9896 73.1523 55.8107 73.1771 55.6207C73.2166 55.1283 72.8336 54.8821 72.0281 54.8821H68.7044L68.9688 51.8958H71.937C72.2225 51.9134 72.5067 51.8451 72.7531 51.6997C72.86 51.6297 72.946 51.5322 73.0022 51.4175C73.0584 51.3027 73.0826 51.175 73.0723 51.0476C73.0621 50.9203 73.0177 50.798 72.9439 50.6938C72.87 50.5895 72.7695 50.507 72.6528 50.455C72.2607 50.2733 71.8306 50.1888 71.399 50.2088C70.8531 50.2149 70.3098 50.2853 69.7804 50.4186C69.1991 50.5593 68.6338 50.7595 68.0935 51.0158L67.1542 47.9383C68.577 47.3224 70.1131 47.0118 71.6634 47.0264C72.6559 47.0183 73.6431 47.1723 74.5859 47.4824C75.3744 47.717 76.0869 48.1558 76.6513 48.7544C76.8924 49.0163 77.0749 49.3267 77.1866 49.6648C77.2982 50.0029 77.3364 50.3609 77.2987 50.7149C77.2545 51.253 77.0637 51.7686 76.747 52.2058C76.4156 52.6615 75.9793 53.0306 75.475 53.2818C76.0568 53.5033 76.5555 53.9 76.9021 54.4171Z" fill="#3E3E3E"/>
<path d="M79.5556 47.3319H90.2198L89.9463 50.4642H83.3581L83.235 51.8867H86.1666C87.6666 51.8867 88.7928 52.2058 89.5359 52.8441C90.2791 53.4824 90.6028 54.4034 90.498 55.6116C90.4645 56.1938 90.301 56.761 90.0193 57.2715C89.7376 57.782 89.3449 58.2228 88.8703 58.5615C87.7168 59.3297 86.347 59.7069 84.9629 59.6375H78.4796L79.5556 47.3319ZM84.9356 56.7378C85.282 56.7545 85.6249 56.662 85.9158 56.4733C86.0357 56.3851 86.1346 56.2715 86.2055 56.1407C86.2764 56.0099 86.3176 55.8651 86.3262 55.7165C86.3809 55.0827 85.9751 54.7682 85.1088 54.7682H82.9796L82.8109 56.7378H84.9356Z" fill="#3E3E3E"/>
<path d="M92.6454 47.3319H96.7214L96.1652 53.715L100.957 47.3319H104.86L103.784 59.6421H99.7078L100.264 53.259L95.4904 59.6421H91.5694L92.6454 47.3319Z" fill="#3E3E3E"/>
<path d="M115.884 47.8973C116.651 48.2233 117.291 48.7898 117.708 49.5113C118.109 50.2658 118.268 51.1253 118.164 51.9733C118.098 52.8634 117.781 53.7167 117.252 54.4353C116.713 55.1525 115.99 55.7103 115.159 56.0493C114.203 56.4425 113.175 56.635 112.141 56.6147H110.363L110.098 59.6375H105.95L107.025 47.3273H112.953C113.96 47.3026 114.96 47.497 115.884 47.8973ZM113.463 53.0356C113.618 52.9035 113.743 52.7409 113.832 52.5582C113.92 52.3754 113.97 52.1763 113.978 51.9733C114.01 51.7829 113.997 51.5878 113.94 51.4034C113.883 51.2191 113.784 51.0505 113.65 50.911C113.304 50.6305 112.863 50.4949 112.419 50.5325H110.905L110.655 53.414H112.187C112.643 53.4392 113.094 53.3054 113.463 53.0356Z" fill="#3E3E3E"/>
<path d="M126.995 57.4901H122.317L121.305 59.6375H117.088L123.539 47.3273H127.643L131.942 59.6375H127.656L126.995 57.4901ZM126.111 54.5037L125.199 51.4125L123.731 54.5037H126.111Z" fill="#3E3E3E"/>
<path d="M143.714 50.5508H140.112L139.319 59.6375H135.243L136.036 50.5508H132.435L132.717 47.3319H143.997L143.714 50.5508Z" fill="#3E3E3E"/>
<path d="M154.794 56.528L154.52 59.6603H144.293L145.369 47.3501H155.368L155.094 50.4824H149.167L149.04 51.9231H154.242L153.982 54.9095H148.784L148.661 56.528H154.794Z" fill="#3E3E3E"/>
<path d="M169.288 47.3319L168.212 59.6421H164.131L164.929 50.5553H162.116L161.956 51.9778C161.813 53.4386 161.546 54.8845 161.158 56.3001C160.904 57.2867 160.4 58.1912 159.695 58.9263C159.348 59.2494 158.939 59.4995 158.493 59.6616C158.048 59.8237 157.574 59.8946 157.101 59.87C156.514 59.8648 155.931 59.7883 155.363 59.6421L155.865 56.3183C156.014 56.3548 156.167 56.3732 156.321 56.373C156.524 56.3777 156.726 56.3318 156.907 56.2395C157.089 56.1472 157.244 56.0114 157.36 55.8442C157.651 55.4214 157.851 54.9434 157.949 54.4399C158.081 53.8517 158.208 53.0721 158.327 52.1602L158.906 47.3593L169.288 47.3319Z" fill="#3E3E3E"/>
<path d="M182.254 47.3319L181.178 59.6421H177.102L177.358 56.7241H176.25L174.116 59.6421H169.775L172.511 56.1268C171.79 55.7916 171.195 55.2338 170.815 54.5356C170.434 53.7845 170.285 52.937 170.386 52.101C170.446 51.1884 170.762 50.3113 171.298 49.5705C171.842 48.8378 172.575 48.2672 173.418 47.9201C174.391 47.5155 175.438 47.3168 176.491 47.3365L182.254 47.3319ZM174.567 52.028C174.476 53.0675 174.959 53.5918 176.013 53.5918H177.631L177.9 50.5325H176.282C175.23 50.5325 174.658 51.031 174.567 52.028Z" fill="#3E3E3E"/>
</svg>
