<svg width="297" height="130" viewBox="0 0 297 130" fill="none" xmlns="http://www.w3.org/2000/svg">
<path d="M26.109 100.749C27.0014 98.7351 28.3908 96.9811 30.1468 95.6514C30.4447 95.3653 30.7876 95.13 31.1618 94.955L31.6878 89.265C27.3354 84.5224 24.3827 78.6663 23.1576 72.3468C21.9326 66.0274 22.4832 59.4921 24.7483 53.4668C27.0133 47.4414 30.9043 42.1618 35.9888 38.2143C41.0734 34.2669 47.1527 31.806 53.5515 31.1051L59.9972 22.2145C59.8565 21.5995 59.7009 21.0438 59.5453 20.5252C58.926 18.7044 58.0929 16.9635 57.0633 15.339C56.9374 15.139 56.8114 14.8722 56.6855 14.6722C55.9378 12.4239 55.9665 9.98974 56.767 7.7597C55.7163 8.72727 54.897 9.91902 54.3698 11.2465C53.8427 12.574 53.6212 14.0031 53.7219 15.4279C53.7747 16.2483 53.9624 17.0543 54.2776 17.8136C55.0301 19.8838 55.284 22.1023 55.0185 24.2889C55.0481 24.9755 54.8502 25.6527 54.4554 26.2153C54.0677 24.3042 53.4404 22.4497 52.5883 20.6956C51.699 19.0109 50.604 17.4431 49.3284 16.028C49.1564 15.8143 48.9956 15.5918 48.8469 15.3612C47.7618 13.2804 47.4144 10.8932 47.8615 8.58949C46.9526 9.70438 46.3106 11.0122 45.9845 12.4131C45.6583 13.814 45.6567 15.2709 45.9796 16.6726C46.1815 17.4794 46.4932 18.2546 46.9057 18.9768C47.9702 20.9068 48.5571 23.0636 48.6172 25.2669C48.7413 25.9278 48.6585 26.6108 48.3801 27.2229C47.7041 25.3918 46.7765 23.6637 45.624 22.0885C44.519 20.5347 43.1995 19.1453 41.7047 17.9617C41.4859 17.7862 41.2894 17.5847 41.1194 17.3616C39.723 15.475 39.0027 13.1731 39.0745 10.827C38.3679 12.0696 37.9551 13.4574 37.8678 14.8842C37.7805 16.311 38.0209 17.7388 38.5707 19.0583C38.885 19.8175 39.3012 20.5304 39.808 21.1772C41.1878 22.8835 42.1175 24.9087 42.5122 27.0673C42.7445 27.7268 42.7601 28.4432 42.5567 29.1121C41.6274 27.396 40.4573 25.8217 39.0819 24.4371C37.718 23.0751 36.1781 21.9016 34.5032 20.9475C34.282 20.7997 34.0715 20.6363 33.8735 20.4585C32.1738 18.8316 31.0966 16.6615 30.8284 14.324C30.3334 15.6587 30.143 17.0872 30.2712 18.505C30.3994 19.9228 30.8429 21.2939 31.5693 22.5182C32.0029 23.2286 32.5342 23.8745 33.1474 24.4371C34.7568 25.9459 35.9857 27.8146 36.7333 29.8901C37.0526 30.4891 37.1769 31.1729 37.0889 31.846C35.8967 30.3 34.4867 28.9349 32.9029 27.7934C31.3568 26.6844 29.6764 25.7757 27.9019 25.0891C27.6385 25.0016 27.3891 24.8768 27.161 24.7187C25.2513 23.35 23.8516 21.3846 23.1824 19.1324C22.9061 20.5324 22.947 21.9765 23.3021 23.3587C23.6573 24.7408 24.3176 26.0258 25.2347 27.1191C25.803 27.7197 26.4396 28.2518 27.1314 28.7046C28.9614 29.9507 30.4717 31.6107 31.5397 33.5501C31.8997 34.104 32.1302 34.7321 32.2139 35.3875C30.7687 34.0843 29.1628 32.9713 27.4351 32.0757C25.707 31.2319 23.8871 30.5905 22.0118 30.1642C21.7582 30.118 21.5099 30.046 21.2709 29.9493C19.1549 28.8887 17.4507 27.1558 16.4255 25.0224C16.3673 26.447 16.63 27.8664 17.1943 29.1758C17.7586 30.4851 18.6099 31.6509 19.6854 32.5869C20.3185 33.1138 21.0216 33.5501 21.7747 33.8835C23.7804 34.7927 25.5311 36.182 26.8721 37.9287C27.3339 38.4245 27.6583 39.0323 27.813 39.692C26.2013 38.6282 24.4579 37.7789 22.6268 37.1656C20.7976 36.5979 18.9074 36.2497 16.996 36.1284C16.7172 36.1052 16.4416 36.0531 16.1736 35.9728C13.9395 35.2782 12.0085 33.8437 10.6984 31.9053C10.8656 33.3129 11.3414 34.6663 12.0919 35.8689C12.8423 37.0715 13.849 38.0936 15.0401 38.8622C15.7493 39.2936 16.5182 39.6181 17.322 39.8254C19.4604 40.4215 21.4162 41.542 23.012 43.0853C23.5567 43.4803 23.9698 44.0302 24.1975 44.6634C22.4258 43.8396 20.5482 43.2661 18.6186 42.9594C16.7418 42.6799 14.837 42.6426 12.9508 42.8482C12.6822 42.8742 12.4117 42.8742 12.1432 42.8482C9.79488 42.515 7.63341 41.3819 6.02343 39.6402C6.41248 41.0142 7.10039 42.2852 8.03794 43.3624C8.97549 44.4396 10.1395 45.2962 11.4467 45.8711C12.2236 46.1655 13.0356 46.3572 13.862 46.4415C16.0528 46.7024 18.1476 47.4905 19.967 48.7383C20.5752 49.067 21.0862 49.55 21.4488 50.1386C19.5703 49.5975 17.6246 49.3256 15.6698 49.331C13.758 49.3172 11.8533 49.5665 10.0094 50.0719C9.74636 50.1317 9.47866 50.1689 9.20926 50.183C6.86224 50.2054 4.5788 49.4207 2.74129 47.9604C3.32038 49.2686 4.19194 50.4264 5.28887 51.3448C6.38581 52.2632 7.67886 52.9177 9.06849 53.2577C9.86852 53.4323 10.6882 53.4996 11.506 53.4578C13.6856 53.3637 15.8551 53.8037 17.8258 54.7395C18.4824 54.9533 19.0586 55.3615 19.478 55.9101C17.5445 55.6892 15.5912 55.7067 13.662 55.962C11.791 56.2884 9.96709 56.8433 8.23128 57.6142C7.97599 57.7296 7.71063 57.8214 7.43853 57.8883C5.11394 58.2591 2.73203 57.8473 0.666801 56.7177C1.44504 57.9106 2.48454 58.9107 3.70655 59.6424C4.92857 60.3741 6.30106 60.8181 7.72007 60.9408C8.54786 61.0083 9.38113 60.9407 10.1872 60.7407C12.3633 60.3064 14.613 60.4158 16.7367 61.0593C17.3985 61.1656 18.0172 61.4557 18.5222 61.8965C16.5708 62.0071 14.6413 62.3657 12.7803 62.9634C10.9577 63.5814 9.21633 64.4172 7.59412 65.4528C7.3606 65.5879 7.11191 65.6948 6.85323 65.7714C4.6348 66.5478 2.21843 66.5478 0 65.7714C0.976654 66.8097 2.17006 67.6203 3.49538 68.1453C4.8207 68.6703 6.2454 68.8969 7.66821 68.809C8.48454 68.7303 9.28679 68.5435 10.0539 68.2533C12.1147 67.4725 14.3378 67.2178 16.5218 67.5124C17.2017 67.5244 17.8663 67.7161 18.4482 68.0681C16.5405 68.4929 14.6883 69.1368 12.9285 69.987C11.2461 70.8764 9.68067 71.9714 8.26833 73.2469C8.05826 73.4083 7.83523 73.552 7.60153 73.6767C5.53521 74.804 3.13979 75.1735 0.829796 74.7213C1.94198 75.6075 3.23961 76.2315 4.6262 76.5471C6.0128 76.8626 7.45269 76.8615 8.83881 76.5439C9.64452 76.2985 10.4219 75.9682 11.1578 75.5585C13.0672 74.4441 15.2301 73.8371 17.4405 73.7952C18.109 73.717 18.7863 73.8167 19.4039 74.0841C17.5757 74.744 15.8478 75.6541 14.2695 76.7884C12.7351 77.9204 11.3574 79.2508 10.1724 80.7447L9.56489 81.2782C7.68789 82.7114 5.36739 83.4403 3.00801 83.3379C4.25248 84.0391 5.63734 84.4547 7.06227 84.5547C8.48721 84.6546 9.91653 84.4364 11.2467 83.9157C11.9972 83.575 12.7119 83.1605 13.3805 82.6785C15.0924 81.275 17.1312 80.327 19.3076 79.9223C19.9574 79.7386 20.6432 79.7233 21.3006 79.8779C19.6225 80.8687 18.0659 82.0523 16.6626 83.4045C15.3335 84.7625 14.1787 86.2806 13.2249 87.924C13.0869 88.1541 12.9201 88.3658 12.7285 88.5537C11.0968 90.2516 8.93604 91.3438 6.60133 91.6506C7.9349 92.145 9.36213 92.3351 10.7786 92.2069C12.1951 92.0787 13.565 91.6355 14.7882 90.9097C15.4748 90.4731 16.1066 89.9557 16.67 89.3687C18.1697 87.7381 20.0364 86.4885 22.1156 85.7235C22.7323 85.4498 23.405 85.3254 24.0789 85.3605C21.0075 87.7465 18.6687 90.9479 17.3294 94.5994C17.2233 94.8346 17.0968 95.0602 16.9516 95.2736C15.5967 97.2131 13.6125 98.6241 11.3356 99.267C12.7328 99.5415 14.1737 99.5004 15.553 99.1466C16.9322 98.7928 18.215 98.1353 19.3076 97.2221C19.9252 96.6877 20.4618 96.0662 20.9005 95.3773C22.1287 93.5526 23.7713 92.0445 25.6941 90.9764C26.2578 90.5965 26.9069 90.3624 27.5833 90.2948C26.2818 91.7413 25.169 93.347 24.2715 95.0735C23.4214 96.7817 22.7773 98.5848 22.3526 100.445C22.3085 100.706 22.2182 100.957 22.0859 101.186C21.0785 103.305 19.3545 105.001 17.2183 105.972C18.6413 106.039 20.0612 105.786 21.3731 105.231C22.685 104.676 23.8554 103.832 24.7976 102.764C25.3116 102.13 25.7516 101.438 26.109 100.704V100.749ZM82.5055 1.21023L75.956 71.7059C75.9318 71.9026 75.8606 72.0906 75.7486 72.2541L34.1624 129.547C34.0185 129.741 33.8155 129.884 33.5839 129.953C33.3522 130.022 33.1043 130.015 32.8774 129.931C32.6504 129.848 32.4566 129.693 32.325 129.49C32.1934 129.288 32.131 129.047 32.1472 128.806L38.6967 58.2958C38.7129 58.0972 38.7848 57.9071 38.9041 57.7475L80.4902 0.454527C80.6348 0.258683 80.8392 0.115304 81.0725 0.0461334C81.3059 -0.0230373 81.5554 -0.0142258 81.7833 0.0712314C82.0112 0.156689 82.205 0.31413 82.3353 0.519678C82.4656 0.725226 82.5254 0.967667 82.5055 1.21023ZM70.3104 70.4241L64.7537 66.3863C64.7835 65.9868 64.7835 65.5856 64.7537 65.1861C64.6442 63.6781 64.0759 62.2398 63.1252 61.0642C62.1745 59.8886 60.8868 59.032 59.4352 58.6094C57.9835 58.1868 56.4373 58.2185 55.0042 58.7001C53.571 59.1817 52.3196 60.0903 51.4177 61.3038L44.3348 60.6518C44.2848 60.6454 44.2341 60.6563 44.191 60.6826C44.148 60.7088 44.1152 60.7489 44.0979 60.7963C44.0807 60.8437 44.0801 60.8956 44.0962 60.9434C44.1123 60.9912 44.1442 61.032 44.1867 61.0593L49.9656 65.2527C49.9433 65.5981 49.9433 65.9446 49.9656 66.29C50.0711 67.7997 50.6365 69.241 51.5857 70.4198C52.5348 71.5986 53.8222 72.4585 55.2747 72.8837C56.7271 73.3089 58.275 73.2792 59.71 72.7984C61.1451 72.3176 62.3985 71.4089 63.3016 70.1945L70.1622 70.8316C70.2099 70.8322 70.2565 70.818 70.2957 70.7909C70.3349 70.7638 70.3646 70.7252 70.3809 70.6805C70.3972 70.6357 70.3992 70.587 70.3865 70.5411C70.3739 70.4951 70.3473 70.4543 70.3104 70.4241Z" fill="#3E3E3E"/>
<path d="M102.287 58.7181L107.303 69.0016H99.6719L96.4712 61.7706H94.5894L93.9596 69.0016H87.2175L88.966 48.9976H95.7081L95.0561 56.4584H97.101L102.013 48.9976H109.037L102.287 58.7181Z" fill="#3E3E3E"/>
<path d="M112.971 68.1496C111.392 67.3149 110.101 66.024 109.266 64.4452C108.425 62.7851 108.083 60.9168 108.281 59.0663C108.437 57.1324 109.101 55.2741 110.207 53.68C111.325 52.0985 112.823 50.8244 114.564 49.9756C116.406 49.0678 118.437 48.6083 120.491 48.6346C122.468 48.5918 124.424 49.0533 126.174 49.9756C127.752 50.8103 129.043 52.1012 129.878 53.68C130.723 55.3414 131.066 57.2132 130.863 59.0663C130.715 60.9994 130.049 62.8571 128.937 64.4452C127.823 66.0266 126.327 67.3009 124.588 68.1496C122.745 69.0572 120.715 69.5167 118.661 69.4906C116.681 69.5366 114.722 69.075 112.971 68.1496ZM121.447 63.4227C122.175 63.0015 122.784 62.4025 123.217 61.6816C123.698 60.8802 123.982 59.9764 124.047 59.0441C124.151 58.1453 124.024 57.2347 123.677 56.3991C123.368 55.6834 122.852 55.0768 122.195 54.658C121.529 54.2417 120.757 54.028 119.972 54.0431C119.156 54.0384 118.353 54.2506 117.646 54.658C116.92 55.0797 116.313 55.6788 115.883 56.3991C115.397 57.2012 115.113 58.1085 115.053 59.0441C114.946 59.9398 115.071 60.848 115.416 61.6816C115.721 62.3996 116.238 63.0071 116.898 63.4227C117.561 63.8431 118.335 64.0571 119.12 64.0377C119.941 64.0359 120.745 63.8105 121.447 63.3857V63.4227Z" fill="#3E3E3E"/>
<path d="M150.245 69.0016L150.986 59.8887L146 67.2013H143.036L139.332 60.1999L138.591 69.0016H132.449L134.197 48.9976H139.739L145.259 59.659L152.527 49.005H158.069L156.38 69.009L150.245 69.0016Z" fill="#3E3E3E"/>
<path d="M180.977 49.005L179.229 69.009H172.605L173.894 54.2431H167.811L166.522 69.0016H159.899L161.647 48.9976L180.977 49.005Z" fill="#3E3E3E"/>
<path d="M197.188 65.512H189.586L187.941 69.0016H181.088L191.572 48.9976H198.203L205.189 69.0016H198.225L197.188 65.512ZM195.75 60.6592L194.269 55.636L191.883 60.6592H195.75Z" fill="#3E3E3E"/>
<path d="M211.198 68.1496C209.612 67.3241 208.319 66.0308 207.494 64.4452C206.658 62.773 206.323 60.8947 206.53 59.0367C206.677 57.094 207.337 55.2252 208.442 53.6208C209.541 52.0395 211.025 50.7646 212.754 49.9163C214.57 49.0069 216.576 48.5398 218.607 48.5531C220.366 48.5144 222.112 48.8661 223.719 49.5829C225.137 50.2307 226.349 51.2559 227.223 52.5465L222.637 56.3472C222.242 55.7213 221.714 55.1903 221.09 54.7924C220.466 54.3944 219.762 54.1392 219.028 54.045C218.294 53.9509 217.548 54.0201 216.844 54.2477C216.14 54.4754 215.494 54.8558 214.954 55.3619C213.988 56.3372 213.418 57.6359 213.354 59.007C213.256 59.647 213.292 60.3002 213.457 60.9261C213.623 61.5519 213.916 62.1369 214.317 62.6448C214.727 63.1025 215.236 63.4621 215.804 63.6968C216.372 63.9315 216.986 64.0353 217.599 64.0006C218.487 63.9719 219.357 63.7471 220.147 63.3424C220.938 62.9376 221.629 62.3628 222.171 61.6594L226.097 65.4602C225.001 66.7464 223.621 67.7608 222.067 68.4237C220.392 69.1237 218.592 69.4718 216.777 69.4462C214.837 69.495 212.917 69.0488 211.198 68.1496Z" fill="#3E3E3E"/>
<path d="M86.7285 76.9143H93.3521L92.4408 87.2868L100.235 76.9143H106.57L104.821 96.9184H98.1975L99.1088 86.5459L91.3443 96.9184H84.9504L86.7285 76.9143Z" fill="#3E3E3E"/>
<path d="M124.966 88.4278C125.499 89.2778 125.729 90.2831 125.618 91.2802C125.511 92.5361 124.934 93.7055 124.003 94.5549C122.93 95.5354 121.648 96.2577 120.254 96.6665C118.617 97.1686 116.913 97.4185 115.201 97.4073C112.39 97.4286 109.608 96.8343 107.051 95.6663L109.429 91.0135C110.344 91.3955 111.295 91.6858 112.267 91.8803C113.198 92.0751 114.146 92.1769 115.097 92.1841C116.013 92.213 116.925 92.0567 117.779 91.7247C118.077 91.6335 118.342 91.4586 118.543 91.2208C118.744 90.983 118.872 90.6924 118.913 90.3837C118.977 89.5835 118.355 89.1835 117.046 89.1835H111.645L112.074 84.3306H116.898C117.362 84.3593 117.823 84.2484 118.224 84.0121C118.397 83.8983 118.537 83.7399 118.629 83.5534C118.72 83.3669 118.759 83.1593 118.743 82.9524C118.726 82.7454 118.654 82.5468 118.534 82.3773C118.414 82.2079 118.25 82.0739 118.061 81.9894C117.424 81.6941 116.725 81.5568 116.023 81.5893C115.136 81.5992 114.253 81.7136 113.393 81.9302C112.449 82.1589 111.53 82.4841 110.652 82.9007L109.126 77.8997C111.438 76.899 113.934 76.3942 116.453 76.4179C118.066 76.4048 119.67 76.6551 121.202 77.1588C122.483 77.5401 123.641 78.2532 124.558 79.2259C124.95 79.6516 125.247 80.1559 125.428 80.7053C125.61 81.2547 125.672 81.8364 125.61 82.4117C125.539 83.286 125.229 84.1239 124.714 84.8344C124.175 85.5749 123.466 86.1747 122.647 86.5829C123.592 86.9428 124.403 87.5874 124.966 88.4278Z" fill="#3E3E3E"/>
<path d="M129.278 76.9143H146.607L146.163 82.0042H135.457L135.257 84.3158H140.021C142.458 84.3158 144.288 84.8344 145.496 85.8717C146.704 86.9089 147.23 88.4055 147.059 90.3689C147.005 91.3148 146.739 92.2366 146.281 93.0662C145.824 93.8958 145.186 94.6121 144.414 95.1625C142.54 96.4107 140.314 97.0237 138.065 96.9109H127.529L129.278 76.9143ZM138.02 92.1989C138.583 92.2261 139.14 92.0758 139.613 91.7692C139.808 91.6258 139.969 91.4412 140.084 91.2287C140.199 91.0161 140.266 90.7807 140.28 90.5393C140.369 89.5095 139.71 88.9982 138.302 88.9982H134.842L134.568 92.1989H138.02Z" fill="#3E3E3E"/>
<path d="M150.549 76.9143H157.172L156.268 87.2868L164.055 76.9143H170.397L168.649 96.9184H162.025L162.929 86.5459L155.172 96.9184H148.8L150.549 76.9143Z" fill="#3E3E3E"/>
<path d="M188.312 77.833C189.558 78.3629 190.598 79.2834 191.275 80.4558C191.927 81.6819 192.185 83.0786 192.016 84.4566C191.908 85.903 191.395 87.2897 190.535 88.4574C189.659 89.6228 188.484 90.5292 187.134 91.0801C185.579 91.7191 183.91 92.0318 182.229 91.9988H179.34L178.91 96.9109H172.168L173.916 76.9069H183.548C185.184 76.8667 186.81 77.1827 188.312 77.833ZM184.378 86.1829C184.629 85.9681 184.832 85.704 184.976 85.407C185.12 85.11 185.202 84.7864 185.215 84.4566C185.266 84.1472 185.244 83.8302 185.152 83.5306C185.059 83.231 184.898 82.957 184.682 82.7303C184.119 82.2745 183.402 82.0542 182.681 82.1154H180.221L179.814 86.7978H182.303C183.045 86.8386 183.778 86.6213 184.378 86.1829Z" fill="#3E3E3E"/>
<path d="M206.367 93.4214H198.766L197.121 96.9109H190.268L200.751 76.9069H207.419L214.406 96.9109H207.442L206.367 93.4214ZM204.93 88.5685L203.448 83.5453L201.063 88.5685H204.93Z" fill="#3E3E3E"/>
<path d="M233.536 82.145H227.683L226.394 96.9109H219.77L221.059 82.145H215.206L215.666 76.9143H233.995L233.536 82.145Z" fill="#3E3E3E"/>
<path d="M251.539 91.8581L251.095 96.948H234.477L236.225 76.944H252.473L252.028 82.0339H242.397L242.189 84.3751H250.643L250.221 89.2279H241.774L241.574 91.8581H251.539Z" fill="#3E3E3E"/>
<path d="M275.092 76.9143L273.344 96.9184H266.713L268.009 82.1524H263.438L263.179 84.464C262.946 86.8377 262.512 89.1873 261.882 91.4876C261.469 93.0909 260.65 94.5607 259.504 95.7552C258.94 96.2803 258.276 96.6867 257.552 96.9501C256.828 97.2136 256.058 97.3288 255.288 97.2888C254.336 97.2803 253.388 97.1559 252.466 96.9184L253.281 91.5173C253.523 91.5766 253.772 91.6064 254.021 91.6062C254.352 91.6137 254.679 91.5392 254.974 91.3892C255.269 91.2392 255.522 91.0185 255.711 90.7467C256.182 90.0597 256.508 89.283 256.666 88.4648C256.881 87.5091 257.089 86.2421 257.281 84.7604L258.222 76.9588L275.092 76.9143Z" fill="#3E3E3E"/>
<path d="M296.163 76.9143L294.415 96.9184H287.791L288.206 92.1767H286.406L282.938 96.9184H275.885L280.33 91.2061C279.159 90.6613 278.193 89.755 277.574 88.6204C276.955 87.3998 276.713 86.0227 276.878 84.664C276.975 83.1812 277.488 81.7559 278.36 80.5521C279.243 79.3614 280.434 78.4341 281.805 77.8701C283.386 77.2126 285.086 76.8897 286.798 76.9217L296.163 76.9143ZM283.672 84.5455C283.524 86.2347 284.309 87.0867 286.02 87.0867H288.651L289.088 82.1154H286.458C284.749 82.1154 283.82 82.9254 283.672 84.5455Z" fill="#3E3E3E"/>
</svg>
