<svg width="70" height="70" viewBox="0 0 70 70" fill="none" xmlns="http://www.w3.org/2000/svg">
<path d="M19.9005 10.7845C19.407 11.0682 18.941 11.3314 18.4794 11.602C16.185 12.9464 13.9997 14.4485 11.9708 16.1707C9.99711 17.84 8.20935 19.6802 6.77699 21.8421C5.75341 23.3873 4.96957 25.0378 4.6151 26.8738C4.14686 29.3087 4.59872 31.5633 5.91917 33.6517C6.98349 35.3373 8.42334 36.6091 10.176 37.5381C12.0209 38.5181 13.9922 39.1301 16.029 39.5581C18.1404 39.9997 20.276 40.2385 22.4281 40.364C24.4083 40.4796 26.3889 40.4838 28.3687 40.4229C30.8865 40.3476 33.3988 40.1433 35.8957 39.811C36.1547 39.7763 36.408 39.8381 36.6599 39.8854C37.4774 40.0376 38.2575 40.2932 38.9608 40.7526C40.0453 41.461 40.5529 42.4561 40.4892 43.7559C40.4026 45.553 39.2526 46.6749 37.7692 47.227C37.1824 47.4457 36.5728 47.5028 35.9599 47.5501C33.6336 47.7294 31.3027 47.7795 28.9708 47.7346C27.4219 47.7052 25.8751 47.6207 24.3305 47.4808C22.7085 47.3319 21.0936 47.1352 19.4903 46.8501C16.287 46.2812 13.1657 45.4369 10.2055 44.0561C8.4519 43.238 6.80789 42.2458 5.33152 40.9914C3.33773 39.2973 1.76771 37.2848 0.841521 34.8171C-0.111825 32.2825 -0.0467389 29.7414 0.88975 27.2119C1.5083 25.5426 2.44151 24.055 3.53159 22.6587C4.39154 21.5687 5.3361 20.5482 6.35651 19.6067C8.32875 17.7707 10.4771 16.1641 12.7438 14.707C14.965 13.2759 17.2729 11.984 19.6542 10.8388C19.716 10.8098 19.7703 10.7559 19.9005 10.7845Z" fill="#919191"/>
<path d="M27.5422 7.97026C26.7232 8.49283 25.9033 9.01773 25.0849 9.53795C22.9618 10.8823 20.8486 12.2416 18.801 13.6992C17.4394 14.6685 16.1063 15.6752 14.8298 16.7545C13.7472 17.6695 12.7007 18.6247 11.7394 19.6684C10.7392 20.7538 9.82336 21.9005 9.1135 23.2009C8.38772 24.5297 7.93305 25.9279 8.03654 27.4666C8.11099 28.559 8.4912 29.5432 9.09617 30.4465C9.87112 31.6035 10.8853 32.5241 12.041 33.2728C12.8585 33.8024 13.7842 34.1348 14.7029 34.456C16.139 34.9561 17.6126 35.2989 19.1129 35.5452C20.07 35.7013 21.0309 35.8197 21.9958 35.9006C22.6926 35.9586 23.3914 35.9966 24.0922 36.0144C24.8713 36.0336 25.6505 36.0771 26.4287 36.0392C27.3142 35.9966 28.201 35.9924 29.086 35.9207C29.8605 35.8598 30.6364 35.8154 31.4094 35.7334C32.2953 35.6398 33.1799 35.533 34.062 35.4057C34.9442 35.2783 35.8269 35.1533 36.7043 34.9945C38.8495 34.6059 40.9783 34.1428 43.0907 33.6052C45.4757 32.9978 47.8315 32.2939 50.1584 31.4935C53.305 30.4137 56.3923 29.1839 59.4203 27.8042C60.2547 27.423 61.5742 27.7662 61.8467 28.8886C61.9807 29.443 61.6505 30.1033 61.1004 30.32C59.8052 30.83 58.4918 31.2926 57.1765 31.7491C52.8152 33.2625 48.3992 34.5928 43.9191 35.7081C40.956 36.4452 37.9747 37.0759 34.9625 37.5689C33.3878 37.8269 31.806 38.04 30.2173 38.1964C28.7904 38.3369 27.3608 38.4336 25.9286 38.4867C25.0549 38.5171 24.1816 38.5335 23.3097 38.5045C20.7344 38.4221 18.1825 38.1613 15.697 37.4364C14.3143 37.0333 12.9784 36.5084 11.7535 35.7461C9.96851 34.6359 8.39662 33.2892 7.30748 31.4555C6.59387 30.254 6.24035 28.9504 6.32744 27.5485C6.4239 25.9874 6.99563 24.5826 7.79586 23.2613C8.49307 22.1089 9.33732 21.0708 10.2546 20.0875C11.7099 18.5268 13.3333 17.1572 15.0241 15.863C17.777 13.7559 20.696 11.8988 23.6773 10.1373C24.8985 9.41574 26.1333 8.71758 27.3619 8.00866C27.4144 7.97869 27.4692 7.95341 27.5225 7.92578L27.5422 7.97026Z" fill="#919191"/>
<path d="M24.0051 13.4586C24.6668 12.9435 25.3349 12.4467 26.0153 11.9673C28.8355 9.97862 31.8019 8.23675 34.8806 6.67983C38.3718 4.91642 41.9651 3.3965 45.6835 2.17719C48.0603 1.3971 50.4703 0.745302 52.9412 0.342611C54.5286 0.0836721 56.1253 -0.0825548 57.7375 0.0424665C58.5405 0.104275 59.3295 0.237256 60.0787 0.559877C61.6468 1.23696 62.2546 2.54804 61.7536 4.17941C61.4258 5.24701 60.8241 6.1643 60.1471 7.0357C58.6871 8.91242 56.9363 10.4956 55.1134 12.0047C54.4827 12.5273 53.8356 13.0288 53.1772 13.5157C53.1122 13.5626 53.0555 13.6417 52.9511 13.6094C54.2041 12.4247 55.3888 11.19 56.2728 9.70095C56.7097 8.96533 57.052 8.19273 57.1156 7.3232C57.1957 6.19941 56.7218 5.32848 55.82 4.71087C55.3124 4.36296 54.6962 4.22436 54.0955 4.08248C52.5938 3.72755 51.0715 3.68541 49.5408 3.8123C45.8693 4.11619 42.3767 5.15944 38.9449 6.42651C34.3126 8.13654 29.8807 10.282 25.562 12.6677C25.1224 12.9075 24.6902 13.1575 24.2552 13.401C24.1831 13.4418 24.117 13.5101 24.0051 13.4586Z" fill="#EC1A3D"/>
<path d="M56.0523 65.0498C55.0409 64.4523 55.1762 63.0115 56.0284 62.3541C56.2391 62.1916 56.2302 62.1804 56.0012 62.0291C55.0568 61.4064 54.6967 60.365 55.0179 59.1447C55.275 58.1717 55.8771 57.4876 56.8263 57.1552C57.9585 56.7586 59.1043 56.7885 60.2445 57.1552C60.435 57.2165 60.6261 57.4389 60.7848 57.3565C60.9084 57.2919 60.9141 57.0133 60.9862 56.8358C61.2442 56.2056 61.6618 55.9246 62.3389 55.9256C62.5887 55.9227 62.8381 55.9435 63.0839 55.9878C63.2351 56.0169 63.3133 56.0721 63.2848 56.2486C63.238 56.5329 63.2066 56.8204 63.1874 57.1079C63.1757 57.2844 63.0567 57.2821 62.9439 57.2835C62.6161 57.2886 62.2884 57.3036 61.9704 57.3888C61.865 57.4153 61.7624 57.452 61.6642 57.4984C61.3537 57.651 61.3214 57.7831 61.5134 58.0687C62.1994 59.0853 62.0158 60.6628 61.1126 61.6082C60.5348 62.2131 59.8015 62.451 59.0008 62.5409C58.3382 62.6154 57.6775 62.6126 57.0281 62.4388C56.9344 62.414 56.8815 62.4491 56.8216 62.5035C56.6991 62.6077 56.6079 62.744 56.5583 62.897C56.5087 63.05 56.5026 63.2139 56.5407 63.3702C56.6062 63.6933 56.8352 63.8553 57.1311 63.9349C57.7234 64.0932 58.3317 64.1166 58.9395 64.1315C59.6713 64.1498 60.4065 64.1119 61.129 64.272C61.2887 64.3062 61.4462 64.3495 61.601 64.4017C62.6967 64.7815 63.185 65.5934 63.0291 66.7429C62.8292 68.2118 61.9095 69.0776 60.6134 69.6128C59.6301 70.0188 58.5958 70.045 57.5535 69.9617C57.0234 69.9195 56.5037 69.8235 56.0083 69.6128C54.3909 68.9222 53.9419 66.7359 55.1692 65.5325C55.4112 65.2956 55.7025 65.1547 56.0523 65.0498ZM58.8744 68.9765C59.1781 68.9691 59.4804 68.9316 59.7767 68.8646C60.4355 68.7091 61.0372 68.4469 61.4404 67.8705C62.0912 66.9401 61.6665 65.8355 60.5699 65.5981C60.3337 65.5485 60.0946 65.5143 59.8539 65.4955C58.8763 65.4136 57.8911 65.4927 56.9152 65.3597C56.8696 65.3535 56.823 65.3607 56.7813 65.3804C56.3248 65.6192 55.9357 65.9324 55.828 66.4643C55.6454 67.3652 55.946 68.3373 56.9686 68.7302C57.5853 68.9676 58.2259 68.998 58.8744 68.9765ZM56.3051 59.6879C56.2958 60.6787 56.7926 61.3268 57.7497 61.5665C58.1501 61.6742 58.5703 61.6858 58.976 61.6002C59.6709 61.4457 60.2337 61.1011 60.4247 60.3711C60.6209 59.6219 60.5334 58.9097 59.9256 58.3534C59.4363 57.9058 58.8285 57.7878 58.1879 57.8177C57.0487 57.8711 56.3154 58.6053 56.3051 59.6879Z" fill="#EC1A3D"/>
<path d="M53.1772 57.1534C53.1251 57.3106 53.0349 57.4523 52.9145 57.566C51.9176 58.5961 50.7957 59.4745 49.6232 60.2911C49.4509 60.411 49.4177 60.4611 49.6012 60.6114C50.7915 61.583 51.7795 62.7499 52.7581 63.9247C53.107 64.3461 53.4605 64.7624 53.7372 65.2358C53.8753 65.4699 53.8641 65.4849 53.5925 65.4854C53.07 65.4854 52.5474 65.4774 52.0248 65.4901C51.8549 65.4938 51.7743 65.4432 51.6905 65.2901C51.3744 64.7044 50.9371 64.2019 50.5199 63.6897C49.8836 62.911 49.2514 62.1281 48.5107 61.4421C48.3713 61.3059 48.2137 61.1898 48.0424 61.097C47.9151 61.0324 47.8275 61.0169 47.8322 61.2159C47.8584 62.3299 47.8767 63.4438 47.8996 64.5583C47.9048 64.8074 47.9151 65.0565 47.9291 65.3075C47.9361 65.4292 47.9113 65.4948 47.7662 65.4896C47.3686 65.4807 46.9701 65.4793 46.5731 65.4896C46.4134 65.4938 46.3764 65.439 46.3816 65.2892C46.4134 64.3705 46.4518 63.4513 46.4616 62.5322C46.4878 60.0224 46.5426 57.5117 46.3862 55.0033C46.3521 54.4517 46.3048 53.9005 46.2523 53.3504C46.2387 53.2099 46.2678 53.1556 46.4143 53.1504C46.8657 53.1342 47.317 53.1114 47.768 53.0821C47.9085 53.0727 47.9338 53.1289 47.9291 53.2567C47.8397 55.5399 47.8355 57.824 47.8355 60.1081C47.8355 60.2017 47.7807 60.3352 47.8823 60.3857C47.9839 60.4363 48.085 60.3338 48.1721 60.2734C48.6872 59.9161 49.1325 59.4773 49.5843 59.0489C50.0704 58.5872 50.5522 58.1204 50.9736 57.5973C51.0078 57.5655 51.0365 57.5281 51.0584 57.4868C51.1619 57.1656 51.3997 57.1394 51.6924 57.152C52.1751 57.1694 52.664 57.1534 53.1772 57.1534Z" fill="#EC1A3D"/>
<path d="M32.2991 60.9423C32.2991 62.1672 32.0922 63.2034 31.4202 64.0954C29.8708 66.1524 26.9644 66.3898 25.1977 64.7238C24.5422 64.1034 24.1924 63.3191 24.0739 62.4407C23.9335 61.4161 24.0023 60.4043 24.3853 59.4303C25.0048 57.8556 26.5861 56.7815 28.2835 56.7805C29.9354 56.7805 31.1557 57.5021 31.9002 58.9813C32.2275 59.6326 32.3062 60.3485 32.2991 60.9423ZM25.5372 61.3122C25.5338 62.0618 25.7276 62.7991 26.0991 63.4502C26.5674 64.272 27.2543 64.7145 28.2156 64.7009C29.1769 64.6873 29.8544 64.2326 30.2707 63.3982C31.0541 61.8202 30.9501 60.2774 29.9865 58.8094C29.1694 57.5625 27.1349 57.6215 26.3201 58.7364C25.7751 59.4814 25.5325 60.3162 25.5372 61.3122Z" fill="#919191"/>
<path d="M7.66149 61.6427C7.67132 60.3901 7.90123 59.3015 8.64855 58.3762C10.2846 56.3525 13.2987 56.2223 14.9591 58.0709C15.5051 58.6796 15.7855 59.4068 15.8932 60.2005C16.0243 61.1618 15.9593 62.1128 15.6338 63.0353C14.9905 64.8614 13.0744 66.0072 11.148 65.7946C9.68992 65.634 8.0211 64.5571 7.72657 62.4785C7.68256 62.1713 7.64089 61.8604 7.66149 61.6427ZM14.4173 61.3618C14.4292 60.4601 14.1652 59.5764 13.6606 58.829C12.8145 57.5488 10.7135 57.6116 9.88987 58.829C8.94401 60.2277 8.94214 62.369 9.93435 63.7418C10.1592 64.0545 10.4581 64.3065 10.8043 64.4752C11.1505 64.6439 11.5332 64.724 11.9179 64.7084C12.3027 64.6927 12.6776 64.5818 13.009 64.3856C13.3404 64.1894 13.6179 63.9139 13.8166 63.584C14.2244 62.9165 14.4329 62.1462 14.4173 61.3641V61.3618Z" fill="#919191"/>
<path d="M46.2261 13.1313C46.4968 12.5357 46.7763 11.9439 46.9112 11.2977C46.9603 11.0769 46.9893 10.8522 46.9978 10.6262C47.0236 9.5811 46.4453 8.95786 45.4006 8.88856C44.253 8.81224 43.153 9.06228 42.0677 9.3835C39.7264 10.076 37.506 11.0804 35.3015 12.1176C35.14 12.1934 34.9915 12.3245 34.7612 12.3011C36.2352 11.3107 37.7612 10.3999 39.3326 9.57267C41.1644 8.61558 43.0388 7.76759 45.0452 7.23566C46.0201 6.97719 47.0076 6.80581 48.0209 6.83063C48.6294 6.83771 49.2318 6.95248 49.8003 7.16964C50.4291 7.41687 50.6997 7.96565 50.5073 8.6212C50.3055 9.30811 49.8518 9.83629 49.3807 10.3476C48.5603 11.2401 47.6201 12.0019 46.6986 12.7825C46.5511 12.908 46.3999 13.0293 46.25 13.1524L46.2261 13.1313Z" fill="#EC1A3D"/>
<path d="M37.3075 56.9155C37.9929 56.9008 38.6779 56.9619 39.35 57.0976C39.5293 57.1356 39.5813 57.1913 39.534 57.3734C39.4572 57.6666 39.4005 57.9653 39.3401 58.2631C39.3149 58.3881 39.2708 58.4214 39.136 58.3764C38.2838 58.0903 37.4105 57.9807 36.5138 58.0922C36.3513 58.1108 36.1918 58.1498 36.039 58.2083C35.3366 58.4846 35.2144 59.3321 35.8124 59.8027C36.084 60.0167 36.3972 60.159 36.7119 60.2957C37.4611 60.6235 38.2416 60.8801 38.9168 61.3596C40.1038 62.2024 40.2209 63.9818 39.1468 64.9421C38.7253 65.3195 38.2103 65.4975 37.6638 65.5785C36.4712 65.7559 35.2884 65.6408 34.1113 65.4197C33.9535 65.3898 33.901 65.3336 33.9394 65.1734C34.0125 64.8705 34.0719 64.5647 34.1342 64.259C34.159 64.1368 34.181 64.0665 34.3449 64.1255C35.1597 64.4229 36.0058 64.5315 36.8701 64.5076C37.2223 64.4982 37.5725 64.4538 37.9003 64.3203C38.2459 64.1798 38.4936 63.9541 38.5366 63.5557C38.5797 63.1572 38.4458 62.8346 38.1199 62.6009C37.6793 62.2844 37.1764 62.0901 36.6782 61.8892C36.15 61.6761 35.6265 61.4523 35.1522 61.1334C34.3908 60.6184 33.9872 59.9235 34.1258 58.9861C34.2578 58.0912 34.7813 57.4924 35.6087 57.152C36.1757 56.9178 36.7742 56.8972 37.3075 56.9155Z" fill="#919191"/>
<path d="M3.35271 56.9159C4.04161 56.9008 4.7301 56.961 5.40596 57.0952C5.61293 57.1378 5.63353 57.2296 5.59326 57.4019C5.52818 57.6665 5.46403 57.932 5.42142 58.198C5.39238 58.381 5.34275 58.4199 5.15358 58.3576C4.23816 58.0551 3.3012 57.9428 2.34692 58.138C1.96671 58.2181 1.62021 58.3778 1.53124 58.8114C1.43197 59.2932 1.61412 59.6542 2.06176 59.9309C2.60867 60.2699 3.2216 60.4624 3.8041 60.7223C4.39596 60.9859 4.96862 61.2776 5.43031 61.7524C6.31998 62.6716 6.14532 64.9336 4.29482 65.4473C3.57981 65.6458 2.85684 65.6814 2.12029 65.6458C1.51368 65.6178 0.909501 65.5509 0.311463 65.4454C-0.0322287 65.3841 -0.0336334 65.3902 0.0366033 65.0615C0.0956021 64.7876 0.162561 64.5155 0.209854 64.2397C0.233734 64.0992 0.27494 64.0777 0.407453 64.1255C1.22314 64.4195 2.06878 64.5314 2.9327 64.5071C3.27639 64.4972 3.61586 64.4556 3.94036 64.3329C4.30887 64.1924 4.56827 63.9545 4.6151 63.5439C4.66192 63.1225 4.48305 62.7999 4.14264 62.5662C3.78069 62.3176 3.37893 62.1448 2.97437 61.9818C2.35956 61.7341 1.7457 61.485 1.19504 61.1114C0.461301 60.6164 0.0726581 59.9389 0.187378 59.0455C0.302566 58.1347 0.817635 57.5049 1.66516 57.1547C2.2308 56.9206 2.82968 56.8939 3.35271 56.9159Z" fill="#919191"/>
<path d="M19.4378 58.241C19.553 58.0963 19.6649 57.9492 19.7843 57.8078C20.5302 56.9224 21.478 56.7061 22.5694 56.9734C22.7876 57.0268 23.0822 57.0123 23.1969 57.1734C23.3116 57.3344 23.121 57.5751 23.0719 57.7821C23.0227 57.989 22.9464 58.1843 22.9042 58.3908C22.8733 58.542 22.8167 58.5533 22.6837 58.5046C22.1101 58.2943 21.5299 58.2236 20.9198 58.3641C20.0685 58.5575 19.4144 59.4757 19.4439 60.2371C19.4935 61.5145 19.4622 62.7946 19.4697 64.0734C19.4725 64.4705 19.4842 64.8694 19.5076 65.2642C19.5174 65.4341 19.4809 65.4983 19.2959 65.4927C18.9213 65.4781 18.5467 65.4795 18.1722 65.4927C17.9909 65.4987 17.9502 65.4374 17.9568 65.2642C18.0036 64.0341 18.0574 62.8049 18.0757 61.5739C18.0963 60.1692 17.9905 58.7766 17.7095 57.4C17.6749 57.23 17.7142 57.1794 17.8781 57.1603C18.2719 57.1134 18.6647 57.0572 19.0562 56.9936C19.1751 56.9744 19.221 56.9959 19.2435 57.1209C19.3034 57.4838 19.3666 57.849 19.4378 58.241Z" fill="#919191"/>
<path d="M37.2349 13.7601C37.0429 14.167 36.8481 14.5725 36.6594 14.9804C36.5449 15.22 36.4602 15.4727 36.407 15.7328C36.2928 16.3299 36.5475 16.6623 37.1562 16.7129C37.8586 16.7719 38.5357 16.623 39.209 16.4525C40.7879 16.0527 42.3107 15.4847 43.8259 14.8942C43.9047 14.858 43.9907 14.8402 44.0773 14.8422C43.6231 15.1129 43.1732 15.3901 42.7148 15.6532C41.1115 16.5724 39.4679 17.4082 37.7116 18.0001C36.8158 18.3016 35.9037 18.5344 34.9489 18.5236C34.5501 18.5268 34.155 18.4471 33.7886 18.2895C33.3555 18.0951 33.2267 17.7908 33.3742 17.3403C33.4656 17.0823 33.6022 16.8427 33.7778 16.6328C34.7279 15.4425 35.9486 14.5683 37.2349 13.7601Z" fill="#EC1A3D"/>
<path d="M42.8051 65.4913C42.1496 65.4913 41.7076 65.023 41.7038 64.3338C41.6991 63.5897 42.2578 63.0555 43.0379 63.0569C43.6775 63.0569 44.1148 63.513 44.1195 64.1779C44.1232 64.92 43.551 65.4918 42.8051 65.4913Z" fill="#919191"/>
<path d="M42.963 13.5027C43.1353 13.2816 43.2842 13.055 43.36 12.7872C43.493 12.3189 43.2931 11.9912 42.815 11.8881C42.2723 11.7739 41.7455 11.8924 41.223 12.0108C40.5318 12.1672 39.865 12.4084 39.2048 12.6598C39.1112 12.6949 39.0241 12.7586 38.8906 12.7109C39.4186 12.4113 39.9661 12.1476 40.5295 11.9214C41.422 11.5632 42.3341 11.2865 43.308 11.2902C43.6512 11.2888 43.9917 11.3507 44.3124 11.4728C44.7338 11.6358 44.8322 11.95 44.5835 12.3255C44.4042 12.5966 44.1574 12.7998 43.8966 12.9866C43.6108 13.201 43.2966 13.3747 42.963 13.5027Z" fill="#EC1A3D"/>
<path d="M49.0895 16.0176L49.0539 15.9586L48.6933 16.1572L48.529 16.2433C45.336 17.8915 42.0274 19.2448 38.5324 20.1059C36.6501 20.5699 34.7481 20.8939 32.796 20.6931C32.1254 20.6242 31.4783 20.465 30.8762 20.1513C30.3714 19.8885 30.0936 19.4742 30.0427 18.9086C30.0029 18.4726 30.0923 18.054 30.23 17.6443C30.6046 16.5205 31.2372 15.5372 31.9288 14.5904C32.0427 14.4818 32.1355 14.3528 32.2022 14.2102C32.1086 14.2697 32.0149 14.3282 31.9648 14.434C31.9367 14.449 31.91 14.4645 31.9143 14.5015C31.8262 14.5061 31.7841 14.5801 31.727 14.6288C31.0986 15.1776 30.465 15.7208 29.847 16.2803C28.696 17.3222 27.5638 18.3832 26.647 19.6475C26.3398 20.0717 26.0654 20.5161 25.916 21.0241C25.6899 21.7948 25.9001 22.3038 26.6034 22.6836C27.6645 23.2567 28.8178 23.3391 29.9888 23.2923C31.3903 23.2361 32.7552 22.9519 34.1042 22.5871C36.622 21.9058 39.0391 20.9482 41.4145 19.8853C43.8952 18.7734 46.32 17.5493 48.6887 16.2129C48.8469 16.1885 48.9453 16.0673 49.0895 16.0176Z" fill="#EC1A3D"/>
<path d="M46.1929 13.1929L46.1873 13.2107L46.1971 13.1966L46.1929 13.1929Z" fill="#EC1A3D"/>
<path d="M46.2481 13.1574C46.2411 13.1865 46.2285 13.2075 46.1934 13.1954L46.1971 13.1991C46.2069 13.1776 46.2163 13.1556 46.2261 13.1335L46.2481 13.1574Z" fill="#EC1A3D"/>
<path d="M69.7479 11.8873C69.7479 11.8873 69.7479 11.8847 69.7479 11.8831H69.7441L69.7479 11.8873Z" fill="#EC1A3D"/>
<path d="M69.8997 11.7266C69.8644 11.7396 69.8325 11.7605 69.8064 11.7875C69.7803 11.8146 69.7607 11.8472 69.7489 11.883C69.806 11.8436 69.8753 11.8165 69.8997 11.7266Z" fill="#EC1A3D"/>
<path d="M69.6055 11.9795L69.5587 12.0263C69.5282 12.0344 69.4999 12.049 69.4756 12.0691C69.4513 12.0893 69.4318 12.1144 69.4182 12.1429L69.2515 12.2834L69.2047 12.3251C69.2133 12.3374 69.2231 12.3487 69.2342 12.3588L69.281 12.3143C69.3541 12.2871 69.3934 12.223 69.4416 12.1687C69.5002 12.1415 69.5545 12.1106 69.5657 12.0385L69.5573 12.0282L69.5657 12.0385L69.6126 11.9875C69.6795 11.9851 69.7062 11.9322 69.7446 11.8891C69.7147 11.887 69.685 11.8947 69.6599 11.911C69.6348 11.9273 69.6157 11.9514 69.6055 11.9795Z" fill="#EC1A3D"/>
<path d="M69.1345 12.3972L69.1298 12.3925C68.8236 12.6327 68.5211 12.8743 68.2121 13.1131C63.5952 16.703 58.6185 19.6956 53.2821 22.0908C47.8631 24.5397 42.2315 26.2881 36.3433 27.1773C33.8679 27.5517 31.3701 27.7586 28.8669 27.7968C27.0187 27.8244 25.1738 27.7387 23.3303 27.5898C22.1499 27.4962 21.0233 27.2326 19.9487 26.7437C18.9654 26.2961 18.116 25.6789 17.541 24.7401C16.7796 23.4969 16.737 22.1568 17.0633 20.7877C17.5381 18.7953 18.5833 17.1157 19.9693 15.6328C20.0161 15.5803 20.0952 15.5466 20.1041 15.459C20.0835 15.459 20.0653 15.4487 20.0573 15.4548C20.0105 15.4829 19.9637 15.5134 19.921 15.5452C18.5079 16.566 17.1842 17.6902 15.9831 18.9559C14.9703 20.023 14.0549 21.1655 13.3188 22.4434C12.6164 23.6631 12.0826 24.9419 12.0129 26.3729C11.9417 27.8244 12.4371 29.0456 13.53 30.014C14.2792 30.6775 15.1581 31.1078 16.096 31.4266C17.9483 32.0574 19.8686 32.2494 21.8085 32.2831C24.8053 32.335 27.7759 32.0279 30.7263 31.5264C37.9677 30.2954 44.8579 27.9832 51.4358 24.7284C56.0046 22.4718 60.3268 19.7472 64.3331 16.5983C66.0071 15.282 67.6267 13.9012 69.1691 12.4309L69.2338 12.356C69.2227 12.3459 69.2128 12.3346 69.2043 12.3223C69.179 12.3452 69.1546 12.3691 69.1298 12.392L69.1345 12.3972Z" fill="#EC1A3D"/>
</svg>
